<svg xmlns="http://www.w3.org/2000/svg" width="60" height="60" viewBox="0 0 60 60"><linearGradient id="a" gradientUnits="userSpaceOnUse" x1="4.005" y1="16.123" x2="43.672" y2="57.123"><stop offset="0" stop-color="#fee44c"/><stop offset="1" stop-color="#ff3495"/></linearGradient><path d="M4.8 22.5c-.1-.7-.1-1.4-.4-2-.5-1.1-1.2-2.2-1.8-3.3-.7-1.2-.5-2.3.5-2.9 1-.6 2-.2 2.8 1 .2.3.4.6.6.8h.4c.1-.6.3-1.3.1-1.9-.2-1.2-.6-2.4-.9-3.6-.3-1.5.1-2.5 1.3-2.8 1.1-.3 2 .4 2.5 1.8.1.2.2.5.2.7.1 0 .3.1.4.1.2-.6.6-1.2.7-1.9.1-1.3 0-2.6 0-3.9s.7-2.1 1.9-2.1 1.9.7 1.9 2.1c0 .4 0 .8.1 1.3.6-.4 1.2-.7 1.7-1 1.2-.7 2.4-.5 2.9.5.6 1 .2 2.1-.9 2.8-5.2 3.2-8.5 7.7-10 13.5-3.4 13.3 6.3 26.4 20 27.2 3.1.2 6.2.1 8.9 2 1.3.9 2.4 2.1 3.5 3.3.8.8.6 1.8-.2 2.6-.8.7-2 .6-2.7-.3-3.3-3.5-7.9-4.7-12.4-2.9-1.3.5-2.4 1.6-3.5 2.6s-2.1 1.4-3 .7c-1-.7-1-1.8 0-3.1.6-.8 1.3-1.5 2-2.3-1.8-1-3.5-1.9-5.3-2.9-.4-.2-.9-.5-1.2-.8-1.6-1.8-3.7-2.2-6-1.9-.5.1-1 0-1.5 0-1.1-.1-1.8-.8-1.8-1.8 0-1.1.6-1.8 1.8-2 .5-.1 1-.1 1.4-.1.1-.1.1-.2.2-.3-.5-.4-1-.9-1.5-1.1-1.2-.4-2.4-.6-3.6-1-1.4-.4-2.1-1.4-1.8-2.5s1.3-1.6 2.8-1.2c.1.1.3.1.9-.1-.4-.5-.6-1.2-1.1-1.5-1-.7-2.1-1.3-3.2-1.9-1.4-.8-1.8-1.8-1.2-2.8.6-1.1 1.6-1.3 3-.6.3.1.6.3.8.4.1-.1.2-.1.4-.2-.3-.6-.5-1.4-1-1.9-.8-.9-1.7-1.7-2.5-2.6-1-1.1-1.1-2.1-.3-3 .8-.8 1.9-.8 3 .2.3.2.5.5.8.7 0 0 .2 0 .3-.1z" fill="url(#a)"/><linearGradient id="b" gradientUnits="userSpaceOnUse" x1="11.918" y1="8.467" x2="51.585" y2="49.467"><stop offset="0" stop-color="#fee44c"/><stop offset="1" stop-color="#ff3495"/></linearGradient><path d="M30.1 45.9c-10.2 0-18.7-8.3-18.8-18.5C11.2 17 19.6 8.5 30.1 8.5c10.2 0 18.6 8.4 18.7 18.7 0 10.2-8.4 18.7-18.7 18.7zM30 12.3c-8.2 0-14.9 6.8-14.9 14.9.1 8.2 6.7 14.8 15 14.8 8.1 0 14.9-6.8 14.8-14.9-.1-8.2-6.7-14.8-14.9-14.8z" fill="url(#b)"/><linearGradient id="c" gradientUnits="userSpaceOnUse" x1="19.144" y1="1.476" x2="58.811" y2="42.476"><stop offset="0" stop-color="#fee44c"/><stop offset="1" stop-color="#ff3495"/></linearGradient><path d="M44.9 6.1V4.8c.1-1.3.8-2.1 1.9-2.1 1.2 0 1.9.8 1.9 2.2 0 1.2-.1 2.5 0 3.7 0 .6.4 1.3.6 1.9h.5c.1-.4.3-.9.4-1.3.4-1.1 1.4-1.7 2.4-1.3 1.1.4 1.5 1.2 1.2 2.3-.3 1.3-.7 2.7-1 4-.1.6.1 1.3.1 1.9h.4c.3-.4.6-.9.9-1.3.7-.8 1.6-1.1 2.5-.5.9.5 1.2 1.4.8 2.4-.6 1.3-1.5 2.5-2.1 3.7-.3.6-.3 1.3-.4 2 .1 0 .3.1.4.1.3-.3.6-.5.9-.8 1-.9 2.1-.9 2.9-.1.8.8.7 1.9-.2 2.9-.9.9-1.8 1.7-2.6 2.7-.4.5-.7 1.2-1 1.8l.3.3c.5-.2.9-.5 1.4-.7 1-.4 2-.2 2.5.8s.2 1.9-.6 2.5c-1.2.8-2.5 1.4-3.7 2.2-.5.4-.9 1-1.3 1.5l.3.3c.4-.1.8-.2 1.2-.2 1.2-.2 2.2.3 2.4 1.3.3 1-.2 2-1.4 2.4-1.3.4-2.6.6-3.9 1.1-.6.2-1.1.7-1.7 1.1.1.1.1.3.2.4.5 0 1 0 1.5.1 1.1.2 1.7.8 1.7 1.9 0 1.1-.7 1.7-1.7 1.9h-.3c-3.5-.6-6.3.7-8.8 3-.5.7-1.5 1.1-2.4 1.5-1.2.6-2.2.3-2.8-.7-.5-1-.2-2.1 1-2.7 3.9-1.9 7-4.7 9.3-8.4 6.3-10.1 3.1-23.8-7-30.1-.5-.3-1.2-.7-1.3-1.2-.2-.6-.2-1.7.2-2.1.5-.3 1.5-.5 2.2-.4.7.2 1.4.8 2.2 1.3z" fill="url(#c)"/><linearGradient id="d" gradientUnits="userSpaceOnUse" x1="14.463" y1="6.005" x2="54.129" y2="47.005"><stop offset="0" stop-color="#fee44c"/><stop offset="1" stop-color="#ff3495"/></linearGradient><path d="M42.1 27.2c0 5.9-4.7 9.5-9.9 7.6-3.2-1.2-5-4.6-4.5-8.7.4-4 2.6-6.6 6.1-7.1 3.9-.6 7.2 1.7 8 5.6.1 1 .2 1.8.3 2.6zm-10.6.1c0 2.3.8 3.6 2.2 4 2 .6 3.8-.3 4.3-2.3.8-3-.2-5.6-2.3-6h-.1c-2.6-.5-4.1 1.1-4.1 4.3z" fill="url(#d)"/><linearGradient id="e" gradientUnits="userSpaceOnUse" x1="8.843" y1="11.441" x2="48.51" y2="52.441"><stop offset="0" stop-color="#fee44c"/><stop offset="1" stop-color="#ff3495"/></linearGradient><path d="M22.3 25.7c-.8.8-1.3 1.3-1.9 1.7-.9.7-1.8.8-2.6-.1-.8-.8-.8-1.8 0-2.6 1.7-1.7 3.4-3.5 5.2-5.1.4-.4 1.4-.6 1.9-.3.6.3 1.2 1.1 1.2 1.7.1 4.1.1 8.3 0 12.4 0 1.1-.7 1.8-1.9 1.9-1 .1-1.9-.7-1.9-1.9-.1-2 0-4 0-6v-1.7z" fill="url(#e)"/></svg>