<svg xmlns="http://www.w3.org/2000/svg" width="60" height="60" viewBox="0 0 60 60"><linearGradient id="a" gradientUnits="userSpaceOnUse" x1="-2.925" y1="15.728" x2="54.575" y2="54.853"><stop offset="0" stop-color="#fee44c"/><stop offset="1" stop-color="#ff3495"/></linearGradient><path d="M37.7 50.9c-2.7-1.9-5.8-1.8-8.9-2-13.7-.8-23.4-13.9-20-27.2 1.5-5.8 4.8-10.3 10-13.5 1.1-.7 1.5-1.8.9-2.8-.5-1-1.7-1.2-2.9-.5-.5.3-1.1.6-1.7 1-.1-.5-.1-.9-.1-1.3 0-1.4-.7-2.1-1.9-2.1s-1.9.8-1.9 2.1.1 2.6 0 3.9c-.1.7-.5 1.3-.7 1.9-.1 0-.3-.1-.4-.1 0-.2-.1-.5-.2-.7-.5-1.4-1.4-2.1-2.5-1.8-1.2.3-1.6 1.3-1.3 2.8.3 1.2.7 2.4.9 3.6.2.6 0 1.3-.1 1.9h-.4c-.2-.2-.4-.5-.6-.8-.8-1.2-1.8-1.6-2.8-1-1 .6-1.2 1.7-.5 2.9.6 1.1 1.3 2.2 1.8 3.3.3.6.3 1.3.4 2-.1.1-.3.1-.3.1-.3-.2-.5-.5-.8-.7-1.1-1-2.2-1-3-.2-.8.9-.7 1.9.3 3 .8.9 1.7 1.7 2.5 2.6.5.5.7 1.3 1 1.9-.2.1-.3.1-.4.2-.2-.1-.5-.3-.8-.4-1.4-.7-2.4-.5-3 .6-.6 1-.2 2 1.2 2.8 1.1.6 2.2 1.2 3.2 1.9.5.3.7 1 1.1 1.5-.6.2-.8.2-.9.1-1.5-.4-2.5.1-2.8 1.2-.3 1.1.4 2.1 1.8 2.5 1.2.4 2.4.6 3.6 1 .5.2 1 .7 1.5 1.1-.1.1-.1.2-.2.3-.4 0-.9 0-1.4.1-1.2.2-1.8.9-1.8 2 0 1 .7 1.7 1.8 1.8.5 0 1 .1 1.5 0 2.3-.3 4.4.1 6 1.9.3.3.8.6 1.2.8 1.8 1 3.5 1.9 5.3 2.9-.7.8-1.4 1.5-2 2.3-1 1.3-1 2.4 0 3.1.9.7 1.9.3 3-.7s2.2-2.1 3.5-2.6c4.5-1.8 9.1-.6 12.4 2.9.7.9 1.9 1 2.7.3.8-.8 1-1.8.2-2.6-1.1-1.2-2.2-2.4-3.5-3.3z" fill="url(#a)"/><linearGradient id="b" gradientUnits="userSpaceOnUse" x1="2.177" y1="8.23" x2="59.677" y2="47.355"><stop offset="0" stop-color="#fee44c"/><stop offset="1" stop-color="#ff3495"/></linearGradient><path d="M11.3 27.4c.1 10.2 8.6 18.5 18.8 18.5 10.3 0 18.7-8.5 18.7-18.7-.1-10.3-8.5-18.7-18.7-18.7-10.5 0-18.9 8.5-18.8 18.9zM30 12.3c8.2 0 14.8 6.6 14.9 14.8C45 35.2 38.2 42 30.1 42c-8.3 0-14.9-6.6-15-14.8 0-8.1 6.7-14.9 14.9-14.9z" fill="url(#b)"/><linearGradient id="c" gradientUnits="userSpaceOnUse" x1="6.636" y1="1.677" x2="64.136" y2="40.802"><stop offset="0" stop-color="#fee44c"/><stop offset="1" stop-color="#ff3495"/></linearGradient><path d="M59.6 29.4c-.5-1-1.5-1.2-2.5-.8-.5.2-.9.5-1.4.7l-.3-.3c.3-.6.6-1.3 1-1.8.8-1 1.7-1.8 2.6-2.7.9-1 1-2.1.2-2.9-.8-.8-1.9-.8-2.9.1-.3.3-.6.5-.9.8-.1 0-.3-.1-.4-.1.1-.7.1-1.4.4-2 .6-1.2 1.5-2.4 2.1-3.7.4-1 .1-1.9-.8-2.4-.9-.6-1.8-.3-2.5.5-.3.4-.6.9-.9 1.3h-.4c0-.6-.2-1.3-.1-1.9.3-1.3.7-2.7 1-4 .3-1.1-.1-1.9-1.2-2.3-1-.4-2 .2-2.4 1.3-.1.4-.3.9-.4 1.3h-.5c-.2-.6-.6-1.3-.6-1.9-.1-1.2 0-2.5 0-3.7 0-1.4-.7-2.2-1.9-2.2-1.1 0-1.8.8-1.9 2.1v1.3c-.8-.5-1.5-1.1-2.2-1.3-.7-.1-1.7.1-2.2.4-.4.4-.4 1.5-.2 2.1.1.5.8.9 1.3 1.2 10.1 6.3 13.3 20 7 30.1-2.3 3.7-5.4 6.5-9.3 8.4-1.2.6-1.5 1.7-1 2.7.6 1 1.6 1.3 2.8.7.9-.4 1.9-.8 2.4-1.5 2.5-2.3 5.3-3.6 8.8-3h.3c1-.2 1.7-.8 1.7-1.9 0-1.1-.6-1.7-1.7-1.9-.5-.1-1-.1-1.5-.1-.1-.1-.1-.3-.2-.4.6-.4 1.1-.9 1.7-1.1 1.3-.5 2.6-.7 3.9-1.1 1.2-.4 1.7-1.4 1.4-2.4-.2-1-1.2-1.5-2.4-1.3-.4 0-.8.1-1.2.2l-.3-.3c.4-.5.8-1.1 1.3-1.5 1.2-.8 2.5-1.4 3.7-2.2.8-.6 1.1-1.5.6-2.5z" fill="url(#c)"/><linearGradient id="d" gradientUnits="userSpaceOnUse" x1=".209" y1="11.122" x2="57.709" y2="50.247"><stop offset="0" stop-color="#fee44c"/><stop offset="1" stop-color="#ff3495"/></linearGradient><path d="M19.9 33.8c.1.1.2.1.3.2s.3 0 .4 0h8.2c.1 0 .1 0 .2-.1.1 0 .1-.1.1-.2s.1-.2.1-.4v-1c0-.2-.1-.3-.1-.4s-.1-.2-.2-.2-.1-.1-.2-.1h-5.6l1.7-1.7c.8-.8 1.5-1.6 2-2.2.5-.6.9-1.2 1.2-1.7.3-.5.5-1 .6-1.4.1-.4.1-.9.1-1.4 0-.5-.1-1-.3-1.5-.2-.5-.5-.9-.8-1.2-.4-.3-.8-.6-1.4-.8-.6-.2-1.2-.3-1.9-.3-.5 0-.9 0-1.4.1l-1.2.3c-.4.1-.7.3-.9.4-.2.1-.4.2-.5.3l-.2.2c0 .1-.1.1-.1.2v1.3c0 .2 0 .3.1.4 0 .1.1.2.1.2s.1.1.2.1.2-.1.4-.2.4-.2.6-.4c.3-.1.5-.3.9-.4.3-.1.7-.2 1.2-.2.3 0 .6 0 .8.1.2.1.4.2.6.4.2.2.3.4.3.6.1.2.1.4.1.7 0 .3 0 .5-.1.8-.1.3-.2.6-.3 1-.2.3-.4.7-.7 1.2-.3.4-.7.9-1.2 1.4l-2.5 2.6c-.1.2-.3.3-.4.4-.1.1-.2.3-.2.4-.1.1-.1.3-.1.5V33c0 .6.1.7.1.8z" fill="url(#d)"/><linearGradient id="e" gradientUnits="userSpaceOnUse" x1="4.15" y1="5.331" x2="61.65" y2="44.456"><stop offset="0" stop-color="#fee44c"/><stop offset="1" stop-color="#ff3495"/></linearGradient><path d="M31.3 33.1c0 .1 0 .2.1.2 0 .1.1.1.1.2.1.1.2.1.4.2s.5.2.8.3c.3.1.7.2 1.1.2.4.1.8.1 1.3.1.8 0 1.6-.1 2.3-.3s1.3-.5 1.8-1 .9-.9 1.1-1.5c.3-.6.4-1.3.4-2.1 0-.7-.1-1.3-.3-1.8-.2-.5-.5-1-.9-1.3-.4-.3-.9-.6-1.5-.8-.6-.2-1.3-.3-2.1-.3h-.8c-.3 0-.5 0-.8.1v-3.1h5.1c.1 0 .3-.1.3-.3.1-.2.1-.5.1-1v-.6c0-.2 0-.3-.1-.4 0-.1-.1-.2-.2-.2s-.1-.1-.2-.1h-6.8c-.3 0-.4.1-.5.2s-.2.3-.2.6v6.2c0 .3 0 .5.1.6.1.1.2.2.5.2s.6 0 1-.1c.3 0 .7-.1 1.2-.1s1 0 1.4.1c.4.1.7.2.9.4.2.2.4.4.5.7.1.3.2.6.2.9 0 .4-.1.8-.2 1.1-.1.3-.3.5-.6.7-.2.2-.5.3-.9.4-.3.1-.7.1-1.2.1s-.9 0-1.3-.1-.7-.2-.9-.3l-.6-.3c-.2-.1-.3-.1-.3-.1-.1 0-.1 0-.2.1 0 0-.1.1-.1.2s-.1.2-.1.3v1c.1.5.1.6.1.7z" fill="url(#e)"/></svg>