<svg version="1.1" id="Capa_1" xmlns="http://www.w3.org/2000/svg" x="0" y="0" viewBox="0 0 512 512" xml:space="preserve"><style>.st0{fill:#a8acae}</style><path class="st0" d="M368.7 81.4C332 29.7 274.6 0 211 0 146.4 0 88.3 30.5 51.8 83.6 15.6 136.2 7.5 202.5 29.9 261c5.9 16.1 15.4 31.6 28 46.3l140.4 164.9c3.2 3.7 7.8 5.9 12.7 5.9s9.6-2.2 12.7-5.9l31.8-37.3-25.5-21.8-19 22.4-127.7-150c-10.1-11.7-17.5-23.8-22.1-36.3C42.6 200.8 49.4 146 79.3 102.6c30.2-43.9 78.2-69.1 131.7-69.1 52.6 0 100.1 24.5 130.4 67.3 30 42.4 37.9 96.4 21 144.4l31.5 11.1C414.4 198 405 132.6 368.7 81.4z"/><path class="st0" d="M211 99.2c-51.6 0-93.6 42-93.6 93.6s42 93.6 93.6 93.6 93.6-42 93.6-93.6-42-93.6-93.6-93.6zm0 153.7c-33.2 0-60.2-27-60.2-60.2s27-60.2 60.2-60.2 60.2 27 60.2 60.2-27 60.2-60.2 60.2z"/><path class="st0" d="M354.7 232.3c-77.1 0-139.8 62.7-139.8 139.8 0 77.1 62.7 139.8 139.8 139.8 77.1 0 139.8-62.7 139.8-139.8.1-77.1-62.7-139.8-139.8-139.8zm0 246.3c-58.7 0-106.4-47.7-106.4-106.4S296 265.8 354.7 265.8s106.4 47.7 106.4 106.4c0 58.6-47.7 106.4-106.4 106.4z"/><path class="st0" d="M354.7 300.3c-9.2 0-16.7 7.5-16.7 16.7v121.5c0 9.2 7.5 16.7 16.7 16.7s16.7-7.5 16.7-16.7V317c0-9.2-7.4-16.7-16.7-16.7z"/><path class="st0" d="M421.7 358.7l-55.2-55.2c-6.3-6.3-17.4-6.3-23.6 0l-55.1 55.2c-6.5 6.5-6.5 17.1 0 23.6s17.1 6.5 23.6 0l43.3-43.3 43.3 43.3c3.3 3.3 7.5 4.9 11.8 4.9 4.3 0 8.6-1.6 11.8-4.9 6.6-6.5 6.6-17.1.1-23.6z"/></svg>