<?xml version="1.0" encoding="utf-8"?>
<!-- Generator: Adobe Illustrator 22.0.1, SVG Export Plug-In . SVG Version: 6.00 Build 0)  -->
<svg version="1.1" id="Layer_1" xmlns="http://www.w3.org/2000/svg" xmlns:xlink="http://www.w3.org/1999/xlink" x="0px" y="0px"
	 viewBox="0 0 41 39" style="enable-background:new 0 0 41 39;" xml:space="preserve">
<style type="text/css">
	.st0{fill:#EEEFF5;}
	.st1{fill:#FFFFFF;fill-opacity:0;}
	.st2{fill:#7A8187;}
</style>
<circle class="st0" cx="20.5" cy="19" r="19"/>
<rect class="st1" width="41" height="39"/>
<g>
	<g>
		<g>
			<path class="st2" d="M33.4,12.9C33.4,5.8,27.6,0,20.5,0S7.6,5.9,7.6,12.9c0,2.9,2,7.8,6.1,14.3c2.1,3.4,4.2,6.5,5.3,8h-4.6v2.1
				h12.3v-2.2H22c1.1-1.5,3.2-4.6,5.3-8C31.4,20.7,33.4,15.9,33.4,12.9z M20.5,33.7C16.9,28.6,9.7,17.6,9.7,12.9
				c0-6,4.8-10.8,10.8-10.8s10.8,4.8,10.8,10.8C31.3,17.6,24.1,28.6,20.5,33.7z"/>
		</g>
	</g>
	<g>
		<g>
			<path class="st2" d="M20.5,6.1c-3.6,0-6.7,2.9-6.7,6.7s2.9,6.7,6.7,6.7s6.7-2.9,6.7-6.7C27.2,9.1,24.1,6.1,20.5,6.1z M20.5,17.2
				c-2.5,0-4.5-2-4.5-4.5s2-4.5,4.5-4.5s4.5,2,4.5,4.5S23,17.2,20.5,17.2z"/>
		</g>
	</g>
</g>
</svg>
