<svg version="1.1" id="Layer_1" xmlns="http://www.w3.org/2000/svg" x="0" y="0" viewBox="0 0 41 39" xml:space="preserve"><style>.st2{fill:#7a8187}</style><circle cx="20.5" cy="19" r="19" fill="#eeeff5"/><path fill="#fff" fill-opacity="0" d="M0 0h41v39H0z"/><path class="st2" d="M33.4 12.9C33.4 5.8 27.6 0 20.5 0S7.6 5.9 7.6 12.9c0 2.9 2 7.8 6.1 14.3 2.1 3.4 4.2 6.5 5.3 8h-4.6v2.1h12.3v-2.2H22c1.1-1.5 3.2-4.6 5.3-8 4.1-6.4 6.1-11.2 6.1-14.2zM20.5 33.7C16.9 28.6 9.7 17.6 9.7 12.9c0-6 4.8-10.8 10.8-10.8s10.8 4.8 10.8 10.8c0 4.7-7.2 15.7-10.8 20.8z"/><path class="st2" d="M20.5 6.1c-3.6 0-6.7 2.9-6.7 6.7s2.9 6.7 6.7 6.7 6.7-2.9 6.7-6.7c0-3.7-3.1-6.7-6.7-6.7zm0 11.1c-2.5 0-4.5-2-4.5-4.5s2-4.5 4.5-4.5 4.5 2 4.5 4.5-2 4.5-4.5 4.5z"/></svg>