<?xml version="1.0" encoding="utf-8"?>
<!-- Generator: Adobe Illustrator 22.0.1, SVG Export Plug-In . SVG Version: 6.00 Build 0)  -->
<svg version="1.1" id="Слой_1" xmlns="http://www.w3.org/2000/svg" xmlns:xlink="http://www.w3.org/1999/xlink" x="0px" y="0px"
	 width="100px" height="100px" viewBox="0 0 100 100" style="enable-background:new 0 0 100 100;" xml:space="preserve">
<style type="text/css">
	.st0{fill:#FEE44C;}
</style>
<g>
	<path class="st0" d="M100,12.7c0,27.5,0,54.9,0,82.4c-0.2,0.5-0.4,1-0.6,1.5c-0.8,1.9-2.4,2.8-4.3,3.4c-30.1,0-60.2,0-90.2,0
		c-0.5-0.2-1-0.4-1.5-0.6C1.5,98.6,0.6,97,0,95.1c0-27.5,0-54.9,0-82.4c0.1-0.1,0.1-0.2,0.1-0.2c1-3.2,2.9-4.6,6.3-4.6
		c0.8,0,1.6,0,2.5,0c0-0.5-0.1-0.9,0-1.2c0.2-1.1,0.3-2.3,0.7-3.4c0.7-1.8,2.4-2.6,4.2-3.2c0.7,0,1.3,0,2,0c0.1,0.1,0.2,0.1,0.3,0.2
		c3,0.9,4.5,2.9,4.5,6.1c0,0.5,0,1,0,1.5c3.9,0,7.8,0,11.7,0c0-0.4-0.1-0.8,0-1.2c0.2-1.1,0.3-2.3,0.7-3.4c0.7-1.8,2.4-2.6,4.2-3.2
		c0.7,0,1.3,0,2,0c0.1,0.1,0.2,0.1,0.3,0.2c3,0.9,4.5,2.9,4.5,6.1c0,0.5,0,1,0,1.5c3.9,0,7.8,0,11.7,0c0-0.4-0.1-0.8,0-1.2
		c0.2-1.1,0.3-2.3,0.7-3.4C57.3,1.4,59,0.6,60.7,0c0.7,0,1.3,0,2,0c0.1,0.1,0.2,0.1,0.3,0.2c3,0.9,4.5,2.9,4.5,6.1c0,0.5,0,1,0,1.5
		c3.9,0,7.8,0,11.7,0c0-0.4-0.1-0.8,0-1.2c0.2-1.1,0.3-2.3,0.7-3.4c0.7-1.8,2.4-2.6,4.2-3.2c0.7,0,1.3,0,2,0
		c0.1,0.1,0.2,0.1,0.3,0.2c3,0.9,4.5,2.9,4.5,6.1c0,0.5,0,1,0,1.5c0.8,0,1.5-0.1,2.2,0c1.2,0.2,2.5,0.3,3.6,0.7
		C98.6,9.2,99.4,10.9,100,12.7z M3.9,28.5c0,0.4,0,0.7,0,1.1c0,21.3,0,42.5,0,63.8c0,2.1,0.6,2.7,2.7,2.7c28.9,0,57.8,0,86.7,0
		c2.1,0,2.7-0.6,2.7-2.7c0-21.3,0-42.5,0-63.8c0-0.3,0-0.7,0-1.1C65.3,28.5,34.7,28.5,3.9,28.5z M96.1,24.6c0-3.7,0-7.3,0-10.8
		c0-1.3-0.8-2-2.2-2c-1.3,0-2.7,0-4,0c-2.2,0-4.4,0-6.7,0c0,0.8,0,1.4,0,2.1c0,1.5,0.5,2.1,2,2.4c1.3,0.2,2,1.1,1.8,2.2
		c-0.2,1.1-1.2,1.8-2.5,1.7c-3-0.3-5.2-2.7-5.3-5.8c0-0.8,0-1.7,0-2.5c-6.6,0-13,0-19.5,0c0,0.7,0,1.4,0,2.1c0,1.4,0.6,2,2,2.3
		c1.3,0.3,2,1.1,1.9,2.2c-0.2,1.2-1.2,1.8-2.5,1.7c-3-0.4-5.1-2.7-5.2-5.8c0-0.8,0-1.7,0-2.5c-6.6,0-13,0-19.5,0c0,0.8,0,1.5,0,2.2
		c0,1.4,0.6,2,1.9,2.3c1.3,0.3,2.1,1.1,1.9,2.2c-0.2,1.2-1.2,1.8-2.6,1.6c-3-0.4-5.1-2.7-5.2-5.8c0-0.8,0-1.7,0-2.5
		c-6.6,0-13,0-19.5,0c0,0.7,0,1.4,0,2c0,1.5,0.5,2.1,2,2.4c1.3,0.2,2,1.1,1.9,2.2c-0.2,1.1-1.2,1.8-2.5,1.7c-3-0.3-5.2-2.7-5.3-5.8
		c0-0.8,0-1.7,0-2.6c-0.9,0-1.7,0-2.5,0c-1.9,0-2.5,0.7-2.5,2.5c0,3.2,0,6.3,0,9.5c0,0.3,0,0.6,0.1,0.9
		C34.7,24.6,65.3,24.6,96.1,24.6z M16.8,7.8c-0.1-1.4,0.4-2.8-1-3.6c-0.7-0.4-1.5-0.4-2.1,0.2c-1.2,0.9-0.7,2.2-0.8,3.4
		C14.2,7.8,15.5,7.8,16.8,7.8z M40.2,7.8c-0.1-1.3,0.4-2.7-1-3.6c-0.7-0.4-1.4-0.4-2,0.1c-1.3,0.9-0.8,2.2-0.9,3.5
		C37.7,7.8,38.9,7.8,40.2,7.8z M63.7,7.8c-0.1-1.3,0.4-2.6-0.9-3.5c-0.7-0.5-1.4-0.5-2.1,0c-1.3,0.9-0.8,2.2-0.9,3.5
		C61.1,7.8,62.3,7.8,63.7,7.8z M87.1,7.8c-0.1-1.3,0.4-2.6-0.9-3.5c-0.7-0.5-1.4-0.5-2.1,0c-1.3,0.9-0.8,2.2-0.9,3.5
		C84.5,7.8,85.7,7.8,87.1,7.8z"/>
	<path class="st0" d="M51.7,65.6c0.8,0.6,1.3,1,1.8,1.4c2.5,1.6,4.8,3.3,6.5,5.8c2,2.8,3,5.9,3.4,9.3c0,0.4,0.1,0.7,0.2,1.1
		c0.7,0,1.3,0,1.9,0c1.2,0.1,2,0.9,2.1,1.9c0,1.1-0.8,1.9-2,2c-0.2,0-0.5,0-0.7,0c-9.9,0-19.8,0-29.7,0c-1.8,0-2.7-0.7-2.7-1.9
		c0-1.3,0.9-2,2.8-2c0.4,0,0.7,0,1.2,0c0.3-8.2,4.8-13.6,11.9-17.4c-0.7-0.6-1.2-1-1.6-1.3c-2-1.6-4.1-3-5.9-4.8
		c-2.7-2.8-3.9-6.5-4.4-10.3c0-0.4-0.1-0.8-0.2-1.3c-0.7,0-1.3,0-1.9,0c-1.2-0.1-2-0.9-2.1-1.9c0-1.1,0.8-1.9,2-2c0.2,0,0.5,0,0.7,0
		c9.9,0,19.8,0,29.7,0c1.8,0,2.7,0.7,2.7,1.9c0,1.3-0.9,2-2.8,2c-0.4,0-0.7,0-1.2,0c-0.3,3.8-1.3,7.3-3.4,10.4
		C58.1,61.5,54.9,63.3,51.7,65.6z M59.6,48.1c-6.5,0-12.9,0-19.3,0c0.3,3.5,1.1,6.7,3.6,9.2c1.7,1.7,3.8,3.1,5.7,4.5
		c0.1,0.1,0.6,0,0.8-0.1c1.1-0.7,2.1-1.4,3.1-2.2C57.5,56.7,59.4,52.9,59.6,48.1z M59.7,83.2c-0.3-3.5-1.1-6.7-3.6-9.1
		c-1.7-1.7-3.8-3.1-5.8-4.6c-0.1-0.1-0.5-0.1-0.7,0c-1.7,1.3-3.5,2.5-5.1,3.9c-2.8,2.6-3.9,6-4.2,9.8C46.8,83.2,53.2,83.2,59.7,83.2
		z"/>
	<path class="st0" d="M53.8,36.3c-7.4,0-14.8,0-22.2,0c-0.2,0-0.4,0-0.6,0c-1.6,0-2.5-0.7-2.5-2c0-1.2,0.9-2,2.5-2
		c15.2,0,30.5,0,45.7,0c0.4,0,0.9,0,1.2,0.2c0.8,0.3,1.3,0.9,1.3,1.8c0,0.9-0.4,1.5-1.3,1.8c-0.5,0.1-1,0.2-1.4,0.2
		C69,36.3,61.4,36.3,53.8,36.3z"/>
	<path class="st0" d="M22.7,32.4c1,0,1.9,0.9,1.9,2c0,1-0.9,1.9-2,1.9c-1,0-1.9-0.9-1.9-2C20.7,33.3,21.7,32.4,22.7,32.4z"/>
</g>
</svg>
