<svg xmlns="http://www.w3.org/2000/svg" viewBox="0 0 512 512"><path d="M58.3 288l113.2-151c6.5-8.6 11.6-17.6 15.3-26.9 3.6-9.3 5.5-18 5.5-26v-.4c0-13-3.8-23-11.4-30.1-7.6-7.1-18.4-10.7-32.4-10.7-13.3 0-24 3.9-32.2 11.7-8.2 7.8-13.2 18.9-15 33.2v.2h-47v-.2C57 69.1 62.5 53.2 70.7 40c8.3-13.2 18.9-23.2 32-30.1C115.9 3 131-.5 148.1-.5c19.4 0 35.9 3.3 49.6 9.9 13.7 6.6 24.1 16.3 31.3 28.9 7.1 12.7 10.7 27.9 10.7 45.8v.2c0 11.5-2.4 23.4-7.1 36-4.8 12.5-11.4 24.6-19.9 36.2l-94 127.7h122.8v43.3H58.3V288zm265.3 33.3c-12.7-6.4-23.1-15.7-31-27.9-8-12.2-13.3-26.9-16-44v-.2h45.6v.2c1.6 11.9 6.4 21.2 14.3 27.8 7.9 6.6 18.2 9.9 30.8 9.9 14.6 0 25.9-4.9 33.8-14.6 8-9.7 11.9-23.5 11.9-41.2v-27.2c0-17.6-4-31.2-11.9-41-8-9.7-19.2-14.6-33.8-14.6-7.9 0-15.5 2.2-22.8 6.7-7.3 4.5-13.7 10.7-19.2 18.8h-41.5V2.9h165.5v43.3h-120v73c5.7-4.6 12-8.2 19-10.7s14.1-3.8 21.4-3.8c18.8 0 34.8 3.9 48.1 11.6 13.3 7.7 23.4 19.1 30.4 33.9 6.9 14.9 10.4 32.8 10.4 53.8v27.2c0 21-3.6 38.9-10.7 53.8-7.1 14.9-17.6 26.2-31.3 34.1-13.7 7.8-30.1 11.7-49.3 11.7-16.4.1-30.9-3.1-43.7-9.5zM62.8 483.1c6.2 0 11.1-2.4 14.5-7.3 3.5-4.9 5.2-11.8 5.2-20.7v-76.6h29.4v80.2c0 11.3-1.8 21-5.4 29-3.6 8-8.9 14.1-15.9 18.3-7 4.2-15.4 6.3-25.2 6.3h-2.6v-29.2zM100 378.5h67v29.3h-67v-29.3zm50 0h30.6v132.7H150V378.5zm105.7 134.6s-4.4-2.3-13.3-6.9c-8.9-4.6-15.6-11.4-20.3-20.3-4.7-8.9-7-19.7-7-32.3v-15c0-13.1 2.2-24.3 6.7-33.6s11-16.4 19.6-21.2c8.6-4.9 18.9-7.3 30.9-7.3 11.3 0 21 2.8 29.1 8.5 8.1 5.7 14.2 13.9 18.4 24.6 4.2 10.7 6.3 23.7 6.3 38.9v8.7H236v-22.4h61.7l-.1-1.4c-.9-9.3-3.5-16.5-7.8-21.6-4.3-5.1-10.2-7.7-17.5-7.7-9.2 0-16.3 2.9-21.4 8.6-5 5.8-7.5 13.9-7.5 24.5v16.9c0 10.1 2.7 17.8 8.2 23.2 5.5 5.4 13.1 8.1 23 8.1 5 0 10-1 14.9-2.9s9.3-4.6 13.2-8l19.9 18.7c-6.7 6.3-14.3 11.2-22.7 14.6-8.4 3.5-16.9 5.2-25.4 5.2-12.6.1-18.8.1-18.8.1zm86.9-134.6h105.6v28.6H342.6v-28.6zm37.6 13.9h30.4v118.8h-30.4V392.4z" fill="#212529"/></svg>