<svg xmlns="http://www.w3.org/2000/svg" viewBox="0 0 41 41"><circle cx="20.3" cy="20.5" r="19" fill="#eeeff5"/><path d="M9.6 22.2l6.6-8.8c.4-.5.7-1 .9-1.6.2-.5.3-1 .3-1.5 0-.8-.2-1.3-.7-1.8S15.6 8 14.8 8c-.8 0-1.4.2-1.9.7-.5.5-.8 1.1-.9 1.9H9.3c.2-1.1.5-2 1-2.8.5-.8 1.1-1.4 1.9-1.8.8-.4 1.6-.6 2.6-.6 1.1 0 2.1.2 2.9.6s1.4.9 1.8 1.7c.4.7.6 1.6.6 2.7 0 .7-.1 1.4-.4 2.1-.3.7-.7 1.4-1.2 2.1L13.1 22h7.1v2.5H9.6v-2.3zm15.4 2c-.7-.4-1.3-.9-1.8-1.6-.5-.7-.8-1.6-.9-2.6H25c.1.7.4 1.2.8 1.6.5.4 1.1.6 1.8.6.8 0 1.5-.3 2-.8.5-.6.7-1.4.7-2.4v-1.6c0-1-.2-1.8-.7-2.4-.5-.6-1.1-.8-2-.8-.5 0-.9.1-1.3.4s-.8.6-1.1 1.1h-2.4v-10h9.6v2.5h-7v4.2c.3-.3.7-.5 1.1-.6s.8-.2 1.2-.2c1.1 0 2 .2 2.8.7.8.4 1.4 1.1 1.8 2 .4.9.6 1.9.6 3.1V19c0 1.2-.2 2.3-.6 3.1-.4.9-1 1.5-1.8 2s-1.8.7-2.9.7c-1-.1-1.8-.2-2.6-.6zM9.8 33.6c.4 0 .6-.1.8-.4.2-.3.3-.7.3-1.2v-4.5h1.7v4.7c0 .7-.1 1.2-.3 1.7-.2.5-.5.8-.9 1.1s-.9.4-1.5.4h-.1v-1.8zm2.2-6.1h3.9v1.7H12v-1.7zm2.9 0h1.8v7.7h-1.8v-7.7zm6.2 7.8s-.3-.1-.8-.4c-.5-.3-.9-.7-1.2-1.2-.3-.5-.4-1.1-.4-1.9V31c0-.8.1-1.4.4-2 .3-.5.6-1 1.1-1.2.5-.3 1.1-.4 1.8-.4s1.2.2 1.7.5.8.8 1.1 1.4c.2.6.4 1.4.4 2.3v.5H20v-1.3h3.6v-.1c-.1-.5-.2-1-.5-1.3-.3-.3-.6-.4-1-.4-.5 0-.9.2-1.2.5-.3.3-.4.8-.4 1.4v1c0 .6.2 1 .5 1.4.3.3.8.5 1.3.5.3 0 .6-.1.9-.2.3-.1.5-.3.8-.5l1.2 1.1c-.4.4-.8.7-1.3.8-.5.2-1 .3-1.5.3h-1.3zm5-7.8h6.1v1.7h-6.1v-1.7zm2.2.8h1.8v6.9h-1.8v-6.9z" fill="#7a8187"/></svg>