<?xml version="1.0" encoding="utf-8"?>
<!-- Generator: Adobe Illustrator 22.0.1, SVG Export Plug-In . SVG Version: 6.00 Build 0)  -->
<svg version="1.1" xmlns="http://www.w3.org/2000/svg" xmlns:xlink="http://www.w3.org/1999/xlink" x="0px" y="0px" width="360.6px"
	 height="318.5px" viewBox="0 0 360.6 318.5" style="enable-background:new 0 0 360.6 318.5;" xml:space="preserve">
<style type="text/css">
	.st0{fill:#EFEFEF;}
	.st1{fill:#37474F;}
	.st2{fill:#FFFFFF;}
	.st3{fill:#C69210;}
	.st4{fill:#FCCF4F;}
	.st5{fill:#455A64;}
	.st6{fill:#BDBDBD;}
	.st7{fill:#C7C7C7;}
	.st8{fill:#E0E0E0;}
	.st9{fill:#ECEFF1;}
	.st10{fill:#78909C;}
</style>
<g id="BACKGROUND">
</g>
<g id="OBJECTS">
	<g>
		<path class="st0" d="M360.6,183.8c0-4.5-0.2-9.1-0.5-13.7c-0.3-4.1-0.9-8.3-1.8-12.3c-1.4-6.2-3.5-12.2-6.9-17.7
			c-6.4-10.4-16.7-18.2-27.3-25c-3.4-2.2-6.9-4.3-9.8-6.9c-1.8-1.6-3.4-3.3-4.7-5.3c-2.8-4.4-3.7-9.7-4.1-14.9
			c-1.7-21.9,3.6-46.2-9.9-64.1c-8.5-11.4-23-17.4-37.4-20.8c-25.3-5.8-54-4.2-74.5,10.9c-20.7,15.3-30.5,42-53.4,54.2
			c-8.5,4.5-17.9,6.6-27.6,8.3c-4.1,0.7-8.2,1.4-12.2,2.1c-15.1,2.7-29.9,6.6-44.3,11.7c-17.1,6.1-35.6,16.2-38.6,33.3
			c-1.2,6.6,0.2,13.1,2.8,19.4c7.4,18.4,24.7,36,18.4,54.6c-1.5,4.4-4.2,8.2-7.3,11.8c-5.3,6.1-11.9,11.5-16.2,18.3
			c-5,7.9-6.3,16.9-4.8,25.8c2,12.6,9.5,24.9,19.8,33.3c24.9,20.2,63.3,28.3,95.3,25.3c9.5-0.9,18.7-3.6,28-5.5
			c7.8-1.6,15.6-2.7,23.7-1.7c16.4,2,31.8,9,48.2,11.5c18.9,2.9,38,2.8,56.6-1.9c29.8-7.6,56.9-25.8,71.9-51.3
			c13.3-22.7,16.5-49.4,16.6-75.5C360.6,186.5,360.6,185.1,360.6,183.8z"/>
		<g>
			<path class="st1" d="M256.1,184.8c0.1-2.1,0.4-4.2,1.8-5.8c0.6-0.7,1.5-1.2,2.4-1.3c2.9-0.4,4.7,2.5,5.5,5.2c0.6,2,1,4.2,2.5,5.8
				c0.6,0.6,1.3,1.1,2.1,1.3c3,0.7,4.7-2.5,4.3-5.1c-0.3-2.1-1.7-4-2.8-5.8c-2.9-4.9-4.6-10.5-4.8-16.2c-0.1-3.6,0.5-7.6,3.7-9.7
				c1.7-1.1,3.9-1.2,5.5,0c2,1.4,1.9,3.7,1.7,5.8c-0.1,1.7-0.2,3.6,1,5c0.7,0.9,2,1.3,3,0.8c1-0.5,1.2-1.7,1.4-2.7
				c1.2-6.4,5-12.3,10.3-16c2.9-2,7.4-3.3,9.6-0.2c0.6,0.8,0.9,1.7,0.9,2.7c0.1,2.3-0.9,4.4-1.9,6.4l-5.5,10.9
				c-0.5,1,0.5,2.2,1.6,1.8l9.3-3.6c0.9-0.3,1.8-0.5,2.7-0.3c3,0.5,3.2,3.3,2.7,5.5c-1.1,4.8-4.8,8.8-9,11.3c-4.2,2.6-9,4-13.8,5.5
				c-1.5,0.5-3,1-3.8,2.4c-0.5,0.8-0.5,1.8,0,2.6c0.9,1.3,2.7,1,4,0.5c4.3-1.5,8.2-4.2,12.9-4.1c1.7,0,3.3,0.5,4.7,1.5
				c4.2,3.1,2.7,8.1-0.3,10.7c-3.2,2.8-7.2,4.2-11.1,5.8c-7.8,3.1-19.2,9.4-27.4,4.5c-4.8-2.9-8.4-8-10.7-13.1
				C256.9,193,256,188.9,256.1,184.8z"/>
			<g>
				<g>
					<path class="st2" d="M272,223.4C272,223.4,272,223.4,272,223.4c-0.4-0.1-0.5-0.3-0.5-0.6c3.6-21.9,10.1-43.2,19.3-63.2
						c0.1-0.2,0.4-0.4,0.7-0.2c0.2,0.1,0.4,0.4,0.2,0.7c-9.1,20-15.6,41.2-19.2,63C272.5,223.2,272.3,223.4,272,223.4z"/>
				</g>
				<g>
					<path class="st2" d="M287.6,179.2c-2.9,0-5.7-0.8-7.8-2.3c-3.1-2.1-4.7-5.5-5.6-7.9c-1.1-3.1-1.5-6.5-1.8-9.4
						c0-0.3,0.2-0.5,0.4-0.6c0.3,0,0.5,0.2,0.6,0.4c0.4,2.9,0.8,6.2,1.8,9.2c0.8,2.3,2.3,5.4,5.2,7.4c3.6,2.5,8.9,2.8,13.9,0.8
						c4.6-1.8,8.4-5.1,12.2-8.3c0.2-0.2,0.5-0.2,0.7,0.1c0.2,0.2,0.2,0.5-0.1,0.7c-3.8,3.2-7.7,6.6-12.4,8.5
						C292.2,178.7,289.8,179.2,287.6,179.2z"/>
				</g>
				<g>
					<path class="st2" d="M279,204.6c-3.2,0-6.1-0.8-8.6-2.3c-5.3-3.4-7.6-9.9-8.9-14.5c-0.1-0.3,0.1-0.5,0.3-0.6
						c0.3-0.1,0.5,0.1,0.6,0.3c1.2,4.4,3.4,10.7,8.4,13.9c4.3,2.7,10.3,2.9,16.1,0.5l1.1-0.5c5-2.1,9.7-4,14.9-7.3
						c0.2-0.1,0.5-0.1,0.7,0.2c0.1,0.2,0.1,0.5-0.2,0.7c-5.3,3.3-10.1,5.3-15.1,7.4l-1.1,0.5C284.6,204,281.8,204.6,279,204.6z"/>
				</g>
			</g>
		</g>
		<g>
			<path class="st3" d="M84.6,90.9c-0.9-1.8-1.7-3.9-1.2-6c0.2-0.9,0.7-1.7,1.5-2.3c2.4-1.8,5.3,0,7.3,1.9c1.5,1.5,2.8,3.2,4.9,3.9
				c0.8,0.3,1.7,0.3,2.5,0.1c3-0.9,2.9-4.5,1.3-6.5c-1.3-1.7-3.4-2.7-5.3-3.8c-4.9-2.9-9.1-7-12-11.9c-1.8-3.1-3.2-6.9-1.4-10.3
				c1-1.8,2.8-2.9,4.8-2.7c2.4,0.3,3.4,2.3,4.3,4.2c0.7,1.6,1.6,3.2,3.2,3.9c1.1,0.4,2.4,0.2,3-0.8c0.7-1,0.3-2-0.1-3
				c-2-6.2-1.6-13.1,1.3-19c1.6-3.2,4.9-6.4,8.3-4.8c0.9,0.4,1.6,1.1,2.1,1.9c1.2,2,1.3,4.3,1.4,6.5l0.4,12.2c0,1.2,1.5,1.7,2.2,0.8
				l6.5-7.6c0.6-0.7,1.4-1.3,2.2-1.6c2.9-1,4.4,1.4,5,3.5c1.4,4.8,0,10-2.4,14.3c-2.5,4.3-6,7.9-9.4,11.5c-1.1,1.1-2.2,2.3-2.2,4
				c0,0.9,0.4,1.8,1.2,2.3c1.4,0.7,2.8-0.4,3.8-1.5c3-3.4,5.1-7.6,9.3-9.8c1.5-0.8,3.2-1.2,4.8-0.9c5.2,0.7,6.3,5.7,4.9,9.6
				c-1.4,4-4.3,7.2-7,10.4c-5.4,6.5-12.3,17.4-21.9,17.1c-5.6-0.2-11.3-3-15.7-6.3C89.2,97.6,86.4,94.5,84.6,90.9z"/>
			<g>
				<g>
					<path class="st2" d="M117.1,117C117.1,117,117,117,117.1,117c-0.3,0.1-0.6,0-0.7-0.3C109,95.8,104.5,74,102.9,52
						c0-0.3,0.2-0.5,0.5-0.5c0.3,0,0.5,0.2,0.5,0.5c1.6,21.9,6.1,43.6,13.4,64.5C117.4,116.6,117.3,116.9,117.1,117z"/>
				</g>
				<g>
					<path class="st2" d="M109.5,70.8c-2.6,1.4-5.4,2.1-8,1.8c-3.7-0.4-6.8-2.5-8.7-4.2c-2.4-2.2-4.4-4.9-6.1-7.4
						c-0.2-0.2-0.1-0.5,0.1-0.7c0.2-0.2,0.5-0.1,0.7,0.1c1.7,2.4,3.6,5.1,6,7.2c1.8,1.6,4.6,3.6,8.1,4c4.3,0.5,9.1-1.8,12.5-6
						c3.2-3.8,4.9-8.6,6.7-13.1c0.1-0.3,0.4-0.4,0.6-0.3c0.3,0.1,0.4,0.4,0.3,0.6c-1.8,4.7-3.6,9.5-6.8,13.4
						C113.3,68.1,111.4,69.7,109.5,70.8z"/>
				</g>
				<g>
					<path class="st2" d="M114.2,97.2c-2.8,1.5-5.8,2.3-8.7,2.1c-6.3-0.4-11.4-5-14.7-8.4c-0.2-0.2-0.2-0.5,0-0.7
						c0.2-0.2,0.5-0.2,0.7,0c3.2,3.3,8.1,7.7,14.1,8.1c5.1,0.3,10.4-2.4,14.4-7.3l0.8-0.9c3.4-4.2,6.6-8.2,9.6-13.6
						c0.1-0.2,0.4-0.3,0.7-0.2c0.2,0.1,0.3,0.4,0.2,0.7c-3,5.5-6.3,9.5-9.7,13.7l-0.8,0.9C118.8,94,116.6,95.9,114.2,97.2z"/>
				</g>
			</g>
		</g>
		<g>
			<path class="st4" d="M75.9,142.2c-0.9-1.8-1.7-3.9-1.2-6c0.2-0.9,0.7-1.7,1.5-2.3c2.4-1.8,5.3,0,7.3,1.9c1.5,1.5,2.8,3.2,4.9,3.9
				c0.8,0.3,1.7,0.3,2.5,0.1c3-0.9,2.9-4.5,1.3-6.5c-1.3-1.7-3.4-2.7-5.3-3.8c-4.9-2.9-9.1-7-12-11.9c-1.8-3.1-3.2-6.9-1.4-10.3
				c1-1.8,2.8-2.9,4.8-2.7c2.4,0.3,3.4,2.3,4.3,4.2c0.7,1.6,1.6,3.2,3.2,3.9c1.1,0.4,2.4,0.2,3-0.8c0.7-1,0.3-2-0.1-3
				c-2-6.2-1.6-13.1,1.3-19c1.6-3.2,4.9-6.4,8.3-4.8c0.9,0.4,1.6,1.1,2.1,1.9c1.2,2,1.3,4.3,1.4,6.5l0.4,12.2c0,1.2,1.5,1.7,2.2,0.8
				l6.5-7.6c0.6-0.7,1.4-1.3,2.2-1.6c2.9-1,4.4,1.4,5,3.5c1.4,4.8,0,10-2.4,14.3c-2.5,4.3-6,7.9-9.4,11.5c-1.1,1.1-2.2,2.3-2.2,4
				c0,0.9,0.4,1.8,1.2,2.3c1.4,0.7,2.8-0.4,3.8-1.5c3-3.4,5.1-7.6,9.3-9.8c1.5-0.8,3.2-1.2,4.8-0.9c5.2,0.7,6.3,5.7,4.9,9.6
				c-1.4,4-4.3,7.2-7,10.4c-5.4,6.5-12.3,17.4-21.9,17.1c-5.6-0.2-11.3-3-15.7-6.3C80.5,149,77.8,145.9,75.9,142.2z"/>
			<g>
				<g>
					<path class="st2" d="M108.5,168.4C108.4,168.4,108.4,168.4,108.5,168.4c-0.3,0.1-0.6,0-0.7-0.3c-7.3-20.9-11.9-42.7-13.5-64.7
						c0-0.3,0.2-0.5,0.5-0.5c0.3,0,0.5,0.2,0.5,0.5c1.6,21.9,6.1,43.6,13.4,64.5C108.8,168,108.7,168.3,108.5,168.4z"/>
				</g>
				<g>
					<path class="st2" d="M100.8,122.2c-2.6,1.4-5.4,2.1-8,1.8c-3.7-0.4-6.8-2.5-8.7-4.2c-2.4-2.2-4.4-4.9-6.1-7.4
						c-0.2-0.2-0.1-0.5,0.1-0.7c0.2-0.2,0.5-0.1,0.7,0.1c1.7,2.4,3.6,5.1,6,7.2c1.8,1.6,4.6,3.6,8.1,4c4.3,0.5,9.1-1.8,12.5-6
						c3.2-3.8,4.9-8.6,6.7-13.1c0.1-0.3,0.4-0.4,0.6-0.3c0.3,0.1,0.4,0.4,0.3,0.6c-1.8,4.7-3.6,9.5-6.8,13.4
						C104.7,119.5,102.8,121.1,100.8,122.2z"/>
				</g>
				<g>
					<path class="st2" d="M105.6,148.6c-2.8,1.5-5.8,2.3-8.7,2.1c-6.3-0.4-11.4-5-14.7-8.4c-0.2-0.2-0.2-0.5,0-0.7
						c0.2-0.2,0.5-0.2,0.7,0c3.2,3.3,8.1,7.7,14.1,8.1c5.1,0.3,10.4-2.4,14.4-7.3l0.8-0.9c3.4-4.2,6.6-8.2,9.6-13.6
						c0.1-0.2,0.4-0.3,0.7-0.2c0.2,0.1,0.3,0.4,0.2,0.7c-3,5.5-6.3,9.5-9.7,13.7l-0.8,0.9C110.2,145.4,108,147.3,105.6,148.6z"/>
				</g>
			</g>
		</g>
		<g>
			<path class="st4" d="M65.8,197.3c-2-1.6-3.8-3.5-4.3-6.1c-0.2-1.1,0-2.3,0.5-3.3c1.8-3.2,6-2.7,9.2-1.5c2.4,0.9,4.8,2.2,7.5,1.9
				c1-0.1,2-0.5,2.8-1.1c2.9-2.5,1-6.5-1.8-8c-2.4-1.3-5.2-1.3-7.8-1.6c-7-0.8-13.8-3.4-19.5-7.5c-3.6-2.6-7.1-6.1-6.7-10.9
				c0.2-2.5,1.8-4.7,4.1-5.4c2.9-0.9,5,0.9,7,2.6c1.6,1.4,3.4,2.9,5.6,2.8c1.4-0.1,2.8-1,3-2.4c0.3-1.4-0.7-2.4-1.6-3.4
				c-5.4-5.9-8.3-14-8-22c0.2-4.4,2.3-9.6,6.9-9.6c1.2,0,2.3,0.5,3.3,1.1c2.4,1.6,3.6,4.1,4.8,6.6l6.6,13.5c0.6,1.3,2.5,1.1,2.9-0.2
				l3.5-11.8c0.3-1.1,0.9-2.1,1.7-2.9c2.8-2.5,5.6-0.7,7.4,1.5c3.9,4.7,5,11.2,4.4,17.3c-0.6,6.1-2.8,11.9-4.9,17.6
				c-0.6,1.8-1.3,3.7-0.5,5.6c0.4,1.1,1.4,1.9,2.5,1.9c1.9,0.1,3-1.9,3.5-3.6c1.7-5.3,2-11.1,5.6-15.7c1.3-1.6,3-2.9,5-3.5
				c6.2-1.8,9.9,3.4,10.3,8.3c0.4,5.2-1.3,10.2-2.7,15.2c-2.8,10-5.1,25.8-16.1,30.2c-6.4,2.6-14.2,2.3-20.8,0.7
				C74.4,202.6,69.8,200.4,65.8,197.3z"/>
			<g>
				<g>
					<path class="st2" d="M115.6,210.5C115.5,210.5,115.5,210.6,115.6,210.5c-0.3,0.3-0.7,0.3-0.9,0c-18.7-19.9-34.7-42.2-47.5-66.3
						c-0.2-0.3,0-0.7,0.3-0.8c0.3-0.2,0.7,0,0.8,0.3c12.8,23.9,28.7,46.1,47.4,66C115.7,209.9,115.7,210.3,115.6,210.5z"/>
				</g>
				<g>
					<path class="st2" d="M83.9,162.2c-2.2,2.9-5,5-8.1,6c-4.4,1.4-8.9,0.5-11.9-0.4c-3.9-1.3-7.4-3.4-10.6-5.2
						c-0.3-0.2-0.4-0.5-0.2-0.8c0.2-0.3,0.5-0.4,0.8-0.2c3.1,1.8,6.6,3.9,10.4,5.1c2.8,0.9,7,1.7,11.1,0.4c5.1-1.6,9.4-6.6,11.1-13
						c1.6-5.9,1.3-12.1,0.9-18.1c0-0.3,0.2-0.6,0.6-0.6c0.3,0,0.6,0.2,0.6,0.6c0.3,6.1,0.7,12.5-1,18.5
						C86.9,157.3,85.6,160,83.9,162.2z"/>
				</g>
				<g>
					<path class="st2" d="M102.4,189.6c-2.4,3.1-5.4,5.4-8.7,6.7c-7.3,2.7-15.4,0.1-20.8-2.2c-0.3-0.1-0.5-0.5-0.3-0.8
						c0.1-0.3,0.5-0.5,0.8-0.3c5.3,2.1,13,4.7,19.9,2.1c5.9-2.2,10.6-7.9,12.6-15.4l0.4-1.4c1.7-6.4,3.3-12.5,4-20.1
						c0-0.3,0.3-0.6,0.7-0.6c0.3,0,0.6,0.3,0.6,0.7c-0.7,7.7-2.3,13.8-4,20.3L107,180C106,183.7,104.4,186.9,102.4,189.6z"/>
				</g>
			</g>
		</g>
		<g>
			<path class="st5" d="M258.5,251.1c0.1-2.7,0.5-5.5,2.4-7.6c0.8-0.9,1.9-1.5,3.1-1.7c3.8-0.5,6.2,3.3,7.2,6.8
				c0.8,2.7,1.3,5.5,3.2,7.6c0.7,0.8,1.7,1.4,2.8,1.7c3.9,0.9,6.1-3.3,5.6-6.7c-0.4-2.8-2.2-5.2-3.7-7.7c-3.9-6.4-6-13.8-6.3-21.3
				c-0.2-4.7,0.6-9.9,4.9-12.7c2.2-1.4,5.1-1.5,7.2,0c2.6,1.9,2.5,4.8,2.3,7.6c-0.2,2.3-0.2,4.7,1.3,6.5c1,1.2,2.6,1.7,4,1
				c1.4-0.7,1.6-2.2,1.8-3.5c1.5-8.4,6.5-16.1,13.5-21c3.8-2.7,9.6-4.3,12.6-0.3c0.7,1,1.1,2.3,1.2,3.5c0.2,3-1.2,5.7-2.5,8.3
				l-7.2,14.3c-0.7,1.4,0.7,2.9,2.1,2.3l12.2-4.7c1.1-0.4,2.4-0.6,3.6-0.4c3.9,0.7,4.2,4.3,3.5,7.2c-1.5,6.3-6.3,11.5-11.8,14.9
				c-5.6,3.4-11.9,5.3-18.1,7.3c-1.9,0.6-3.9,1.3-5,3.2c-0.6,1-0.7,2.4,0,3.4c1.2,1.7,3.5,1.3,5.3,0.6c5.6-2,10.7-5.5,16.9-5.4
				c2.2,0,4.4,0.7,6.1,2c5.5,4,3.6,10.6-0.4,14.1c-4.2,3.7-9.5,5.5-14.6,7.5c-10.2,4.1-25.1,12.3-35.9,5.8
				c-6.3-3.8-11.1-10.5-14.1-17.1C259.5,261.8,258.4,256.4,258.5,251.1z"/>
			<g>
				<g>
					<path class="st2" d="M279.4,301.7c0,0-0.1,0-0.1,0c-0.4-0.1-0.6-0.4-0.5-0.7c4.8-28.7,13.3-56.6,25.3-82.9
						c0.2-0.3,0.5-0.5,0.9-0.3c0.3,0.2,0.5,0.5,0.3,0.9c-12,26.2-20.5,54-25.2,82.6C280,301.4,279.7,301.7,279.4,301.7z"/>
				</g>
				<g>
					<path class="st2" d="M299.8,243.7c-3.9,0-7.5-1-10.3-3c-4-2.8-6.2-7.2-7.3-10.3c-1.4-4.1-2-8.5-2.4-12.3c0-0.4,0.2-0.7,0.6-0.7
						c0.4-0.1,0.7,0.2,0.7,0.6c0.5,3.8,1,8.1,2.4,12.1c1,3,3.1,7.1,6.8,9.7c4.7,3.2,11.6,3.6,18.2,1c6-2.4,11.1-6.7,15.9-10.9
						c0.3-0.2,0.7-0.2,0.9,0.1c0.2,0.3,0.2,0.7-0.1,0.9c-5,4.2-10.1,8.6-16.3,11.1C305.9,243.1,302.7,243.7,299.8,243.7z"/>
				</g>
				<g>
					<path class="st2" d="M288.6,277.1c-4.2,0-8.1-1-11.3-3.1c-7-4.4-10-13-11.6-19c-0.1-0.3,0.1-0.7,0.5-0.8
						c0.4-0.1,0.7,0.1,0.8,0.5c1.6,5.8,4.5,14,11,18.2c5.6,3.6,13.5,3.8,21.1,0.7l1.5-0.6c6.5-2.7,12.7-5.3,19.6-9.6
						c0.3-0.2,0.7-0.1,0.9,0.2c0.2,0.3,0.1,0.7-0.2,0.9c-7,4.4-13.2,7-19.8,9.7l-1.5,0.6C295.9,276.3,292.2,277.1,288.6,277.1z"/>
				</g>
			</g>
		</g>
		<g>
			<g>
				<g>
					<rect x="118.8" y="49.4" class="st6" width="162.3" height="259.3"/>
					<rect x="114.2" y="49.4" class="st7" width="162.3" height="259.3"/>
					<rect x="109.3" y="49.4" class="st8" width="162.3" height="259.3"/>
					<rect x="104" y="49.4" class="st9" width="162.3" height="259.3"/>
				</g>
				<g>
					<rect x="110.6" y="101" class="st10" width="96.6" height="1.7"/>
					<rect x="110.6" y="104.3" class="st10" width="96.6" height="1.7"/>
					<rect x="110.6" y="107.6" class="st10" width="96.6" height="1.7"/>
					<rect x="110.6" y="110.9" class="st10" width="96.6" height="1.7"/>
					<rect x="110.6" y="114.2" class="st10" width="96.6" height="1.7"/>
					<rect x="110.6" y="117.5" class="st10" width="96.6" height="1.7"/>
					<g>
						<path class="st10" d="M187.6,143.9c0,0.2,0.1,0.5,0.1,0.7v0.9h69.6v-1.7H187.6z"/>
						<path class="st10" d="M180.2,144.7c0-0.3,0-0.5,0.1-0.7h-69.7v1.7h69.6V144.7z"/>
						<rect x="110.6" y="147.2" class="st10" width="69.6" height="1.7"/>
						<rect x="187.6" y="147.2" class="st10" width="69.6" height="1.7"/>
						<rect x="110.6" y="150.5" class="st10" width="69.6" height="1.7"/>
						<rect x="187.6" y="150.5" class="st10" width="69.6" height="1.7"/>
						<rect x="187.6" y="153.9" class="st10" width="69.6" height="1.7"/>
						<rect x="110.6" y="153.9" class="st10" width="69.6" height="1.7"/>
						<rect x="110.6" y="157.2" class="st10" width="69.6" height="1.7"/>
						<rect x="187.6" y="157.2" class="st10" width="69.6" height="1.7"/>
						<rect x="187.6" y="160.5" class="st10" width="69.6" height="1.7"/>
						<rect x="110.6" y="160.5" class="st10" width="69.6" height="1.7"/>
						<rect x="110.6" y="163.8" class="st10" width="69.6" height="1.7"/>
						<rect x="187.6" y="163.8" class="st10" width="69.6" height="1.7"/>
						<rect x="110.6" y="167.1" class="st10" width="69.6" height="1.7"/>
						<rect x="187.6" y="167.1" class="st10" width="69.6" height="1.7"/>
						<rect x="110.6" y="170.4" class="st10" width="69.6" height="1.7"/>
						<rect x="187.6" y="170.4" class="st10" width="69.6" height="1.7"/>
						<rect x="110.6" y="173.7" class="st10" width="69.6" height="1.7"/>
						<rect x="187.6" y="173.7" class="st10" width="69.6" height="1.7"/>
						<rect x="110.6" y="177" class="st10" width="69.6" height="1.7"/>
						<rect x="187.6" y="177" class="st10" width="69.6" height="1.7"/>
						<rect x="187.6" y="180.3" class="st10" width="69.6" height="1.7"/>
						<rect x="110.6" y="180.3" class="st10" width="69.6" height="1.7"/>
					</g>
					<g>
						<path class="st10" d="M187.6,189.1c0,0.2,0.1,0.5,0.1,0.7v0.9h69.6v-1.7H187.6z"/>
						<path class="st10" d="M180.2,189.9c0-0.3,0-0.5,0.1-0.7h-69.7v1.7h69.6V189.9z"/>
						<rect x="110.6" y="192.5" class="st10" width="69.6" height="1.7"/>
						<rect x="187.6" y="192.5" class="st10" width="69.6" height="1.7"/>
						<rect x="110.6" y="195.8" class="st10" width="69.6" height="1.7"/>
						<rect x="187.6" y="195.8" class="st10" width="69.6" height="1.7"/>
						<rect x="187.6" y="199.1" class="st10" width="69.6" height="1.7"/>
						<rect x="110.6" y="199.1" class="st10" width="69.6" height="1.7"/>
						<rect x="110.6" y="202.4" class="st10" width="69.6" height="1.7"/>
						<rect x="187.6" y="202.4" class="st10" width="69.6" height="1.7"/>
						<rect x="187.6" y="205.7" class="st10" width="69.6" height="1.7"/>
						<rect x="110.6" y="205.7" class="st10" width="69.6" height="1.7"/>
						<rect x="110.6" y="209" class="st10" width="69.6" height="1.7"/>
						<rect x="187.6" y="209" class="st10" width="69.6" height="1.7"/>
						<rect x="110.6" y="212.3" class="st10" width="69.6" height="1.7"/>
						<rect x="187.6" y="212.3" class="st10" width="69.6" height="1.7"/>
						<rect x="110.6" y="215.6" class="st10" width="69.6" height="1.7"/>
						<rect x="187.6" y="215.6" class="st10" width="69.6" height="1.7"/>
						<rect x="110.6" y="218.9" class="st10" width="69.6" height="1.7"/>
						<rect x="187.6" y="218.9" class="st10" width="69.6" height="1.7"/>
						<rect x="110.6" y="222.2" class="st10" width="69.6" height="1.7"/>
						<rect x="187.6" y="222.2" class="st10" width="69.6" height="1.7"/>
						<rect x="187.6" y="225.5" class="st10" width="69.6" height="1.7"/>
						<rect x="110.6" y="225.5" class="st10" width="69.6" height="1.7"/>
					</g>
					<g>
						<path class="st10" d="M187.6,230.3c0,0.2,0.1,0.5,0.1,0.7v0.9h69.6v-1.7H187.6z"/>
						<rect x="187.6" y="233.7" class="st10" width="69.6" height="1.7"/>
						<rect x="187.6" y="237" class="st10" width="69.6" height="1.7"/>
						<rect x="187.6" y="240.3" class="st10" width="69.6" height="1.7"/>
						<rect x="187.6" y="243.6" class="st10" width="69.6" height="1.7"/>
						<rect x="187.6" y="246.9" class="st10" width="69.6" height="1.7"/>
						<rect x="187.6" y="250.2" class="st10" width="69.6" height="1.7"/>
						<rect x="187.6" y="253.5" class="st10" width="69.6" height="1.7"/>
						<rect x="187.6" y="256.8" class="st10" width="69.6" height="1.7"/>
						<rect x="187.6" y="260.1" class="st10" width="69.6" height="1.7"/>
						<rect x="187.6" y="263.4" class="st10" width="69.6" height="1.7"/>
						<rect x="187.6" y="266.7" class="st10" width="69.6" height="1.7"/>
						<path class="st10" d="M180.2,231.3v-0.5h-69.6v0.5c0,0,0,1.3,0,1.3c0,11.3,0,22.6,0,34v0.6v1.2h69.6v-1.2c0,0,0-0.5,0-0.6
							C180.2,254.8,180.2,243.1,180.2,231.3L180.2,231.3z"/>
					</g>
					<g>
						<rect x="110.6" y="300.5" class="st10" width="69.6" height="1.7"/>
						<rect x="110.6" y="297.2" class="st10" width="69.6" height="1.7"/>
						<rect x="110.6" y="293.9" class="st10" width="69.6" height="1.7"/>
						<rect x="110.6" y="290.6" class="st10" width="69.6" height="1.7"/>
						<rect x="110.6" y="287.3" class="st10" width="69.6" height="1.7"/>
						<rect x="110.6" y="284" class="st10" width="69.6" height="1.7"/>
						<rect x="110.6" y="280.7" class="st10" width="69.6" height="1.7"/>
						<rect x="110.6" y="277.4" class="st10" width="69.6" height="1.7"/>
						<rect x="110.6" y="274.1" class="st10" width="69.6" height="1.7"/>
						<path class="st10" d="M187.6,302.4h69.6v-28.3h-69.6v1.1c0,0,0,0.5,0,0.5C187.7,284.7,187.7,293.5,187.6,302.4z"/>
					</g>
					<rect x="110.6" y="120.8" class="st10" width="146.6" height="1.7"/>
					<rect x="110.6" y="124.1" class="st10" width="146.6" height="1.7"/>
					<rect x="110.6" y="127.4" class="st10" width="146.6" height="1.7"/>
					<rect x="110.6" y="130.7" class="st10" width="146.6" height="1.7"/>
					<rect x="209.3" y="101" class="st10" width="48" height="17.3"/>
				</g>
			</g>
		</g>
		<g>
			<path class="st1" d="M128.4,67.7v18.5H124v-15h-4.2l-0.3,6.2c-0.1,2.1-0.4,3.9-0.9,5.1s-1.1,2.2-2,2.8c-0.9,0.6-2,0.9-3.5,0.9
				h-1.2v-3.4l0.6-0.1c0.9-0.1,1.5-0.7,1.9-1.6s0.7-2.6,0.8-4.9l0.3-8.5H128.4z"/>
			<path class="st1" d="M142.7,78.4h-7v4.4h8.3v3.4h-12.7V67.7H144v3.4h-8.3v3.9h7V78.4z"/>
			<path class="st1" d="M160.7,79.9c-0.1,1.3-0.4,2.4-1,3.4s-1.5,1.8-2.7,2.3c-1.1,0.5-2.5,0.8-3.9,0.8c-2.4,0-4.3-0.8-5.7-2.4
				s-2.1-3.8-2.1-6.7v-0.9c0-1.8,0.3-3.4,0.9-4.8c0.6-1.4,1.5-2.4,2.7-3.1s2.6-1.1,4.1-1.1c2.2,0,4,0.6,5.4,1.8s2.1,2.8,2.3,4.9
				h-4.4c0-1.1-0.3-1.9-0.9-2.4s-1.3-0.7-2.4-0.7c-1.1,0-1.9,0.4-2.4,1.2s-0.8,2.2-0.8,4v1.3c0,2,0.2,3.4,0.7,4.2
				c0.5,0.8,1.3,1.3,2.6,1.3c1,0,1.8-0.2,2.3-0.7s0.8-1.2,0.9-2.3H160.7z"/>
			<path class="st1" d="M177,71.2h-5.5v15H167v-15h-5.4v-3.4H177V71.2z"/>
			<path class="st1" d="M194.3,86.2h-4.4v-7.7h-6.6v7.7h-4.5V67.7h4.5v7.3h6.6v-7.3h4.4V86.2z"/>
			<path class="st1" d="M208,67.7h4.5v18.5H208V74.5l-6.6,11.7h-4.5V67.7h4.5v11.7L208,67.7z"/>
			<path class="st1" d="M214.8,67.7h4.4v15.1h6.6V67.7h4.5v15.1h2.8l-0.3,7.8h-4.2v-4.5h-13.9V67.7z"/>
			<path class="st1" d="M239.6,74.1h2.3c1.5,0,2.8,0.2,3.9,0.7s2,1.2,2.6,2.1c0.6,0.9,0.9,2,0.9,3.1c0,1.8-0.7,3.3-2,4.4
				c-1.3,1.1-3.2,1.7-5.4,1.7h-6.7V67.7h4.5V74.1z M239.6,77.5v5.3h2.3c0.9,0,1.6-0.3,2.2-0.8c0.5-0.5,0.8-1.2,0.8-2
				c0-0.8-0.3-1.4-0.8-1.8s-1.3-0.7-2.2-0.7H239.6z M255.1,86.2h-4.4V67.7h4.4V86.2z"/>
		</g>
	</g>
</g>
<g id="DESIGNED_BY_FREEPIK">
</g>
</svg>
