<?xml version="1.0" encoding="utf-8"?>
<!-- Generator: Adobe Illustrator 22.0.1, SVG Export Plug-In . SVG Version: 6.00 Build 0)  -->
<svg version="1.1" id="Capa_1" xmlns="http://www.w3.org/2000/svg" xmlns:xlink="http://www.w3.org/1999/xlink" x="0px" y="0px"
	 width="26.4px" height="27.3px" viewBox="0 0 26.4 27.3" style="enable-background:new 0 0 26.4 27.3;" xml:space="preserve">
<style type="text/css">
	.st0{fill:#FF3495;}
	.st1{fill:#FFFFFF;}
</style>
<path class="st0" d="M14.3,0h-2.1C5.5,0,0,5.5,0,12.2s5.5,12.2,12.2,12.2h2.1c1.1,0,2.1-0.1,3.1-0.4l3.1,3.1
	c0.2,0.2,0.4,0.2,0.6,0.2c0.1,0,0.2,0,0.3-0.1c0.3-0.1,0.5-0.4,0.5-0.8v-4.9c1.3-1.1,2.4-2.4,3.2-4c0.9-1.7,1.3-3.6,1.3-5.5
	C26.5,5.5,21,0,14.3,0z"/>
<path class="st1" d="M13.2,15c-0.5,0-1.1-0.4-1.1-1v-2c0-1,0.7-1.6,1.5-1.8c0.9-0.3,1.4-1,1.4-1.8S14.2,7,13.5,6.9
	c-0.5,0-0.9,0.1-1.2,0.4s-0.5,0.8-0.5,1.2c0,0.5-0.5,1.1-1,1.1S9.7,9.2,9.7,8.5c0-1,0.4-2,1.2-2.8c0.9-0.7,1.7-1,2.6-1h0.3
	c1.9,0.1,3.4,1.6,3.5,3.5s-1.1,3.4-3,3.8v1.8C14.3,14.4,13.9,15,13.2,15z"/>
<path class="st1" d="M13.4,5h0.3c1.8,0.1,3.2,1.5,3.3,3.3c0.1,1.7-1,3.3-3,3.6v2c0,0.4-0.3,0.8-0.8,0.8c-0.4,0-0.8-0.3-0.8-0.8v-2
	c0-0.8,0.6-1.4,1.3-1.6c1-0.2,1.6-1.1,1.5-2c0-0.9-0.8-1.6-1.7-1.7c-0.5,0-1,0.1-1.4,0.5S11.5,8,11.5,8.5c0,0.4-0.4,0.8-0.8,0.8
	S9.9,9,9.9,8.5c0-1,0.4-1.9,1.1-2.6C11.7,5.4,12.5,5,13.4,5 M13.4,4.5c-0.9,0-1.8,0.3-2.7,1c-0.8,0.8-1.2,1.8-1.2,3
	c0,0.8,0.7,1.3,1.3,1.3c0.7,0,1.3-0.6,1.3-1.3c0-0.4,0.2-0.8,0.5-1c0.2-0.2,0.6-0.3,1-0.4c0.6,0.1,1.2,0.5,1.2,1.2
	c0.1,0.7-0.4,1.3-1.1,1.5c-1,0.3-1.7,1.1-1.7,2.1v2c0,0.8,0.7,1.3,1.3,1.3c0.8,0,1.3-0.7,1.3-1.3v-1.6c1.9-0.5,3.1-2.1,3-4
	c-0.1-2.1-1.7-3.7-3.8-3.8C13.8,4.5,13.4,4.5,13.4,4.5z"/>
<circle class="st1" cx="13.3" cy="18.6" r="1.5"/>
</svg>
