<svg version="1.1" id="Capa_1" xmlns="http://www.w3.org/2000/svg" x="0" y="0" viewBox="0 0 43 43" xml:space="preserve"><style>.st0{fill:#ffde00}</style><path class="st0" d="M29.1 26.8c-.5 0-.8.4-.8.8v5.8c0 2.3-1.9 4.2-4.2 4.2H15c-.5 0-.8.4-.8.8v1.7l-2-2c-.1-.3-.4-.5-.8-.5H5.9c-2.3 0-4.2-1.9-4.2-4.2V20.5c0-2.3 1.9-4.2 4.2-4.2h8.5c.5 0 .8-.4.8-.8s-.4-.8-.8-.8H5.9c-3.2 0-5.9 2.6-5.9 5.9v12.9c0 3.2 2.6 5.9 5.9 5.9h5l3.4 3.4c.2.2.4.2.6.2.1 0 .2 0 .3-.1.3-.1.5-.4.5-.8v-2.9H24c3.2 0 5.9-2.6 5.9-5.9v-5.8c0-.3-.4-.7-.8-.7z"/><path class="st0" d="M30.8 0h-2.1C22 0 16.5 5.5 16.5 12.2S22 24.4 28.7 24.4h2.1c1.1 0 2.1-.1 3.1-.4l3.1 3.1c.2.2.4.2.6.2.1 0 .2 0 .3-.1.3-.1.5-.4.5-.8v-4.9c1.3-1.1 2.4-2.4 3.2-4 .9-1.7 1.3-3.6 1.3-5.5.1-6.5-5.4-12-12.1-12zm6.3 20.6c-.2.2-.3.4-.3.7v3.2l-2.1-2.1c-.2-.2-.4-.2-.6-.2h-.2c-1 .3-2 .5-3.1.5h-2.1c-5.8 0-10.5-4.7-10.5-10.5S22.9 1.7 28.7 1.7h2.1c5.8 0 10.5 4.7 10.5 10.5 0 3.3-1.5 6.4-4.2 8.4z"/><path class="st0" d="M33.5 9.2C33.4 7.4 32 6 30.2 5.9c-1-.1-1.9.3-2.7.9-.7.7-1.1 1.6-1.1 2.6 0 .5.4.8.8.8s.8-.4.8-.8c0-.5.2-1 .6-1.4.4-.4.9-.5 1.4-.5.9.1 1.7.8 1.7 1.7.1.9-.5 1.8-1.5 2-.7.2-1.3.8-1.3 1.6v2c0 .5.4.8.8.8.5 0 .8-.4.8-.8v-2c2-.3 3.1-1.9 3-3.6zm-2.9 8.4c-.2-.2-.4-.2-.6-.2s-.4.1-.6.2c-.2.2-.2.4-.2.6 0 .2.1.4.2.6.2.2.4.2.6.2s.4-.1.6-.2c.2-.2.2-.4.2-.6 0-.3-.1-.5-.2-.6zM23.1 26H5.4c-.5 0-.8.4-.8.8s.4.8.8.8h17.7c.5 0 .8-.4.8-.8s-.3-.8-.8-.8zm.6 5c-.2-.2-.4-.2-.6-.2s-.4.1-.6.2c-.2.2-.2.4-.2.6s.1.4.2.6c.2.2.4.2.6.2s.4-.1.6-.2c.2-.2.2-.4.2-.6 0-.2-.1-.5-.2-.6zm-3.9-.3H5.4c-.5 0-.8.4-.8.8 0 .5.4.8.8.8h14.4c.5 0 .8-.4.8-.8s-.3-.8-.8-.8zm-2.2-9.4H5.4c-.5 0-.8.4-.8.8s.3.9.8.9h12.3c.5 0 .8-.4.8-.8s-.4-.9-.9-.9z"/></svg>