<?xml version="1.0" encoding="utf-8"?>
<!-- Generator: Adobe Illustrator 22.0.1, SVG Export Plug-In . SVG Version: 6.00 Build 0)  -->
<svg version="1.1" id="Capa_1" xmlns="http://www.w3.org/2000/svg" xmlns:xlink="http://www.w3.org/1999/xlink" x="0px" y="0px"
	 viewBox="0 0 43 43" style="enable-background:new 0 0 43 43;" xml:space="preserve">
<style type="text/css">
	.st0{fill:#FF3495;}
</style>
<g>
	<g>
		<g>
			<path class="st0" d="M29.1,26.8c-0.5,0-0.8,0.4-0.8,0.8v5.8c0,2.3-1.9,4.2-4.2,4.2H15c-0.5,0-0.8,0.4-0.8,0.8v1.7l-2-2
				c-0.1-0.3-0.4-0.5-0.8-0.5H5.9c-2.3,0-4.2-1.9-4.2-4.2V20.5c0-2.3,1.9-4.2,4.2-4.2h8.5c0.5,0,0.8-0.4,0.8-0.8s-0.4-0.8-0.8-0.8
				H5.9c-3.2,0-5.9,2.6-5.9,5.9v12.9c0,3.2,2.6,5.9,5.9,5.9h5l3.4,3.4c0.2,0.2,0.4,0.2,0.6,0.2c0.1,0,0.2,0,0.3-0.1
				c0.3-0.1,0.5-0.4,0.5-0.8v-2.9H24c3.2,0,5.9-2.6,5.9-5.9v-5.8C29.9,27.2,29.5,26.8,29.1,26.8z"/>
		</g>
	</g>
	<g>
		<g>
			<path class="st0" d="M30.8,0h-2.1C22,0,16.5,5.5,16.5,12.2S22,24.4,28.7,24.4h2.1c1.1,0,2.1-0.1,3.1-0.4l3.1,3.1
				c0.2,0.2,0.4,0.2,0.6,0.2c0.1,0,0.2,0,0.3-0.1c0.3-0.1,0.5-0.4,0.5-0.8v-4.9c1.3-1.1,2.4-2.4,3.2-4c0.9-1.7,1.3-3.6,1.3-5.5
				C43,5.5,37.5,0,30.8,0z M37.1,20.6c-0.2,0.2-0.3,0.4-0.3,0.7v3.2l-2.1-2.1c-0.2-0.2-0.4-0.2-0.6-0.2c-0.1,0-0.2,0-0.2,0
				c-1,0.3-2,0.5-3.1,0.5h-2.1c-5.8,0-10.5-4.7-10.5-10.5S22.9,1.7,28.7,1.7h2.1c5.8,0,10.5,4.7,10.5,10.5
				C41.3,15.5,39.8,18.6,37.1,20.6z"/>
		</g>
	</g>
	<g>
		<g>
			<path class="st0" d="M33.5,9.2C33.4,7.4,32,6,30.2,5.9c-1-0.1-1.9,0.3-2.7,0.9c-0.7,0.7-1.1,1.6-1.1,2.6c0,0.5,0.4,0.8,0.8,0.8
				S28,9.8,28,9.4c0-0.5,0.2-1,0.6-1.4s0.9-0.5,1.4-0.5c0.9,0.1,1.7,0.8,1.7,1.7c0.1,0.9-0.5,1.8-1.5,2c-0.7,0.2-1.3,0.8-1.3,1.6v2
				c0,0.5,0.4,0.8,0.8,0.8c0.5,0,0.8-0.4,0.8-0.8v-2C32.5,12.5,33.6,10.9,33.5,9.2z"/>
		</g>
	</g>
	<g>
		<g>
			<path class="st0" d="M30.6,17.6c-0.2-0.2-0.4-0.2-0.6-0.2s-0.4,0.1-0.6,0.2c-0.2,0.2-0.2,0.4-0.2,0.6s0.1,0.4,0.2,0.6
				C29.6,19,29.8,19,30,19s0.4-0.1,0.6-0.2c0.2-0.2,0.2-0.4,0.2-0.6C30.8,17.9,30.7,17.7,30.6,17.6z"/>
		</g>
	</g>
	<g>
		<g>
			<path class="st0" d="M23.1,26H5.4c-0.5,0-0.8,0.4-0.8,0.8s0.4,0.8,0.8,0.8h17.7c0.5,0,0.8-0.4,0.8-0.8S23.6,26,23.1,26z"/>
		</g>
	</g>
	<g>
		<g>
			<path class="st0" d="M23.7,31c-0.2-0.2-0.4-0.2-0.6-0.2s-0.4,0.1-0.6,0.2c-0.2,0.2-0.2,0.4-0.2,0.6s0.1,0.4,0.2,0.6
				c0.2,0.2,0.4,0.2,0.6,0.2s0.4-0.1,0.6-0.2c0.2-0.2,0.2-0.4,0.2-0.6C23.9,31.4,23.8,31.1,23.7,31z"/>
		</g>
	</g>
	<g>
		<g>
			<path class="st0" d="M19.8,30.7H5.4c-0.5,0-0.8,0.4-0.8,0.8c0,0.5,0.4,0.8,0.8,0.8h14.4c0.5,0,0.8-0.4,0.8-0.8
				C20.6,31.1,20.3,30.7,19.8,30.7z"/>
		</g>
	</g>
	<g>
		<g>
			<path class="st0" d="M17.6,21.3H5.4c-0.5,0-0.8,0.4-0.8,0.8S4.9,23,5.4,23h12.3c0.5,0,0.8-0.4,0.8-0.8S18.1,21.3,17.6,21.3z"/>
		</g>
	</g>
</g>
</svg>
