<svg version="1.1" id="Layer_1" xmlns="http://www.w3.org/2000/svg" x="0" y="0" viewBox="0 0 41 39" xml:space="preserve"><style>.st2{fill:#7a8187}</style><path fill="#fff" fill-opacity="0" d="M0 0h41v39H0z"/><circle cx="20.5" cy="19" r="19" fill="#eeeff5"/><path class="st2" d="M38.7 12C38.2 6.1 34 1.8 28.8 1.8c-3.4 0-6.6 1.8-8.4 4.7-1.7-2.9-4.8-4.7-8.1-4.7-5.2 0-9.4 4.3-10 10.1v.2c0 .5-.1 1.7.3 3.6.8 3.3 2.6 6.2 5.1 8.5l12.6 11.5.1.1 13-11.6c2.5-2.2 4.3-5.2 5.1-8.5.5-2 .3-3.4.2-3.7zm-34.9.1c.5-5.1 4-8.8 8.3-8.8 3.2 0 6 2 7.5 5.2l.8 1.7.8-1.7c1.3-3.2 4.3-5.2 7.6-5.2 4.4 0 7.9 3.7 8.3 8.8v.1c.1.9 0 2-.2 3.2-.7 2.8-2.2 5.4-4.6 7.6L20.4 33.6 8.6 23.1C6.3 21 4.7 18.4 4 15.5c-.4-2.1-.2-3.3-.2-3.4z"/><path class="st2" d="M7.2 13.9c.5 0 .8-.4.8-.8 0-3 2.4-5.4 5.4-5.4.5 0 .8-.4.8-.8.1-.3 0-.5-.1-.7-.2-.1-.4-.2-.6-.2-3.9 0-7.1 3.3-7.1 7.1-.1.5.3.8.8.8z"/></svg>