<?xml version="1.0" encoding="utf-8"?>
<!-- Generator: Adobe Illustrator 22.0.1, SVG Export Plug-In . SVG Version: 6.00 Build 0)  -->
<svg version="1.1" id="Layer_1" xmlns="http://www.w3.org/2000/svg" xmlns:xlink="http://www.w3.org/1999/xlink" x="0px" y="0px"
	 viewBox="0 0 41 39" style="enable-background:new 0 0 41 39;" xml:space="preserve">
<style type="text/css">
	.st0{fill:#FFFFFF;fill-opacity:0;}
	.st1{fill:#EEEFF5;}
	.st2{fill:#7A8187;}
</style>
<rect class="st0" width="41" height="39"/>
<circle class="st1" cx="20.5" cy="19" r="19"/>
<g>
	<path class="st2" d="M38.7,12C38.2,6.1,34,1.8,28.8,1.8c-3.4,0-6.6,1.8-8.4,4.7c-1.7-2.9-4.8-4.7-8.1-4.7c-5.2,0-9.4,4.3-10,10.1
		c0,0,0,0.1,0,0.2c0,0.5-0.1,1.7,0.3,3.6c0.8,3.3,2.6,6.2,5.1,8.5l12.6,11.5l0.1,0.1l13-11.6c2.5-2.2,4.3-5.2,5.1-8.5
		C39,13.7,38.8,12.3,38.7,12z M3.8,12.1c0.5-5.1,4-8.8,8.3-8.8c3.2,0,6,2,7.5,5.2l0.8,1.7l0.8-1.7c1.3-3.2,4.3-5.2,7.6-5.2
		c4.4,0,7.9,3.7,8.3,8.8c0,0,0,0,0,0.1c0.1,0.9,0,2-0.2,3.2c-0.7,2.8-2.2,5.4-4.6,7.6L20.4,33.6L8.6,23.1c-2.3-2.1-3.9-4.7-4.6-7.6
		C3.6,13.4,3.8,12.2,3.8,12.1L3.8,12.1z"/>
	<path class="st2" d="M7.2,13.9c0.5,0,0.8-0.4,0.8-0.8c0-3,2.4-5.4,5.4-5.4c0.5,0,0.8-0.4,0.8-0.8c0.1-0.3,0-0.5-0.1-0.7
		C13.9,6.1,13.7,6,13.5,6c-3.9,0-7.1,3.3-7.1,7.1C6.3,13.6,6.7,13.9,7.2,13.9z"/>
</g>
</svg>
