<?xml version="1.0" encoding="utf-8"?>
<!-- Generator: Adobe Illustrator 22.0.1, SVG Export Plug-In . SVG Version: 6.00 Build 0)  -->
<svg version="1.1" id="Layer_1" xmlns="http://www.w3.org/2000/svg" xmlns:xlink="http://www.w3.org/1999/xlink" x="0px" y="0px"
	 viewBox="0 0 41 39" style="enable-background:new 0 0 41 39;" xml:space="preserve">
<style type="text/css">
	.st0{fill:#EEEFF5;}
	.st1{fill:#FFFFFF;fill-opacity:0;}
	.st2{fill:#7A8187;}
</style>
<circle class="st0" cx="20.5" cy="19" r="19"/>
<rect class="st1" width="41" height="39"/>
<g>
	<g>
		<g>
			<path class="st2" d="M36.3,15.4c0.7-0.7,0.9-1.7,0.6-2.6c-0.3-0.9-1.1-1.6-2-1.7l-8.4-1.2c-0.2,0-0.3-0.1-0.4-0.3l-3.7-7.5
				c-0.4-0.9-1.2-1.4-2.2-1.4S18.5,1.2,18,2.1l-3.8,7.5c-0.1,0.1-0.2,0.3-0.4,0.3l-8.3,1.2c-1,0.1-1.7,0.8-2,1.7s0,1.9,0.7,2.6
				l6,5.9c0.1,0.1,0.2,0.3,0.1,0.4L9,30c-0.2,0.9,0.2,1.9,1,2.5c0.8,0.6,1.8,0.6,2.6,0.2l7.4-3.9c0.1-0.1,0.3-0.1,0.5,0l7.4,3.9
				c0.4,0.2,0.8,0.3,1.2,0.3c0.5,0,1-0.2,1.5-0.5c0.8-0.6,1.2-1.5,1-2.5l-1.4-8.3c0-0.2,0-0.3,0.1-0.4L36.3,15.4z M28.1,22l1.4,8.3
				c0,0.3-0.1,0.4-0.2,0.5s-0.3,0.2-0.5,0l-7.4-3.9c-0.4-0.2-0.8-0.3-1.2-0.3c-0.4,0-0.8,0.1-1.2,0.3l-7.4,3.9c-0.2,0.1-0.5,0-0.5,0
				s-0.2-0.2-0.2-0.5l1.4-8.3c0.1-0.8-0.1-1.6-0.7-2.2l-6-5.9c-0.2-0.2-0.2-0.4-0.1-0.5c0-0.1,0.1-0.3,0.4-0.3l8.3-1.2
				c0.8-0.1,1.5-0.6,1.9-1.4L19.8,3c0.1-0.3,0.4-0.3,0.4-0.3c0.1,0,0.3,0,0.4,0.3l0,0l3.7,7.5c0.4,0.7,1.1,1.3,1.9,1.4l8.3,1.2
				c0.3,0,0.4,0.3,0.4,0.3c0,0.1,0.1,0.3-0.1,0.5l-6,5.9C28.3,20.4,28,21.2,28.1,22z"/>
		</g>
	</g>
	<g>
		<g>
			<path class="st2" d="M32,2.1c-0.4-0.3-1.1-0.2-1.4,0.2l-1.1,1.5c-0.3,0.4-0.2,1.1,0.2,1.4c0.2,0.1,0.5,0.2,0.7,0.2
				c0.3,0,0.6-0.1,0.8-0.4l1.1-1.5C32.5,3,32.5,2.4,32,2.1z"/>
		</g>
	</g>
	<g>
		<g>
			<path class="st2" d="M10.9,3.8l-1-1.5c-0.3-0.4-1-0.5-1.4-0.2S7.9,3,8.4,3.5l1,1.5c0.1,0.2,0.4,0.4,0.7,0.4
				c0.2,0,0.4-0.1,0.6-0.2C11.3,4.8,11.4,4.2,10.9,3.8z"/>
		</g>
	</g>
	<g>
		<g>
			<path class="st2" d="M4.9,23.2c-0.2-0.5-0.7-0.8-1.3-0.6l-1.7,0.6c-0.5,0.1-0.8,0.6-0.7,1.2c0.1,0.4,0.5,0.7,1,0.7
				c0.1,0,0.2,0,0.3,0l1.7-0.7C4.8,24.3,5.1,23.7,4.9,23.2z"/>
		</g>
	</g>
	<g>
		<g>
			<path class="st2" d="M20.3,34.3c-0.6,0-1,0.4-1,1v1.8c0,0.6,0.4,1,1,1s1-0.4,1-1v-1.8C21.3,34.8,20.9,34.3,20.3,34.3z"/>
		</g>
	</g>
	<g>
		<g>
			<path class="st2" d="M38.5,23.1l-1.7-0.6c-0.5-0.2-1.1,0.1-1.3,0.6s0.1,1.1,0.6,1.3l1.7,0.6c0.1,0,0.2,0,0.3,0
				c0.4,0,0.8-0.3,1-0.7C39.3,23.8,39,23.3,38.5,23.1z"/>
		</g>
	</g>
</g>
</svg>
