<svg version="1.1" id="Capa_1" xmlns="http://www.w3.org/2000/svg" x="0" y="0" viewBox="0 0 512 512" xml:space="preserve"><style>.st0,.st1{fill:none;stroke:#a8acae;stroke-width:23.0659;stroke-linecap:round;stroke-miterlimit:10}.st1{stroke-width:26}.st2{fill:#a8acae}</style><path class="st0" d="M13.2 243h64.6"/><path class="st1" d="M48.5 111.5l27.5 18m-27.5 245l27.5-18"/><path class="st0" d="M499.3 243h-64.5"/><path class="st1" d="M464 111.5l-27.5 18m27.5 245l-27.5-18"/><path class="st2" d="M180.9 310.4h-41.6c-1.6 0-3-1.3-3-3V277c0-1.6 1.4-3 3-3h41.6c1.6 0 3 1.4 3 3v30.4c0 1.7-1.4 3-3 3z"/><path class="st2" d="M372.5 346H217.4v-36.2h5.7c82.7 0 162.9-23.5 162.9-122.6 0-68-48.6-93-100.2-93H171.4c-.8 0-1.5.6-1.5 1.2v178.7h-26.1v36.2h26.1v35.8h-30.6c-1.7 0-3 1.3-3 3v30.1c0 1.7 1.3 3 3 3h4.4v.1h26.2v66.8c0 1.7 1.3 3 3 3h41.6c1.7 0 3-1.3 3-3v-37.9c0-.3 0-.5-.1-.7v-28.3h155.1c1.6 0 3-1.4 3-3V349c0-1.6-1.3-3-3-3zM217.4 130h55.8c28.6 0 62.3 16.4 62.3 61.4 0 60.8-39.4 82.7-101.7 82.7h-16.4V130z"/></svg>