<svg xmlns="http://www.w3.org/2000/svg" viewBox="0 0 512 512"><path d="M15.6 243h71M64.5 132.5l27.5 18m-27.5 200l27.5-18M496.4 243h-71m22.1-110.5l-27.5 18m27.5 200l-27.5-18" fill="none" stroke="#2e3038" stroke-width="30" stroke-linecap="round" stroke-miterlimit="10"/><path d="M372.5 346H217.4v-36.2h5.7c82.7 0 162.9-23.5 162.9-122.6 0-68-48.6-93-100.2-93H171.4c-.8 0-1.5.6-1.5 1.2V274h-30.6c-1.6 0-3 1.4-3 3v30.4c0 1.7 1.4 3 3 3h30.6v35.7h-30.6c-1.7 0-3 1.3-3 3v30.1c0 1.7 1.3 3 3 3h4.4v.1h26.2v66.8c0 1.7 1.3 3 3 3h41.6c1.7 0 3-1.3 3-3v-37.9c0-.3 0-.5-.1-.7v-28.3h155.1c1.6 0 3-1.4 3-3V349c0-1.6-1.3-3-3-3zm-155.1-71.9V130h55.8c28.6 0 62.3 16.4 62.3 61.4 0 60.8-39.4 82.7-101.7 82.7h-16.4z" fill="#2e3038"/></svg>