<svg version="1.1" id="Layer_1" xmlns="http://www.w3.org/2000/svg" x="0" y="0" viewBox="0 0 41 39" xml:space="preserve"><style>.st2{fill:#7a8187}</style><circle cx="20.5" cy="19" r="19" fill="#eeeff5"/><path fill="#fff" fill-opacity="0" d="M0 0h41v39H0z"/><path class="st2" d="M38.1 16c.8-.8 1-1.9.7-2.8-.3-1-1.2-1.7-2.2-1.9L27.4 10c-.2 0-.3-.1-.4-.3l-4-8.2C22.6.5 21.7 0 20.6 0c-1.1 0-1.9.5-2.4 1.5L14 9.7c-.1.1-.2.3-.4.3l-9.1 1.3c-1.1.1-1.9.9-2.2 1.9s0 2.1.8 2.8l6.5 6.4c.1.1.2.3.1.4L8.3 32c-.2 1 .2 2.1 1.1 2.7s2 .7 2.8.2l8.1-4.3c.1-.1.3-.1.5 0l8.1 4.3c.4.2.9.3 1.3.3.5 0 1.1-.2 1.6-.5.9-.7 1.3-1.6 1.1-2.7l-1.5-9.1c0-.2 0-.3.1-.4l6.6-6.5zm-9 7.2l1.5 9.1c0 .3-.1.4-.2.5-.1.1-.3.2-.5 0l-8.1-4.3c-.4-.2-.9-.3-1.3-.3s-.9.1-1.3.3l-8.1 4.3c-.2.1-.5 0-.5 0s-.2-.2-.2-.5l1.5-9.1c.1-.9-.1-1.7-.8-2.4l-6.5-6.4c-.2-.2-.2-.4-.1-.5 0-.1.1-.3.4-.3l9.1-1.3c.9-.1 1.6-.7 2.1-1.5l4-8.2c.1-.3.4-.3.4-.3.1 0 .3 0 .4.3l4 8.2c.4.8 1.2 1.4 2.1 1.5l9.1 1.3c.3 0 .4.3.4.3 0 .1.1.3-.1.5l-6.5 6.4c-.6.7-.9 1.6-.8 2.4zm3.7-21.6c-.4-.3-1.1-.2-1.5.2l-1.1 1.6c-.3.4-.2 1.1.2 1.5.2.1.5.2.7.2.3 0 .6-.1.8-.4L33 3.1c.3-.5.3-1.2-.2-1.5zm-22 1.8l-1-1.6c-.3-.4-1-.5-1.5-.2s-.6 1-.1 1.5l1 1.6c.2.2.5.4.8.4.2 0 .4-.1.6-.2.7-.5.8-1.1.2-1.5zM4.6 23.6c-.2-.5-.7-.8-1.4-.6l-1.8.6c-.5.1-.8.6-.7 1.2.1.4.5.7 1 .7H2l1.8-.7c.7-.1 1-.7.8-1.2z"/><path class="st2" d="M20.6 35.1c-.6 0-1 .4-1 1V38c0 .6.4 1 1 1s1-.4 1-1v-1.9c.1-.4-.4-1-1-1zm19-11.6l-1.8-.6c-.5-.2-1.1.1-1.4.6s.1 1.1.6 1.4l1.8.6h.3c.4 0 .8-.3 1-.7.3-.6 0-1.1-.5-1.3zm-14.2-1.4h-6.5v-1.5h.2c3.4 0 6.8-1 6.8-5.1 0-2.8-2-3.9-4.2-3.9H17s-.1 0-.1.1v7.4h-1.3c-.1 0-.1.1-.1.1v1.3c0 .1.1.1.1.1H17v1.5h-1.3c-.1 0-.1.1-.1.1v1.3c0 .1.1.1.1.1H17v2.8c0 .1.1.1.1.1h1.7c.1 0 .1-.1.1-.1v-2.8h6.5c.1 0 .1-.1.1-.1v-1.3s0-.1-.1-.1zm-6.5-3v-6h2.3c1.2 0 2.6.7 2.6 2.6 0 2.5-1.6 3.4-4.2 3.4h-.7z"/></svg>