<svg xmlns="http://www.w3.org/2000/svg" viewBox="0 0 41 39"><circle cx="20.5" cy="19" r="19" fill="#eeeff5"/><path fill="#fff" fill-opacity="0" d="M0 0h41v39H0z"/><path d="M36.3 15.4c.7-.7.9-1.7.6-2.6-.3-.9-1.1-1.6-2-1.7l-8.4-1.2c-.2 0-.3-.1-.4-.3l-3.7-7.5C22 1.2 21.2.7 20.2.7s-1.7.5-2.2 1.4l-3.8 7.5c-.1.1-.2.3-.4.3l-8.3 1.2c-1 .1-1.7.8-2 1.7s0 1.9.7 2.6l6 5.9c.1.1.2.3.1.4L9 30c-.2.9.2 1.9 1 2.5.8.6 1.8.6 2.6.2l7.4-3.9c.1-.1.3-.1.5 0l7.4 3.9c.4.2.8.3 1.2.3.5 0 1-.2 1.5-.5.8-.6 1.2-1.5 1-2.5l-1.4-8.3c0-.2 0-.3.1-.4l6-5.9zM28.1 22l1.4 8.3c0 .3-.1.4-.2.5s-.3.2-.5 0l-7.4-3.9c-.4-.2-.8-.3-1.2-.3-.4 0-.8.1-1.2.3l-7.4 3.9c-.2.1-.5 0-.5 0s-.2-.2-.2-.5l1.4-8.3c.1-.8-.1-1.6-.7-2.2l-6-5.9c-.2-.2-.2-.4-.1-.5 0-.1.1-.3.4-.3l8.3-1.2c.8-.1 1.5-.6 1.9-1.4L19.8 3c.1-.3.4-.3.4-.3.1 0 .3 0 .4.3l3.7 7.5c.4.7 1.1 1.3 1.9 1.4l8.3 1.2c.3 0 .4.3.4.3 0 .1.1.3-.1.5l-6 5.9c-.5.6-.8 1.4-.7 2.2zM32 2.1c-.4-.3-1.1-.2-1.4.2l-1.1 1.5c-.3.4-.2 1.1.2 1.4.2.1.5.2.7.2.3 0 .6-.1.8-.4l1.1-1.5c.2-.5.2-1.1-.3-1.4zM10.9 3.8l-1-1.5c-.3-.4-1-.5-1.4-.2s-.6.9-.1 1.4l1 1.5c.1.2.4.4.7.4.2 0 .4-.1.6-.2.6-.4.7-1 .2-1.4zm-6 19.4c-.2-.5-.7-.8-1.3-.6l-1.7.6c-.5.1-.8.6-.7 1.2.1.4.5.7 1 .7h.3l1.7-.7c.6-.1.9-.7.7-1.2zm15.4 11.1c-.6 0-1 .4-1 1v1.8c0 .6.4 1 1 1s1-.4 1-1v-1.8c0-.5-.4-1-1-1zm18.2-11.2l-1.7-.6c-.5-.2-1.1.1-1.3.6s.1 1.1.6 1.3l1.7.6h.3c.4 0 .8-.3 1-.7.2-.5-.1-1-.6-1.2z" fill="#7a8187"/></svg>