<svg version="1.1" id="Layer_1" xmlns="http://www.w3.org/2000/svg" x="0" y="0" viewBox="0 0 137 131.5" xml:space="preserve"><style>.st0{fill:#ff3495}</style><path class="st0" d="M134 59.8c2.8-2.8 3.7-6.9 2.4-10.6-1.2-3.7-4.5-6.5-8.1-6.9l-34.2-4.9c-.8 0-1.2-.4-1.6-1.2L77.4 5.7C75.8 2 72.5 0 68.5 0s-6.9 2-9 5.7L44 36.2c-.4.4-.8 1.2-1.6 1.2L8.6 42.3c-4.1.4-6.9 3.3-8.1 6.9-1.2 3.7 0 7.7 2.8 10.6l24.4 24c.4.4.8 1.2.4 1.6l-5.3 33.8c-.8 3.7.8 7.7 4.1 10.2 3.3 2.4 7.3 2.4 10.6.8l30.1-15.9c.4-.4 1.2-.4 2 0l30.1 15.9c1.6.8 3.3 1.2 4.9 1.2 2 0 4.1-.8 6.1-2 3.3-2.4 4.9-6.1 4.1-10.2l-5.7-33.8c0-.8 0-1.2.4-1.6l24.5-24zm-33.4 26.9l5.7 33.8c0 1.2-.4 1.6-.8 2-.4.4-1.2.8-2 0l-30.1-15.9c-1.6-.8-3.3-1.2-4.9-1.2-1.6 0-3.3.4-4.9 1.2l-30.1 15.9c-.8.4-2 0-2 0s-.8-.8-.8-2l5.7-33.8c.4-3.3-.4-6.5-2.8-9L9 53.7c-.8-.8-.8-1.6-.4-2 0-.4.4-1.2 1.6-1.2L44 45.6c3.3-.4 6.1-2.4 7.7-5.7L66.8 9.4c.4-1.2 1.6-1.2 1.6-1.2.4 0 1.2 0 1.6 1.2l15.1 30.5c1.6 2.8 4.5 5.3 7.7 5.7l33.8 4.9c1.2 0 1.6 1.2 1.6 1.2 0 .4.4 1.2-.4 2l-24.4 24c-2 2.5-3.2 5.8-2.8 9z"/><path class="st0" d="M84.5 82.2H62.2V77h.8c11.9 0 23.4-3.4 23.4-17.6 0-9.8-7-13.4-14.4-13.4H55.6c-.1 0-.2.1-.2.2v25.7H51c-.2 0-.4.2-.4.4v4.4c0 .2.2.4.4.4h4.4v5.1H51c-.2 0-.4.2-.4.4V87c0 .2.2.4.4.4h4.4v9.7c0 .2.2.4.4.4h6c.2 0 .4-.2.4-.4v-9.7h22.3c.2 0 .4-.2.4-.4v-4.3c.1-.3-.1-.5-.4-.5zM62.2 71.9V51.2h8c4.1 0 9 2.4 9 8.8 0 8.7-5.7 11.9-14.6 11.9h-2.4z"/></svg>