<svg version="1.1" id="Capa_1" xmlns="http://www.w3.org/2000/svg" x="0" y="0" viewBox="0 0 512 512" xml:space="preserve"><style>.st0{fill:#2e3038}</style><path class="st0" d="M491.7 113L259.3.7c-2.1-1-4.5-1-6.5 0L20.3 113c-2.6 1.3-4.2 3.9-4.2 6.8v272.5c0 2.9 1.6 5.5 4.2 6.8l232.5 112.2c1 .5 2.1.7 3.3.7 1.1 0 2.2-.2 3.3-.7L491.7 399c2.6-1.3 4.2-3.9 4.2-6.8V119.7c.1-2.9-1.6-5.5-4.2-6.7zM256 15.8l215.2 103.9-62.4 30.1c-.4-.3-.8-.6-1.3-.8L193.8 45.9 256 15.8zm-79.1 38.5L391.8 158l-44 21.2L132.9 75.6l44-21.3zm219.9 118v78.5l-41.1 19.8v-78.5l41.1-19.8zM481 387.6l-217.5 105V236.7l51.9-25c3.7-1.8 5.3-6.3 3.5-10-1.8-3.7-6.3-5.3-10-3.5L256 223.6l-20.8-10c-3.7-1.8-8.2-.2-10 3.5s-.2 8.2 3.5 10l19.8 9.6v255.9L31 387.6V131.7l165.6 79.9c1.1.5 2.2.7 3.3.7 2.8 0 5.5-1.6 6.8-4.2 1.8-3.7.2-8.2-3.5-10L40.8 119.7l74.5-36 225.3 108.8.1.1v90c0 2.6 1.3 5 3.5 6.4 1.2.8 2.6 1.1 4 1.1 1.1 0 2.2-.2 3.3-.7l56.1-27.1c2.6-1.3 4.2-3.9 4.2-6.8V165l69.2-33.4v256z"/><path class="st0" d="M92.9 358.5L58.8 342c-3.7-1.8-8.2-.2-10 3.5s-.2 8.2 3.5 10L86.4 372c1.1.5 2.2.7 3.3.7 2.8 0 5.5-1.6 6.8-4.2 1.7-3.7.2-8.2-3.6-10zm31.4-20.5l-65.5-31.6c-3.7-1.8-8.2-.2-10 3.5-1.8 3.7-.2 8.2 3.5 10l65.5 31.6c1.1.5 2.2.7 3.3.7 2.8 0 5.5-1.6 6.8-4.2 1.7-3.7.2-8.2-3.6-10z"/></svg>