<svg version="1.1" id="Capa_1" xmlns="http://www.w3.org/2000/svg" x="0" y="0" viewBox="0 0 43 43" xml:space="preserve"><style>.st0{fill:#ff3495}</style><path class="st0" d="M6.8 12.1h3.5v3.5c0 .5.4.9.9.9s.9-.4.9-.9v-3.5h3.5c.5 0 .9-.4.9-.9s-.4-.9-.9-.9h-3.5V6.8c0-.5-.4-.9-.9-.9s-.9.4-.9.9v3.5H6.8c-.5 0-.9.4-.9.9s.4.9.9.9zm20.6 0h8.8c.5 0 .9-.4.9-.9s-.4-.9-.9-.9h-8.8c-.5 0-.9.4-.9.9s.4.9.9.9z"/><path class="st0" d="M0 0v43h43V0H0zm20.6 41.2H1.8V22.4h18.8v18.8zm0-20.6H1.8V1.8h18.8v18.8zm20.6 20.6H22.4V22.4h18.8v18.8zm0-20.6H22.4V1.8h18.8v18.8z"/><path class="st0" d="M27.4 34.9h8.8c.5 0 .9-.4.9-.9s-.4-.9-.9-.9h-8.8c-.5 0-.9.4-.9.9s.4.9.9.9zm0-4.4h8.8c.5 0 .9-.4.9-.9s-.4-.9-.9-.9h-8.8c-.5 0-.9.4-.9.9s.4.9.9.9zM9.9 31.8l-3 3c-.3.3-.3.9 0 1.3.3.3.9.3 1.3 0l3-3 3 3c.2.2.4.3.6.3.2 0 .5-.1.6-.3.3-.3.3-.9 0-1.3l-3-3 3-3c.2-.2.3-.4.3-.6s-.1-.5-.3-.6c-.2-.2-.4-.3-.6-.3-.2 0-.5.1-.6.3l-3 3-3-3c-.3-.3-.9-.3-1.3 0-.2.2-.3.4-.3.6s.1.5.3.6l3 3z"/></svg>