<?xml version="1.0" encoding="utf-8"?>
<!-- Generator: Adobe Illustrator 22.0.1, SVG Export Plug-In . SVG Version: 6.00 Build 0)  -->
<svg version="1.1" id="Capa_1" xmlns="http://www.w3.org/2000/svg" xmlns:xlink="http://www.w3.org/1999/xlink" x="0px" y="0px"
	 viewBox="0 0 43 43" style="enable-background:new 0 0 43 43;" xml:space="preserve">
<style type="text/css">
	.st0{fill:#FF3495;}
</style>
<g>
	<path class="st0" d="M6.8,12.1h3.5v3.5c0,0.5,0.4,0.9,0.9,0.9s0.9-0.4,0.9-0.9v-3.5h3.5c0.5,0,0.9-0.4,0.9-0.9s-0.4-0.9-0.9-0.9
		h-3.5V6.8c0-0.5-0.4-0.9-0.9-0.9s-0.9,0.4-0.9,0.9v3.5H6.8c-0.5,0-0.9,0.4-0.9,0.9S6.3,12.1,6.8,12.1z"/>
	<path class="st0" d="M27.4,12.1h8.8c0.5,0,0.9-0.4,0.9-0.9s-0.4-0.9-0.9-0.9h-8.8c-0.5,0-0.9,0.4-0.9,0.9
		C26.5,11.7,26.9,12.1,27.4,12.1z"/>
	<path class="st0" d="M0,0v43h43V0H0z M20.6,41.2H1.8V22.4h18.8C20.6,22.4,20.6,41.2,20.6,41.2z M20.6,20.6H1.8V1.8h18.8
		C20.6,1.8,20.6,20.6,20.6,20.6z M41.2,41.2H22.4V22.4h18.8C41.2,22.4,41.2,41.2,41.2,41.2z M41.2,20.6H22.4V1.8h18.8
		C41.2,1.8,41.2,20.6,41.2,20.6z"/>
	<path class="st0" d="M27.4,34.9h8.8c0.5,0,0.9-0.4,0.9-0.9s-0.4-0.9-0.9-0.9h-8.8c-0.5,0-0.9,0.4-0.9,0.9
		C26.5,34.5,26.9,34.9,27.4,34.9z"/>
	<path class="st0" d="M27.4,30.5h8.8c0.5,0,0.9-0.4,0.9-0.9s-0.4-0.9-0.9-0.9h-8.8c-0.5,0-0.9,0.4-0.9,0.9
		C26.5,30.1,26.9,30.5,27.4,30.5z"/>
	<path class="st0" d="M9.9,31.8l-3,3c-0.3,0.3-0.3,0.9,0,1.3c0.3,0.3,0.9,0.3,1.3,0l3-3l3,3c0.2,0.2,0.4,0.3,0.6,0.3
		c0.2,0,0.5-0.1,0.6-0.3c0.3-0.3,0.3-0.9,0-1.3l-3-3l3-3c0.2-0.2,0.3-0.4,0.3-0.6s-0.1-0.5-0.3-0.6c-0.2-0.2-0.4-0.3-0.6-0.3l0,0
		c-0.2,0-0.5,0.1-0.6,0.3l-3,3l-3-3c-0.3-0.3-0.9-0.3-1.3,0c-0.2,0.2-0.3,0.4-0.3,0.6s0.1,0.5,0.3,0.6L9.9,31.8z"/>
</g>
</svg>
