<svg xmlns="http://www.w3.org/2000/svg" viewBox="0 0 32 32"><path d="M12.7 26.3c-.7 0-1.3.6-1.3 1.3s.6 1.3 1.3 1.3 1.3-.6 1.3-1.3-.6-1.3-1.3-1.3zm0-2.4c2 0 3.7 1.6 3.7 3.7s-1.7 3.7-3.7 3.7S9 29.6 9 27.6s1.7-3.7 3.7-3.7zm11 2.4c-.7 0-1.3.6-1.3 1.3 0 .7.6 1.3 1.3 1.3.7 0 1.3-.6 1.3-1.3 0-.7-.6-1.3-1.3-1.3zm0-2.4c2.1 0 3.7 1.6 3.7 3.7s-1.7 3.7-3.7 3.7c-2.1 0-3.7-1.7-3.7-3.7s1.7-3.7 3.7-3.7zM4.7 3.1H1.2C.6 3.1 0 2.6 0 1.9S.6.7 1.2.7h4.5c.6 0 1.1.4 1.2 1l1.1 5h22.8c.7 0 1.2.5 1.2 1.2 0 .1 0 .2-.1.4l-4 12.9c-.2.5-.6.9-1.2.9h-17c-.6 0-1.1-.4-1.2-1l-2.7-13V8L4.7 3.1zm3.8 6l2.2 10.4h15.1l3.3-10.4H8.5z" fill="#2e3038"/></svg>