<?xml version="1.0" encoding="utf-8"?>
<!-- Generator: Adobe Illustrator 22.0.1, SVG Export Plug-In . SVG Version: 6.00 Build 0)  -->
<svg version="1.1" id="Layer_1" xmlns="http://www.w3.org/2000/svg" xmlns:xlink="http://www.w3.org/1999/xlink" x="0px" y="0px"
	 viewBox="0 0 9 5.3" style="enable-background:new 0 0 9 5.3;" xml:space="preserve">
<style type="text/css">
	.st0{fill:#212529;}
</style>
<g>
	<g>
		<path class="st0" d="M8.9,0.4L8.6,0.1C8.5,0.1,8.3,0,8.2,0C8.1,0,8,0.1,7.9,0.1L4.5,3.5L1.1,0.1C1,0.1,0.9,0,0.8,0
			S0.5,0.1,0.4,0.1L0.1,0.4C0,0.6,0,0.9,0.1,1.1l4,4c0.1,0.1,0.2,0.2,0.3,0.2h0c0.1,0,0.3-0.1,0.3-0.2l4-4C8.9,1.1,9,0.9,9,0.8
			C9,0.7,8.9,0.5,8.9,0.4z"/>
	</g>
</g>
</svg>
