<svg version="1.1" id="Capa_1" xmlns="http://www.w3.org/2000/svg" x="0" y="0" viewBox="0 0 40 40" xml:space="preserve"><style>.st1{fill:#2e3038}</style><circle cx="20" cy="20" r="20" fill="#fee44c"/><path class="st1" d="M19 6.8C12.2 6.8 6.8 12.2 6.8 19S12.2 31.3 19 31.3 31.3 25.8 31.3 19 25.8 6.8 19 6.8zm0 22.4c-5.6 0-10.2-4.6-10.2-10.2S13.4 8.8 19 8.8 29.2 13.4 29.2 19 24.6 29.2 19 29.2z" transform="translate(1 1)"/><path class="st1" d="M19 10.8c-.6 0-1 .5-1 1V18h-3.1c-.6 0-1 .5-1 1s.5 1 1 1H19c.6 0 1-.5 1-1v-7.1c0-.6-.4-1.1-1-1.1z" transform="translate(1 1)"/></svg>