<?xml version="1.0" encoding="utf-8"?>
<!-- Generator: Adobe Illustrator 22.0.1, SVG Export Plug-In . SVG Version: 6.00 Build 0)  -->
<svg version="1.1" id="Layer_1" xmlns="http://www.w3.org/2000/svg" xmlns:xlink="http://www.w3.org/1999/xlink" x="0px" y="0px"
	 viewBox="0 0 41 39" style="enable-background:new 0 0 41 39;" xml:space="preserve">
<style type="text/css">
	.st0{fill:#EEEFF5;}
	.st1{fill:#7A8187;}
</style>
<circle class="st0" cx="20.5" cy="19" r="19"/>
<g>
	<path class="st1" d="M33.1,21.8c-1,0-2,0.4-2.6,1.1c-0.7,0.7-1.1,1.6-1.1,2.6s0.4,2,1.1,2.6c0.8,0.7,1.6,1.1,2.6,1.1
		c2.1,0,3.7-1.6,3.7-3.7S35.1,21.8,33.1,21.8z M33.1,27.5c-1.1,0-2.1-1-2.1-2.1s1-2.1,2.1-2.1c1.1,0,2.1,0.9,2.1,2.1
		S34.3,27.5,33.1,27.5z M34,9.4c-0.1-0.1-0.3-0.2-0.5-0.2h-4.2c-0.4,0-0.9,0.3-0.9,0.9v6.7c0,0.4,0.3,0.9,0.9,0.9h6.6
		c0.4,0,0.9-0.3,0.9-0.9v-4.5c0-0.2-0.1-0.4-0.2-0.7L34,9.4z M35.1,15.9h-5v-5.1h3l2,1.7V15.9z M13,21.8c-1,0-2,0.4-2.6,1.1
		c-0.7,0.7-1.1,1.6-1.1,2.6s0.4,2,1.1,2.6c0.8,0.7,1.6,1.1,2.6,1.1c2.1,0,3.7-1.6,3.7-3.7S15,21.8,13,21.8z M13,27.5
		c-1.1,0-2.1-1-2.1-2.1s1-2.1,2.1-2.1s2.1,0.9,2.1,2.1S14.1,27.5,13,27.5z M7.6,22.8H5.9v-2.2c0-0.4-0.3-0.9-0.9-0.9
		c-0.4,0-0.9,0.3-0.9,0.9v3c0,0.4,0.3,0.9,0.9,0.9h2.6c0.4,0,0.9-0.3,0.9-0.9S8,22.8,7.6,22.8z M11.7,18.3c0-0.4-0.3-0.9-0.9-0.9H1
		c-0.4,0-0.9,0.3-0.9,0.9c0,0.4,0.3,0.9,0.9,0.9h9.9C11.3,19.1,11.7,18.8,11.7,18.3z M2.6,15.3l10,0.1c0.4,0,0.9-0.3,0.9-0.8
		c0-0.4-0.3-0.9-0.8-0.9l-10-0.1l0,0c-0.4,0-0.9,0.3-0.9,0.8C1.7,15,2.2,15.3,2.6,15.3z M4.2,11.6h10c0.4,0,0.9-0.3,0.9-0.9
		c0-0.4-0.3-0.9-0.9-0.9h-10c-0.4,0-0.9,0.3-0.9,0.9C3.5,11.3,3.8,11.6,4.2,11.6z M40.1,10.5L40.1,10.5l-5.9-4.9
		c-0.1-0.1-0.3-0.2-0.5-0.2h-7v-3c0-0.4-0.3-0.9-0.9-0.9H5.1c-0.4,0-0.9,0.3-0.9,0.9v6c0,0.4,0.3,0.9,0.9,0.9C5.5,9.3,6,9,6,8.4V3.3
		h19.3v19.5h-6.7c-0.4,0-0.9,0.3-0.9,0.9s0.3,0.9,0.9,0.9h10c0.4,0,0.9-0.3,0.9-0.9s-0.5-0.9-1-0.9h-1.6V7.1h6.6l5.3,4.5l-0.1,11.2
		h-0.9c-0.4,0-0.9,0.3-0.9,0.9c0,0.4,0.3,0.9,0.9,0.9h1.6c0.4,0,0.9-0.3,0.9-0.8l0.1-12.4C40.5,10.9,40.3,10.6,40.1,10.5z"/>
</g>
</svg>
