<svg xmlns="http://www.w3.org/2000/svg" viewBox="0 0 41 39"><circle cx="20.5" cy="19" r="19" fill="#eeeff5"/><path d="M33.1 21.8c-1 0-2 .4-2.6 1.1-.7.7-1.1 1.6-1.1 2.6s.4 2 1.1 2.6c.8.7 1.6 1.1 2.6 1.1 2.1 0 3.7-1.6 3.7-3.7s-1.7-3.7-3.7-3.7zm0 5.7c-1.1 0-2.1-1-2.1-2.1s1-2.1 2.1-2.1 2.1.9 2.1 2.1-.9 2.1-2.1 2.1zM34 9.4c-.1-.1-.3-.2-.5-.2h-4.2c-.4 0-.9.3-.9.9v6.7c0 .4.3.9.9.9h6.6c.4 0 .9-.3.9-.9v-4.5c0-.2-.1-.4-.2-.7L34 9.4zm1.1 6.5h-5v-5.1h3l2 1.7v3.4zM13 21.8c-1 0-2 .4-2.6 1.1-.7.7-1.1 1.6-1.1 2.6s.4 2 1.1 2.6c.8.7 1.6 1.1 2.6 1.1 2.1 0 3.7-1.6 3.7-3.7S15 21.8 13 21.8zm0 5.7c-1.1 0-2.1-1-2.1-2.1s1-2.1 2.1-2.1 2.1.9 2.1 2.1-1 2.1-2.1 2.1zm-5.4-4.7H5.9v-2.2c0-.4-.3-.9-.9-.9-.4 0-.9.3-.9.9v3c0 .4.3.9.9.9h2.6c.4 0 .9-.3.9-.9s-.5-.8-.9-.8zm4.1-4.5c0-.4-.3-.9-.9-.9H1c-.4 0-.9.3-.9.9 0 .4.3.9.9.9h9.9c.4-.1.8-.4.8-.9zm-9.1-3l10 .1c.4 0 .9-.3.9-.8 0-.4-.3-.9-.8-.9l-10-.1c-.4 0-.9.3-.9.8-.1.6.4.9.8.9zm1.6-3.7h10c.4 0 .9-.3.9-.9 0-.4-.3-.9-.9-.9h-10c-.4 0-.9.3-.9.9.2.6.5.9.9.9zm35.9-1.1l-5.9-4.9c-.1-.1-.3-.2-.5-.2h-7v-3c0-.4-.3-.9-.9-.9H5.1c-.4 0-.9.3-.9.9v6c0 .4.3.9.9.9.4 0 .9-.3.9-.9V3.3h19.3v19.5h-6.7c-.4 0-.9.3-.9.9s.3.9.9.9h10c.4 0 .9-.3.9-.9s-.5-.9-1-.9h-1.6V7.1h6.6l5.3 4.5-.1 11.2h-.9c-.4 0-.9.3-.9.9 0 .4.3.9.9.9h1.6c.4 0 .9-.3.9-.8l.1-12.4c.1-.5-.1-.8-.3-.9z" fill="#7a8187"/></svg>