<?xml version="1.0" encoding="utf-8"?>
<!-- Generator: Adobe Illustrator 22.0.1, SVG Export Plug-In . SVG Version: 6.00 Build 0)  -->
<svg version="1.1" id="Capa_1" xmlns="http://www.w3.org/2000/svg" xmlns:xlink="http://www.w3.org/1999/xlink" x="0px" y="0px"
	 viewBox="0 0 28 22" style="enable-background:new 0 0 28 22;" xml:space="preserve">
<style type="text/css">
	.st0{fill:#2E3038;}
</style>
<g>
	<g>
		<path class="st0" d="M27.2,0H0.8C0.4,0,0,0.4,0,0.8v20.3C0,21.6,0.4,22,0.8,22h26.4c0.5,0,0.8-0.4,0.8-0.8V0.8
			C28,0.4,27.6,0,27.2,0z M24.6,1.7L14,9.3L3.4,1.7H24.6z M26.4,20.3H1.6V2.5L13.5,11c0.3,0.2,0.7,0.2,0.9,0l11.9-8.6V20.3z"/>
	</g>
</g>
<g>
	<g>
		<path class="st0" d="M8,16.3H4.1c-0.5,0-0.8,0.4-0.8,0.8c0,0.5,0.4,0.8,0.8,0.8H8c0.5,0,0.8-0.4,0.8-0.8C8.8,16.7,8.5,16.3,8,16.3
			z"/>
	</g>
</g>
</svg>
