<svg xmlns="http://www.w3.org/2000/svg" viewBox="0 0 512 512"><path d="M396.9 0H115.1C87.9 0 65.8 22.1 65.8 49.3v413.5c0 27.2 22.1 49.3 49.3 49.3h281.8c27.2 0 49.3-22.1 49.3-49.3V49.3c0-27.2-22.1-49.3-49.3-49.3zM133.3 85.1c0-8.3 6.7-15 15-15h215.3c8.3 0 15 6.7 15 15v29.6c0 8.3-6.7 15-15 15H148.3c-8.3 0-15-6.7-15-15V85.1zm50.5 336.8c0 8.3-6.7 15-15 15h-20.5c-8.3 0-15-6.7-15-15v-14.2c0-8.3 6.7-15 15-15h20.5c8.3 0 15 6.7 15 15v14.2zm0-88.8c0 8.3-6.7 15-15 15h-20.5c-8.3 0-15-6.7-15-15v-14.2c0-8.3 6.7-15 15-15h20.5c8.3 0 15 6.7 15 15v14.2zm98.7 88.8c0 8.3-6.7 15-15 15H247c-8.3 0-15-6.7-15-15v-14.2c0-8.3 6.7-15 15-15h20.5c8.3 0 15 6.7 15 15v14.2zm0-88.8c0 8.3-6.7 15-15 15H247c-8.3 0-15-6.7-15-15v-14.2c0-8.3 6.7-15 15-15h20.5c8.3 0 15 6.7 15 15v14.2zm0-88.7c0 8.3-6.7 15-15 15H148.3c-8.3 0-15-6.7-15-15v-14.2c0-8.3 6.7-15 15-15h119.1c8.3 0 15 6.7 15 15v14.2zm98.6 177.5c0 8.3-6.7 15-15 15h-20.5c-8.3 0-15-6.7-15-15v-14.2c0-8.3 6.7-15 15-15h20.5c8.3 0 15 6.7 15 15v14.2zm0-88.8c0 8.3-6.7 15-15 15h-20.5c-8.3 0-15-6.7-15-15v-14.2c0-8.3 6.7-15 15-15h20.5c8.3 0 15 6.7 15 15v14.2zm0-88.7c0 8.3-6.7 15-15 15h-20.5c-8.3 0-15-6.7-15-15v-14.2c0-8.3 6.7-15 15-15h20.5c8.3 0 15 6.7 15 15v14.2z" fill="#5ab1f9"/></svg>