<svg xmlns="http://www.w3.org/2000/svg" viewBox="0 0 27 26"><path d="M22.5 15.2c-1.1-1.1-2.8-1.1-3.8 0l-1.2 1.2c-2.9-1.6-5.2-3.9-6.7-6.7L12 8.5c1.1-1.1 1.1-2.8 0-3.8L8.8 1.5c-1-1-2.7-1-3.8 0L2.5 4C1.1 5.4 1 7.9 2.3 10.9c1.1 2.6 3.2 5.5 5.8 8.1s5.5 4.7 8.1 5.8c1.4.6 2.7.9 3.9.9 1.2 0 2.3-.4 3-1.1l2.5-2.5c.5-.5.8-1.2.8-1.9s-.3-1.4-.8-1.9l-3.1-3.1zm-1.4 7.4c-.4.4-1.7.5-3.8-.4-2.3-1-4.9-2.8-7.2-5.2s-4.2-4.9-5.2-7.2c-1-2.2-.8-3.4-.4-3.9l2.4-2.4 3 3L8.5 8c-.7.7-.8 1.6-.4 2.5 1.9 3.7 4.9 6.7 8.6 8.6.8.4 1.8.3 2.5-.4l1.4-1.4 3 3-2.5 2.3z" fill="#2e3038"/></svg>