<svg xmlns="http://www.w3.org/2000/svg" width="60" height="60" viewBox="0 0 60 60"><linearGradient id="a" gradientUnits="userSpaceOnUse" x1="22.711" y1="2.392" x2="53.211" y2="46.642"><stop offset="0" stop-color="#fee44c"/><stop offset="1" stop-color="#ff3495"/></linearGradient><path d="M59.7 2.9l-1.9 2.6c-.5.7-1.2 1.1-2 1.1s-1.6-.4-2-1.1l-1.9-2.6c-.6-.8-.4-2 .4-2.6.8-.6 2-.4 2.6.4l.9 1.3.9-1.3c.6-.8 1.7-1 2.6-.4.8.6.9 1.8.4 2.6zm-3.8 21.3c2 2.1 2 5.5 0 7.6l-3.9 4c-.6.7-1.5 1-2.4 1s-1.8-.4-2.4-1l-.1-.1-6.8 8.9-3.4 6.8v6.9c0 1-.8 1.8-1.8 1.8h-9.8c-1 0-1.8-.8-1.8-1.8v-6.9l-3.4-6.8-7.4-9.7c-.8-.2-1.5-.7-2.1-1.3 0 0-7.8-7.9-7.8-8-3.4-3.5-3.4-9.1 0-12.6 1.7-1.7 3.9-2.6 6.2-2.6.8 0 1.6.1 2.4.3 1.7-2.8 4-5.2 6.7-7C21.5 1.5 25.5.2 29.7.1h1C37.1.1 43 3 47 8c3.4 4.2 5.2 9.4 5 14.7 1.5-.1 2.8.4 3.9 1.5zm-40.7-13c1.2-.6 2.5-.9 3.9-.9.5 0 1 0 1.5.1.6-2 1.3-3.8 2.2-5.4-3 1.3-5.7 3.4-7.6 6.2zM14.9 31l7.8-8c2-2.1 2-5.4 0-7.5-.4-.4-.9-.8-1.5-1-.1 0-.1 0-.2-.1-.6-.3-1.3-.4-2-.4-1.4 0-2.7.5-3.6 1.5l-.2.2c-.2.3-.7.6-1.2.6-.7 0-1.2-.3-1.4-.6l-.2-.2c-.4-.4-.8-.7-1.2-.9 0 0-.1 0-.1-.1-.7-.3-1.5-.5-2.3-.5-1.4 0-2.7.5-3.6 1.5-2 2.1-2 5.4 0 7.5.1 0 7.8 8 7.8 8 .2.2.5.3.7.4h.2c.4-.1.7-.2 1-.4zm8.6 10.6L21 34.2c-.4-1.1-.7-2.2-.9-3.3l-2.6 2.6c-.3.3-.5.5-.8.7l5.7 7.4h1.1zm9.6 11.1H27v3.7h6.1v-3.7zm2.6-7.4H24.4l1.8 3.7h7.5l2-3.7zm1.4-27.2c-.4-4.9-1.7-9.3-3.6-12-.7-1.1-1.9-2.4-3.4-2.5h-.2c-2.3.1-4.5 3.3-5.9 8.2.5.3.9.7 1.3 1.1 3.4 3.5 3.4 9.1 0 12.6 0 0-.9 1-2.1 2.2.3 1.9.7 3.7 1.3 5.3l2.9 8.6h5.3l2.9-8.6c1.5-4.3 2-9.6 1.5-14.9zm7.3 14.8c-.6-.7-1.1-1.2-1.2-1.2-2-2.1-2-5.5 0-7.6 1-1 2.3-1.6 3.8-1.6.5 0 .9.1 1.3.2.2-4.5-1.2-8.9-4.1-12.5-1.9-2.3-4.3-4.1-7-5.2 1.8 3.2 3.1 7.7 3.6 12.7.5 5.8-.1 11.6-1.7 16.4l-2.5 7.4h1.2l6.6-8.6zm8.9-6.1c-.3-.3-.7-.5-1.1-.5-.4 0-.7.1-1 .4l-.2.2c-.3.4-.8.6-1.3.6-.6 0-1.2-.3-1.4-.6v-.1c-.3-.3-.7-.5-1.1-.5s-.8.2-1.1.5c-.7.7-.7 1.7 0 2.4 0 0 3.4 3.5 3.7 3.8.8-.8 3.7-3.7 3.7-3.8.4-.7.4-1.8-.2-2.4z" fill="url(#a)"/></svg>