<svg xmlns="http://www.w3.org/2000/svg" width="60" height="60" viewBox="0 0 60 60"><linearGradient id="a" gradientUnits="userSpaceOnUse" x1="8.729" y1="20.804" x2="41.479" y2="56.304"><stop offset="0" stop-color="#fee44c"/><stop offset="1" stop-color="#ff3495"/></linearGradient><path d="M37.7 50.9c-2.7-1.9-5.8-1.8-8.9-2-13.7-.8-23.4-13.9-20-27.2 1.5-5.8 4.8-10.3 10-13.5 1.1-.7 1.5-1.8.9-2.8-.5-1-1.7-1.2-2.9-.5-.5.3-1.1.6-1.7 1-.1-.5-.1-.9-.1-1.3 0-1.4-.7-2.1-1.9-2.1s-1.9.8-1.9 2.1.1 2.6 0 3.9c-.1.7-.5 1.3-.7 1.9-.1 0-.3-.1-.4-.1 0-.2-.1-.5-.2-.7-.5-1.4-1.4-2.1-2.5-1.8-1.2.3-1.6 1.3-1.3 2.8.3 1.2.7 2.4.9 3.6.2.6 0 1.3-.1 1.9h-.4c-.2-.2-.4-.5-.6-.8-.8-1.2-1.8-1.6-2.8-1-1 .6-1.2 1.7-.5 2.9.6 1.1 1.3 2.2 1.8 3.3.3.6.3 1.3.4 2-.1.1-.3.1-.3.1-.3-.2-.5-.5-.8-.7-1.1-1-2.2-1-3-.2-.8.9-.7 1.9.3 3 .8.9 1.7 1.7 2.5 2.6.5.5.7 1.3 1 1.9-.2.1-.3.1-.4.2-.2-.1-.5-.3-.8-.4-1.4-.7-2.4-.5-3 .6-.6 1-.2 2 1.2 2.8 1.1.6 2.2 1.2 3.2 1.9.5.3.7 1 1.1 1.5-.6.2-.8.2-.9.1-1.5-.4-2.5.1-2.8 1.2-.3 1.1.4 2.1 1.8 2.5 1.2.4 2.4.6 3.6 1 .5.2 1 .7 1.5 1.1-.1.1-.1.2-.2.3-.4 0-.9 0-1.4.1-1.2.2-1.8.9-1.8 2 0 1 .7 1.7 1.8 1.8.5 0 1 .1 1.5 0 2.3-.3 4.4.1 6 1.9.3.3.8.6 1.2.8 1.8 1 3.5 1.9 5.3 2.9-.7.8-1.4 1.5-2 2.3-1 1.3-1 2.4 0 3.1.9.7 1.9.3 3-.7s2.2-2.1 3.5-2.6c4.5-1.8 9.1-.6 12.4 2.9.7.9 1.9 1 2.7.3.8-.8 1-1.8.2-2.6-1.1-1.2-2.2-2.4-3.5-3.3z" fill="url(#a)"/><linearGradient id="b" gradientUnits="userSpaceOnUse" x1="24.664" y1="6.104" x2="57.414" y2="41.604"><stop offset="0" stop-color="#fee44c"/><stop offset="1" stop-color="#ff3495"/></linearGradient><path d="M59.6 29.4c-.5-1-1.5-1.2-2.5-.8-.5.2-.9.5-1.4.7l-.3-.3c.3-.6.6-1.3 1-1.8.8-1 1.7-1.8 2.6-2.7.9-1 1-2.1.2-2.9-.8-.8-1.9-.8-2.9.1-.3.3-.6.5-.9.8-.1 0-.3-.1-.4-.1.1-.7.1-1.4.4-2 .6-1.2 1.5-2.4 2.1-3.7.4-1 .1-1.9-.8-2.4-.9-.6-1.8-.3-2.5.5-.3.4-.6.9-.9 1.3h-.4c0-.6-.2-1.3-.1-1.9.3-1.3.7-2.7 1-4 .3-1.1-.1-1.9-1.2-2.3-1-.4-2 .2-2.4 1.3-.1.4-.3.9-.4 1.3h-.5c-.2-.6-.6-1.3-.6-1.9-.1-1.2 0-2.5 0-3.7 0-1.4-.7-2.2-1.9-2.2-1.1 0-1.8.8-1.9 2.1v1.3c-.8-.5-1.5-1.1-2.2-1.3-.7-.1-1.7.1-2.2.4-.4.4-.4 1.5-.2 2.1.1.5.8.9 1.3 1.2 10.1 6.3 13.3 20 7 30.1-2.3 3.7-5.4 6.5-9.3 8.4-1.2.6-1.5 1.7-1 2.7.6 1 1.6 1.3 2.8.7.9-.4 1.9-.8 2.4-1.5 2.5-2.3 5.3-3.6 8.8-3h.3c1-.2 1.7-.8 1.7-1.9 0-1.1-.6-1.7-1.7-1.9-.5-.1-1-.1-1.5-.1-.1-.1-.1-.3-.2-.4.6-.4 1.1-.9 1.7-1.1 1.3-.5 2.6-.7 3.9-1.1 1.2-.4 1.7-1.4 1.4-2.4-.2-1-1.2-1.5-2.4-1.3-.4 0-.8.1-1.2.2l-.3-.3c.4-.5.8-1.1 1.3-1.5 1.2-.8 2.5-1.4 3.7-2.2.8-.6 1.1-1.5.6-2.5z" fill="url(#b)"/><linearGradient id="c" gradientUnits="userSpaceOnUse" x1="17.473" y1="12.738" x2="50.223" y2="48.238"><stop offset="0" stop-color="#fee44c"/><stop offset="1" stop-color="#ff3495"/></linearGradient><path d="M27 27.5v15.2c0 1.1.9 2 2 2s2-.9 2-2V42h2.7c.8 0 1.4-.6 1.4-1.3 0-.7-.6-1.3-1.4-1.3h-.1c-.3 0-.5-.2-.5-.5v-.8c0-.3.2-.5.5-.5h.1c.8 0 1.4-.6 1.4-1.3s-.6-1.3-1.4-1.3H31v-7.4c4.1-.9 7.2-4.6 7.2-9 0-5.1-4.1-9.2-9.2-9.2s-9.2 4.1-9.2 9.2c0 4.3 3.1 7.9 7.2 8.9zm2-14.2c2.9 0 5.2 2.3 5.2 5.2s-2.3 5.2-5.2 5.2-5.2-2.3-5.2-5.2 2.3-5.2 5.2-5.2z" fill="url(#c)"/></svg>