<svg xmlns="http://www.w3.org/2000/svg" viewBox="0 0 194 47"><path fill="#dd2a99" d="M0 28.1h67.1v14.1H0z"/><path fill="#e54197" d="M22 14.1h45v14.1H22z"/><path fill="#f93e97" d="M45 0h22v14.1H45z"/><path fill="#960c62" d="M67.1 42.2H0l67.1-14.1z"/><path fill="#a51c6e" d="M67 28.1H22v-14z"/><path fill="#cc298a" d="M67 14.1H45L67 0z"/><path d="M93.1 1.1v15.7h-3.8V4.1h-3.5l-.3 5.3c-.1 1.8-.4 3.3-.8 4.4-.4 1.1-1 1.9-1.7 2.4s-1.7.8-3 .8h-1v-3l.5-.1c.8-.1 1.3-.6 1.6-1.4.3-.8.6-2.2.7-4.1l.3-7.2h11zm8.9 16c-1.8 0-3.2-.5-4.3-1.6-1.2-1.1-1.7-2.5-1.7-4.2V11c0-1.2.2-2.3.7-3.2s1.1-1.6 1.9-2.1c.8-.5 1.8-.8 3-.8 1.6 0 2.9.5 3.9 1.5.9 1 1.4 2.4 1.4 4.3v1.4h-7.2c.1.7.4 1.2.8 1.5.4.4 1 .6 1.7.6 1.1 0 2-.4 2.7-1.2l1.7 2c-.5.6-1.1 1.1-1.9 1.5-.9.4-1.8.6-2.7.6zm-.4-9.3c-1.1 0-1.7.7-1.9 2.1h3.7v-.3c0-.6-.1-1-.4-1.4-.4-.3-.9-.4-1.4-.4zm13 6.5c.5 0 .9-.1 1.2-.4.3-.3.4-.7.4-1.2h3.4c0 1.3-.5 2.3-1.4 3.2-.9.8-2.1 1.2-3.5 1.2-1.7 0-3-.5-4-1.6s-1.5-2.5-1.5-4.4v-.2c0-1.2.2-2.2.7-3.1.4-.9 1.1-1.6 1.9-2.1.8-.5 1.8-.7 2.9-.7 1.5 0 2.7.4 3.6 1.3s1.3 2 1.3 3.4h-3.4c0-.6-.1-1.1-.4-1.4-.3-.3-.7-.5-1.2-.5-.9 0-1.5.6-1.6 1.8 0 .4-.1.9-.1 1.6 0 1.2.1 2 .4 2.4.3.5.7.7 1.3.7zM132.4 8h-3.7v8.9h-3.6V8h-3.6V5.2h10.9V8zm12.8 8.9h-3.6v-4.3h-3.2v4.3h-3.6V5.2h3.6v4.6h3.2V5.2h3.6v11.7zm10.4-11.7h3.6v11.7h-3.6v-6.8l-3.2 6.8h-3.6V5.2h3.6V12l3.2-6.8zm7.2 0h3.6v8.9h3.2V5.2h3.6v8.9h1.9l-.2 6.3h-3.4v-3.5h-8.8V5.2zm18.6 3.2h1.9c1.1 0 2 .2 2.8.5.8.4 1.4.9 1.9 1.5s.6 1.4.6 2.3c0 1.3-.5 2.3-1.5 3-1 .8-2.3 1.2-4 1.2h-5.4V5.2h3.6v3.2zm0 2.8v2.9h1.8c.6 0 1-.1 1.3-.4.3-.3.5-.6.5-1s-.1-.8-.4-1.1c-.3-.3-.7-.4-1.3-.4h-1.9zm12.6 5.7h-3.6V5.2h3.6v11.7zM91.1 42.3h-3.6v-8.9h-3.2v8.9h-3.6V30.6h10.5v11.7zm14.3-5.8c0 1.8-.4 3.3-1.2 4.3-.8 1.1-1.9 1.6-3.3 1.6-1.1 0-1.9-.4-2.6-1.2v5.5h-3.6V30.6h3.4l.1 1.1c.7-.9 1.6-1.3 2.7-1.3 1.4 0 2.5.5 3.3 1.6.8 1.1 1.2 2.5 1.2 4.4v.1zm-3.6-.2c0-2.1-.6-3.1-1.8-3.1-.9 0-1.4.3-1.7.9v4.6c.3.6.9 1 1.7 1 1.2 0 1.7-1 1.8-3v-.4zm6.4 0c0-1.2.2-2.2.7-3.1.5-.9 1.1-1.6 1.9-2.1.8-.5 1.8-.7 3-.7 1.7 0 3.1.5 4.1 1.6 1 1.1 1.5 2.6 1.5 4.4v.1c0 1.8-.5 3.3-1.5 4.3-1 1.1-2.4 1.6-4.1 1.6-1.7 0-3-.5-4-1.5s-1.5-2.3-1.6-4.1v-.5zm3.7.3c0 1.1.2 1.9.5 2.4s.8.8 1.5.8c1.3 0 2-1 2-3v-.4c0-2.1-.7-3.1-2-3.1-1.2 0-1.9.9-2 2.7v.6zm15.2 3.1c.5 0 .9-.1 1.2-.4.3-.3.4-.7.4-1.2h3.4c0 1.3-.5 2.3-1.4 3.2-.9.8-2.1 1.2-3.5 1.2-1.7 0-3-.5-4-1.6s-1.5-2.5-1.5-4.4v-.2c0-1.2.2-2.2.7-3.1.4-.9 1.1-1.6 1.9-2.1.8-.5 1.8-.7 2.9-.7 1.5 0 2.7.4 3.6 1.3.9.8 1.3 2 1.3 3.4h-3.4c0-.6-.1-1.1-.4-1.4-.3-.3-.7-.5-1.2-.5-.9 0-1.5.6-1.6 1.8 0 .4-.1.9-.1 1.6 0 1.2.1 2 .4 2.4s.7.7 1.3.7zm17.8-6.3h-3.7v8.9h-3.6v-8.9H134v-2.8h10.9v2.8zm1.7 2.9c0-1.2.2-2.2.7-3.1.5-.9 1.1-1.6 1.9-2.1.8-.5 1.8-.7 3-.7 1.7 0 3.1.5 4.1 1.6 1 1.1 1.5 2.6 1.5 4.4v.1c0 1.8-.5 3.3-1.5 4.3-1 1.1-2.4 1.6-4.1 1.6-1.7 0-3-.5-4-1.5s-1.5-2.3-1.6-4.1v-.5zm3.6.3c0 1.1.2 1.9.5 2.4s.8.8 1.5.8c1.3 0 2-1 2-3v-.4c0-2.1-.7-3.1-2-3.1-1.2 0-1.9.9-2 2.7v.6z"/><path d="M162.7 38.7c.6 0 1 .2 1.4.5.4.3.6.8.6 1.3s-.2 1-.6 1.3c-.4.3-.9.5-1.4.5-.6 0-1.1-.2-1.4-.5-.4-.3-.6-.8-.6-1.3s.2-1 .6-1.3c.4-.3.8-.5 1.4-.5zm17.4-2.2c0 1.8-.4 3.3-1.2 4.3-.8 1.1-1.9 1.6-3.3 1.6-1.1 0-1.9-.4-2.6-1.2v5.5h-3.6V30.6h3.4l.1 1.1c.7-.9 1.6-1.3 2.7-1.3 1.4 0 2.5.5 3.3 1.6.8 1.1 1.2 2.5 1.2 4.4v.1zm-3.6-.2c0-2.1-.6-3.1-1.8-3.1-.9 0-1.4.3-1.7.9v4.6c.3.6.9 1 1.7 1 1.2 0 1.7-1 1.8-3v-.4zm10.9.9l1.9-6.6h3.9l-4.7 13.6-.2.5c-.7 1.5-1.9 2.3-3.6 2.3-.5 0-1-.1-1.5-.2v-2.6h.5c.5 0 .9-.1 1.2-.2.3-.1.5-.4.6-.8l.3-.8-4-11.8h3.9l1.7 6.6z" fill="#cd005b"/></svg>