<?xml version="1.0" encoding="utf-8"?>
<!-- Generator: Adobe Illustrator 22.0.1, SVG Export Plug-In . SVG Version: 6.00 Build 0)  -->
<svg version="1.1" id="Слой_1" xmlns="http://www.w3.org/2000/svg" xmlns:xlink="http://www.w3.org/1999/xlink" x="0px" y="0px"
	 viewBox="0 0 194 47" style="enable-background:new 0 0 194 47;" xml:space="preserve">
<style type="text/css">
	.st0{opacity:0;fill:#FFFFFF;}
	.st1{fill:#DD2A99;}
	.st2{fill:#E54197;}
	.st3{fill:#F93E97;}
	.st4{fill:#960C62;}
	.st5{fill:#A51C6E;}
	.st6{fill:#CC298A;}
	.st7{fill:#CD005B;}
</style>
<rect class="st0" width="194" height="47"/>
<g>
	<rect y="28.1" class="st1" width="67.1" height="14.1"/>
	<rect x="22" y="14.1" class="st2" width="45" height="14.1"/>
	<rect x="45" class="st3" width="22" height="14.1"/>
	<polygon class="st4" points="67.1,42.2 0,42.2 67.1,28.1 	"/>
	<polygon class="st5" points="67,28.1 22,28.1 22,14.1 	"/>
	<polygon class="st6" points="67,14.1 45,14.1 67,0 	"/>
	<g>
		<path d="M93.1,1.1v15.7h-3.8V4.1h-3.5l-0.3,5.3c-0.1,1.8-0.4,3.3-0.8,4.4c-0.4,1.1-1,1.9-1.7,2.4c-0.7,0.5-1.7,0.8-3,0.8h-1V14
			l0.5-0.1c0.8-0.1,1.3-0.6,1.6-1.4c0.3-0.8,0.6-2.2,0.7-4.1l0.3-7.2H93.1z"/>
		<path d="M102,17.1c-1.8,0-3.2-0.5-4.3-1.6C96.5,14.4,96,13,96,11.3V11c0-1.2,0.2-2.3,0.7-3.2s1.1-1.6,1.9-2.1
			c0.8-0.5,1.8-0.8,3-0.8c1.6,0,2.9,0.5,3.9,1.5c0.9,1,1.4,2.4,1.4,4.3v1.4h-7.2c0.1,0.7,0.4,1.2,0.8,1.5c0.4,0.4,1,0.6,1.7,0.6
			c1.1,0,2-0.4,2.7-1.2l1.7,2c-0.5,0.6-1.1,1.1-1.9,1.5C103.8,16.9,102.9,17.1,102,17.1z M101.6,7.8c-1.1,0-1.7,0.7-1.9,2.1h3.7V9.6
			c0-0.6-0.1-1-0.4-1.4C102.6,7.9,102.1,7.8,101.6,7.8z"/>
		<path d="M114.6,14.3c0.5,0,0.9-0.1,1.2-0.4c0.3-0.3,0.4-0.7,0.4-1.2h3.4c0,1.3-0.5,2.3-1.4,3.2c-0.9,0.8-2.1,1.2-3.5,1.2
			c-1.7,0-3-0.5-4-1.6s-1.5-2.5-1.5-4.4v-0.2c0-1.2,0.2-2.2,0.7-3.1c0.4-0.9,1.1-1.6,1.9-2.1c0.8-0.5,1.8-0.7,2.9-0.7
			c1.5,0,2.7,0.4,3.6,1.3s1.3,2,1.3,3.4h-3.4c0-0.6-0.1-1.1-0.4-1.4c-0.3-0.3-0.7-0.5-1.2-0.5c-0.9,0-1.5,0.6-1.6,1.8
			c0,0.4-0.1,0.9-0.1,1.6c0,1.2,0.1,2,0.4,2.4C113.6,14.1,114,14.3,114.6,14.3z"/>
		<path d="M132.4,8h-3.7v8.9h-3.6V8h-3.6V5.2h10.9V8z"/>
		<path d="M145.2,16.9h-3.6v-4.3h-3.2v4.3h-3.6V5.2h3.6v4.6h3.2V5.2h3.6V16.9z"/>
		<path d="M155.6,5.2h3.6v11.7h-3.6v-6.8l-3.2,6.8h-3.6V5.2h3.6V12L155.6,5.2z"/>
		<path d="M162.8,5.2h3.6v8.9h3.2V5.2h3.6v8.9h1.9l-0.2,6.3h-3.4v-3.5h-8.8V5.2z"/>
		<path d="M181.4,8.4h1.9c1.1,0,2,0.2,2.8,0.5c0.8,0.4,1.4,0.9,1.9,1.5s0.6,1.4,0.6,2.3c0,1.3-0.5,2.3-1.5,3c-1,0.8-2.3,1.2-4,1.2
			h-5.4V5.2h3.6V8.4z M181.4,11.2v2.9h1.8c0.6,0,1-0.1,1.3-0.4c0.3-0.3,0.5-0.6,0.5-1c0-0.4-0.1-0.8-0.4-1.1
			c-0.3-0.3-0.7-0.4-1.3-0.4H181.4z M194,16.9h-3.6V5.2h3.6V16.9z"/>
	</g>
	<g>
		<path d="M91.1,42.3h-3.6v-8.9h-3.2v8.9h-3.6V30.6h10.5V42.3z"/>
		<path d="M105.4,36.5c0,1.8-0.4,3.3-1.2,4.3c-0.8,1.1-1.9,1.6-3.3,1.6c-1.1,0-1.9-0.4-2.6-1.2v5.5h-3.6V30.6h3.4l0.1,1.1
			c0.7-0.9,1.6-1.3,2.7-1.3c1.4,0,2.5,0.5,3.3,1.6c0.8,1.1,1.2,2.5,1.2,4.4V36.5z M101.8,36.3c0-2.1-0.6-3.1-1.8-3.1
			c-0.9,0-1.4,0.3-1.7,0.9v4.6c0.3,0.6,0.9,1,1.7,1c1.2,0,1.7-1,1.8-3V36.3z"/>
		<path d="M108.2,36.3c0-1.2,0.2-2.2,0.7-3.1c0.5-0.9,1.1-1.6,1.9-2.1c0.8-0.5,1.8-0.7,3-0.7c1.7,0,3.1,0.5,4.1,1.6
			c1,1.1,1.5,2.6,1.5,4.4v0.1c0,1.8-0.5,3.3-1.5,4.3c-1,1.1-2.4,1.6-4.1,1.6c-1.7,0-3-0.5-4-1.5c-1-1-1.5-2.3-1.6-4.1L108.2,36.3z
			 M111.9,36.6c0,1.1,0.2,1.9,0.5,2.4c0.3,0.5,0.8,0.8,1.5,0.8c1.3,0,2-1,2-3v-0.4c0-2.1-0.7-3.1-2-3.1c-1.2,0-1.9,0.9-2,2.7
			L111.9,36.6z"/>
		<path d="M127.1,39.7c0.5,0,0.9-0.1,1.2-0.4c0.3-0.3,0.4-0.7,0.4-1.2h3.4c0,1.3-0.5,2.3-1.4,3.2c-0.9,0.8-2.1,1.2-3.5,1.2
			c-1.7,0-3-0.5-4-1.6s-1.5-2.5-1.5-4.4v-0.2c0-1.2,0.2-2.2,0.7-3.1c0.4-0.9,1.1-1.6,1.9-2.1c0.8-0.5,1.8-0.7,2.9-0.7
			c1.5,0,2.7,0.4,3.6,1.3c0.9,0.8,1.3,2,1.3,3.4h-3.4c0-0.6-0.1-1.1-0.4-1.4c-0.3-0.3-0.7-0.5-1.2-0.5c-0.9,0-1.5,0.6-1.6,1.8
			c0,0.4-0.1,0.9-0.1,1.6c0,1.2,0.1,2,0.4,2.4S126.5,39.7,127.1,39.7z"/>
		<path d="M144.9,33.4h-3.7v8.9h-3.6v-8.9H134v-2.8h10.9V33.4z"/>
		<path d="M146.6,36.3c0-1.2,0.2-2.2,0.7-3.1c0.5-0.9,1.1-1.6,1.9-2.1c0.8-0.5,1.8-0.7,3-0.7c1.7,0,3.1,0.5,4.1,1.6
			c1,1.1,1.5,2.6,1.5,4.4v0.1c0,1.8-0.5,3.3-1.5,4.3c-1,1.1-2.4,1.6-4.1,1.6c-1.7,0-3-0.5-4-1.5c-1-1-1.5-2.3-1.6-4.1L146.6,36.3z
			 M150.2,36.6c0,1.1,0.2,1.9,0.5,2.4c0.3,0.5,0.8,0.8,1.5,0.8c1.3,0,2-1,2-3v-0.4c0-2.1-0.7-3.1-2-3.1c-1.2,0-1.9,0.9-2,2.7
			L150.2,36.6z"/>
		<path class="st7" d="M162.7,38.7c0.6,0,1,0.2,1.4,0.5c0.4,0.3,0.6,0.8,0.6,1.3c0,0.5-0.2,1-0.6,1.3c-0.4,0.3-0.9,0.5-1.4,0.5
			c-0.6,0-1.1-0.2-1.4-0.5c-0.4-0.3-0.6-0.8-0.6-1.3s0.2-1,0.6-1.3C161.7,38.9,162.1,38.7,162.7,38.7z"/>
		<path class="st7" d="M180.1,36.5c0,1.8-0.4,3.3-1.2,4.3c-0.8,1.1-1.9,1.6-3.3,1.6c-1.1,0-1.9-0.4-2.6-1.2v5.5h-3.6V30.6h3.4
			l0.1,1.1c0.7-0.9,1.6-1.3,2.7-1.3c1.4,0,2.5,0.5,3.3,1.6c0.8,1.1,1.2,2.5,1.2,4.4V36.5z M176.5,36.3c0-2.1-0.6-3.1-1.8-3.1
			c-0.9,0-1.4,0.3-1.7,0.9v4.6c0.3,0.6,0.9,1,1.7,1c1.2,0,1.7-1,1.8-3V36.3z"/>
		<path class="st7" d="M187.4,37.2l1.9-6.6h3.9l-4.7,13.6l-0.2,0.5c-0.7,1.5-1.9,2.3-3.6,2.3c-0.5,0-1-0.1-1.5-0.2v-2.6h0.5
			c0.5,0,0.9-0.1,1.2-0.2c0.3-0.1,0.5-0.4,0.6-0.8l0.3-0.8l-4-11.8h3.9L187.4,37.2z"/>
	</g>
</g>
</svg>
