<?xml version="1.0" encoding="utf-8"?>
<!-- Generator: Adobe Illustrator 22.0.1, SVG Export Plug-In . SVG Version: 6.00 Build 0)  -->
<svg version="1.1" id="Capa_1" xmlns="http://www.w3.org/2000/svg" xmlns:xlink="http://www.w3.org/1999/xlink" x="0px" y="0px"
	 viewBox="0 0 480 462" style="enable-background:new 0 0 480 462;" xml:space="preserve">
<style type="text/css">
	.st0{opacity:0;fill:#7A7C87;}
	.st1{fill:#7A7C87;}
</style>
<rect y="2.5" class="st0" width="480" height="459"/>
<g>
	<g>
		<path class="st1" d="M189.3,258.6h14.4V180h41.2c18.5,0,30.6,2.8,40.4,9.6c11.6,7.9,18.3,19,18.3,36.4c0,13.7-4.8,25.5-13.5,34
			c-10.5,10.5-24,15.7-45.8,15.7H224v14.6h73.3v17.2H224v25.1h-20.3v-25.1h-14.4v-17.2h14.4V276h-14.4V258.6z M271.3,203.6
			c-6.8-4.4-14.4-6.1-27.3-6.1H224v61.1h17c16.6,0,26-3.1,32.7-9.4c6.3-6.3,8.7-13.5,8.7-22.5C282.4,216,279,208.6,271.3,203.6z"/>
	</g>
	<g>
		<path class="st1" d="M455.8,176.2c-6.3-69.6-55.6-120-117.2-120c-41,0-78.6,22.1-99.8,57.5c-21-35.9-57-57.5-97.4-57.5
			c-61.6,0-110.8,50.5-117.2,120c-0.5,3.1-2.5,19.2,3.7,45.6c9,38,29.7,72.6,59.9,100l150.8,136.9l153.4-136.9
			c30.2-27.4,51-62,59.9-100C458.3,195.5,456.2,179.3,455.8,176.2z M435.9,218c-8.2,34.7-27.2,66.4-54.9,91.5L238.8,436.3
			L99.1,309.5c-27.7-25.1-46.7-56.8-54.9-91.5c-5.9-25-3.5-39-3.5-39.1l0.1-0.8c5.4-60.9,47.7-105.2,100.6-105.2
			c39,0,73.4,24,89.7,62.6l7.7,18.2l7.7-18.2c16-38,52.2-62.6,92.2-62.6c52.9,0,95.2,44.2,100.7,106
			C439.3,178.9,441.7,193.1,435.9,218z"/>
		<path class="st1" d="M156.7,106.8c-45.9,0-83.3,37.4-83.3,83.3c0,4.6,3.7,8.3,8.3,8.3s8.3-3.7,8.3-8.3c0-36.7,29.9-66.6,66.6-66.6
			c4.6,0,8.3-3.7,8.3-8.3C165.1,110.5,161.3,106.8,156.7,106.8z"/>
	</g>
</g>
</svg>
