<svg version="1.1" id="Capa_1" xmlns="http://www.w3.org/2000/svg" x="0" y="0" viewBox="0 0 480 462" xml:space="preserve"><style>.st1{fill:#7a7c87}</style><path class="st1" d="M189.3 258.6h14.4V180h41.2c18.5 0 30.6 2.8 40.4 9.6 11.6 7.9 18.3 19 18.3 36.4 0 13.7-4.8 25.5-13.5 34-10.5 10.5-24 15.7-45.8 15.7H224v14.6h73.3v17.2H224v25.1h-20.3v-25.1h-14.4v-17.2h14.4V276h-14.4v-17.4zm82-55c-6.8-4.4-14.4-6.1-27.3-6.1h-20v61.1h17c16.6 0 26-3.1 32.7-9.4 6.3-6.3 8.7-13.5 8.7-22.5 0-10.7-3.4-18.1-11.1-23.1z"/><path class="st1" d="M455.8 176.2c-6.3-69.6-55.6-120-117.2-120-41 0-78.6 22.1-99.8 57.5-21-35.9-57-57.5-97.4-57.5-61.6 0-110.8 50.5-117.2 120-.5 3.1-2.5 19.2 3.7 45.6 9 38 29.7 72.6 59.9 100l150.8 136.9L392 321.8c30.2-27.4 51-62 59.9-100 6.4-26.3 4.3-42.5 3.9-45.6zM435.9 218c-8.2 34.7-27.2 66.4-54.9 91.5L238.8 436.3 99.1 309.5c-27.7-25.1-46.7-56.8-54.9-91.5-5.9-25-3.5-39-3.5-39.1l.1-.8c5.4-60.9 47.7-105.2 100.6-105.2 39 0 73.4 24 89.7 62.6l7.7 18.2 7.7-18.2c16-38 52.2-62.6 92.2-62.6 52.9 0 95.2 44.2 100.7 106-.1 0 2.3 14.2-3.5 39.1z"/><path class="st1" d="M156.7 106.8c-45.9 0-83.3 37.4-83.3 83.3 0 4.6 3.7 8.3 8.3 8.3s8.3-3.7 8.3-8.3c0-36.7 29.9-66.6 66.6-66.6 4.6 0 8.3-3.7 8.3-8.3.2-4.7-3.6-8.4-8.2-8.4z"/></svg>