<svg version="1.1" id="Слой_1" xmlns="http://www.w3.org/2000/svg" x="0" y="0" viewBox="0 0 43 43" xml:space="preserve"><style>.st0{fill:none;stroke:#ff3495;stroke-width:2;stroke-miterlimit:10}</style><path class="st0" d="M26.2 18.3L36 2l6 4-9.7 16z"/><path class="st0" d="M32 22s-5.7 11.3-8.3 14.6c-1 1.3-3.5 3.3-5.4 3.8-7.2 1.8-14.6-2.6-16.4-9.9S4.6 16 11.8 14.2c1.9-.5 7 0 9.2.8 3 1.2 11 7 11 7z"/><circle class="st0" cx="15" cy="27.3" r="7"/><circle class="st0" cx="15" cy="27.3" r="2.5"/><path class="st0" d="M28.4 14.7l3 1.8m-.1-6.7l3.1 1.9M35 5c-.2 3.2 2.6 5.3 5.3 3.6"/></svg>