<?xml version="1.0" encoding="utf-8"?>
<!-- Generator: Adobe Illustrator 22.0.1, SVG Export Plug-In . SVG Version: 6.00 Build 0)  -->
<svg version="1.1" id="Слой_1" xmlns="http://www.w3.org/2000/svg" xmlns:xlink="http://www.w3.org/1999/xlink" x="0px" y="0px"
	 viewBox="0 0 43 43" style="enable-background:new 0 0 43 43;" xml:space="preserve">
<style type="text/css">
	.st0{fill:none;stroke:#FF3495;stroke-width:2;stroke-miterlimit:10;}
</style>
<polygon class="st0" points="26.2,18.3 36,2 42,6 32.3,22 "/>
<path class="st0" d="M32,22c0,0-5.7,11.3-8.3,14.6c-1,1.3-3.5,3.3-5.4,3.8c-7.2,1.8-14.6-2.6-16.4-9.9S4.6,16,11.8,14.2
	c1.9-0.5,7,0,9.2,0.8C24,16.2,32,22,32,22z"/>
<circle class="st0" cx="15" cy="27.3" r="7"/>
<circle class="st0" cx="15" cy="27.3" r="2.5"/>
<line class="st0" x1="28.4" y1="14.7" x2="31.4" y2="16.5"/>
<line class="st0" x1="31.3" y1="9.8" x2="34.4" y2="11.7"/>
<path class="st0" d="M35,5c-0.2,3.2,2.6,5.3,5.3,3.6"/>
</svg>
