<svg version="1.1" id="Capa_1" xmlns="http://www.w3.org/2000/svg" x="0" y="0" viewBox="0 0 512 512" xml:space="preserve"><style>.st0{fill:#393c44}</style><path class="st0" d="M135 91.7C57.1 99.3 0 169.4 0 247.7V316c0 41.4 33.6 75 75 75h225V241c0-87.7-75.6-158-165-149.3zM150 331c-49.6 0-90-40.4-90-90s40.4-90 90-90 90 40.4 90 90-40.4 90-90 90z"/><path class="st0" d="M150 181c-33.1 0-60 26.9-60 60s26.9 60 60 60 60-26.9 60-60-26.9-60-60-60zm347 120H330v90h30v-15c0-8.3 6.7-15 15-15s15 6.7 15 15v15h31v-15c0-8.3 6.7-15 15-15s15 6.7 15 15v15h31v15c0 8.3 6.7 15 15 15s15-6.7 15-15v-90c0-8.3-6.7-15-15-15z"/></svg>