<svg version="1.1" id="Слой_1" xmlns="http://www.w3.org/2000/svg" x="0" y="0" viewBox="0 0 43 43" xml:space="preserve"><style>.st1{fill:#ff3495}</style><path fill="#ffde00" fill-opacity="0" d="M0 0h43v43H0z"/><path class="st1" d="M13.1 13.7C7.4 13.7 2.8 18.3 2.8 24s4.6 10.3 10.3 10.3S23.4 29.7 23.4 24s-4.6-10.3-10.3-10.3zm0 19.2c-4.9 0-9-4-9-9s4-9 9-9 9 4 9 9-4.1 9-9 9z"/><path class="st1" d="M13.1 19.2c-2.7 0-4.8 2.2-4.8 4.8 0 2.7 2.2 4.8 4.8 4.8s4.8-2.2 4.8-4.8c0-2.7-2.1-4.8-4.8-4.8zm0 8.2c-1.9 0-3.4-1.5-3.4-3.4s1.5-3.4 3.4-3.4 3.4 1.5 3.4 3.4-1.5 3.4-3.4 3.4z"/><path class="st1" d="M31.6 24L43 12.3l-5.8-5.8L25.7 18l-3.3-3.3c-2.5-2.5-5.8-3.8-9.3-3.8s-6.8 1.4-9.3 3.8C1.4 17.2 0 20.5 0 24s1.4 6.8 3.8 9.3c2.5 2.5 5.8 3.8 9.3 3.8s6.8-1.4 9.3-3.8l8.8-8.8.4-.5zm5.6-15.6l3.9 3.9-.2.2-.4.4c-.5.5-1.2.8-1.9.8-1.5 0-2.7-1.2-2.7-2.7 0-.7.3-1.4.8-1.9l.3-.5.2-.2zm-9.3 9.3l1.2 1.2 1-1-1.2-1.2 1.8-1.8 1.2 1.2 1-1-1.3-1.1 2.8-2.8c.1 2.1 1.8 3.8 3.9 3.9l-7.8 8-4-4 1.4-1.4zm-6.5 14.6c-2.2 2.2-5.2 3.4-8.3 3.4S7 34.5 4.8 32.3 1.4 27.1 1.4 24s1.2-6.1 3.4-8.3 5.2-3.4 8.3-3.4 6.1 1.2 8.3 3.4l8.3 8.3-8.3 8.3z"/></svg>