<svg xmlns="http://www.w3.org/2000/svg" viewBox="0 0 512 512"><path d="M135.005 91.734C57.081 99.34 0 169.396 0 247.69V316c0 41.42 33.578 75 75 75h225V241c0-87.653-75.586-157.994-164.995-149.266zM150 331c-49.629 0-90-40.371-90-90s40.371-90 90-90 90 40.371 90 90-40.371 90-90 90z"/><path d="M150 181c-33.091 0-60 26.909-60 60s26.909 60 60 60 60-26.909 60-60-26.909-60-60-60zm347 120H330v90h30v-15c0-8.291 6.709-15 15-15s15 6.709 15 15v15h31v-15c0-8.291 6.709-15 15-15s15 6.709 15 15v15h31v15c0 8.291 6.709 15 15 15s15-6.709 15-15v-90c0-8.291-6.709-15-15-15z"/></svg>