<svg xmlns="http://www.w3.org/2000/svg" viewBox="0 0 1000 1000"><path d="M338.3 339.12L10 667.42l161.7 161.7L332.58 990 661.7 660.88 990 332.58l-161.7-161.7L667.42 10 338.3 339.12zm447.53-120.87L896.08 328.5l-284.2 284.2L328.5 896.08 216.62 784.2 104.73 671.5l31.85-32.67 31.85-32.67 29.4 28.58 29.4 28.58 22.05-22.87 22.05-22.87-28.58-27.77-28.58-27.77 26.14-26.95 26.13-26.95 29.4 28.58 29.4 28.58 22.05-22.87 22.05-22.87-28.58-27.77-28.58-27.77 26.14-26.95 26.13-26.95 62.07 61.25 62.07 61.25 22.05-22.86 22.05-22.87-61.27-60.39-61.25-60.43 26.14-26.95 26.13-26.95 29.4 28.58 29.4 28.58 22.05-22.87 22.05-22.87-28.58-27.77-28.58-27.77 26.14-26.95 26.13-26.95 29.4 28.58 29.4 28.58 22.05-22.87 22.05-22.87-28.58-27.77-28.58-27.77 30.22-31.04C652.72 121.88 669.05 108 671.5 108s53.9 49.82 114.33 110.25z"/></svg>