<svg version="1.1" id="Capa_1" xmlns="http://www.w3.org/2000/svg" x="0" y="0" viewBox="0 0 512 512" xml:space="preserve"><style>.st0{fill:#a8acae}</style><path class="st0" d="M256 0C161.8 0 85.1 76.7 85.1 170.9S161.8 341.8 256 341.8s170.9-76.7 170.9-170.9S350.2 0 256 0zm0 308.2c-75.7 0-137.3-61.6-137.3-137.3S180.3 33.6 256 33.6s137.3 61.6 137.3 137.3S331.7 308.2 256 308.2z"/><path class="st0" d="M375.3 488.5L366.9 289l-33.6 1.4 7.3 173.9-69.4-59.8c-8.7-8.1-21.8-8.1-30.5 0l-69.4 59.8 7.3-173.9L145 289l-8.4 199.5v.7c0 8.9 5.2 17 13.2 20.7s17.3 2.4 24.1-3.5l82.1-70.7 82.1 70.7c4.3 3.6 9.5 5.5 14.7 5.5 3.2 0 6.4-.7 9.4-2.1 8-3.7 13.2-11.8 13.2-20.7 0-.1 0-.4-.1-.6zm-44.6-368.7c-6.6-6.6-17.2-6.6-23.8 0L233.7 193l-34.1-34.5c-6.5-6.6-17.2-6.7-23.8-.1-6.6 6.5-6.7 17.2-.1 23.8l46 46.5c3.1 3.2 7.4 5 11.9 5h.1c4.5 0 8.7-1.8 11.9-4.9l85.2-85.2c6.4-6.6 6.4-17.2-.1-23.8z"/></svg>