<svg xmlns="http://www.w3.org/2000/svg" viewBox="0 0 477.867 477.867"><path d="M358.4 0H119.467c-28.277 0-51.2 22.923-51.2 51.2v375.467c0 28.277 22.923 51.2 51.2 51.2H358.4c28.277 0 51.2-22.923 51.2-51.2V51.2c0-28.277-22.923-51.2-51.2-51.2zm17.067 426.667c0 9.426-7.641 17.067-17.067 17.067H119.467c-9.426 0-17.067-7.641-17.067-17.067v-34.133h273.067v34.133zm0-68.267H102.4V119.467h273.067V358.4zm0-273.067H102.4V51.2c0-9.426 7.641-17.067 17.067-17.067H358.4c9.426 0 17.067 7.641 17.067 17.067v34.133z"/><path d="M250.58 158.601c-6.614-6.387-17.099-6.387-23.712 0l-85.333 85.333c-6.663 6.665-6.663 17.468 0 24.132 6.665 6.663 17.468 6.663 24.132 0L251 182.733c6.547-6.78 6.36-17.584-.42-24.132zm85.333 34.133c-6.614-6.387-17.099-6.387-23.712 0l-85.333 85.333c-5.127 6.281-3.566 16.577 0 24.132 6.664 6.663 17.468 6.663 24.132 0l85.333-85.333c6.548-6.78 6.36-17.584-.42-24.132z"/></svg>