<svg xmlns="http://www.w3.org/2000/svg" viewBox="0 0 512 512"><path d="M375.652 0H136.348c-21.482 0-38.957 17.475-38.957 38.957v434.087c0 21.476 17.475 38.957 38.957 38.957h239.304c21.476 0 38.957-17.48 38.957-38.957V38.957C414.609 17.475 397.128 0 375.652 0zm5.565 473.043c0 3.016-2.549 5.565-5.565 5.565H136.348c-3.016 0-5.565-2.549-5.565-5.565V38.957c0-3.016 2.549-5.565 5.565-5.565h239.304c3.016 0 5.565 2.549 5.565 5.565v434.086z"/><path d="M114.087 77.913h278.261v33.391H114.087zm0 278.261h278.261v33.391H114.087zm139.13 42.296c-19.64 0-35.617 15.978-35.617 35.617s15.978 35.617 35.617 35.617 35.617-15.978 35.617-35.617-15.977-35.617-35.617-35.617zm0 37.843c-1.23 0-2.226-1.002-2.226-2.226s.996-2.226 2.226-2.226 2.226 1.002 2.226 2.226-.996 2.226-2.226 2.226z"/></svg>