<svg xmlns="http://www.w3.org/2000/svg" viewBox="0 0 512 512"><path d="M0 197.3c0 12.8 5.1 24.8 13.9 33.6-10 10.9-15 25.5-13.7 40.7 2.5 27.2 27 48.4 55.7 48.4h131.8c-6.5 19.8-17 56.1-17 85.3 0 46.3 39.3 85.3 64 85.3 22.1 0 38-12.5 38.7-13 2.5-2 4-5.1 4-8.3V397l61.5-133.1 2.5-1.3v4.1c0 5.9 4.8 10.7 10.7 10.7h106.7c29.4 0 53.3-23.9 53.3-53.3V53.3C512 23.9 488.1 0 458.7 0h-64c-23.1 0-42.8 14.7-50.2 35.3-17.8-9.1-41.6-13.9-56.5-13.9H92.2c-23.2 0-43.6 15.7-48.3 37.2-2.5 11.1-1 22.3 3.8 32.1-15.7 7.9-26.3 24.2-26.3 42.7 0 7.6 1.7 14.8 5 21.3C10.6 162.6 0 178.8 0 197.3zm394.7-176h64c17.6 0 32 14.4 32 32V224c0 17.6-14.4 32-32 32h-96V53.3c0-17.6 14.3-32 32-32zM45 171c4.1-.5 7.6-3.3 8.9-7.2 1.3-3.9.2-8.3-2.8-11.1-5.4-5.1-8.4-12-8.4-19.3 0-13.5 10.2-24.8 23.6-26.3 4.1-.5 7.6-3.3 8.9-7.2 1.3-3.9.2-8.3-2.8-11.1-7-6.6-9.8-15.9-7.7-25.5 2.6-11.9 14.2-20.5 27.5-20.5H288c15.8 0 41.3 6.8 53.3 15.6v180.5l-15.4 7.7c-2.2 1.1-3.9 2.9-4.9 5.1l-64 138.7c-.6 1.4-1 2.9-1 4.5v68.9c-4.4 2.5-12.1 5.8-21.3 5.8-11.7 0-42.7-29.1-42.7-64 0-37.5 20.4-91.7 20.6-92.2 1.2-3.3.8-7-1.2-9.9-2-2.9-5.3-4.6-8.8-4.6H55.9c-17.8 0-32.9-12.7-34.4-29-1.1-12.2 4.7-23.7 15.2-30.2 3.3-2 5.2-5.6 5.1-9.5s-2.4-7.3-5.8-9.1c-9-4.6-14.6-13.6-14.6-23.6-.1-13.6 10.1-24.9 23.6-26.5z" fill="#ff3495"/></svg>