<?xml version="1.0" encoding="utf-8"?>
<!-- Generator: Adobe Illustrator 22.0.1, SVG Export Plug-In . SVG Version: 6.00 Build 0)  -->
<svg version="1.1" id="Слой_1" xmlns="http://www.w3.org/2000/svg" xmlns:xlink="http://www.w3.org/1999/xlink" x="0px" y="0px"
	 width="21px" height="30px" viewBox="0 0 21 30" style="enable-background:new 0 0 21 30;" xml:space="preserve">
<path d="M15,15C13.5,13.7,2.6,4.7,1,3.4C0.4,2.9,0.3,1.5,0.9,0.9c1.2-1.2,2.3-1.2,3.6-0.1c1.8,1.5,15,12.3,15.2,12.4
	c1.3,1.1,1.1,2.7-0.3,3.8c-0.2,0.1-12.1,9.9-13.6,11.1c-0.6,0.5-1.2,1-1.8,1.5c-0.7,0.6-1.8,0.6-2.6,0.1c-0.9-0.6-1.3-1.3-1-2.3
	c0.1-0.4,0.3-0.7,0.6-1C2.4,25.2,14.8,15.1,15,15z"/>
</svg>
