<?xml version="1.0" encoding="utf-8"?>
<!-- Generator: Adobe Illustrator 22.0.1, SVG Export Plug-In . SVG Version: 6.00 Build 0)  -->
<svg version="1.1" id="Слой_1" xmlns="http://www.w3.org/2000/svg" xmlns:xlink="http://www.w3.org/1999/xlink" x="0px" y="0px"
	 width="461.6px" height="363.2px" viewBox="0 0 461.6 363.2" style="enable-background:new 0 0 461.6 363.2;" xml:space="preserve"
	>
<style type="text/css">
	.st0{fill:#F5F5F5;}
	.st1{fill:#E0E0E0;}
	.st2{fill:#FFBF00;}
	.st3{opacity:0.2;enable-background:new    ;}
	.st4{fill:#FCCF4F;}
	.st5{fill:#37474F;}
	.st6{fill:#455A64;}
	.st7{fill:#263238;}
	.st8{opacity:0.3;enable-background:new    ;}
	.st9{fill:#EBEBEB;}
	.st10{fill:#FFFFFF;}
	.st11{opacity:0.5;fill:#F5F5F5;enable-background:new    ;}
	.st12{opacity:0.6;fill:#F5F5F5;enable-background:new    ;}
	.st13{opacity:0.7;fill:#F5F5F5;enable-background:new    ;}
	.st14{opacity:0.5;}
</style>
<g>
	<g id="freepik--Floor--inject-7">
		<path class="st0" d="M67.6,327.9c90.1,47.1,236.3,47.1,326.4,0s90.1-123.4,0-170.5s-236.3-47.1-326.4,0S-22.5,280.8,67.6,327.9z"
			/>
	</g>
	<g id="freepik--Shadows--inject-7">
		<path class="st1" d="M347.4,245.1c-12.1-7-31.7-7-43.8,0s-12.1,18.3,0,25.3s31.7,7,43.8,0S359.5,252.1,347.4,245.1z"/>
		<path class="st1" d="M347.4,245.1c-12.1-7-31.7-7-43.8,0s-12.1,18.3,0,25.3s31.7,7,43.8,0S359.5,252.1,347.4,245.1z"/>
		<path class="st1" d="M111,161.1c-12.1-7-31.7-7-43.8,0s-12.1,18.3,0,25.3s31.7,7,43.8,0S123.1,168,111,161.1z"/>
		<path class="st1" d="M394.3,188.3c-12.1-7-31.7-7-43.8,0c-12.1,7-12.1,18.3,0,25.3s31.7,7,43.8,0S406.4,195.3,394.3,188.3z"/>
	</g>
	<g id="freepik--Plants--inject-7">
		<path class="st2" d="M113.8,275.4c-0.7-8.9-2.8-17.6-6.1-25.8c-5.4-13.3-14.7-24.1-26.7-26.6s-16.5,3.7-15.5,10.8
			s11,12.4,17.8,18.4s19.3,20.3,22.8,34.1l6.7,0.7L113.8,275.4z"/>
		<path class="st3" d="M113.8,275.4c-0.7-8.9-2.8-17.6-6.1-25.8c-5.4-13.3-14.7-24.1-26.7-26.6s-16.5,3.7-15.5,10.8
			s11,12.4,17.8,18.4s19.3,20.3,22.8,34.1l6.7,0.7L113.8,275.4z"/>
		<path class="st0" d="M110.4,287L110.4,287c-0.3,0-0.5-0.3-0.5-0.5c1.5-23.7-13.9-50-35.2-59.8c-0.2-0.1-0.4-0.4-0.3-0.6
			c0,0,0,0,0,0c0.1-0.2,0.4-0.4,0.7-0.3c21.6,9.9,37.3,36.6,35.8,60.7C110.9,286.8,110.7,287,110.4,287
			C110.4,287,110.4,287,110.4,287z"/>
		<path class="st4" d="M113.4,328.8c0,0-7,4.4-17.8,2.5s-13.2-9.3-14.1-16.6s-6.3-4-13.6-7s-8.5-10.5-6.9-16.1
			c0.7-2.4,2-4.7,3.7-6.6c0,0-5.2-2.3-9.8-10.1c-2-3.5-3.6-7.2-5-11c0,0,5.9-4.5,17.6-2.1c3.9,0.9,7.6,2.5,10.8,4.9
			c0,0,6.3-7.1,15-4.5c3,0.9,5.3,3.2,6.3,6.1c0.4,1.2,0.9,2.4,1.4,3.5c1,1.4,2.7,2.4,4.4,2.5c4.1,0.6,8-0.1,11.8,2
			c1.8,1.2,3.3,2.8,4.3,4.8C127.3,291.2,113.4,328.8,113.4,328.8z"/>
		<path class="st0" d="M118.2,314.6c-0.2,0-0.3-0.1-0.4-0.2c-17-27.6-43.9-43.5-61.8-48.8c-0.3-0.1-0.4-0.4-0.4-0.6
			c0.1-0.3,0.4-0.4,0.6-0.4c18,5.3,45.2,21.4,62.3,49.2c0.1,0.2,0.1,0.6-0.2,0.7C118.3,314.6,118.2,314.6,118.2,314.6L118.2,314.6z"
			/>
		<path class="st0" d="M73.2,292.9c-0.1,0-0.3-0.1-0.4-0.2c-0.2-0.2-0.2-0.5,0-0.7c0,0,0,0,0,0c0.3-0.3,8.5-7.4,19.5-7.5
			c0.3,0,0.5,0.2,0.5,0.5c0,0,0,0,0,0c0,0.3-0.2,0.5-0.5,0.5c0,0,0,0,0,0c-10.7,0.2-18.8,7.2-18.9,7.3
			C73.4,292.9,73.3,292.9,73.2,292.9z"/>
		<path class="st0" d="M86.1,280.7c-0.3,0-0.5-0.2-0.5-0.5c-0.4-4.4,0.4-8.9,2.2-12.9c0.1-0.2,0.4-0.4,0.7-0.2
			c0.2,0.1,0.4,0.4,0.2,0.7c-1.7,3.9-2.5,8.1-2.1,12.4C86.6,280.4,86.4,280.7,86.1,280.7L86.1,280.7z"/>
		<path class="st5" d="M388.2,171.7c0,0-4.1-13.3-2.1-26s8-22.6,15.9-26.7s17.6,0.4,11.2,9.3s-19.6,20.8-18.3,43.1L388.2,171.7z"/>
		<path class="st0" d="M391.4,172c-0.2,0-0.3-0.1-0.4-0.3c-4.4-16.1,2-42,16.7-51.2c0.2-0.1,0.4,0,0.5,0.2c0.1,0.2,0,0.4-0.1,0.5
			c-14.5,9-20.7,34.4-16.4,50.3c0.1,0.2-0.1,0.4-0.3,0.5L391.4,172z"/>
		<path class="st6" d="M399.1,186.3c1.2,0.7,2.6,1,4,1.1c1.6,0.1,3.3-0.1,4.8-0.7c2.7-1,5-2.6,5.7-5.6c0.5-2.3-0.3-5,0.7-7.2
			s4.1-3.6,6.2-4.2c1.5-0.5,3-0.7,4.5-1.2c1.5-0.5,2.7-1.5,3.4-2.9c1.4-3.4-2.4-7.3-1.1-10.7c0.6-1.7,2.3-2.8,3.8-3.7
			s3.2-2.1,3.6-3.9c0.3-1.7-0.3-3.3-1.5-4.5c-2.8-2.8-7.4-3.1-11-1.7c-1.1,0.5-2.3,1-3.5,1.4c-4.6,1.2-9.6-1.8-14.3-0.7
			c-3.1,0.8-5.4,3.2-6.2,6.2c-0.2,1-0.3,2.1-0.5,3.1c-0.6,2.6-3.3,3.1-3.9,5.7c-0.6,2.4,0.1,4.8,0.6,7.2c0.6,3.6,1.3,7.1,2.1,10.7
			c0.4,1.9,0.8,3.9,1.2,5.8c0.4,1.8-0.1,3.7,0.7,5.4C398.5,185.9,398.8,186.1,399.1,186.3z"/>
		<path class="st0" d="M397.8,173.7L397.8,173.7c-0.3,0-0.4-0.2-0.4-0.5c2-13,20.3-28.4,32-30c0.2,0,0.4,0.1,0.5,0.4
			c0,0.2-0.1,0.4-0.3,0.4c-11.5,1.6-29.3,16.6-31.3,29.3C398.1,173.6,398,173.7,397.8,173.7z"/>
		<path class="st0" d="M408.2,156.3c-0.2,0-0.4-0.2-0.4-0.4c-0.7-7.9-3.6-11-3.6-11c-0.2-0.2-0.2-0.4,0-0.6c0.2-0.2,0.4-0.2,0.6,0
			c0.1,0.1,3.1,3.3,3.9,11.5C408.6,156.1,408.5,156.3,408.2,156.3C408.2,156.4,408.2,156.4,408.2,156.3L408.2,156.3z"/>
		<path class="st0" d="M420.9,162.9c0,0-0.1,0-0.1,0c-0.1,0-9-3.8-16.6-1.8c-0.2,0-0.4-0.1-0.5-0.3c0-0.2,0.1-0.4,0.3-0.5
			c7.8-2.1,16.7,1.6,17.1,1.8c0.2,0.1,0.3,0.3,0.2,0.5c0,0,0,0,0,0C421.2,162.9,421.1,163,420.9,162.9z"/>
	</g>
	<g id="freepik--Wallet--inject-7">
		<polygon class="st7" points="341.9,54.4 350.2,59.2 350.2,73.6 341.9,68.8 		"/>
		<path class="st4" d="M335.6,19.8l-26.8,15.5v-31c0.1-2.3-1.7-4.2-4-4.3c-0.8,0-1.6,0.2-2.3,0.6L169.7,77.2
			c-5.1,3-7.7,6.8-7.7,10.7v129.3c0,3.9,2.6,7.8,7.7,10.7l0.2,0.1c10.3,5.9,26.9,5.9,37.1,0l132.6-76.6c1.3-0.9,2.1-2.3,2.2-3.8
			V20.9l-2.1-1.2C338.5,19.1,336.9,19.1,335.6,19.8z"/>
		<path class="st2" d="M169.7,98.6c-10.2-5.9-10.2-15.5,0-21.4L302.4,0.6c1.3-0.7,2.9-0.7,4.3-0.1c1.1,0.7,1.1,1.8-0.1,2.5
			L177.6,77.5c-1.2,0.7-3.2,1.8-4.4,2.7c-6,4.5-6.5,10.5-1.4,14.7c1.4,1,2.8,1.9,4.4,2.6c7.4,3.1,18,2.8,25.9-0.8
			c1.3-0.6,3.3-1.7,4.5-2.4l129-74.4c1.3-0.7,2.9-0.7,4.3-0.1c1.1,0.7,1.1,1.8-0.1,2.5L207.1,98.8c-10.2,5.9-26.9,5.9-37.1,0
			L169.7,98.6z"/>
		<path class="st8" d="M169.7,98.6c-10.2-5.9-10.2-15.5,0-21.4L302.4,0.6c1.3-0.7,2.9-0.7,4.3-0.1c1.1,0.7,1.1,1.8-0.1,2.5
			L177.6,77.5c-1.2,0.7-3.2,1.8-4.4,2.7c-6,4.5-6.5,10.5-1.4,14.7c1.4,1,2.8,1.9,4.4,2.6c7.4,3.1,18,2.8,25.9-0.8
			c1.3-0.6,3.3-1.7,4.5-2.4l129-74.4c1.3-0.7,2.9-0.7,4.3-0.1c1.1,0.7,1.1,1.8-0.1,2.5L207.1,98.8c-10.2,5.9-26.9,5.9-37.1,0
			L169.7,98.6z"/>
		<path class="st0" d="M166.4,106.4c-0.1,0-0.2,0-0.3-0.1c-0.7-0.6-1.3-1.2-1.8-1.8c-0.2-0.2-0.1-0.5,0.1-0.7s0.5-0.1,0.7,0.1
			c0.5,0.6,1.1,1.2,1.7,1.7c0.2,0.2,0.2,0.5,0.1,0.7C166.7,106.3,166.6,106.4,166.4,106.4z"/>
		<path class="st0" d="M190.1,113.3c-0.3,0-0.5-0.2-0.5-0.5c0-0.3,0.2-0.5,0.5-0.5c0,0,0,0,0,0c1.7-0.1,3.3-0.2,5-0.4
			c0.3,0,0.5,0.1,0.6,0.4c0,0,0,0,0,0c0,0.3-0.1,0.5-0.4,0.6C193.6,113,191.9,113.2,190.1,113.3L190.1,113.3z M185.1,113.2
			L185.1,113.2c-1.7-0.1-3.3-0.4-5-0.7c-0.3,0-0.4-0.3-0.4-0.6c0,0,0,0,0,0c0.1-0.3,0.3-0.4,0.6-0.4c1.6,0.3,3.3,0.5,4.9,0.7
			c0.3,0,0.5,0.2,0.5,0.5s-0.2,0.5-0.5,0.5L185.1,113.2z M200.1,111.7c-0.2,0-0.4-0.2-0.5-0.4c-0.1-0.3,0.1-0.5,0.3-0.6c0,0,0,0,0,0
			c1.6-0.4,3.2-1,4.7-1.7c0.2-0.1,0.5,0,0.7,0.2c0,0,0,0,0,0c0.1,0.2,0,0.5-0.2,0.7c0,0,0,0,0,0c-1.6,0.7-3.2,1.3-4.8,1.8
			L200.1,111.7z M175.3,111.2c-0.1,0-0.1,0-0.2,0c-1.6-0.5-3.2-1.2-4.7-2c-0.2-0.1-0.3-0.5-0.2-0.7c0.1-0.2,0.4-0.3,0.6-0.2
			c1.5,0.8,3,1.5,4.6,2c0.3,0,0.5,0.3,0.4,0.6s-0.3,0.5-0.6,0.4l0,0V111.2z M209.3,107.6c-0.3,0-0.5-0.2-0.5-0.5
			c0-0.2,0.1-0.3,0.2-0.4l4.4-2.5c0.2-0.2,0.5-0.1,0.7,0.1s0.1,0.5-0.1,0.7c0,0-0.1,0-0.1,0.1l-4.4,2.5
			C209.4,107.6,209.3,107.6,209.3,107.6L209.3,107.6z M218,102.6c-0.2,0-0.3-0.1-0.4-0.3c-0.2-0.2-0.1-0.5,0.1-0.7c0,0,0,0,0,0
			l4.4-2.5c0.2-0.1,0.5,0,0.7,0.2c0.1,0.2,0.1,0.5-0.2,0.7c0,0,0,0,0,0l-4.4,2.5C218.1,102.5,218,102.6,218,102.6L218,102.6z
			 M226.7,97.6c-0.2,0-0.3-0.1-0.4-0.3c-0.1-0.2-0.1-0.5,0.2-0.7l4.4-2.5c0.2-0.1,0.5,0,0.7,0.2c0.1,0.2,0,0.5-0.2,0.7l-4.4,2.5
			C226.9,97.6,226.8,97.6,226.7,97.6L226.7,97.6z M235.5,92.6c-0.2,0-0.3-0.1-0.4-0.3c-0.1-0.2-0.1-0.5,0.2-0.7l4.4-2.5
			c0.2-0.1,0.5-0.1,0.7,0.2c0,0,0,0,0,0c0.1,0.2,0.1,0.5-0.2,0.7l-4.4,2.4c-0.1,0-0.2,0.1-0.3,0.1L235.5,92.6z M244.2,87.6
			c-0.2,0-0.3-0.1-0.4-0.3c-0.1-0.2-0.1-0.5,0.2-0.7l4.4-2.5c0.2-0.1,0.5-0.1,0.7,0.2c0,0,0,0,0,0c0.1,0.2,0.1,0.5-0.2,0.7l-4.4,2.5
			c-0.1,0-0.2,0-0.3-0.1L244.2,87.6z M252.9,82.6c-0.3,0-0.5-0.2-0.5-0.5c0-0.2,0.1-0.3,0.2-0.4l4.4-2.5c0.2-0.1,0.5-0.1,0.7,0.2
			c0,0,0,0,0,0c0.1,0.2,0.1,0.5-0.2,0.7l-4.4,2.5c-0.1,0-0.2-0.1-0.3-0.1L252.9,82.6z M261.7,77.6c-0.3,0-0.5-0.2-0.5-0.5
			c0-0.2,0.1-0.3,0.2-0.4l4.4-2.5c0.3-0.1,0.5,0,0.7,0.2c0.1,0.2,0,0.5-0.2,0.6l-4.4,2.5c-0.1,0-0.2-0.1-0.3-0.2L261.7,77.6z
			 M270.4,72.6c-0.2,0-0.3-0.1-0.4-0.3c-0.1-0.2,0-0.5,0.2-0.7l4.4-2.5c0.2-0.2,0.5-0.1,0.7,0.1s0.1,0.5-0.1,0.7c0,0-0.1,0-0.1,0.1
			l-4.4,2.5c-0.1,0-0.2-0.1-0.3-0.2L270.4,72.6z M279.1,67.6c-0.3,0-0.5-0.2-0.5-0.5c0-0.2,0.1-0.3,0.2-0.4l4.4-2.5
			c0.2-0.1,0.5-0.1,0.7,0.2c0.1,0.2,0,0.5-0.2,0.7l-4.4,2.5c-0.1,0-0.2-0.1-0.3-0.3L279.1,67.6z M287.8,62.6c-0.3,0-0.5-0.2-0.5-0.5
			c0-0.2,0.1-0.3,0.2-0.4l4.4-2.5c0.2-0.1,0.5,0,0.7,0.2c0.1,0.2,0.1,0.5-0.2,0.7c0,0,0,0,0,0l-4.4,2.5c-0.1,0-0.3-0.2-0.3-0.3
			L287.8,62.6z M296.6,57.6c-0.2,0-0.3-0.1-0.4-0.3c-0.1-0.2-0.1-0.5,0.2-0.7l4.4-2.9c0.2-0.1,0.5,0,0.7,0.2
			c0.1,0.2,0.1,0.5-0.2,0.7c0,0,0,0,0,0l-4.4,2.5c-0.1,0.1-0.2,0.1-0.3,0.1L296.6,57.6z M305.3,52.6c-0.2,0-0.3-0.1-0.4-0.3
			c-0.1-0.2-0.1-0.5,0.2-0.7l4.4-2.5c0.2-0.1,0.5-0.1,0.7,0.2c0,0,0,0,0,0c0.1,0.2,0.1,0.5-0.2,0.7l-4.4,2.5
			c-0.2-0.1-0.3-0.2-0.3-0.4L305.3,52.6z M314,47.6c-0.2,0-0.3-0.1-0.4-0.3c-0.1-0.2,0-0.5,0.2-0.7l4.4-2.5c0.2-0.1,0.5-0.1,0.7,0.2
			c0,0,0,0,0,0c0.1,0.2,0.1,0.5-0.2,0.7l-4.4,2.5c-0.2-0.1-0.3-0.3-0.3-0.4L314,47.6z M322.8,42.6c-0.2,0-0.3-0.1-0.4-0.3
			c-0.1-0.2,0-0.5,0.2-0.7l4.4-2.5c0.2-0.1,0.5-0.1,0.7,0.2c0.1,0.2,0.1,0.5-0.2,0.7l-4.4,2.5c-0.2-0.1-0.3-0.3-0.3-0.5L322.8,42.6z
			"/>
		<path class="st0" d="M333.6,38.3c-0.3,0-0.5-0.2-0.5-0.5v-1.6l-1.4,0.8c-0.2,0.1-0.5,0.1-0.7-0.2c0,0,0,0,0,0
			c-0.1-0.2-0.1-0.5,0.2-0.7l2.2-1.3c0.2-0.1,0.5-0.1,0.7,0.2c0,0.1,0.1,0.2,0.1,0.3v2.5C334.1,38,333.9,38.3,333.6,38.3z"/>
		<path class="st0" d="M333.6,138.4c-0.3,0-0.5-0.2-0.5-0.5v-5c0-0.3,0.2-0.5,0.5-0.5s0.5,0.2,0.5,0.5v5
			C334.1,138.2,333.9,138.4,333.6,138.4z M333.6,128.4c-0.3,0-0.5-0.2-0.5-0.5v-5c0-0.3,0.2-0.5,0.5-0.5c0.3,0,0.5,0.2,0.5,0.5v5
			C334.1,128.2,333.9,128.4,333.6,128.4L333.6,128.4z M333.6,118.4c-0.3,0-0.5-0.2-0.5-0.5v-5c0-0.3,0.2-0.5,0.5-0.5
			s0.5,0.2,0.5,0.5v5C334.1,118.2,333.9,118.4,333.6,118.4L333.6,118.4z M333.6,108.4c-0.3,0-0.5-0.2-0.5-0.5v-5
			c0-0.3,0.2-0.5,0.5-0.5s0.5,0.2,0.5,0.5v5C334.1,108.2,333.9,108.4,333.6,108.4L333.6,108.4z M333.6,98.4c-0.3,0-0.5-0.2-0.5-0.5
			v-5c0-0.3,0.2-0.5,0.5-0.5c0.3,0,0.5,0.2,0.5,0.5v5C334.1,98.2,333.9,98.4,333.6,98.4L333.6,98.4z M333.6,88.4
			c-0.3,0-0.5-0.2-0.5-0.5v-5c0-0.3,0.2-0.5,0.5-0.5s0.5,0.2,0.5,0.5v5C334.1,88.2,333.9,88.3,333.6,88.4L333.6,88.4z M333.6,78.4
			c-0.3,0-0.5-0.2-0.5-0.5v-5c0-0.3,0.2-0.5,0.5-0.5s0.5,0.2,0.5,0.5v5C334.1,78.2,333.9,78.3,333.6,78.4L333.6,78.4z M333.6,68.4
			c-0.3,0-0.5-0.2-0.5-0.5v-5c0-0.3,0.2-0.5,0.5-0.5s0.5,0.2,0.5,0.5v5c0,0.2-0.3,0.4-0.5,0.4V68.4z M333.6,58.4
			c-0.3,0-0.5-0.2-0.5-0.5v-5c0-0.3,0.2-0.5,0.5-0.5s0.5,0.2,0.5,0.5v5c-0.1,0.2-0.3,0.4-0.5,0.4V58.4z M333.6,48.4
			c-0.3,0-0.5-0.2-0.5-0.5v-5c0-0.3,0.2-0.5,0.5-0.5c0.3,0,0.5,0.2,0.5,0.5v5c-0.1,0.2-0.3,0.4-0.5,0.4V48.4z"/>
		<path class="st0" d="M331.5,147.2c-0.3,0-0.5-0.2-0.5-0.5c0-0.2,0.1-0.3,0.2-0.4l1.9-1.1v-2.2c0-0.3,0.2-0.5,0.5-0.5
			c0.3,0,0.5,0.2,0.5,0.5v2.5c0,0.2-0.1,0.3-0.3,0.4l-2.2,1.3C331.6,147.1,331.5,147.2,331.5,147.2z"/>
		<path class="st0" d="M190.1,223.4c-0.3,0-0.5-0.2-0.5-0.5s0.2-0.5,0.5-0.5c1.7-0.1,3.3-0.2,5-0.5c0.3,0,0.5,0.1,0.6,0.4
			c0,0.3-0.1,0.5-0.4,0.6c0,0,0,0,0,0C193.6,223.2,191.9,223.3,190.1,223.4L190.1,223.4z M185.1,223.3L185.1,223.3
			c-1.7-0.1-3.4-0.4-5.1-0.7c-0.3-0.1-0.4-0.3-0.4-0.6c0.1-0.3,0.3-0.4,0.6-0.4c1.6,0.3,3.3,0.5,4.9,0.7c0.3,0,0.5,0.2,0.5,0.5
			S185.5,223.3,185.1,223.3L185.1,223.3z M200.1,221.9c-0.2,0-0.4-0.1-0.5-0.4c-0.1-0.3,0.1-0.5,0.3-0.6c1.6-0.4,3.2-1,4.7-1.7
			c0.2-0.1,0.5,0,0.7,0.2c0,0,0,0,0,0c0.1,0.2,0,0.5-0.2,0.7c0,0,0,0,0,0c-1.6,0.7-3.2,1.3-4.8,1.8
			C200.2,221.9,200.1,221.9,200.1,221.9L200.1,221.9z M175.3,221.4c-0.1,0-0.1,0-0.2,0c-1.6-0.5-3.2-1.2-4.7-2
			c-0.2-0.1-0.3-0.5-0.2-0.7c0.1-0.2,0.4-0.3,0.6-0.2c1.5,0.8,3,1.5,4.6,2c0.3,0,0.5,0.3,0.4,0.6c0,0.3-0.3,0.5-0.6,0.4V221.4z
			 M209.3,217.7c-0.3,0-0.5-0.2-0.5-0.5c0-0.2,0.1-0.3,0.2-0.4l4.4-2.5c0.3-0.1,0.5,0,0.7,0.2c0.1,0.2,0,0.5-0.2,0.6l-4.4,2.5
			C209.4,217.7,209.3,217.7,209.3,217.7L209.3,217.7z M218,212.7c-0.2,0-0.3-0.1-0.4-0.3c-0.1-0.2-0.1-0.5,0.2-0.7c0,0,0,0,0,0
			l4.4-2.5c0.2-0.2,0.5-0.1,0.7,0.1s0.1,0.5-0.1,0.7c0,0-0.1,0-0.1,0.1l-4.4,2.5C218.1,212.7,218,212.7,218,212.7L218,212.7z
			 M226.7,207.7c-0.2,0-0.3-0.1-0.4-0.3c-0.1-0.2,0-0.5,0.2-0.7l4.4-2.5c0.2-0.1,0.5,0,0.7,0.2c0.1,0.2,0,0.5-0.2,0.7l-4.4,2.5
			c-0.1,0-0.2,0-0.3,0L226.7,207.7z M235.5,202.7c-0.2,0-0.3-0.1-0.4-0.3c-0.1-0.2-0.1-0.5,0.2-0.7l4.4-2.5c0.2-0.1,0.6-0.1,0.7,0.2
			c0.1,0.2,0,0.5-0.2,0.7l-4.4,2.4c-0.1,0.1-0.2,0.1-0.3,0.1L235.5,202.7z M244.2,197.7c-0.2,0-0.3-0.1-0.4-0.3
			c-0.1-0.2-0.1-0.5,0.2-0.7l4.4-2.5c0.2-0.1,0.5-0.1,0.7,0.2s0.1,0.5-0.2,0.7l-4.4,2.5c-0.1,0-0.2,0-0.3,0L244.2,197.7z
			 M252.9,192.7c-0.2,0-0.3-0.1-0.4-0.3c-0.1-0.2-0.1-0.5,0.2-0.7l4.4-2.5c0.2-0.1,0.5-0.1,0.7,0.2s0.1,0.5-0.2,0.7l-4.4,2.5
			c-0.1,0-0.2,0-0.3-0.1L252.9,192.7z M261.7,187.7c-0.2,0-0.3-0.1-0.4-0.3c-0.1-0.2-0.1-0.5,0.2-0.7l4.4-2.5
			c0.2-0.2,0.5-0.1,0.7,0.1s0.1,0.5-0.1,0.7c0,0-0.1,0-0.1,0.1l-4.4,2.5c-0.1,0-0.2-0.1-0.3-0.1L261.7,187.7z M270.4,182.7
			c-0.3,0-0.5-0.2-0.5-0.5c0-0.2,0.1-0.3,0.2-0.4l4.4-2.5c0.2-0.2,0.5-0.1,0.7,0.1s0.1,0.5-0.1,0.7c0,0-0.1,0-0.1,0.1l-4.4,2.5
			c-0.1,0-0.2-0.1-0.3-0.2L270.4,182.7z M279.1,177.7c-0.3,0-0.5-0.2-0.5-0.5c0-0.2,0.1-0.3,0.2-0.4l4.4-2.5
			c0.2-0.2,0.5-0.1,0.7,0.1s0.1,0.5-0.1,0.7c0,0-0.1,0-0.1,0.1l-4.4,2.5c-0.1,0-0.2-0.1-0.3-0.2L279.1,177.7z M287.9,172.7
			c-0.3,0-0.5-0.2-0.5-0.5c0-0.2,0.1-0.3,0.2-0.4l4.4-2.5c0.2-0.2,0.5-0.1,0.7,0.1s0.1,0.5-0.1,0.7c0,0-0.1,0-0.1,0.1l-4.4,2.5
			c-0.1,0-0.2-0.1-0.3-0.3L287.9,172.7z M296.6,167.7c-0.2,0-0.3-0.1-0.4-0.3c-0.1-0.2-0.1-0.5,0.2-0.7l4.4-2.5
			c0.2-0.1,0.5,0,0.7,0.2c0.1,0.2,0.1,0.5-0.2,0.7c0,0,0,0,0,0l-4.4,2.5c-0.1,0-0.3-0.1-0.3-0.3L296.6,167.7z M305.3,162.7
			c-0.2,0-0.3-0.1-0.4-0.3c-0.1-0.2-0.1-0.5,0.2-0.7l4.4-2.5c0.2-0.1,0.5-0.1,0.7,0.2s0.1,0.5-0.2,0.7l-4.4,2.5
			c-0.2,0-0.3-0.2-0.3-0.3L305.3,162.7z M314.1,157.7c-0.2,0-0.3-0.1-0.4-0.3c-0.1-0.2-0.1-0.5,0.2-0.7l4.4-2.5
			c0.2-0.1,0.5-0.1,0.7,0.2c0,0,0,0,0,0c0.1,0.2,0.1,0.5-0.2,0.7l-4.4,2.5c-0.2-0.1-0.3-0.2-0.3-0.4L314.1,157.7z M322.8,152.6
			c-0.2,0-0.3-0.1-0.4-0.3c-0.1-0.2,0-0.5,0.2-0.7l4.4-2.5c0.2-0.1,0.5-0.1,0.7,0.2c0.1,0.2,0,0.5-0.2,0.7l-4.4,2.5
			c-0.2-0.1-0.3-0.2-0.3-0.4L322.8,152.6z"/>
		<path class="st0" d="M166.4,216.5c-0.1,0-0.2,0-0.3-0.1c-0.7-0.6-1.3-1.2-1.8-1.8c-0.2-0.2-0.1-0.5,0.1-0.7
			c0.2-0.2,0.5-0.1,0.7,0.1c0.5,0.6,1.1,1.2,1.7,1.7c0.2,0.2,0.2,0.5,0.1,0.7c0,0,0,0,0,0C166.7,216.5,166.6,216.5,166.4,216.5z"/>
		<path class="st1" d="M308.7,28.5V13.4c-0.1-1.2-0.7-2.4-1.8-3.1c0.6,0.2,0.8,0.9,0.6,1.4c-0.1,0.3-0.3,0.5-0.6,0.6L169.3,91.9
			c0.7,1.2,1.5,2.2,2.6,3c1.4,1,2.8,1.9,4.4,2.6c4.1,1.6,8.5,2.3,12.9,2.1l117.9-68C308,30.8,308.7,29.7,308.7,28.5z"/>
		<path class="st9" d="M307,10.3l-0.6-0.3c-1.1-0.6-2.4-0.6-3.5,0L168.4,87.6c-0.1,1.5,0.2,3,0.9,4.3L307,12.4
			c0.6-0.2,0.9-0.8,0.7-1.4C307.6,10.7,307.3,10.4,307,10.3z"/>
		<path class="st1" d="M317,18.2c-0.1-1.2-0.7-2.4-1.8-3.1l-0.6-0.3c-1.1-0.6-2.4-0.6-3.5,0L172.1,95c1.3,1,2.7,1.8,4.2,2.4
			c7.4,3.1,18,2.8,25.9-0.8c1.3-0.6,3.3-1.7,4.5-2.4L317,30.5V18.2z"/>
		<path class="st9" d="M176.2,97.4l139.1-80.3c0.6-0.2,0.8-0.9,0.6-1.4c-0.1-0.3-0.3-0.5-0.6-0.6l-0.6-0.3c-1.1-0.6-2.4-0.6-3.5,0
			l-139,80.3C173.4,96,174.8,96.8,176.2,97.4z"/>
		<path class="st1" d="M325.3,23c-0.1-1.2-0.7-2.4-1.8-3.1l-0.6-0.4c-1.1-0.6-2.4-0.6-3.5,0L181.7,99c6.9,1.2,14,0.4,20.4-2.4
			c1.3-0.6,3.3-1.7,4.5-2.4l118.7-68.5V23z"/>
		<path class="st9" d="M323.6,19.9l-0.6-0.4c-1.1-0.6-2.4-0.6-3.5,0L181.7,99c2.4,0.4,4.9,0.6,7.4,0.5l134.4-77.6
			c0.6-0.2,0.9-0.8,0.7-1.4C324.1,20.3,323.9,20,323.6,19.9z"/>
		<path class="st2" d="M358.5,66.1v29.4c-0.1,1.2-0.7,2.4-1.8,3.1l-53.7,31h-0.1c-4.1,2.3-7.7,2.6-10.4,1.2c-0.8-0.4-4-2.3-4.7-2.8
			c-2.4-1.6-3.9-4.7-3.9-9c0-9,6.3-19.9,14.2-25l0,0L348.4,65l0.3-0.2c0.7-0.6,0.6-1.4-0.3-1.9l-6.5-3.8v-4.8l14.8,8.6
			c0.9,0.6,1.6,1.6,1.7,2.7C358.5,65.8,358.5,65.9,358.5,66.1z"/>
		<path class="st8" d="M358.5,66.1v29.4c-0.1,1.2-0.7,2.4-1.8,3.1l-53.7,31h-0.1c-4.1,2.3-7.7,2.6-10.4,1.2c-0.8-0.4-4-2.3-4.7-2.8
			c-2.4-1.6-3.9-4.7-3.9-9c0-9,6.3-19.9,14.2-25l0,0L348.4,65l0.3-0.2c0.7-0.6,0.6-1.4-0.3-1.9l-6.5-3.8v-4.8l14.8,8.6
			c0.9,0.6,1.6,1.6,1.7,2.7C358.5,65.8,358.5,65.9,358.5,66.1z"/>
		<path class="st4" d="M358.5,66.1v29.4c-0.1,1.2-0.7,2.4-1.8,3.1l-53.7,31h-0.1c-5.3,3-9.9,2.6-12.6-0.5c-1.7-2.2-2.5-4.9-2.3-7.6
			c0-9.3,6.7-20.6,15-25.4l51.3-29.6l2.4-1.4c0.9-0.5,1.6-0.2,1.7,0.7C358.5,65.8,358.5,65.9,358.5,66.1z"/>
		<path class="st5" d="M300.5,114.3c0,4,2.8,5.6,6.2,3.6c3.7-2.4,6-6.4,6.2-10.8c0-4-2.8-5.6-6.2-3.6
			C303,105.9,300.7,109.9,300.5,114.3z"/>
		<polygon class="st5" points="313.1,104.3 311.3,103.2 302.3,118.3 304.4,119.5 		"/>
		<path class="st6" d="M302.5,115.5c0,4,2.8,5.6,6.2,3.6c3.7-2.4,6-6.4,6.2-10.8c0-4-2.8-5.6-6.2-3.6
			C305.1,107.1,302.8,111.1,302.5,115.5z"/>
	</g>
	<g id="freepik--Card--inject-7">
		<path class="st6" d="M114.9,333.6c-1.2-0.9-2-2.2-2.1-3.8V210.4c0.1-1.6,0.9-3,2.2-3.8l153.1-88.4c1.9-1.2,4.5-0.6,5.7,1.3
			c0.4,0.7,0.7,1.5,0.6,2.4v119.4c-0.1,1.6-0.9,3-2.2,3.8l-153.1,88.4C117.9,334.2,116.3,334.2,114.9,333.6z"/>
		<path class="st7" d="M121.1,212.6l-7.6-4.4c-0.4,0.7-0.6,1.4-0.6,2.2v119.4c-0.1,2.3,1.7,4.2,4,4.3c0.8,0,1.7-0.2,2.4-0.6l1.9-1.1
			V212.6z"/>
		<path class="st5" d="M117,212.8v119.4c0,1.4,1,2,2.2,1.3l153.1-88.4c1.3-0.9,2.1-2.3,2.2-3.8V121.9c0-1.4-1-2-2.2-1.3L119.2,209
			C117.9,209.9,117.1,211.3,117,212.8z"/>
		<path class="st4" d="M129.4,244v18.8c0,1.4,1,2,2.2,1.3l24.6-14.2c1.3-0.8,2.1-2.3,2.2-3.8v-18.8c0-1.4-1-2-2.2-1.3l-24.6,14.2
			C130.4,241,129.5,242.4,129.4,244z"/>
		<path class="st0" d="M158.5,232.4v-1.1l-29,16.8v1.2l7.8-4.5v8.5l-7.8,4.5v1.1l29-16.8v-1.2l-7.8,4.5v-8.5L158.5,232.4z
			 M149.7,245.9l-11.4,6.6v-8.5l11.4-6.6V245.9z"/>
		<path class="st10" d="M135,221.7v1.6c0.1,1.9-0.9,3.6-2.5,4.5c-1.6,1-2.5,0.3-2.5-1.6v-6.4c-0.1-1.9,0.9-3.6,2.5-4.5
			c1.6-0.9,2.5-0.3,2.5,1.6v1.2l-1.6,0.9v-1.3c0-0.9-0.3-1-0.9-0.7c-0.6,0.4-0.9,1-0.9,1.7v6.6c0,0.9,0.3,1,0.9,0.7
			c0.6-0.3,0.9-1,0.9-1.7v-1.7L135,221.7z"/>
		<path class="st10" d="M139.5,223.6c-0.1-0.5-0.2-0.9-0.1-1.4v-1.9c0-1.1-0.3-1.4-1.1-0.9l-0.6,0.3v5l-1.7,1v-12.3l2.5-1.5
			c1.7-1,2.5-0.5,2.5,1.4v1c0,1.1-0.3,2.3-1.1,3.1c0.8-0.1,1.1,0.7,1.1,2v1.9c0,0.5,0,0.9,0.2,1.4L139.5,223.6z M137.7,214.2v3.8
			l0.6-0.4c0.7-0.4,1.1-1.1,1-1.9v-1.2c0-0.9-0.3-1.1-0.9-0.8L137.7,214.2z"/>
		<path class="st10" d="M143.8,214.1l2.3-1.3v1.8l-2.3,1.3v3.6l2.9-1.7v1.8l-4.6,2.6v-12.3l4.6-2.6v1.8l-2.9,1.6V214.1z"/>
		<path class="st10" d="M147.7,206.6l2.6-1.5c1.7-1,2.5-0.4,2.5,1.6v6.2c0.1,1.8-0.9,3.6-2.5,4.5l-2.6,1.5V206.6z M149.4,207.4v8.8
			l0.9-0.5c0.6-0.3,0.9-1,0.9-1.7v-6.4c0-0.9-0.3-1-0.9-0.7L149.4,207.4z"/>
		<path class="st10" d="M153.9,203.1l1.7-1v12.3l-1.7,1V203.1z"/>
		<path class="st10" d="M156.3,201.6l5.2-3v1.8l-1.8,1v10.5l-1.7,1v-10.5l-1.8,1V201.6z"/>
		<path class="st10" d="M169.4,201.8v1.6c0.1,1.9-0.9,3.6-2.5,4.5c-1.6,1-2.5,0.3-2.5-1.6v-6.4c-0.1-1.9,0.9-3.6,2.5-4.5
			c1.6-1,2.5-0.3,2.5,1.6v1.2l-1.6,0.9v-1.3c0-0.9-0.3-1-0.9-0.7c-0.6,0.4-0.9,1-0.9,1.7v6.6c0,0.9,0.3,1,0.9,0.7
			c0.6-0.4,0.9-1,0.9-1.7v-1.8L169.4,201.8z"/>
		<path class="st10" d="M175.9,202.6l-1.7,1l-0.3-2.1l-2.1,1.2l-0.3,2.4L170,206l1.7-13.3l2.4-1.4L175.9,202.6z M172,200.9l1.6-0.9
			l-0.8-5.8L172,200.9z"/>
		<path class="st10" d="M180.1,200.2c-0.1-0.5-0.2-0.9-0.1-1.4v-1.9c0-1.1-0.3-1.4-1.1-0.9l-0.6,0.3v5l-1.7,1v-12.3l2.5-1.5
			c1.7-1,2.5-0.5,2.5,1.4v1c0,1.1-0.3,2.3-1.1,3.1c0.8-0.1,1.1,0.7,1.1,2v1.9c0,0.5,0,0.9,0.2,1.4L180.1,200.2z M178.3,190.7v3.8
			l0.6-0.4c0.7-0.4,1.1-1.1,1-1.9V191c0-0.9-0.3-1.1-0.9-0.8L178.3,190.7z"/>
		<path class="st10" d="M182.7,186.4l2.6-1.5c1.7-1,2.5-0.4,2.5,1.6v6.2c0.1,1.8-0.9,3.6-2.5,4.5l-2.6,1.5V186.4z M184.4,187.2v8.8
			l0.9-0.5c0.6-0.3,0.9-1,0.9-1.7v-6.4c0-0.9-0.3-1-0.9-0.7L184.4,187.2z"/>
		<path class="st1" d="M129.4,279.9v4.5c0,1.4,1,2,2.2,1.3l24.6-14.2c1.3-0.9,2.1-2.3,2.2-3.8v-4.5c0-1.4-1-2-2.2-1.3L131.7,276
			C130.4,276.9,129.5,278.3,129.4,279.9z"/>
		<path class="st1" d="M164,259.9v4.5c0,1.4,1,2,2.2,1.3l24.6-14.2c1.3-0.8,2.1-2.3,2.2-3.8v-4.5c0-1.4-1-2-2.2-1.3l-24.6,14.2
			C164.9,256.9,164.1,258.4,164,259.9z"/>
		<path class="st1" d="M198.6,240v4.5c0,1.4,1,2,2.2,1.3l24.6-14.2c1.3-0.9,2.1-2.3,2.2-3.9v-4.5c0-1.4-1-2-2.2-1.3l-24.6,14.2
			C199.5,237,198.6,238.4,198.6,240z"/>
		<path class="st1" d="M233.1,220v4.5c0,1.4,1,2,2.2,1.3l24.6-14.2c1.3-0.9,2.1-2.3,2.2-3.8v-4.5c0-1.4-1-2-2.2-1.3l-24.6,14.2
			C234,217,233.2,218.5,233.1,220z"/>
		<path class="st4" d="M248.4,225.4l-5.7,3.2c-0.8,0.5-1.3,1.4-1.3,2.3v1.7c0,0.8,0.6,1.2,1.3,0.8l5.6-3.3c0.8-0.5,1.3-1.4,1.3-2.3
			v-1.7C249.7,225.3,249.1,225,248.4,225.4z"/>
		<path class="st4" d="M260.8,218.2l-5.6,3.3c-0.8,0.5-1.3,1.4-1.3,2.3v1.7c0,0.9,0.6,1.2,1.3,0.8l5.6-3.3c0.8-0.5,1.3-1.4,1.3-2.3
			V219C262.1,218.1,261.5,217.8,260.8,218.2z"/>
		<path class="st4" d="M189.6,271.3l70.2-40.5c1.2-0.7,2.2-0.1,2.2,1.3v2.1c-0.1,1.6-0.9,3-2.2,3.8l-70.2,40.5
			c-1.2,0.7-2.2,0.1-2.2-1.3v-2.1C187.5,273.6,188.3,272.2,189.6,271.3z"/>
	</g>
	<g id="freepik--Coins--inject-7">
		<path class="st2" d="M352,249.8c-1.7-2.6-4-4.7-6.7-6.2c-10.9-6.3-28.6-6.3-39.5,0c-2.7,1.5-5,3.6-6.7,6.2h-1.5v5.7l0,0
			c0.2,4,2.9,7.9,8.2,10.9c10.9,6.3,28.6,6.3,39.5,0c5.2-3,8-7,8.1-10.9l0,0v-5.7H352z"/>
		<path class="st11" d="M352,249.8c-1.7-2.6-4-4.7-6.7-6.2c-10.9-6.3-28.6-6.3-39.5,0c-2.7,1.5-5,3.6-6.7,6.2h-1.5v5.7l0,0
			c0.2,4,2.9,7.9,8.2,10.9c10.9,6.3,28.6,6.3,39.5,0c5.2-3,8-7,8.1-10.9l0,0v-5.7H352z"/>
		<path class="st2" d="M345.3,238.4c-10.9-6.3-28.6-6.3-39.5,0s-10.9,16.5,0,22.8s28.6,6.3,39.5,0S356.2,244.7,345.3,238.4z"/>
		<path class="st12" d="M345.3,238.4c-10.9-6.3-28.6-6.3-39.5,0s-10.9,16.5,0,22.8s28.6,6.3,39.5,0S356.2,244.7,345.3,238.4z"/>
		<path class="st2" d="M338.4,242.6c-8.2-3.7-17.5-3.7-25.7,0c-3.6,1.9-5.7,4.4-5.7,7.2s2,5.4,5.7,7.2c8.2,3.7,17.5,3.7,25.7,0
			c3.6-1.9,5.7-4.4,5.7-7.2S342.1,244.4,338.4,242.6z"/>
		<path class="st12" d="M338.4,242.6c-8.2-3.7-17.5-3.7-25.7,0c-3.6,1.9-5.7,4.4-5.7,7.2s2,5.4,5.7,7.2c8.2,3.7,17.5,3.7,25.7,0
			c3.6-1.9,5.7-4.4,5.7-7.2S342.1,244.4,338.4,242.6z"/>
		<path class="st2" d="M344.7,239.4c-5.1-2.9-11.9-4.6-19.1-4.6s-14,1.6-19.1,4.6c-4.9,2.8-7.6,6.5-7.6,10.4s2.7,7.5,7.6,10.3
			c5.1,2.9,11.9,4.6,19.1,4.6s14-1.6,19.1-4.6c4.9-2.8,7.6-6.5,7.6-10.3S349.6,242.3,344.7,239.4z M338.4,257
			c-8.2,3.7-17.5,3.7-25.7,0c-3.6-1.9-5.7-4.4-5.7-7.2s2-5.4,5.7-7.2c8.2-3.7,17.5-3.7,25.7,0c3.6,1.9,5.7,4.4,5.7,7.2
			S342.1,255.1,338.4,257z"/>
		<path class="st13" d="M344.7,239.4c-5.1-2.9-11.9-4.6-19.1-4.6s-14,1.6-19.1,4.6c-4.9,2.8-7.6,6.5-7.6,10.4s2.7,7.5,7.6,10.3
			c5.1,2.9,11.9,4.6,19.1,4.6s14-1.6,19.1-4.6c4.9-2.8,7.6-6.5,7.6-10.3S349.6,242.3,344.7,239.4z M338.4,257
			c-8.2,3.7-17.5,3.7-25.7,0c-3.6-1.9-5.7-4.4-5.7-7.2s2-5.4,5.7-7.2c8.2-3.7,17.5-3.7,25.7,0c3.6,1.9,5.7,4.4,5.7,7.2
			S342.1,255.1,338.4,257z"/>
		<path class="st2" d="M338,256.2c6.9-3.5,6.9-9.2,0-12.8s-18-3.5-24.8,0s-6.9,9.2,0,12.8S331.1,259.7,338,256.2z"/>
		<path class="st11" d="M338,256.2c6.9-3.5,6.9-9.2,0-12.8s-18-3.5-24.8,0s-6.9,9.2,0,12.8S331.1,259.7,338,256.2z"/>
		<path class="st2" d="M338,245.8c-6.9-3.5-18-3.5-24.8,0c-2.8,1.5-4.5,3.3-5,5.2c0.5,1.9,2.1,3.7,5,5.2c6.9,3.5,18,3.5,24.8,0
			c2.8-1.5,4.5-3.3,5-5.2C342.5,249.1,340.8,247.3,338,245.8z"/>
		<path class="st12" d="M338,245.8c-6.9-3.5-18-3.5-24.8,0c-2.8,1.5-4.5,3.3-5,5.2c0.5,1.9,2.1,3.7,5,5.2c6.9,3.5,18,3.5,24.8,0
			c2.8-1.5,4.5-3.3,5-5.2C342.5,249.1,340.8,247.3,338,245.8z"/>
		<polygon class="st2" points="327.2,243.6 327.2,246.1 326.3,247.1 324.7,248.8 324.7,246.1 		"/>
		<path class="st2" d="M324.7,246.1v2.7h-5.1v-3.1C319.6,245.6,324.3,244.9,324.7,246.1z"/>
		<path class="st2" d="M336.4,253.4v2.3l-2.8,1.6l-2.1-1.2c-2.5,1.2-5.4,1.3-8.1,0.4v-2.2l1.3-1.3l-1.3,0.4
			c-2.1,0.6-4.4,0.3-6.3-0.7c-1.3-0.7-1.9-1.5-1.9-2.3V248l0.2-0.9l-0.8-0.5v-2.2l2.1,1.2c-0.9,0.5-1.4,1.4-1.5,2.4l0,0
			c0,0.8,0.6,1.6,1.9,2.3c2.7,1.6,5.5,1.1,7.9,0.3c2.3-0.8,4-1.6,5.3-0.9c0.8,0.5,0.6,1.1-0.4,1.6c-1.2,0.7-2.7,0.8-4,0.2l-2.7,2.6
			c0.5,0.2,1,0.3,1.5,0.4c2.2,0.4,4.5,0.1,6.6-0.8l2.1,1.2L336.4,253.4z"/>
		<polygon class="st2" points="331.5,253.8 331.5,256 333.5,257.2 333.5,255 		"/>
		<g class="st14">
			<polygon class="st0" points="327.2,243.6 327.2,246.1 326.3,247.1 324.7,248.8 324.7,246.1 			"/>
			<path class="st0" d="M324.7,246.1v2.7h-5.1v-3.1C319.6,245.6,324.3,244.9,324.7,246.1z"/>
			<path class="st0" d="M336.4,253.4v2.3l-2.8,1.6l-2.1-1.2c-2.5,1.2-5.4,1.3-8.1,0.4v-2.2l1.3-1.3l-1.3,0.4
				c-2.1,0.6-4.4,0.3-6.3-0.7c-1.3-0.7-1.9-1.5-1.9-2.3V248l0.2-0.9l-0.8-0.5v-2.2l2.1,1.2c-0.9,0.5-1.4,1.4-1.5,2.4l0,0
				c0,0.8,0.6,1.6,1.9,2.3c2.7,1.6,5.5,1.1,7.9,0.3c2.3-0.8,4-1.6,5.3-0.9c0.8,0.5,0.6,1.1-0.4,1.6c-1.2,0.7-2.7,0.8-4,0.2l-2.7,2.6
				c0.5,0.2,1,0.3,1.5,0.4c2.2,0.4,4.5,0.1,6.6-0.8l2.1,1.2L336.4,253.4z"/>
			<polygon class="st0" points="331.5,253.8 331.5,256 333.5,257.2 333.5,255 			"/>
		</g>
		<path class="st2" d="M335.9,253.1l-1.6-0.9c1-0.4,1.6-1.4,1.6-2.5c0-0.1,0-0.1,0-0.2c-0.2-1-0.9-1.8-1.8-2.2l0,0
			c-1.1-0.7-2.4-1-3.8-1H330h-0.3h-0.3h-0.1H329c-0.6,0.1-1.2,0.2-1.8,0.4l-0.9,0.3l-1.2,0.4l-0.5,0.3c-0.8,0.3-1.6,0.6-2.5,0.7
			c-0.4,0.1-0.7,0.1-1.1,0c-0.2,0-0.3-0.1-0.5-0.2c-0.6-0.4-0.7-0.9,0.5-1.6c1.1-0.7,2.4-0.8,3.6-0.4l2.5-2.5
			c-2.5-0.8-5.2-0.6-7.5,0.4l-2.1-1.2l-2.9,1.6l2.1,1.2c-0.9,0.5-1.4,1.4-1.5,2.4l0,0c0,0.8,0.6,1.6,1.9,2.3
			c2.7,1.6,5.5,1.1,7.9,0.3c2.3-0.8,4-1.6,5.3-0.9c0.8,0.5,0.6,1.1-0.4,1.6c-1.2,0.7-2.7,0.8-4,0.2l-2.7,2.6c0.5,0.2,1,0.3,1.5,0.4
			c2.2,0.4,4.5,0.1,6.6-0.8l2.1,1.2l2.8-1.6L335.9,253.1z"/>
		<path class="st13" d="M335.9,253.1l-1.6-0.9c1-0.4,1.6-1.4,1.6-2.5c0-0.1,0-0.1,0-0.2c-0.2-1-0.9-1.8-1.8-2.2l0,0
			c-1.1-0.7-2.4-1-3.8-1H330h-0.3h-0.3h-0.1H329c-0.6,0.1-1.2,0.2-1.8,0.4l-0.9,0.3l-1.2,0.4l-0.5,0.3c-0.8,0.3-1.6,0.6-2.5,0.7
			c-0.4,0.1-0.7,0.1-1.1,0c-0.2,0-0.3-0.1-0.5-0.2c-0.6-0.4-0.7-0.9,0.5-1.6c1.1-0.7,2.4-0.8,3.6-0.4l2.5-2.5
			c-2.5-0.8-5.2-0.6-7.5,0.4l-2.1-1.2l-2.9,1.6l2.1,1.2c-0.9,0.5-1.4,1.4-1.5,2.4l0,0c0,0.8,0.6,1.6,1.9,2.3
			c2.7,1.6,5.5,1.1,7.9,0.3c2.3-0.8,4-1.6,5.3-0.9c0.8,0.5,0.6,1.1-0.4,1.6c-1.2,0.7-2.7,0.8-4,0.2l-2.7,2.6c0.5,0.2,1,0.3,1.5,0.4
			c2.2,0.4,4.5,0.1,6.6-0.8l2.1,1.2l2.8-1.6L335.9,253.1z"/>
		<path class="st2" d="M353.6,241.9c-1.7-2.6-4-4.7-6.7-6.2c-10.9-6.3-28.6-6.3-39.5,0c-2.7,1.5-5,3.6-6.7,6.2h-1.5v5.7l0,0
			c0.2,4,2.9,7.9,8.2,10.9c10.9,6.3,28.6,6.3,39.5,0c5.2-3,8-7,8.2-10.9l0,0v-5.7L353.6,241.9z"/>
		<path class="st11" d="M353.6,241.9c-1.7-2.6-4-4.7-6.7-6.2c-10.9-6.3-28.6-6.3-39.5,0c-2.7,1.5-5,3.6-6.7,6.2h-1.5v5.7l0,0
			c0.2,4,2.9,7.9,8.2,10.9c10.9,6.3,28.6,6.3,39.5,0c5.2-3,8-7,8.2-10.9l0,0v-5.7L353.6,241.9z"/>
		<path class="st2" d="M347,230.5c-10.9-6.3-28.6-6.3-39.5,0s-10.9,16.5,0,22.8s28.6,6.3,39.5,0S357.9,236.8,347,230.5z"/>
		<path class="st12" d="M347,230.5c-10.9-6.3-28.6-6.3-39.5,0s-10.9,16.5,0,22.8s28.6,6.3,39.5,0S357.9,236.8,347,230.5z"/>
		<path class="st2" d="M340.1,234.7c-8.2-3.7-17.5-3.7-25.7,0c-3.7,1.9-5.7,4.4-5.7,7.2s2,5.4,5.7,7.2c8.2,3.7,17.5,3.7,25.7,0
			c3.6-1.9,5.7-4.4,5.7-7.2S343.7,236.6,340.1,234.7z"/>
		<path class="st12" d="M340.1,234.7c-8.2-3.7-17.5-3.7-25.7,0c-3.7,1.9-5.7,4.4-5.7,7.2s2,5.4,5.7,7.2c8.2,3.7,17.5,3.7,25.7,0
			c3.6-1.9,5.7-4.4,5.7-7.2S343.7,236.6,340.1,234.7z"/>
		<path class="st2" d="M346.3,231.6c-5.1-2.9-11.9-4.6-19.1-4.6s-14,1.6-19.1,4.6c-4.9,2.8-7.6,6.5-7.6,10.4s2.7,7.5,7.6,10.3
			c5.1,2.9,11.9,4.6,19.1,4.6s14-1.6,19.1-4.6c4.9-2.8,7.6-6.5,7.6-10.3S351.2,234.4,346.3,231.6z M340.1,249.2
			c-8.2,3.7-17.5,3.7-25.7,0c-3.7-1.9-5.7-4.4-5.7-7.2s2-5.4,5.7-7.2c8.2-3.7,17.5-3.7,25.7,0c3.6,1.9,5.7,4.4,5.7,7.2
			S343.7,247.3,340.1,249.2L340.1,249.2z"/>
		<path class="st13" d="M346.3,231.6c-5.1-2.9-11.9-4.6-19.1-4.6s-14,1.6-19.1,4.6c-4.9,2.8-7.6,6.5-7.6,10.4s2.7,7.5,7.6,10.3
			c5.1,2.9,11.9,4.6,19.1,4.6s14-1.6,19.1-4.6c4.9-2.8,7.6-6.5,7.6-10.3S351.2,234.4,346.3,231.6z M340.1,249.2
			c-8.2,3.7-17.5,3.7-25.7,0c-3.7-1.9-5.7-4.4-5.7-7.2s2-5.4,5.7-7.2c8.2-3.7,17.5-3.7,25.7,0c3.6,1.9,5.7,4.4,5.7,7.2
			S343.7,247.3,340.1,249.2L340.1,249.2z"/>
		<ellipse class="st2" cx="327.2" cy="241.9" rx="17.6" ry="9"/>
		<ellipse class="st11" cx="327.2" cy="241.9" rx="17.6" ry="9"/>
		<path class="st2" d="M339.6,238c-6.9-3.5-18-3.5-24.8,0c-2.8,1.5-4.5,3.3-5,5.2c0.5,1.9,2.1,3.7,5,5.2c6.9,3.5,18,3.5,24.8,0
			c2.8-1.5,4.5-3.3,5-5.2C344.1,241.2,342.5,239.4,339.6,238z"/>
		<path class="st12" d="M339.6,238c-6.9-3.5-18-3.5-24.8,0c-2.8,1.5-4.5,3.3-5,5.2c0.5,1.9,2.1,3.7,5,5.2c6.9,3.5,18,3.5,24.8,0
			c2.8-1.5,4.5-3.3,5-5.2C344.1,241.2,342.5,239.4,339.6,238z"/>
		<polygon class="st2" points="328.9,235.7 328.9,238.3 328,239.2 326.4,240.9 326.4,238.2 		"/>
		<path class="st2" d="M326.4,238.2v2.7h-5.1v-3.1C321.3,237.8,326,237.1,326.4,238.2z"/>
		<path class="st2" d="M338,245.5v2.2l-2.8,1.6l-2.1-1.2c-2.5,1.2-5.4,1.3-8.1,0.4v-2.2l1.3-1.3l-1.3,0.4c-2.1,0.6-4.4,0.3-6.3-0.7
			c-1.3-0.7-1.9-1.5-1.9-2.3v-2.2l0.2-0.9l-0.8-0.5v-2.2l2.1,1.2c-0.9,0.5-1.4,1.4-1.5,2.4l0,0c0,0.8,0.6,1.6,1.9,2.3
			c2.7,1.6,5.5,1.1,7.9,0.3c2.3-0.8,4-1.6,5.3-0.9c0.8,0.5,0.6,1.1-0.4,1.6c-1.2,0.7-2.7,0.8-4,0.2l-2.7,2.6c0.5,0.2,1,0.3,1.5,0.4
			c2.2,0.4,4.5,0.1,6.6-0.8l2.1,1.2L338,245.5z"/>
		<polygon class="st2" points="333.1,246 333.1,248.2 335.2,249.4 335.2,247.2 		"/>
		<g class="st14">
			<polygon class="st0" points="328.9,235.7 328.9,238.3 328,239.2 326.4,240.9 326.4,238.2 			"/>
			<path class="st0" d="M326.4,238.2v2.7h-5.1v-3.1C321.3,237.8,326,237.1,326.4,238.2z"/>
			<path class="st0" d="M338,245.5v2.2l-2.8,1.6l-2.1-1.2c-2.5,1.2-5.4,1.3-8.1,0.4v-2.2l1.3-1.3l-1.3,0.4c-2.1,0.6-4.4,0.3-6.3-0.7
				c-1.3-0.7-1.9-1.5-1.9-2.3v-2.2l0.2-0.9l-0.8-0.5v-2.2l2.1,1.2c-0.9,0.5-1.4,1.4-1.5,2.4l0,0c0,0.8,0.6,1.6,1.9,2.3
				c2.7,1.6,5.5,1.1,7.9,0.3c2.3-0.8,4-1.6,5.3-0.9c0.8,0.5,0.6,1.1-0.4,1.6c-1.2,0.7-2.7,0.8-4,0.2l-2.7,2.6c0.5,0.2,1,0.3,1.5,0.4
				c2.2,0.4,4.5,0.1,6.6-0.8l2.1,1.2L338,245.5z"/>
			<polygon class="st0" points="333.1,246 333.1,248.2 335.2,249.4 335.2,247.2 			"/>
		</g>
		<path class="st2" d="M337.6,245.3l-1.6-0.9c1-0.4,1.6-1.4,1.6-2.5c0-0.1,0-0.1,0-0.2c-0.1-0.8-0.6-1.5-1.8-2.2l0,0
			c-1.1-0.7-2.4-1-3.7-1h-0.3h-0.3h-0.3h-0.1h-0.2c-0.6,0.1-1.2,0.2-1.8,0.4l-0.9,0.3l-1.2,0.4l-0.5,0.2c-0.8,0.3-1.6,0.6-2.5,0.7
			c-0.4,0.1-0.7,0.1-1.1,0c-0.2,0-0.3-0.1-0.5-0.2c-0.6-0.4-0.7-0.9,0.5-1.6c1.1-0.7,2.4-0.8,3.6-0.4l2.5-2.5
			c-2.5-0.8-5.2-0.6-7.6,0.4l-2.1-1.2l-2.8,1.6l2.1,1.2c-0.9,0.5-1.4,1.4-1.5,2.4l0,0c0,0.8,0.6,1.6,1.9,2.3
			c2.7,1.6,5.5,1.1,7.9,0.3c2.3-0.8,4-1.6,5.3-0.9c0.8,0.5,0.6,1.1-0.4,1.6c-1.2,0.7-2.7,0.8-4,0.2l-2.7,2.6c0.5,0.2,1,0.3,1.5,0.4
			c2.2,0.4,4.5,0.1,6.6-0.8l2.1,1.2l2.8-1.6L337.6,245.3z"/>
		<path class="st13" d="M337.6,245.3l-1.6-0.9c1-0.4,1.6-1.4,1.6-2.5c0-0.1,0-0.1,0-0.2c-0.1-0.8-0.6-1.5-1.8-2.2l0,0
			c-1.1-0.7-2.4-1-3.7-1h-0.3h-0.3h-0.3h-0.1h-0.2c-0.6,0.1-1.2,0.2-1.8,0.4l-0.9,0.3l-1.2,0.4l-0.5,0.2c-0.8,0.3-1.6,0.6-2.5,0.7
			c-0.4,0.1-0.7,0.1-1.1,0c-0.2,0-0.3-0.1-0.5-0.2c-0.6-0.4-0.7-0.9,0.5-1.6c1.1-0.7,2.4-0.8,3.6-0.4l2.5-2.5
			c-2.5-0.8-5.2-0.6-7.6,0.4l-2.1-1.2l-2.8,1.6l2.1,1.2c-0.9,0.5-1.4,1.4-1.5,2.4l0,0c0,0.8,0.6,1.6,1.9,2.3
			c2.7,1.6,5.5,1.1,7.9,0.3c2.3-0.8,4-1.6,5.3-0.9c0.8,0.5,0.6,1.1-0.4,1.6c-1.2,0.7-2.7,0.8-4,0.2l-2.7,2.6c0.5,0.2,1,0.3,1.5,0.4
			c2.2,0.4,4.5,0.1,6.6-0.8l2.1,1.2l2.8-1.6L337.6,245.3z"/>
		<path class="st2" d="M352,249.8c-1.7-2.6-4-4.7-6.7-6.2c-10.9-6.3-28.6-6.3-39.5,0c-2.7,1.5-5,3.6-6.7,6.2h-1.5v5.7l0,0
			c0.2,4,2.9,7.9,8.2,10.9c10.9,6.3,28.6,6.3,39.5,0c5.2-3,8-7,8.1-10.9l0,0v-5.7H352z"/>
		<path class="st11" d="M352,249.8c-1.7-2.6-4-4.7-6.7-6.2c-10.9-6.3-28.6-6.3-39.5,0c-2.7,1.5-5,3.6-6.7,6.2h-1.5v5.7l0,0
			c0.2,4,2.9,7.9,8.2,10.9c10.9,6.3,28.6,6.3,39.5,0c5.2-3,8-7,8.1-10.9l0,0v-5.7H352z"/>
		<path class="st2" d="M345.3,238.4c-10.9-6.3-28.6-6.3-39.5,0s-10.9,16.5,0,22.8s28.6,6.3,39.5,0S356.2,244.7,345.3,238.4z"/>
		<path class="st12" d="M345.3,238.4c-10.9-6.3-28.6-6.3-39.5,0s-10.9,16.5,0,22.8s28.6,6.3,39.5,0S356.2,244.7,345.3,238.4z"/>
		<path class="st2" d="M338.4,242.6c-8.2-3.7-17.5-3.7-25.7,0c-3.6,1.9-5.7,4.4-5.7,7.2s2,5.4,5.7,7.2c8.2,3.7,17.5,3.7,25.7,0
			c3.6-1.9,5.7-4.4,5.7-7.2S342.1,244.4,338.4,242.6z"/>
		<path class="st12" d="M338.4,242.6c-8.2-3.7-17.5-3.7-25.7,0c-3.6,1.9-5.7,4.4-5.7,7.2s2,5.4,5.7,7.2c8.2,3.7,17.5,3.7,25.7,0
			c3.6-1.9,5.7-4.4,5.7-7.2S342.1,244.4,338.4,242.6z"/>
		<path class="st2" d="M344.7,239.4c-5.1-2.9-11.9-4.6-19.1-4.6s-14,1.6-19.1,4.6c-4.9,2.8-7.6,6.5-7.6,10.4s2.7,7.5,7.6,10.3
			c5.1,2.9,11.9,4.6,19.1,4.6s14-1.6,19.1-4.6c4.9-2.8,7.6-6.5,7.6-10.3S349.6,242.3,344.7,239.4z M338.4,257
			c-8.2,3.7-17.5,3.7-25.7,0c-3.6-1.9-5.7-4.4-5.7-7.2s2-5.4,5.7-7.2c8.2-3.7,17.5-3.7,25.7,0c3.6,1.9,5.7,4.4,5.7,7.2
			S342.1,255.1,338.4,257z"/>
		<path class="st13" d="M344.7,239.4c-5.1-2.9-11.9-4.6-19.1-4.6s-14,1.6-19.1,4.6c-4.9,2.8-7.6,6.5-7.6,10.4s2.7,7.5,7.6,10.3
			c5.1,2.9,11.9,4.6,19.1,4.6s14-1.6,19.1-4.6c4.9-2.8,7.6-6.5,7.6-10.3S349.6,242.3,344.7,239.4z M338.4,257
			c-8.2,3.7-17.5,3.7-25.7,0c-3.6-1.9-5.7-4.4-5.7-7.2s2-5.4,5.7-7.2c8.2-3.7,17.5-3.7,25.7,0c3.6,1.9,5.7,4.4,5.7,7.2
			S342.1,255.1,338.4,257z"/>
		<path class="st2" d="M338,256.2c6.9-3.5,6.9-9.2,0-12.8s-18-3.5-24.8,0s-6.9,9.2,0,12.8S331.1,259.7,338,256.2z"/>
		<path class="st11" d="M338,256.2c6.9-3.5,6.9-9.2,0-12.8s-18-3.5-24.8,0s-6.9,9.2,0,12.8S331.1,259.7,338,256.2z"/>
		<path class="st2" d="M338,245.8c-6.9-3.5-18-3.5-24.8,0c-2.8,1.5-4.5,3.3-5,5.2c0.5,1.9,2.1,3.7,5,5.2c6.9,3.5,18,3.5,24.8,0
			c2.8-1.5,4.5-3.3,5-5.2C342.5,249.1,340.8,247.3,338,245.8z"/>
		<path class="st12" d="M338,245.8c-6.9-3.5-18-3.5-24.8,0c-2.8,1.5-4.5,3.3-5,5.2c0.5,1.9,2.1,3.7,5,5.2c6.9,3.5,18,3.5,24.8,0
			c2.8-1.5,4.5-3.3,5-5.2C342.5,249.1,340.8,247.3,338,245.8z"/>
		<polygon class="st2" points="327.2,243.6 327.2,246.1 326.3,247.1 324.7,248.8 324.7,246.1 		"/>
		<path class="st2" d="M324.7,246.1v2.7h-5.1v-3.1C319.6,245.6,324.3,244.9,324.7,246.1z"/>
		<path class="st2" d="M336.4,253.4v2.3l-2.8,1.6l-2.1-1.2c-2.5,1.2-5.4,1.3-8.1,0.4v-2.2l1.3-1.3l-1.3,0.4
			c-2.1,0.6-4.4,0.3-6.3-0.7c-1.3-0.7-1.9-1.5-1.9-2.3V248l0.2-0.9l-0.8-0.5v-2.2l2.1,1.2c-0.9,0.5-1.4,1.4-1.5,2.4l0,0
			c0,0.8,0.6,1.6,1.9,2.3c2.7,1.6,5.5,1.1,7.9,0.3c2.3-0.8,4-1.6,5.3-0.9c0.8,0.5,0.6,1.1-0.4,1.6c-1.2,0.7-2.7,0.8-4,0.2l-2.7,2.6
			c0.5,0.2,1,0.3,1.5,0.4c2.2,0.4,4.5,0.1,6.6-0.8l2.1,1.2L336.4,253.4z"/>
		<polygon class="st2" points="331.5,253.8 331.5,256 333.5,257.2 333.5,255 		"/>
		<g class="st14">
			<polygon class="st0" points="327.2,243.6 327.2,246.1 326.3,247.1 324.7,248.8 324.7,246.1 			"/>
			<path class="st0" d="M324.7,246.1v2.7h-5.1v-3.1C319.6,245.6,324.3,244.9,324.7,246.1z"/>
			<path class="st0" d="M336.4,253.4v2.3l-2.8,1.6l-2.1-1.2c-2.5,1.2-5.4,1.3-8.1,0.4v-2.2l1.3-1.3l-1.3,0.4
				c-2.1,0.6-4.4,0.3-6.3-0.7c-1.3-0.7-1.9-1.5-1.9-2.3V248l0.2-0.9l-0.8-0.5v-2.2l2.1,1.2c-0.9,0.5-1.4,1.4-1.5,2.4l0,0
				c0,0.8,0.6,1.6,1.9,2.3c2.7,1.6,5.5,1.1,7.9,0.3c2.3-0.8,4-1.6,5.3-0.9c0.8,0.5,0.6,1.1-0.4,1.6c-1.2,0.7-2.7,0.8-4,0.2l-2.7,2.6
				c0.5,0.2,1,0.3,1.5,0.4c2.2,0.4,4.5,0.1,6.6-0.8l2.1,1.2L336.4,253.4z"/>
			<polygon class="st0" points="331.5,253.8 331.5,256 333.5,257.2 333.5,255 			"/>
		</g>
		<path class="st2" d="M335.9,253.1l-1.6-0.9c1-0.4,1.6-1.4,1.6-2.5c0-0.1,0-0.1,0-0.2c-0.2-1-0.9-1.8-1.8-2.2l0,0
			c-1.1-0.7-2.4-1-3.8-1H330h-0.3h-0.3h-0.1H329c-0.6,0.1-1.2,0.2-1.8,0.4l-0.9,0.3l-1.2,0.4l-0.5,0.3c-0.8,0.3-1.6,0.6-2.5,0.7
			c-0.4,0.1-0.7,0.1-1.1,0c-0.2,0-0.3-0.1-0.5-0.2c-0.6-0.4-0.7-0.9,0.5-1.6c1.1-0.7,2.4-0.8,3.6-0.4l2.5-2.5
			c-2.5-0.8-5.2-0.6-7.5,0.4l-2.1-1.2l-2.9,1.6l2.1,1.2c-0.9,0.5-1.4,1.4-1.5,2.4l0,0c0,0.8,0.6,1.6,1.9,2.3
			c2.7,1.6,5.5,1.1,7.9,0.3c2.3-0.8,4-1.6,5.3-0.9c0.8,0.5,0.6,1.1-0.4,1.6c-1.2,0.7-2.7,0.8-4,0.2l-2.7,2.6c0.5,0.2,1,0.3,1.5,0.4
			c2.2,0.4,4.5,0.1,6.6-0.8l2.1,1.2l2.8-1.6L335.9,253.1z"/>
		<path class="st13" d="M335.9,253.1l-1.6-0.9c1-0.4,1.6-1.4,1.6-2.5c0-0.1,0-0.1,0-0.2c-0.2-1-0.9-1.8-1.8-2.2l0,0
			c-1.1-0.7-2.4-1-3.8-1H330h-0.3h-0.3h-0.1H329c-0.6,0.1-1.2,0.2-1.8,0.4l-0.9,0.3l-1.2,0.4l-0.5,0.3c-0.8,0.3-1.6,0.6-2.5,0.7
			c-0.4,0.1-0.7,0.1-1.1,0c-0.2,0-0.3-0.1-0.5-0.2c-0.6-0.4-0.7-0.9,0.5-1.6c1.1-0.7,2.4-0.8,3.6-0.4l2.5-2.5
			c-2.5-0.8-5.2-0.6-7.5,0.4l-2.1-1.2l-2.9,1.6l2.1,1.2c-0.9,0.5-1.4,1.4-1.5,2.4l0,0c0,0.8,0.6,1.6,1.9,2.3
			c2.7,1.6,5.5,1.1,7.9,0.3c2.3-0.8,4-1.6,5.3-0.9c0.8,0.5,0.6,1.1-0.4,1.6c-1.2,0.7-2.7,0.8-4,0.2l-2.7,2.6c0.5,0.2,1,0.3,1.5,0.4
			c2.2,0.4,4.5,0.1,6.6-0.8l2.1,1.2l2.8-1.6L335.9,253.1z"/>
		<path class="st2" d="M353.6,241.9c-1.7-2.6-4-4.7-6.7-6.2c-10.9-6.3-28.6-6.3-39.5,0c-2.7,1.5-5,3.6-6.7,6.2h-1.5v5.7l0,0
			c0.2,4,2.9,7.9,8.2,10.9c10.9,6.3,28.6,6.3,39.5,0c5.2-3,8-7,8.2-10.9l0,0v-5.7L353.6,241.9z"/>
		<path class="st11" d="M353.6,241.9c-1.7-2.6-4-4.7-6.7-6.2c-10.9-6.3-28.6-6.3-39.5,0c-2.7,1.5-5,3.6-6.7,6.2h-1.5v5.7l0,0
			c0.2,4,2.9,7.9,8.2,10.9c10.9,6.3,28.6,6.3,39.5,0c5.2-3,8-7,8.2-10.9l0,0v-5.7L353.6,241.9z"/>
		<path class="st2" d="M347,230.5c-10.9-6.3-28.6-6.3-39.5,0s-10.9,16.5,0,22.8s28.6,6.3,39.5,0S357.9,236.8,347,230.5z"/>
		<path class="st12" d="M347,230.5c-10.9-6.3-28.6-6.3-39.5,0s-10.9,16.5,0,22.8s28.6,6.3,39.5,0S357.9,236.8,347,230.5z"/>
		<path class="st2" d="M340.1,234.7c-8.2-3.7-17.5-3.7-25.7,0c-3.7,1.9-5.7,4.4-5.7,7.2s2,5.4,5.7,7.2c8.2,3.7,17.5,3.7,25.7,0
			c3.6-1.9,5.7-4.4,5.7-7.2S343.7,236.6,340.1,234.7z"/>
		<path class="st12" d="M340.1,234.7c-8.2-3.7-17.5-3.7-25.7,0c-3.7,1.9-5.7,4.4-5.7,7.2s2,5.4,5.7,7.2c8.2,3.7,17.5,3.7,25.7,0
			c3.6-1.9,5.7-4.4,5.7-7.2S343.7,236.6,340.1,234.7z"/>
		<path class="st2" d="M346.3,231.6c-5.1-2.9-11.9-4.6-19.1-4.6s-14,1.6-19.1,4.6c-4.9,2.8-7.6,6.5-7.6,10.4s2.7,7.5,7.6,10.3
			c5.1,2.9,11.9,4.6,19.1,4.6s14-1.6,19.1-4.6c4.9-2.8,7.6-6.5,7.6-10.3S351.2,234.4,346.3,231.6z M340.1,249.2
			c-8.2,3.7-17.5,3.7-25.7,0c-3.7-1.9-5.7-4.4-5.7-7.2s2-5.4,5.7-7.2c8.2-3.7,17.5-3.7,25.7,0c3.6,1.9,5.7,4.4,5.7,7.2
			S343.7,247.3,340.1,249.2L340.1,249.2z"/>
		<path class="st13" d="M346.3,231.6c-5.1-2.9-11.9-4.6-19.1-4.6s-14,1.6-19.1,4.6c-4.9,2.8-7.6,6.5-7.6,10.4s2.7,7.5,7.6,10.3
			c5.1,2.9,11.9,4.6,19.1,4.6s14-1.6,19.1-4.6c4.9-2.8,7.6-6.5,7.6-10.3S351.2,234.4,346.3,231.6z M340.1,249.2
			c-8.2,3.7-17.5,3.7-25.7,0c-3.7-1.9-5.7-4.4-5.7-7.2s2-5.4,5.7-7.2c8.2-3.7,17.5-3.7,25.7,0c3.6,1.9,5.7,4.4,5.7,7.2
			S343.7,247.3,340.1,249.2L340.1,249.2z"/>
		<ellipse class="st2" cx="327.2" cy="241.9" rx="17.6" ry="9"/>
		<ellipse class="st11" cx="327.2" cy="241.9" rx="17.6" ry="9"/>
		<path class="st2" d="M339.6,238c-6.9-3.5-18-3.5-24.8,0c-2.8,1.5-4.5,3.3-5,5.2c0.5,1.9,2.1,3.7,5,5.2c6.9,3.5,18,3.5,24.8,0
			c2.8-1.5,4.5-3.3,5-5.2C344.1,241.2,342.5,239.4,339.6,238z"/>
		<path class="st12" d="M339.6,238c-6.9-3.5-18-3.5-24.8,0c-2.8,1.5-4.5,3.3-5,5.2c0.5,1.9,2.1,3.7,5,5.2c6.9,3.5,18,3.5,24.8,0
			c2.8-1.5,4.5-3.3,5-5.2C344.1,241.2,342.5,239.4,339.6,238z"/>
		<polygon class="st2" points="328.9,235.7 328.9,238.3 328,239.2 326.4,240.9 326.4,238.2 		"/>
		<path class="st2" d="M326.4,238.2v2.7h-5.1v-3.1C321.3,237.8,326,237.1,326.4,238.2z"/>
		<path class="st2" d="M338,245.5v2.2l-2.8,1.6l-2.1-1.2c-2.5,1.2-5.4,1.3-8.1,0.4v-2.2l1.3-1.3l-1.3,0.4c-2.1,0.6-4.4,0.3-6.3-0.7
			c-1.3-0.7-1.9-1.5-1.9-2.3v-2.2l0.2-0.9l-0.8-0.5v-2.2l2.1,1.2c-0.9,0.5-1.4,1.4-1.5,2.4l0,0c0,0.8,0.6,1.6,1.9,2.3
			c2.7,1.6,5.5,1.1,7.9,0.3c2.3-0.8,4-1.6,5.3-0.9c0.8,0.5,0.6,1.1-0.4,1.6c-1.2,0.7-2.7,0.8-4,0.2l-2.7,2.6c0.5,0.2,1,0.3,1.5,0.4
			c2.2,0.4,4.5,0.1,6.6-0.8l2.1,1.2L338,245.5z"/>
		<polygon class="st2" points="333.1,246 333.1,248.2 335.2,249.4 335.2,247.2 		"/>
		<g class="st14">
			<polygon class="st0" points="328.9,235.7 328.9,238.3 328,239.2 326.4,240.9 326.4,238.2 			"/>
			<path class="st0" d="M326.4,238.2v2.7h-5.1v-3.1C321.3,237.8,326,237.1,326.4,238.2z"/>
			<path class="st0" d="M338,245.5v2.2l-2.8,1.6l-2.1-1.2c-2.5,1.2-5.4,1.3-8.1,0.4v-2.2l1.3-1.3l-1.3,0.4c-2.1,0.6-4.4,0.3-6.3-0.7
				c-1.3-0.7-1.9-1.5-1.9-2.3v-2.2l0.2-0.9l-0.8-0.5v-2.2l2.1,1.2c-0.9,0.5-1.4,1.4-1.5,2.4l0,0c0,0.8,0.6,1.6,1.9,2.3
				c2.7,1.6,5.5,1.1,7.9,0.3c2.3-0.8,4-1.6,5.3-0.9c0.8,0.5,0.6,1.1-0.4,1.6c-1.2,0.7-2.7,0.8-4,0.2l-2.7,2.6c0.5,0.2,1,0.3,1.5,0.4
				c2.2,0.4,4.5,0.1,6.6-0.8l2.1,1.2L338,245.5z"/>
			<polygon class="st0" points="333.1,246 333.1,248.2 335.2,249.4 335.2,247.2 			"/>
		</g>
		<path class="st2" d="M337.6,245.3l-1.6-0.9c1-0.4,1.6-1.4,1.6-2.5c0-0.1,0-0.1,0-0.2c-0.1-0.8-0.6-1.5-1.8-2.2l0,0
			c-1.1-0.7-2.4-1-3.7-1h-0.3h-0.3h-0.3h-0.1h-0.2c-0.6,0.1-1.2,0.2-1.8,0.4l-0.9,0.3l-1.2,0.4l-0.5,0.2c-0.8,0.3-1.6,0.6-2.5,0.7
			c-0.4,0.1-0.7,0.1-1.1,0c-0.2,0-0.3-0.1-0.5-0.2c-0.6-0.4-0.7-0.9,0.5-1.6c1.1-0.7,2.4-0.8,3.6-0.4l2.5-2.5
			c-2.5-0.8-5.2-0.6-7.6,0.4l-2.1-1.2l-2.8,1.6l2.1,1.2c-0.9,0.5-1.4,1.4-1.5,2.4l0,0c0,0.8,0.6,1.6,1.9,2.3
			c2.7,1.6,5.5,1.1,7.9,0.3c2.3-0.8,4-1.6,5.3-0.9c0.8,0.5,0.6,1.1-0.4,1.6c-1.2,0.7-2.7,0.8-4,0.2l-2.7,2.6c0.5,0.2,1,0.3,1.5,0.4
			c2.2,0.4,4.5,0.1,6.6-0.8l2.1,1.2l2.8-1.6L337.6,245.3z"/>
		<path class="st13" d="M337.6,245.3l-1.6-0.9c1-0.4,1.6-1.4,1.6-2.5c0-0.1,0-0.1,0-0.2c-0.1-0.8-0.6-1.5-1.8-2.2l0,0
			c-1.1-0.7-2.4-1-3.7-1h-0.3h-0.3h-0.3h-0.1h-0.2c-0.6,0.1-1.2,0.2-1.8,0.4l-0.9,0.3l-1.2,0.4l-0.5,0.2c-0.8,0.3-1.6,0.6-2.5,0.7
			c-0.4,0.1-0.7,0.1-1.1,0c-0.2,0-0.3-0.1-0.5-0.2c-0.6-0.4-0.7-0.9,0.5-1.6c1.1-0.7,2.4-0.8,3.6-0.4l2.5-2.5
			c-2.5-0.8-5.2-0.6-7.6,0.4l-2.1-1.2l-2.8,1.6l2.1,1.2c-0.9,0.5-1.4,1.4-1.5,2.4l0,0c0,0.8,0.6,1.6,1.9,2.3
			c2.7,1.6,5.5,1.1,7.9,0.3c2.3-0.8,4-1.6,5.3-0.9c0.8,0.5,0.6,1.1-0.4,1.6c-1.2,0.7-2.7,0.8-4,0.2l-2.7,2.6c0.5,0.2,1,0.3,1.5,0.4
			c2.2,0.4,4.5,0.1,6.6-0.8l2.1,1.2l2.8-1.6L337.6,245.3z"/>
		<path class="st2" d="M115.6,164.9c-1.7-2.6-4-4.7-6.7-6.2c-10.9-6.3-28.6-6.3-39.5,0c-2.7,1.5-5,3.6-6.7,6.2h-1.5v5.7l0,0
			c0.2,4,2.9,7.9,8.2,10.9c10.9,6.3,28.6,6.3,39.5,0c5.2-3,8-7,8.2-10.9l0,0v-5.7L115.6,164.9z"/>
		<path class="st11" d="M115.6,164.9c-1.7-2.6-4-4.7-6.7-6.2c-10.9-6.3-28.6-6.3-39.5,0c-2.7,1.5-5,3.6-6.7,6.2h-1.5v5.7l0,0
			c0.2,4,2.9,7.9,8.2,10.9c10.9,6.3,28.6,6.3,39.5,0c5.2-3,8-7,8.2-10.9l0,0v-5.7L115.6,164.9z"/>
		<path class="st2" d="M109,153.5c-10.9-6.3-28.6-6.3-39.5,0s-10.9,16.5,0,22.8s28.6,6.3,39.5,0S119.9,159.8,109,153.5z"/>
		<path class="st12" d="M109,153.5c-10.9-6.3-28.6-6.3-39.5,0s-10.9,16.5,0,22.8s28.6,6.3,39.5,0S119.9,159.8,109,153.5z"/>
		<path class="st2" d="M102.1,157.7c-4-1.9-8.4-2.8-12.9-2.8c-4.4-0.1-8.8,0.9-12.8,2.8c-3.7,1.9-5.7,4.4-5.7,7.2s2,5.4,5.7,7.2
			c4,1.9,8.4,2.8,12.8,2.8c4.4,0.1,8.8-0.9,12.9-2.8c3.7-1.9,5.7-4.4,5.7-7.2S105.7,159.6,102.1,157.7z"/>
		<path class="st12" d="M102.1,157.7c-4-1.9-8.4-2.8-12.9-2.8c-4.4-0.1-8.8,0.9-12.8,2.8c-3.7,1.9-5.7,4.4-5.7,7.2s2,5.4,5.7,7.2
			c4,1.9,8.4,2.8,12.8,2.8c4.4,0.1,8.8-0.9,12.9-2.8c3.7-1.9,5.7-4.4,5.7-7.2S105.7,159.6,102.1,157.7z"/>
		<path class="st2" d="M108.3,154.6c-5.1-2.9-11.9-4.6-19.1-4.6s-14,1.6-19.1,4.6c-4.9,2.8-7.6,6.5-7.6,10.4s2.7,7.5,7.6,10.3
			c5.1,2.9,11.9,4.6,19.1,4.6s14-1.6,19.1-4.6c4.9-2.8,7.6-6.5,7.6-10.3S113.2,157.4,108.3,154.6z M102.1,172.2
			c-4,1.9-8.4,2.8-12.9,2.8c-4.4,0.1-8.8-0.9-12.8-2.8c-3.7-1.9-5.7-4.5-5.7-7.3s2-5.4,5.7-7.2c4-1.9,8.4-2.8,12.8-2.8
			c4.4-0.1,8.8,0.9,12.9,2.8c3.7,1.9,5.7,4.4,5.7,7.2S105.7,170.3,102.1,172.2L102.1,172.2z"/>
		<path class="st13" d="M108.3,154.6c-5.1-2.9-11.9-4.6-19.1-4.6s-14,1.6-19.1,4.6c-4.9,2.8-7.6,6.5-7.6,10.4s2.7,7.5,7.6,10.3
			c5.1,2.9,11.9,4.6,19.1,4.6s14-1.6,19.1-4.6c4.9-2.8,7.6-6.5,7.6-10.3S113.2,157.4,108.3,154.6z M102.1,172.2
			c-4,1.9-8.4,2.8-12.9,2.8c-4.4,0.1-8.8-0.9-12.8-2.8c-3.7-1.9-5.7-4.5-5.7-7.3s2-5.4,5.7-7.2c4-1.9,8.4-2.8,12.8-2.8
			c4.4-0.1,8.8,0.9,12.9,2.8c3.7,1.9,5.7,4.4,5.7,7.2S105.7,170.3,102.1,172.2L102.1,172.2z"/>
		<ellipse class="st2" cx="89.2" cy="164.9" rx="17.6" ry="9"/>
		<ellipse class="st11" cx="89.2" cy="164.9" rx="17.6" ry="9"/>
		<path class="st2" d="M101.6,161c-6.9-3.5-18-3.5-24.8,0c-2.8,1.4-4.5,3.3-5,5.2c0.5,1.9,2.2,3.7,5,5.2c6.8,3.5,18,3.5,24.8,0
			c2.8-1.5,4.5-3.3,5-5.2C106.1,164.2,104.5,162.4,101.6,161z"/>
		<path class="st12" d="M101.6,161c-6.9-3.5-18-3.5-24.8,0c-2.8,1.4-4.5,3.3-5,5.2c0.5,1.9,2.2,3.7,5,5.2c6.8,3.5,18,3.5,24.8,0
			c2.8-1.5,4.5-3.3,5-5.2C106.1,164.2,104.5,162.4,101.6,161z"/>
		<polygon class="st2" points="90.9,158.7 90.9,161.3 90,162.2 88.4,163.9 88.4,161.2 		"/>
		<path class="st2" d="M88.4,161.2v2.7h-5.1v-3.1C83.3,160.8,88,160.1,88.4,161.2z"/>
		<path class="st2" d="M100,168.5v2.2l-2.8,1.6l-2.1-1.2c-2.5,1.2-5.4,1.3-8.1,0.4v-2.2l1.3-1.3l-1.3,0.4c-2.1,0.6-4.4,0.3-6.3-0.7
			c-1.3-0.7-1.8-1.5-1.8-2.3v-2.2l0.2-0.9l-0.8-0.4v-2.2l2.1,1.2c-0.9,0.5-1.4,1.4-1.6,2.4l0,0c0,0.8,0.6,1.6,1.8,2.3
			c2.7,1.6,5.4,1.1,7.9,0.3c2.3-0.8,4-1.6,5.3-0.9c0.8,0.5,0.6,1.1-0.3,1.6c-1.2,0.7-2.7,0.8-4,0.2l-2.7,2.6c0.5,0.2,1,0.3,1.5,0.4
			c2.2,0.4,4.5,0.1,6.6-0.8l2.1,1.2L100,168.5z"/>
		<polygon class="st2" points="95.1,169 95.1,171.2 97.2,172.4 97.2,170.2 		"/>
		<g class="st14">
			<polygon class="st0" points="90.9,158.7 90.9,161.3 90,162.2 88.4,163.9 88.4,161.2 			"/>
			<path class="st0" d="M88.4,161.2v2.7h-5.1v-3.1C83.3,160.8,88,160.1,88.4,161.2z"/>
			<path class="st0" d="M100,168.5v2.2l-2.8,1.6l-2.1-1.2c-2.5,1.2-5.4,1.3-8.1,0.4v-2.2l1.3-1.3l-1.3,0.4c-2.1,0.6-4.4,0.3-6.3-0.7
				c-1.3-0.7-1.8-1.5-1.8-2.3v-2.2l0.2-0.9l-0.8-0.4v-2.2l2.1,1.2c-0.9,0.5-1.4,1.4-1.6,2.4l0,0c0,0.8,0.6,1.6,1.8,2.3
				c2.7,1.6,5.4,1.1,7.9,0.3c2.3-0.8,4-1.6,5.3-0.9c0.8,0.5,0.6,1.1-0.3,1.6c-1.2,0.7-2.7,0.8-4,0.2l-2.7,2.6c0.5,0.2,1,0.3,1.5,0.4
				c2.2,0.4,4.5,0.1,6.6-0.8l2.1,1.2L100,168.5z"/>
			<polygon class="st0" points="95.1,169 95.1,171.2 97.2,172.4 97.2,170.2 			"/>
		</g>
		<path class="st2" d="M99.6,168.3l-1.6-0.9c1-0.4,1.6-1.4,1.6-2.5c0-0.1,0-0.1,0-0.2c-0.1-0.8-0.6-1.5-1.8-2.2l0,0
			c-1.1-0.7-2.4-1-3.7-1h-0.3h-0.3h-0.3h-0.1h-0.2c-0.6,0.1-1.2,0.2-1.8,0.4l-0.8,0.3l-1.2,0.4l-0.4,0.2c-0.8,0.3-1.6,0.6-2.5,0.7
			c-0.4,0.1-0.7,0.1-1.1,0c-0.2,0-0.3-0.1-0.5-0.2c-0.6-0.4-0.7-0.9,0.4-1.6c1.1-0.7,2.4-0.8,3.6-0.4l2.5-2.5
			c-2.5-0.8-5.2-0.6-7.6,0.4l-2.1-1.2l-2.8,1.6l2.1,1.2c-0.9,0.5-1.4,1.4-1.6,2.4l0,0c0,0.8,0.6,1.6,1.8,2.3
			c2.7,1.6,5.5,1.1,7.9,0.3c2.3-0.8,4-1.6,5.3-0.9c0.8,0.5,0.6,1.1-0.3,1.6c-1.2,0.7-2.7,0.8-4,0.2l-2.7,2.6c0.5,0.2,1,0.3,1.5,0.4
			c2.2,0.4,4.5,0.1,6.6-0.8l2.1,1.2l2.8-1.6L99.6,168.3z"/>
		<path class="st13" d="M99.6,168.3l-1.6-0.9c1-0.4,1.6-1.4,1.6-2.5c0-0.1,0-0.1,0-0.2c-0.1-0.8-0.6-1.5-1.8-2.2l0,0
			c-1.1-0.7-2.4-1-3.7-1h-0.3h-0.3h-0.3h-0.1h-0.2c-0.6,0.1-1.2,0.2-1.8,0.4l-0.8,0.3l-1.2,0.4l-0.4,0.2c-0.8,0.3-1.6,0.6-2.5,0.7
			c-0.4,0.1-0.7,0.1-1.1,0c-0.2,0-0.3-0.1-0.5-0.2c-0.6-0.4-0.7-0.9,0.4-1.6c1.1-0.7,2.4-0.8,3.6-0.4l2.5-2.5
			c-2.5-0.8-5.2-0.6-7.6,0.4l-2.1-1.2l-2.8,1.6l2.1,1.2c-0.9,0.5-1.4,1.4-1.6,2.4l0,0c0,0.8,0.6,1.6,1.8,2.3
			c2.7,1.6,5.5,1.1,7.9,0.3c2.3-0.8,4-1.6,5.3-0.9c0.8,0.5,0.6,1.1-0.3,1.6c-1.2,0.7-2.7,0.8-4,0.2l-2.7,2.6c0.5,0.2,1,0.3,1.5,0.4
			c2.2,0.4,4.5,0.1,6.6-0.8l2.1,1.2l2.8-1.6L99.6,168.3z"/>
		<path class="st2" d="M398.6,192.9c-1.7-2.6-4-4.7-6.7-6.2c-10.9-6.3-28.6-6.3-39.5,0c-2.7,1.5-5,3.6-6.7,6.2h-1.5v5.7l0,0
			c0.2,4,2.9,7.9,8.2,10.9c10.9,6.3,28.6,6.3,39.5,0c5.2-3,8-7,8.2-10.9l0,0v-5.7L398.6,192.9z"/>
		<path class="st11" d="M398.6,192.9c-1.7-2.6-4-4.7-6.7-6.2c-10.9-6.3-28.6-6.3-39.5,0c-2.7,1.5-5,3.6-6.7,6.2h-1.5v5.7l0,0
			c0.2,4,2.9,7.9,8.2,10.9c10.9,6.3,28.6,6.3,39.5,0c5.2-3,8-7,8.2-10.9l0,0v-5.7L398.6,192.9z"/>
		<path class="st2" d="M392,181.5c-10.9-6.3-28.6-6.3-39.5,0s-10.9,16.5,0,22.8s28.6,6.3,39.5,0S402.9,187.8,392,181.5z"/>
		<path class="st12" d="M392,181.5c-10.9-6.3-28.6-6.3-39.5,0s-10.9,16.5,0,22.8s28.6,6.3,39.5,0S402.9,187.8,392,181.5z"/>
		<path class="st2" d="M385.1,185.7c-8.2-3.7-17.5-3.7-25.7,0c-3.7,1.9-5.7,4.4-5.7,7.2s2,5.4,5.7,7.2c8.2,3.7,17.5,3.7,25.7,0
			c3.6-1.9,5.7-4.4,5.7-7.2S388.7,187.6,385.1,185.7z"/>
		<path class="st12" d="M385.1,185.7c-8.2-3.7-17.5-3.7-25.7,0c-3.7,1.9-5.7,4.4-5.7,7.2s2,5.4,5.7,7.2c8.2,3.7,17.5,3.7,25.7,0
			c3.6-1.9,5.7-4.4,5.7-7.2S388.7,187.6,385.1,185.7z"/>
		<path class="st2" d="M391.3,182.6c-5.1-2.9-11.9-4.6-19.1-4.6s-14,1.6-19.1,4.6c-4.9,2.8-7.6,6.5-7.6,10.4c0,3.9,2.7,7.5,7.6,10.3
			c5.1,2.9,11.9,4.6,19.1,4.6s14-1.6,19.1-4.6c4.9-2.8,7.6-6.5,7.6-10.3S396.2,185.4,391.3,182.6z M385.1,200.2
			c-8.2,3.7-17.5,3.7-25.7,0c-3.7-1.9-5.7-4.4-5.7-7.2s2-5.4,5.7-7.2c8.2-3.7,17.5-3.7,25.7,0c3.6,1.9,5.7,4.4,5.7,7.2
			C390.7,195.8,388.7,198.3,385.1,200.2L385.1,200.2z"/>
		<path class="st13" d="M391.3,182.6c-5.1-2.9-11.9-4.6-19.1-4.6s-14,1.6-19.1,4.6c-4.9,2.8-7.6,6.5-7.6,10.4
			c0,3.9,2.7,7.5,7.6,10.3c5.1,2.9,11.9,4.6,19.1,4.6s14-1.6,19.1-4.6c4.9-2.8,7.6-6.5,7.6-10.3S396.2,185.4,391.3,182.6z
			 M385.1,200.2c-8.2,3.7-17.5,3.7-25.7,0c-3.7-1.9-5.7-4.4-5.7-7.2s2-5.4,5.7-7.2c8.2-3.7,17.5-3.7,25.7,0c3.6,1.9,5.7,4.4,5.7,7.2
			C390.7,195.8,388.7,198.3,385.1,200.2L385.1,200.2z"/>
		<ellipse class="st2" cx="372.2" cy="192.9" rx="17.6" ry="9"/>
		<ellipse class="st11" cx="372.2" cy="192.9" rx="17.6" ry="9"/>
		<path class="st2" d="M384.6,189c-6.9-3.5-18-3.5-24.8,0c-2.8,1.4-4.5,3.3-5,5.2c0.5,1.9,2.1,3.7,5,5.2c6.9,3.5,18,3.5,24.8,0
			c2.8-1.5,4.5-3.3,5-5.2C389.1,192.2,387.5,190.4,384.6,189z"/>
		<path class="st12" d="M384.6,189c-6.9-3.5-18-3.5-24.8,0c-2.8,1.4-4.5,3.3-5,5.2c0.5,1.9,2.1,3.7,5,5.2c6.9,3.5,18,3.5,24.8,0
			c2.8-1.5,4.5-3.3,5-5.2C389.1,192.2,387.5,190.4,384.6,189z"/>
		<polygon class="st2" points="373.9,186.7 373.9,189.3 373,190.2 371.4,191.9 371.4,189.2 		"/>
		<path class="st2" d="M371.4,189.2v2.7h-5.1v-3.1C366.3,188.8,371,188.1,371.4,189.2z"/>
		<path class="st2" d="M383,196.5v2.2l-2.8,1.6l-2.1-1.2c-2.5,1.2-5.4,1.3-8.1,0.4v-2.2l1.3-1.3l-1.3,0.4c-2.1,0.6-4.4,0.3-6.3-0.7
			c-1.3-0.7-1.9-1.5-1.9-2.3v-2.2l0.2-0.9l-0.8-0.4v-2.2l2.1,1.2c-0.9,0.5-1.4,1.4-1.5,2.4l0,0c0,0.8,0.6,1.6,1.9,2.3
			c2.7,1.6,5.5,1.1,7.9,0.3c2.3-0.8,4-1.6,5.3-0.9c0.8,0.5,0.6,1.1-0.4,1.6c-1.2,0.7-2.7,0.8-4,0.2l-2.7,2.6c0.5,0.2,1,0.3,1.5,0.4
			c2.2,0.4,4.5,0.1,6.6-0.8l2.1,1.2L383,196.5z"/>
		<polygon class="st2" points="378.1,197 378.1,199.2 380.2,200.4 380.2,198.2 		"/>
		<g class="st14">
			<polygon class="st0" points="373.9,186.7 373.9,189.3 373,190.2 371.4,191.9 371.4,189.2 			"/>
			<path class="st0" d="M371.4,189.2v2.7h-5.1v-3.1C366.3,188.8,371,188.1,371.4,189.2z"/>
			<path class="st0" d="M383,196.5v2.2l-2.8,1.6l-2.1-1.2c-2.5,1.2-5.4,1.3-8.1,0.4v-2.2l1.3-1.3l-1.3,0.4c-2.1,0.6-4.4,0.3-6.3-0.7
				c-1.3-0.7-1.9-1.5-1.9-2.3v-2.2l0.2-0.9l-0.8-0.4v-2.2l2.1,1.2c-0.9,0.5-1.4,1.4-1.5,2.4l0,0c0,0.8,0.6,1.6,1.9,2.3
				c2.7,1.6,5.5,1.1,7.9,0.3c2.3-0.8,4-1.6,5.3-0.9c0.8,0.5,0.6,1.1-0.4,1.6c-1.2,0.7-2.7,0.8-4,0.2l-2.7,2.6c0.5,0.2,1,0.3,1.5,0.4
				c2.2,0.4,4.5,0.1,6.6-0.8l2.1,1.2L383,196.5z"/>
			<polygon class="st0" points="378.1,197 378.1,199.2 380.2,200.4 380.2,198.2 			"/>
		</g>
		<path class="st2" d="M382.6,196.3l-1.6-0.9c1-0.4,1.6-1.4,1.6-2.5c0-0.1,0-0.1,0-0.2c-0.1-0.8-0.6-1.5-1.8-2.2l0,0
			c-1.1-0.7-2.4-1-3.7-1h-0.3h-0.3h-0.3h-0.1h-0.2c-0.6,0.1-1.2,0.2-1.8,0.4l-0.9,0.3l-1.2,0.4l-0.5,0.2c-0.8,0.3-1.6,0.6-2.5,0.7
			c-0.4,0.1-0.7,0.1-1.1,0c-0.2,0-0.3-0.1-0.5-0.2c-0.6-0.4-0.7-0.9,0.5-1.6c1.1-0.7,2.4-0.8,3.6-0.4l2.5-2.5
			c-2.5-0.8-5.2-0.6-7.6,0.4l-2.1-1.2l-2.8,1.6l2.1,1.2c-0.9,0.5-1.4,1.4-1.5,2.4l0,0c0,0.8,0.6,1.6,1.9,2.3
			c2.7,1.6,5.5,1.1,7.9,0.3c2.3-0.8,4-1.6,5.3-0.9c0.8,0.5,0.6,1.1-0.4,1.6c-1.2,0.7-2.7,0.8-4,0.2l-2.7,2.6c0.5,0.2,1,0.3,1.5,0.4
			c2.2,0.4,4.5,0.1,6.6-0.8l2.1,1.2l2.8-1.6L382.6,196.3z"/>
		<path class="st13" d="M382.6,196.3l-1.6-0.9c1-0.4,1.6-1.4,1.6-2.5c0-0.1,0-0.1,0-0.2c-0.1-0.8-0.6-1.5-1.8-2.2l0,0
			c-1.1-0.7-2.4-1-3.7-1h-0.3h-0.3h-0.3h-0.1h-0.2c-0.6,0.1-1.2,0.2-1.8,0.4l-0.9,0.3l-1.2,0.4l-0.5,0.2c-0.8,0.3-1.6,0.6-2.5,0.7
			c-0.4,0.1-0.7,0.1-1.1,0c-0.2,0-0.3-0.1-0.5-0.2c-0.6-0.4-0.7-0.9,0.5-1.6c1.1-0.7,2.4-0.8,3.6-0.4l2.5-2.5
			c-2.5-0.8-5.2-0.6-7.6,0.4l-2.1-1.2l-2.8,1.6l2.1,1.2c-0.9,0.5-1.4,1.4-1.5,2.4l0,0c0,0.8,0.6,1.6,1.9,2.3
			c2.7,1.6,5.5,1.1,7.9,0.3c2.3-0.8,4-1.6,5.3-0.9c0.8,0.5,0.6,1.1-0.4,1.6c-1.2,0.7-2.7,0.8-4,0.2l-2.7,2.6c0.5,0.2,1,0.3,1.5,0.4
			c2.2,0.4,4.5,0.1,6.6-0.8l2.1,1.2l2.8-1.6L382.6,196.3z"/>
		<path class="st2" d="M400.6,184.9c-1.7-2.6-4-4.7-6.7-6.2c-10.9-6.3-28.6-6.3-39.5,0c-2.7,1.5-5,3.6-6.7,6.2h-1.5v5.7l0,0
			c0.2,4,2.9,7.9,8.2,10.9c10.9,6.3,28.6,6.3,39.5,0c5.2-3,8-7,8.2-10.9l0,0v-5.7L400.6,184.9z"/>
		<path class="st11" d="M400.6,184.9c-1.7-2.6-4-4.7-6.7-6.2c-10.9-6.3-28.6-6.3-39.5,0c-2.7,1.5-5,3.6-6.7,6.2h-1.5v5.7l0,0
			c0.2,4,2.9,7.9,8.2,10.9c10.9,6.3,28.6,6.3,39.5,0c5.2-3,8-7,8.2-10.9l0,0v-5.7L400.6,184.9z"/>
		<path class="st2" d="M394,173.5c-10.9-6.3-28.6-6.3-39.5,0s-10.9,16.5,0,22.8c10.9,6.3,28.6,6.3,39.5,0S404.9,179.8,394,173.5z"/>
		<path class="st12" d="M394,173.5c-10.9-6.3-28.6-6.3-39.5,0s-10.9,16.5,0,22.8c10.9,6.3,28.6,6.3,39.5,0S404.9,179.8,394,173.5z"
			/>
		<path class="st2" d="M387.1,177.7c-8.2-3.7-17.5-3.7-25.7,0c-3.7,1.9-5.7,4.4-5.7,7.2s2,5.4,5.7,7.2c8.2,3.7,17.5,3.7,25.7,0
			c3.6-1.9,5.7-4.4,5.7-7.2S390.7,179.6,387.1,177.7z"/>
		<path class="st12" d="M387.1,177.7c-8.2-3.7-17.5-3.7-25.7,0c-3.7,1.9-5.7,4.4-5.7,7.2s2,5.4,5.7,7.2c8.2,3.7,17.5,3.7,25.7,0
			c3.6-1.9,5.7-4.4,5.7-7.2S390.7,179.6,387.1,177.7z"/>
		<path class="st2" d="M393.3,174.6c-5.1-2.9-11.9-4.6-19.1-4.6s-14,1.6-19.1,4.6c-4.9,2.8-7.6,6.5-7.6,10.4s2.7,7.5,7.6,10.3
			c5.1,2.9,11.9,4.6,19.1,4.6s14-1.6,19.1-4.6c4.9-2.8,7.6-6.5,7.6-10.3S398.2,177.4,393.3,174.6z M387.1,192.2
			c-8.2,3.7-17.5,3.7-25.7,0c-3.7-1.9-5.7-4.4-5.7-7.2s2-5.4,5.7-7.2c8.2-3.7,17.5-3.7,25.7,0c3.6,1.9,5.7,4.4,5.7,7.2
			S390.7,190.3,387.1,192.2L387.1,192.2z"/>
		<path class="st13" d="M393.3,174.6c-5.1-2.9-11.9-4.6-19.1-4.6s-14,1.6-19.1,4.6c-4.9,2.8-7.6,6.5-7.6,10.4s2.7,7.5,7.6,10.3
			c5.1,2.9,11.9,4.6,19.1,4.6s14-1.6,19.1-4.6c4.9-2.8,7.6-6.5,7.6-10.3S398.2,177.4,393.3,174.6z M387.1,192.2
			c-8.2,3.7-17.5,3.7-25.7,0c-3.7-1.9-5.7-4.4-5.7-7.2s2-5.4,5.7-7.2c8.2-3.7,17.5-3.7,25.7,0c3.6,1.9,5.7,4.4,5.7,7.2
			S390.7,190.3,387.1,192.2L387.1,192.2z"/>
		<ellipse class="st2" cx="374.2" cy="184.9" rx="17.6" ry="9"/>
		<ellipse class="st11" cx="374.2" cy="184.9" rx="17.6" ry="9"/>
		<path class="st2" d="M386.6,181c-6.9-3.5-18-3.5-24.8,0c-2.8,1.4-4.5,3.3-5,5.2c0.5,1.9,2.1,3.7,5,5.2c6.9,3.5,18,3.5,24.8,0
			c2.8-1.5,4.5-3.3,5-5.2C391.1,184.2,389.5,182.4,386.6,181z"/>
		<path class="st12" d="M386.6,181c-6.9-3.5-18-3.5-24.8,0c-2.8,1.4-4.5,3.3-5,5.2c0.5,1.9,2.1,3.7,5,5.2c6.9,3.5,18,3.5,24.8,0
			c2.8-1.5,4.5-3.3,5-5.2C391.1,184.2,389.5,182.4,386.6,181z"/>
		<polygon class="st2" points="375.9,178.7 375.9,181.3 375,182.2 373.4,183.9 373.4,181.2 		"/>
		<path class="st2" d="M373.4,181.2v2.7h-5.1v-3.1C368.3,180.8,373,180.1,373.4,181.2z"/>
		<path class="st2" d="M385,188.5v2.2l-2.8,1.6l-2.1-1.2c-2.5,1.2-5.4,1.3-8.1,0.4v-2.2l1.3-1.3l-1.3,0.4c-2.1,0.6-4.4,0.3-6.3-0.7
			c-1.3-0.7-1.9-1.5-1.9-2.3v-2.2l0.2-0.9l-0.8-0.4v-2.2l2.1,1.2c-0.9,0.5-1.4,1.4-1.5,2.4l0,0c0,0.8,0.6,1.6,1.9,2.3
			c2.7,1.6,5.5,1.1,7.9,0.3c2.3-0.8,4-1.6,5.3-0.9c0.8,0.5,0.6,1.1-0.4,1.6c-1.2,0.7-2.7,0.8-4,0.2l-2.7,2.6c0.5,0.2,1,0.3,1.5,0.4
			c2.2,0.4,4.5,0.1,6.6-0.8l2.1,1.2L385,188.5z"/>
		<polygon class="st2" points="380.1,189 380.1,191.2 382.2,192.4 382.2,190.2 		"/>
		<g class="st14">
			<polygon class="st0" points="375.9,178.7 375.9,181.3 375,182.2 373.4,183.9 373.4,181.2 			"/>
			<path class="st0" d="M373.4,181.2v2.7h-5.1v-3.1C368.3,180.8,373,180.1,373.4,181.2z"/>
			<path class="st0" d="M385,188.5v2.2l-2.8,1.6l-2.1-1.2c-2.5,1.2-5.4,1.3-8.1,0.4v-2.2l1.3-1.3l-1.3,0.4c-2.1,0.6-4.4,0.3-6.3-0.7
				c-1.3-0.7-1.9-1.5-1.9-2.3v-2.2l0.2-0.9l-0.8-0.4v-2.2l2.1,1.2c-0.9,0.5-1.4,1.4-1.5,2.4l0,0c0,0.8,0.6,1.6,1.9,2.3
				c2.7,1.6,5.5,1.1,7.9,0.3c2.3-0.8,4-1.6,5.3-0.9c0.8,0.5,0.6,1.1-0.4,1.6c-1.2,0.7-2.7,0.8-4,0.2l-2.7,2.6c0.5,0.2,1,0.3,1.5,0.4
				c2.2,0.4,4.5,0.1,6.6-0.8l2.1,1.2L385,188.5z"/>
			<polygon class="st0" points="380.1,189 380.1,191.2 382.2,192.4 382.2,190.2 			"/>
		</g>
		<path class="st2" d="M384.6,188.3l-1.6-0.9c1-0.4,1.6-1.4,1.6-2.5c0-0.1,0-0.1,0-0.2c-0.1-0.8-0.6-1.5-1.8-2.2l0,0
			c-1.1-0.7-2.4-1-3.7-1h-0.3h-0.3h-0.3h-0.1h-0.2c-0.6,0.1-1.2,0.2-1.8,0.4l-0.9,0.3l-1.2,0.4l-0.5,0.2c-0.8,0.3-1.6,0.6-2.5,0.7
			c-0.4,0.1-0.7,0.1-1.1,0c-0.2,0-0.3-0.1-0.5-0.2c-0.6-0.4-0.7-0.9,0.5-1.6c1.1-0.7,2.4-0.8,3.6-0.4l2.5-2.5
			c-2.5-0.8-5.2-0.6-7.6,0.4l-2.1-1.2l-2.8,1.6l2.1,1.2c-0.9,0.5-1.4,1.4-1.5,2.4l0,0c0,0.8,0.6,1.6,1.9,2.3
			c2.7,1.6,5.5,1.1,7.9,0.3c2.3-0.8,4-1.6,5.3-0.9c0.8,0.5,0.6,1.1-0.4,1.6c-1.2,0.7-2.7,0.8-4,0.2l-2.7,2.6c0.5,0.2,1,0.3,1.5,0.4
			c2.2,0.4,4.5,0.1,6.6-0.8l2.1,1.2l2.8-1.6L384.6,188.3z"/>
		<path class="st13" d="M384.6,188.3l-1.6-0.9c1-0.4,1.6-1.4,1.6-2.5c0-0.1,0-0.1,0-0.2c-0.1-0.8-0.6-1.5-1.8-2.2l0,0
			c-1.1-0.7-2.4-1-3.7-1h-0.3h-0.3h-0.3h-0.1h-0.2c-0.6,0.1-1.2,0.2-1.8,0.4l-0.9,0.3l-1.2,0.4l-0.5,0.2c-0.8,0.3-1.6,0.6-2.5,0.7
			c-0.4,0.1-0.7,0.1-1.1,0c-0.2,0-0.3-0.1-0.5-0.2c-0.6-0.4-0.7-0.9,0.5-1.6c1.1-0.7,2.4-0.8,3.6-0.4l2.5-2.5
			c-2.5-0.8-5.2-0.6-7.6,0.4l-2.1-1.2l-2.8,1.6l2.1,1.2c-0.9,0.5-1.4,1.4-1.5,2.4l0,0c0,0.8,0.6,1.6,1.9,2.3
			c2.7,1.6,5.5,1.1,7.9,0.3c2.3-0.8,4-1.6,5.3-0.9c0.8,0.5,0.6,1.1-0.4,1.6c-1.2,0.7-2.7,0.8-4,0.2l-2.7,2.6c0.5,0.2,1,0.3,1.5,0.4
			c2.2,0.4,4.5,0.1,6.6-0.8l2.1,1.2l2.8-1.6L384.6,188.3z"/>
		<path class="st2" d="M397.6,177.9c-1.7-2.6-4-4.7-6.7-6.2c-10.9-6.3-28.6-6.3-39.5,0c-2.7,1.5-5,3.6-6.7,6.2h-1.5v5.7l0,0
			c0.2,4,2.9,7.9,8.2,10.9c10.9,6.3,28.6,6.3,39.5,0c5.2-3,8-7,8.2-10.9l0,0v-5.7L397.6,177.9z"/>
		<path class="st11" d="M397.6,177.9c-1.7-2.6-4-4.7-6.7-6.2c-10.9-6.3-28.6-6.3-39.5,0c-2.7,1.5-5,3.6-6.7,6.2h-1.5v5.7l0,0
			c0.2,4,2.9,7.9,8.2,10.9c10.9,6.3,28.6,6.3,39.5,0c5.2-3,8-7,8.2-10.9l0,0v-5.7L397.6,177.9z"/>
		<path class="st2" d="M391,166.5c-10.9-6.3-28.6-6.3-39.5,0s-10.9,16.5,0,22.8c10.9,6.3,28.6,6.3,39.5,0S401.9,172.8,391,166.5z"/>
		<path class="st12" d="M391,166.5c-10.9-6.3-28.6-6.3-39.5,0s-10.9,16.5,0,22.8c10.9,6.3,28.6,6.3,39.5,0S401.9,172.8,391,166.5z"
			/>
		<path class="st2" d="M384.1,170.7c-8.2-3.7-17.5-3.7-25.7,0c-3.7,1.9-5.7,4.4-5.7,7.2s2,5.4,5.7,7.2c8.2,3.7,17.5,3.7,25.7,0
			c3.6-1.9,5.7-4.4,5.7-7.2S387.7,172.6,384.1,170.7z"/>
		<path class="st12" d="M384.1,170.7c-8.2-3.7-17.5-3.7-25.7,0c-3.7,1.9-5.7,4.4-5.7,7.2s2,5.4,5.7,7.2c8.2,3.7,17.5,3.7,25.7,0
			c3.6-1.9,5.7-4.4,5.7-7.2S387.7,172.6,384.1,170.7z"/>
		<path class="st2" d="M390.3,167.6c-5.1-2.9-11.9-4.6-19.1-4.6s-14,1.6-19.1,4.6c-4.9,2.8-7.6,6.5-7.6,10.4s2.7,7.5,7.6,10.3
			c5.1,2.9,11.9,4.6,19.1,4.6s14-1.6,19.1-4.6c4.9-2.8,7.6-6.5,7.6-10.3S395.2,170.4,390.3,167.6z M384.1,185.2
			c-8.2,3.7-17.5,3.7-25.7,0c-3.7-1.9-5.7-4.4-5.7-7.2s2-5.4,5.7-7.2c8.2-3.7,17.5-3.7,25.7,0c3.6,1.9,5.7,4.4,5.7,7.2
			S387.7,183.3,384.1,185.2L384.1,185.2z"/>
		<path class="st13" d="M390.3,167.6c-5.1-2.9-11.9-4.6-19.1-4.6s-14,1.6-19.1,4.6c-4.9,2.8-7.6,6.5-7.6,10.4s2.7,7.5,7.6,10.3
			c5.1,2.9,11.9,4.6,19.1,4.6s14-1.6,19.1-4.6c4.9-2.8,7.6-6.5,7.6-10.3S395.2,170.4,390.3,167.6z M384.1,185.2
			c-8.2,3.7-17.5,3.7-25.7,0c-3.7-1.9-5.7-4.4-5.7-7.2s2-5.4,5.7-7.2c8.2-3.7,17.5-3.7,25.7,0c3.6,1.9,5.7,4.4,5.7,7.2
			S387.7,183.3,384.1,185.2L384.1,185.2z"/>
		<ellipse class="st2" cx="371.2" cy="177.9" rx="17.6" ry="9"/>
		<ellipse class="st11" cx="371.2" cy="177.9" rx="17.6" ry="9"/>
		<path class="st2" d="M383.6,174c-6.9-3.5-18-3.5-24.8,0c-2.8,1.4-4.5,3.3-5,5.2c0.5,1.9,2.1,3.7,5,5.2c6.9,3.5,18,3.5,24.8,0
			c2.8-1.5,4.5-3.3,5-5.2C388.1,177.2,386.5,175.4,383.6,174z"/>
		<path class="st12" d="M383.6,174c-6.9-3.5-18-3.5-24.8,0c-2.8,1.4-4.5,3.3-5,5.2c0.5,1.9,2.1,3.7,5,5.2c6.9,3.5,18,3.5,24.8,0
			c2.8-1.5,4.5-3.3,5-5.2C388.1,177.2,386.5,175.4,383.6,174z"/>
		<polygon class="st2" points="372.9,171.7 372.9,174.3 372,175.2 370.4,176.9 370.4,174.2 		"/>
		<path class="st2" d="M370.4,174.2v2.7h-5.1v-3.1C365.3,173.8,370,173.1,370.4,174.2z"/>
		<path class="st2" d="M382,181.5v2.2l-2.8,1.6l-2.1-1.2c-2.5,1.2-5.4,1.3-8.1,0.4v-2.2l1.3-1.3l-1.3,0.4c-2.1,0.6-4.4,0.3-6.3-0.7
			c-1.3-0.7-1.9-1.5-1.9-2.3v-2.2l0.2-0.9l-0.8-0.4v-2.2l2.1,1.2c-0.9,0.5-1.4,1.4-1.5,2.4l0,0c0,0.8,0.6,1.6,1.9,2.3
			c2.7,1.6,5.5,1.1,7.9,0.3c2.3-0.8,4-1.6,5.3-0.9c0.8,0.5,0.6,1.1-0.4,1.6c-1.2,0.7-2.7,0.8-4,0.2l-2.7,2.6c0.5,0.2,1,0.3,1.5,0.4
			c2.2,0.4,4.5,0.1,6.6-0.8l2.1,1.2L382,181.5z"/>
		<polygon class="st2" points="377.1,182 377.1,184.2 379.2,185.4 379.2,183.2 		"/>
		<g class="st14">
			<polygon class="st0" points="372.9,171.7 372.9,174.3 372,175.2 370.4,176.9 370.4,174.2 			"/>
			<path class="st0" d="M370.4,174.2v2.7h-5.1v-3.1C365.3,173.8,370,173.1,370.4,174.2z"/>
			<path class="st0" d="M382,181.5v2.2l-2.8,1.6l-2.1-1.2c-2.5,1.2-5.4,1.3-8.1,0.4v-2.2l1.3-1.3l-1.3,0.4c-2.1,0.6-4.4,0.3-6.3-0.7
				c-1.3-0.7-1.9-1.5-1.9-2.3v-2.2l0.2-0.9l-0.8-0.4v-2.2l2.1,1.2c-0.9,0.5-1.4,1.4-1.5,2.4l0,0c0,0.8,0.6,1.6,1.9,2.3
				c2.7,1.6,5.5,1.1,7.9,0.3c2.3-0.8,4-1.6,5.3-0.9c0.8,0.5,0.6,1.1-0.4,1.6c-1.2,0.7-2.7,0.8-4,0.2l-2.7,2.6c0.5,0.2,1,0.3,1.5,0.4
				c2.2,0.4,4.5,0.1,6.6-0.8l2.1,1.2L382,181.5z"/>
			<polygon class="st0" points="377.1,182 377.1,184.2 379.2,185.4 379.2,183.2 			"/>
		</g>
		<path class="st2" d="M381.6,181.3l-1.6-0.9c1-0.4,1.6-1.4,1.6-2.5c0-0.1,0-0.1,0-0.2c-0.1-0.8-0.6-1.5-1.8-2.2l0,0
			c-1.1-0.7-2.4-1-3.7-1h-0.3h-0.3h-0.3h-0.1h-0.2c-0.6,0.1-1.2,0.2-1.8,0.4l-0.9,0.3l-1.2,0.4l-0.5,0.2c-0.8,0.3-1.6,0.6-2.5,0.7
			c-0.4,0.1-0.7,0.1-1.1,0c-0.2,0-0.3-0.1-0.5-0.2c-0.6-0.4-0.7-0.9,0.5-1.6c1.1-0.7,2.4-0.8,3.6-0.4l2.5-2.5
			c-2.5-0.8-5.2-0.6-7.6,0.4l-2.1-1.2l-2.8,1.6l2.1,1.2c-0.9,0.5-1.4,1.4-1.5,2.4l0,0c0,0.8,0.6,1.6,1.9,2.3
			c2.7,1.6,5.5,1.1,7.9,0.3c2.3-0.8,4-1.6,5.3-0.9c0.8,0.5,0.6,1.1-0.4,1.6c-1.2,0.7-2.7,0.8-4,0.2l-2.7,2.6c0.5,0.2,1,0.3,1.5,0.4
			c2.2,0.4,4.5,0.1,6.6-0.8l2.1,1.2l2.8-1.6L381.6,181.3z"/>
		<path class="st13" d="M381.6,181.3l-1.6-0.9c1-0.4,1.6-1.4,1.6-2.5c0-0.1,0-0.1,0-0.2c-0.1-0.8-0.6-1.5-1.8-2.2l0,0
			c-1.1-0.7-2.4-1-3.7-1h-0.3h-0.3h-0.3h-0.1h-0.2c-0.6,0.1-1.2,0.2-1.8,0.4l-0.9,0.3l-1.2,0.4l-0.5,0.2c-0.8,0.3-1.6,0.6-2.5,0.7
			c-0.4,0.1-0.7,0.1-1.1,0c-0.2,0-0.3-0.1-0.5-0.2c-0.6-0.4-0.7-0.9,0.5-1.6c1.1-0.7,2.4-0.8,3.6-0.4l2.5-2.5
			c-2.5-0.8-5.2-0.6-7.6,0.4l-2.1-1.2l-2.8,1.6l2.1,1.2c-0.9,0.5-1.4,1.4-1.5,2.4l0,0c0,0.8,0.6,1.6,1.9,2.3
			c2.7,1.6,5.5,1.1,7.9,0.3c2.3-0.8,4-1.6,5.3-0.9c0.8,0.5,0.6,1.1-0.4,1.6c-1.2,0.7-2.7,0.8-4,0.2l-2.7,2.6c0.5,0.2,1,0.3,1.5,0.4
			c2.2,0.4,4.5,0.1,6.6-0.8l2.1,1.2l2.8-1.6L381.6,181.3z"/>
		<path class="st2" d="M400.6,168.9c-1.7-2.6-4-4.7-6.7-6.2c-10.9-6.3-28.6-6.3-39.5,0c-2.7,1.5-5,3.6-6.7,6.2h-1.5v5.7l0,0
			c0.2,4,2.9,7.9,8.2,10.9c10.9,6.3,28.6,6.3,39.5,0c5.2-3,8-7,8.2-10.9l0,0v-5.7L400.6,168.9z"/>
		<path class="st11" d="M400.6,168.9c-1.7-2.6-4-4.7-6.7-6.2c-10.9-6.3-28.6-6.3-39.5,0c-2.7,1.5-5,3.6-6.7,6.2h-1.5v5.7l0,0
			c0.2,4,2.9,7.9,8.2,10.9c10.9,6.3,28.6,6.3,39.5,0c5.2-3,8-7,8.2-10.9l0,0v-5.7L400.6,168.9z"/>
		<path class="st2" d="M394,157.5c-10.9-6.3-28.6-6.3-39.5,0s-10.9,16.5,0,22.8s28.6,6.3,39.5,0S404.9,163.8,394,157.5z"/>
		<path class="st12" d="M394,157.5c-10.9-6.3-28.6-6.3-39.5,0s-10.9,16.5,0,22.8s28.6,6.3,39.5,0S404.9,163.8,394,157.5z"/>
		<path class="st2" d="M387.1,161.7c-8.2-3.7-17.5-3.7-25.7,0c-3.7,1.9-5.7,4.4-5.7,7.2s2,5.4,5.7,7.2c8.2,3.7,17.5,3.7,25.7,0
			c3.6-1.9,5.7-4.4,5.7-7.2S390.7,163.6,387.1,161.7z"/>
		<path class="st12" d="M387.1,161.7c-8.2-3.7-17.5-3.7-25.7,0c-3.7,1.9-5.7,4.4-5.7,7.2s2,5.4,5.7,7.2c8.2,3.7,17.5,3.7,25.7,0
			c3.6-1.9,5.7-4.4,5.7-7.2S390.7,163.6,387.1,161.7z"/>
		<path class="st2" d="M393.3,158.6c-5.1-2.9-11.9-4.6-19.1-4.6s-14,1.6-19.1,4.6c-4.9,2.8-7.6,6.5-7.6,10.4s2.7,7.5,7.6,10.3
			c5.1,2.9,11.9,4.6,19.1,4.6s14-1.6,19.1-4.6c4.9-2.8,7.6-6.5,7.6-10.3S398.2,161.4,393.3,158.6z M387.1,176.2
			c-8.2,3.7-17.5,3.7-25.7,0c-3.7-1.9-5.7-4.4-5.7-7.2s2-5.4,5.7-7.2c8.2-3.7,17.5-3.7,25.7,0c3.6,1.9,5.7,4.4,5.7,7.2
			S390.7,174.3,387.1,176.2L387.1,176.2z"/>
		<path class="st13" d="M393.3,158.6c-5.1-2.9-11.9-4.6-19.1-4.6s-14,1.6-19.1,4.6c-4.9,2.8-7.6,6.5-7.6,10.4s2.7,7.5,7.6,10.3
			c5.1,2.9,11.9,4.6,19.1,4.6s14-1.6,19.1-4.6c4.9-2.8,7.6-6.5,7.6-10.3S398.2,161.4,393.3,158.6z M387.1,176.2
			c-8.2,3.7-17.5,3.7-25.7,0c-3.7-1.9-5.7-4.4-5.7-7.2s2-5.4,5.7-7.2c8.2-3.7,17.5-3.7,25.7,0c3.6,1.9,5.7,4.4,5.7,7.2
			S390.7,174.3,387.1,176.2L387.1,176.2z"/>
		<ellipse class="st2" cx="374.2" cy="168.9" rx="17.6" ry="9"/>
		<ellipse class="st11" cx="374.2" cy="168.9" rx="17.6" ry="9"/>
		<path class="st2" d="M386.6,165c-6.9-3.5-18-3.5-24.8,0c-2.8,1.4-4.5,3.3-5,5.2c0.5,1.9,2.1,3.7,5,5.2c6.9,3.5,18,3.5,24.8,0
			c2.8-1.5,4.5-3.3,5-5.2C391.1,168.2,389.5,166.4,386.6,165z"/>
		<path class="st12" d="M386.6,165c-6.9-3.5-18-3.5-24.8,0c-2.8,1.4-4.5,3.3-5,5.2c0.5,1.9,2.1,3.7,5,5.2c6.9,3.5,18,3.5,24.8,0
			c2.8-1.5,4.5-3.3,5-5.2C391.1,168.2,389.5,166.4,386.6,165z"/>
		<polygon class="st2" points="375.9,162.7 375.9,165.3 375,166.2 373.4,167.9 373.4,165.2 		"/>
		<path class="st2" d="M373.4,165.2v2.7h-5.1v-3.1C368.3,164.8,373,164.1,373.4,165.2z"/>
		<path class="st2" d="M385,172.5v2.2l-2.8,1.6l-2.1-1.2c-2.5,1.2-5.4,1.3-8.1,0.4v-2.2l1.3-1.3l-1.3,0.4c-2.1,0.6-4.4,0.3-6.3-0.7
			c-1.3-0.7-1.9-1.5-1.9-2.3v-2.2l0.2-0.9l-0.8-0.4v-2.2l2.1,1.2c-0.9,0.5-1.4,1.4-1.5,2.4l0,0c0,0.8,0.6,1.6,1.9,2.3
			c2.7,1.6,5.5,1.1,7.9,0.3c2.3-0.8,4-1.6,5.3-0.9c0.8,0.5,0.6,1.1-0.4,1.6c-1.2,0.7-2.7,0.8-4,0.2l-2.7,2.6c0.5,0.2,1,0.3,1.5,0.4
			c2.2,0.4,4.5,0.1,6.6-0.8l2.1,1.2L385,172.5z"/>
		<polygon class="st2" points="380.1,173 380.1,175.2 382.2,176.4 382.2,174.2 		"/>
		<g class="st14">
			<polygon class="st0" points="375.9,162.7 375.9,165.3 375,166.2 373.4,167.9 373.4,165.2 			"/>
			<path class="st0" d="M373.4,165.2v2.7h-5.1v-3.1C368.3,164.8,373,164.1,373.4,165.2z"/>
			<path class="st0" d="M385,172.5v2.2l-2.8,1.6l-2.1-1.2c-2.5,1.2-5.4,1.3-8.1,0.4v-2.2l1.3-1.3l-1.3,0.4c-2.1,0.6-4.4,0.3-6.3-0.7
				c-1.3-0.7-1.9-1.5-1.9-2.3v-2.2l0.2-0.9l-0.8-0.4v-2.2l2.1,1.2c-0.9,0.5-1.4,1.4-1.5,2.4l0,0c0,0.8,0.6,1.6,1.9,2.3
				c2.7,1.6,5.5,1.1,7.9,0.3c2.3-0.8,4-1.6,5.3-0.9c0.8,0.5,0.6,1.1-0.4,1.6c-1.2,0.7-2.7,0.8-4,0.2l-2.7,2.6c0.5,0.2,1,0.3,1.5,0.4
				c2.2,0.4,4.5,0.1,6.6-0.8l2.1,1.2L385,172.5z"/>
			<polygon class="st0" points="380.1,173 380.1,175.2 382.2,176.4 382.2,174.2 			"/>
		</g>
		<path class="st2" d="M384.6,172.3l-1.6-0.9c1-0.4,1.6-1.4,1.6-2.5c0-0.1,0-0.1,0-0.2c-0.1-0.8-0.6-1.5-1.8-2.2l0,0
			c-1.1-0.7-2.4-1-3.7-1h-0.3h-0.3h-0.3h-0.1h-0.2c-0.6,0.1-1.2,0.2-1.8,0.4l-0.9,0.3l-1.2,0.4l-0.5,0.2c-0.8,0.3-1.6,0.6-2.5,0.7
			c-0.4,0.1-0.7,0.1-1.1,0c-0.2,0-0.3-0.1-0.5-0.2c-0.6-0.4-0.7-0.9,0.5-1.6c1.1-0.7,2.4-0.8,3.6-0.4l2.5-2.5
			c-2.5-0.8-5.2-0.6-7.6,0.4l-2.1-1.2l-2.8,1.6l2.1,1.2c-0.9,0.5-1.4,1.4-1.5,2.4l0,0c0,0.8,0.6,1.6,1.9,2.3
			c2.7,1.6,5.5,1.1,7.9,0.3c2.3-0.8,4-1.6,5.3-0.9c0.8,0.5,0.6,1.1-0.4,1.6c-1.2,0.7-2.7,0.8-4,0.2l-2.7,2.6c0.5,0.2,1,0.3,1.5,0.4
			c2.2,0.4,4.5,0.1,6.6-0.8l2.1,1.2l2.8-1.6L384.6,172.3z"/>
		<path class="st13" d="M384.6,172.3l-1.6-0.9c1-0.4,1.6-1.4,1.6-2.5c0-0.1,0-0.1,0-0.2c-0.1-0.8-0.6-1.5-1.8-2.2l0,0
			c-1.1-0.7-2.4-1-3.7-1h-0.3h-0.3h-0.3h-0.1h-0.2c-0.6,0.1-1.2,0.2-1.8,0.4l-0.9,0.3l-1.2,0.4l-0.5,0.2c-0.8,0.3-1.6,0.6-2.5,0.7
			c-0.4,0.1-0.7,0.1-1.1,0c-0.2,0-0.3-0.1-0.5-0.2c-0.6-0.4-0.7-0.9,0.5-1.6c1.1-0.7,2.4-0.8,3.6-0.4l2.5-2.5
			c-2.5-0.8-5.2-0.6-7.6,0.4l-2.1-1.2l-2.8,1.6l2.1,1.2c-0.9,0.5-1.4,1.4-1.5,2.4l0,0c0,0.8,0.6,1.6,1.9,2.3
			c2.7,1.6,5.5,1.1,7.9,0.3c2.3-0.8,4-1.6,5.3-0.9c0.8,0.5,0.6,1.1-0.4,1.6c-1.2,0.7-2.7,0.8-4,0.2l-2.7,2.6c0.5,0.2,1,0.3,1.5,0.4
			c2.2,0.4,4.5,0.1,6.6-0.8l2.1,1.2l2.8-1.6L384.6,172.3z"/>
	</g>
</g>
</svg>
