<svg xmlns="http://www.w3.org/2000/svg" viewBox="0 0 448.4 450.4"><path d="M432.4 321.8l-54.9-55.1c-10.1-10.5-22.3-16.1-35.2-16.1-12.8 0-25.2 5.5-35.6 16L276.1 297c-1.3-.7-2.6-1.3-3.9-2-.9-.4-1.7-.9-2.6-1.3-3.6-1.8-6.9-3.5-9.7-5.2-29.4-18.7-56.2-43.1-81.8-74.6-12-15.2-20.1-27.8-26.1-40.9 7-6.5 13.7-13.2 20.1-19.7l2.1-2.2c1.4-1.4 2.8-2.8 4.2-4.3l4.2-4.2c21.9-21.9 21.9-50.2 0-72l-27.3-27.3c-3.1-3.1-6.3-6.3-9.3-9.5-5.9-6.1-12.3-12.6-18.8-18.6C117.1 5.3 105 0 92.3 0c-12.8 0-25 5.3-35.4 15.3L22.7 49.8C9.6 62.9 2.1 79 .4 97.5c-2.4 29.5 6.2 57 12.9 75.1 16.3 44.1 40.8 84.8 76.8 128.2 44 52.6 97 94 157.4 123.2 23.3 11 54.4 24 88.8 26.2 2.3.1 4.4.2 6.4.2 23.7 0 43.6-8.6 59.2-25.4l.2-.2v-.1c.1-.1.2-.2.3-.4 4.7-5.7 10.1-10.9 15.9-16.5l1.4-1.3c5.2-4.9 9.3-9.1 13.1-13 10.2-10.7 15.7-23.1 15.7-36-.1-13-5.6-25.4-16.1-35.7zM411 371.4h-.7l-.3 1.1c-3 3.2-6.2 6.3-9.4 9.5l-2.3 2.2c-6.4 6.1-13.1 12.7-19.4 20.1-9.7 10.4-21.2 15.3-36.1 15.3-1.5 0-3 0-4.5-.1-29.4-1.9-56.7-13.4-77.3-23.2-56.4-27.3-105.8-66-146.9-115.1-33.9-40.8-56.6-78.7-71.7-119.3-9.2-24.5-12.6-43.5-11.1-61.7 1-11.2 5.3-20.5 13.2-28.5l34.1-34.1C83.3 33.3 88 31 92.5 31c5.6 0 10.3 3.5 13.2 6.4l.3.3c5.8 5.4 11.4 11 17.9 17.8 1.6 1.6 3.1 3.2 4.7 4.8 1.6 1.6 3.2 3.2 4.8 4.9l27.3 27.3c9.9 9.9 9.9 18.3 0 28.2-1 1-1.9 2-2.9 2.9l-5.7 5.7c-8.9 9.1-16.6 16.8-25 24.3l-.1.1c-.1.1-.4.3-.6.6-9 9.1-7.5 18.4-5.5 24.6l.3.9v.1c7.1 17.2 17.1 33.6 32.6 53.2l.2.2c27.8 34.2 57 60.8 89.2 81.1 4.2 2.7 8.4 4.8 12.5 6.8 3.5 1.8 6.9 3.4 9.7 5.2l.2.1c.1.1.3.2.4.3.3.2.5.3.8.4 3.6 1.8 7.2 2.7 10.8 2.7 9.1 0 14.8-5.6 16.6-7.5l34.2-34.2c3.2-3.2 8.1-6.9 13.7-6.9 6 0 10.7 4.2 13 6.7l55.3 55.3c9.3 9.4 9.5 18.5.6 28.1z"/></svg>