<svg xmlns="http://www.w3.org/2000/svg" viewBox="0 0 25 25"><path d="M23.2 17.9L20.4 15c-.6-.6-1.2-.9-2-.9-.7 0-1.4.3-2 .9l-1.5 1.5h-.3c-.2-.1-.4-.2-.5-.3-1.5-1-2.9-2.2-4.2-3.9-.6-.8-1-1.4-1.3-2l1-1 .1-.1c.1-.1.2-.1.3-.2l.2-.2c.6-.6.9-1.3.9-2s-.3-1.4-.9-2L8.8 3.4l-.5-.5c-.3-.3-.6-.7-1-1-.6-.6-1.2-.9-1.9-.9-.8 0-1.4.3-2 .9L1.6 3.7C.9 4.4.5 5.3.4 6.3c-.1 1.6.3 3 .7 4 .9 2.3 2.1 4.4 4 6.7 2.3 2.8 5.1 4.9 8.3 6.5 1.2.6 2.9 1.3 4.7 1.4h.3c1.3 0 2.4-.5 3.2-1.4l.1-.1c.2-.3.5-.5.8-.8l.1-.1.7-.7c.6-.6.9-1.3.9-2-.1-.7-.4-1.3-1-1.9zm-3 4.3c-.5.5-1 .7-1.8.7h-.2c-1.5-.1-2.9-.7-4-1.2-2.9-1.4-5.5-3.4-7.6-6-1.8-2.1-2.9-4.1-3.7-6.2-.5-1.1-.6-2.1-.6-3 0-.5.3-1 .6-1.4l1.8-1.8c.3-.2.5-.3.7-.3.2 0 .4.2.6.3l.9.9.1.1.1.1c.1.1.2.2.2.3l1.4 1.4c.5.5.5.8 0 1.2l-.1.1-.1.1-.1.3-1.3 1.3c-.6.6-.4 1.2-.3 1.4.4.9.9 1.8 1.7 2.8 1.5 1.8 3 3.2 4.7 4.3.2.1.4.3.7.4 0 0 .1 0 .1.1.1.1.3.1.4.2h.1c.2.1.4.2.6.2.4 0 .7-.2 1-.4l1.8-1.8c.1-.1.4-.3.6-.3.2 0 .5.2.6.3l2.9 2.9c.4.4.4.8.1 1.2H22v.1l-.3.3-.1.1-.1.1c-.6.5-1 .8-1.3 1.2z" fill="#2e3038"/></svg>