<svg version="1.1" id="Capa_1" xmlns="http://www.w3.org/2000/svg" x="0" y="0" viewBox="0 0 19.3 24" xml:space="preserve"><style>.st0{fill:#2e3038}</style><path class="st0" d="M9.9 24.5l-.7-.8C8.3 22.8.4 14.3.4 9.3.4 4.1 4.7-.2 9.9-.2s9.5 4.3 9.5 9.5c0 5-7.9 13.4-8.8 14.4l-.7.8zm0-22.6c-4.1 0-7.5 3.4-7.5 7.5 0 3.2 4.9 9.3 7.5 12.2 2.6-2.9 7.5-9 7.5-12.2 0-4.1-3.4-7.5-7.5-7.5z"/><path class="st0" d="M10 14c-2.5 0-4.5-2-4.5-4.5S7.5 5 10 5s4.5 2 4.5 4.5S12.4 14 10 14zm0-7C8.6 7 7.5 8.1 7.5 9.5S8.6 12 10 12s2.5-1.1 2.5-2.5S11.3 7 10 7z"/></svg>