<svg version="1.1" id="Layer_1" xmlns="http://www.w3.org/2000/svg" x="0" y="0" viewBox="0 0 20.8 24" xml:space="preserve"><style>.st0{fill:#2e3038}</style><path class="st0" d="M10.4 0C4.7 0 0 4.5 0 10c0 3.2 1.7 6.5 5 9.8 2.4 2.4 4.8 3.9 4.9 4 .2.1.3.2.5.2s.3-.1.5-.2 2.5-1.6 4.9-4c3.3-3.3 5-6.7 5-9.8 0-5.5-4.6-10-10.4-10zm8.5 10c0 5.5-6.4 10.4-8.5 11.9-2.1-1.5-8.5-6.4-8.5-11.9 0-4.5 3.8-8.1 8.5-8.1s8.5 3.6 8.5 8.1z"/><path class="st0" d="M10.4 5.5c-2.7 0-4.8 2.2-4.8 4.8s2.2 4.8 4.8 4.8 4.8-2.2 4.8-4.8-2.1-4.8-4.8-4.8zm2.9 4.8c0 1.6-1.3 2.9-2.9 2.9s-2.9-1.3-2.9-2.9 1.3-2.9 2.9-2.9 2.9 1.3 2.9 2.9z"/></svg>