<svg version="1.1" id="Layer_1" xmlns="http://www.w3.org/2000/svg" x="0" y="0" viewBox="0 0 443.7 512" xml:space="preserve"><style>.st0{fill:#2e3038}</style><path class="st0" d="M221.9 27.8C113.5 27.8 24.1 113.4 24.1 218c0 60.9 32.3 123.6 95.1 186.4 45.6 45.6 91.3 74.2 93.2 76.1 3.8 1.9 5.7 3.8 9.5 3.8s5.7-1.9 9.5-3.8 47.5-30.4 93.2-76.1c62.8-62.8 95.1-127.4 95.1-186.4 0-104.6-87.5-190.2-197.8-190.2zM383.5 218c0 104.6-121.7 197.8-161.7 226.3C181.9 415.8 60.2 322.6 60.2 218c0-85.6 72.3-154.1 161.7-154.1S383.5 132.4 383.5 218z"/><path class="st0" d="M221.9 132.4c-51.4 0-91.3 41.8-91.3 91.3s41.8 91.3 91.3 91.3 91.3-41.8 91.3-91.3-40-91.3-91.3-91.3zm55.1 91.3c0 30.4-24.7 55.2-55.2 55.2s-55.2-24.7-55.2-55.2 24.7-55.2 55.2-55.2 55.2 24.7 55.2 55.2z"/></svg>