<?xml version="1.0" encoding="utf-8"?>
<!-- Generator: Adobe Illustrator 22.0.1, SVG Export Plug-In . SVG Version: 6.00 Build 0)  -->
<svg version="1.1" id="Capa_1" xmlns="http://www.w3.org/2000/svg" xmlns:xlink="http://www.w3.org/1999/xlink" x="0px" y="0px"
	 width="26.4px" height="27.3px" viewBox="0 0 26.4 27.3" style="enable-background:new 0 0 26.4 27.3;" xml:space="preserve">
<style type="text/css">
	.st0{fill:#FF3495;}
	.st1{fill:#FFFFFF;}
</style>
<path class="st0" d="M14.3,0h-2.1C5.5,0,0,5.5,0,12.2s5.5,12.2,12.2,12.2h2.1c1.1,0,2.1-0.1,3.1-0.4l3.1,3.1
	c0.2,0.2,0.4,0.2,0.6,0.2c0.1,0,0.2,0,0.3-0.1c0.3-0.1,0.5-0.4,0.5-0.8v-4.9c1.3-1.1,2.4-2.4,3.2-4c0.9-1.7,1.3-3.6,1.3-5.5
	C26.5,5.5,21,0,14.3,0z"/>
<g>
	<path class="st1" d="M11.8,20.4c-0.4-0.4-0.7-0.9-0.7-1.5s0.2-1.1,0.6-1.5c0.4-0.4,1-0.6,1.6-0.6s1.2,0.2,1.6,0.6
		c0.4,0.4,0.6,0.9,0.6,1.5s-0.2,1.1-0.7,1.5c-0.4,0.4-1,0.6-1.6,0.6S12.2,20.8,11.8,20.4z M11.2,4.2h4.4l-0.7,10.9h-3L11.2,4.2z"/>
</g>
</svg>
