<svg xmlns="http://www.w3.org/2000/svg" width="60" height="60" viewBox="0 0 60 60"><linearGradient id="a" gradientUnits="userSpaceOnUse" x1="15.047" y1="16.402" x2="47.547" y2="47.402"><stop offset="0" stop-color="#fee44c"/><stop offset="1" stop-color="#ff3495"/></linearGradient><path d="M56.8 24.3c1.2-1.2 1.5-2.9 1.1-4.2-.5-1.5-1.8-2.6-3.3-2.9l-14-2c-.3 0-.5-.2-.6-.5L33.9 2.3C33.3.8 31.9 0 30.3 0s-2.9.8-3.6 2.3l-6.4 12.4c-.2.2-.3.5-.6.5l-13.8 2c-1.7.2-2.9 1.4-3.3 2.9-.5 1.5 0 3.2 1.2 4.2l9.9 9.7c.2.2.3.5.2.6l-2.1 14c-.3 1.5.3 3.2 1.7 4.1 1.4.9 3 1.1 4.2.3L30 46.5c.2-.2.5-.2.8 0l12 6.5c.6.3 1.4.5 2 .5.8 0 1.7-.3 2.4-.8 1.4-1.1 2-2.4 1.7-4.1l-2.3-13.8c0-.3 0-.5.2-.6l10-9.9zM43.1 35.2L45.4 49c0 .5-.2.6-.3.8-.2.2-.5.3-.8 0L32 43.2c-.6-.3-1.4-.5-2-.5s-1.4.2-2 .5l-12.3 6.5c-.3.2-.8 0-.8 0s-.3-.3-.3-.8L17 35.2c.2-1.4-.2-2.6-1.2-3.6l-9.9-9.7c-.3-.3-.3-.6-.2-.8 0-.2.2-.5.6-.5l13.8-2c1.4-.2 2.4-1.1 3.2-2.3l6.1-12.4c.2-.5.6-.5.6-.5.2 0 .5 0 .6.5l6.1 12.4c.6 1.2 1.8 2.1 3.2 2.3l13.8 2c.5 0 .6.5.6.5 0 .2.2.5-.2.8l-9.9 9.7c-.8 1-1.2 2.4-1.1 3.6z" fill="url(#a)"/><linearGradient id="b" gradientUnits="userSpaceOnUse" x1="35.953" y1="-5.515" x2="68.453" y2="25.485"><stop offset="0" stop-color="#fee44c"/><stop offset="1" stop-color="#ff3495"/></linearGradient><path d="M48.7 2.4c-.6-.5-1.7-.3-2.3.3l-1.7 2.4c-.5.6-.3 1.7.3 2.3.3.2.8.3 1.1.3.5 0 .9-.2 1.2-.6L49 4.7c.5-.8.5-1.8-.3-2.3z" fill="url(#b)"/><linearGradient id="c" gradientUnits="userSpaceOnUse" x1="19.96" y1="11.251" x2="52.46" y2="42.251"><stop offset="0" stop-color="#fee44c"/><stop offset="1" stop-color="#ff3495"/></linearGradient><path d="M15.4 5.2l-1.5-2.4c-.5-.6-1.5-.8-2.3-.3s-.9 1.5-.2 2.3l1.5 2.4c.3.3.8.6 1.2.6.3 0 .6-.2.9-.3 1.1-.8 1.3-1.7.4-2.3z" fill="url(#c)"/><linearGradient id="d" gradientUnits="userSpaceOnUse" x1="-.86" y1="33.079" x2="31.64" y2="64.079"><stop offset="0" stop-color="#fee44c"/><stop offset="1" stop-color="#ff3495"/></linearGradient><path d="M5.9 35.8c-.3-.8-1.1-1.2-2.1-.9l-2.7.9c-.8.2-1.2.9-1.1 1.8.2.6.8 1.1 1.5 1.1H2l2.7-1.1c1.1-.1 1.6-1 1.2-1.8z" fill="url(#d)"/><linearGradient id="e" gradientUnits="userSpaceOnUse" x1="2.354" y1="29.709" x2="34.854" y2="60.709"><stop offset="0" stop-color="#fee44c"/><stop offset="1" stop-color="#ff3495"/></linearGradient><path d="M30.2 53.3c-.9 0-1.5.6-1.5 1.5v2.9c0 .9.6 1.5 1.5 1.5s1.5-.6 1.5-1.5v-2.9c.2-.6-.6-1.5-1.5-1.5z" fill="url(#e)"/><linearGradient id="f" gradientUnits="userSpaceOnUse" x1="24.957" y1="6.013" x2="57.457" y2="37.013"><stop offset="0" stop-color="#fee44c"/><stop offset="1" stop-color="#ff3495"/></linearGradient><path d="M59.1 35.7l-2.7-.9c-.8-.3-1.7.2-2.1.9-.5.8.2 1.7.9 2.1l2.7.9h.5c.6 0 1.2-.5 1.5-1.1.4-.9-.1-1.6-.8-1.9z" fill="url(#f)"/><linearGradient id="g" gradientUnits="userSpaceOnUse" x1="15.774" y1="15.64" x2="48.274" y2="46.64"><stop offset="0" stop-color="#fee44c"/><stop offset="1" stop-color="#ff3495"/></linearGradient><path d="M37.5 33.5h-9.9v-2.3h.4c5.2 0 10.3-1.5 10.3-7.7 0-4.2-3-5.9-6.4-5.9h-7.1s-.2 0-.2.2V29h-2c-.2 0-.2.2-.2.2v2c0 .2.2.2.2.2h2.1v2.3h-2c-.2 0-.2.2-.2.2v2c0 .2.2.2.2.2h2v4.3c0 .2.2.2.2.2h2.6c.2 0 .2-.2.2-.2v-4.2h9.9c.2 0 .2-.2.2-.2v-2c-.1-.3-.1-.5-.3-.5zM27.6 29v-9.1h3.5c1.8 0 3.9 1.1 3.9 3.9 0 3.8-2.4 5.2-6.4 5.2h-1z" fill="url(#g)"/></svg>