<?xml version="1.0" encoding="utf-8"?>
<!-- Generator: Adobe Illustrator 22.0.1, SVG Export Plug-In . SVG Version: 6.00 Build 0)  -->
<svg version="1.1" id="Слой_1" xmlns="http://www.w3.org/2000/svg" xmlns:xlink="http://www.w3.org/1999/xlink" x="0px" y="0px"
	 width="41px" height="39px" viewBox="0 0 41 39" style="enable-background:new 0 0 41 39;" xml:space="preserve">
<style type="text/css">
	.st0{fill:#EEEFF5;}
	.st1{fill:#7A8187;}
</style>
<circle class="st0" cx="20.5" cy="19" r="19"/>
<g>
	<path class="st1" d="M2,21.2c0.1-0.7,0.2-1.5,0.3-2.2c0.9-5.1,3.3-9.4,7.3-12.7c3.2-2.7,6.9-4.2,11.1-4.7c0.7-0.1,1.4-0.1,2.1-0.1
		c0.5,0,0.8,0.3,0.8,0.8c0,1.3,0,2.5,0,3.8c0,0,0,0.1,0,0.1c0.8,0.1,1.6,0.2,2.4,0.3c1.9,0.3,3.7,1.1,5.3,2.1
		c0.4,0.3,0.6,0.7,0.3,1.1c-0.2,0.4-0.6,0.4-1.1,0.2c-2.5-1.5-5.2-2.2-8.1-2.1c-4.3,0.2-8,1.9-10.8,5.2c-2.1,2.4-3.2,5.3-3.4,8.4
		c0,0.1,0,0.2,0,0.3c1.3,0,2.6,0,4,0c0.3-3.3,1.8-6,4.6-8c1.9-1.4,4.1-2,6.5-1.9c2.7,0.1,5.1,1.1,7,3c1.9,1.9,3,4.2,3.2,6.9
		c1.3,0,2.7,0,4,0c-0.1-1.2-0.3-2.4-0.6-3.5c-0.4-1.4-1-2.6-1.8-3.8c-0.3-0.4-0.2-0.9,0.2-1.1c0.4-0.2,0.8-0.1,1,0.3
		c0.8,1.3,1.5,2.7,1.9,4.1c0.5,1.5,0.7,3,0.7,4.6c0,0.6-0.3,0.9-0.9,0.9c-0.6,0-1.3,0-2,0c0.7,0.8,1.1,1.6,1.3,2.6
		c0.3,0,0.6,0,0.8,0c0.5,0,0.8,0.3,0.8,0.8c0,1.1,0,2.2,0,3.3c0,0.5-0.3,0.8-0.8,0.8c-0.8,0-1.7,0-2.5,0c-0.3,0-0.4,0.1-0.5,0.3
		c-0.1,0.4-0.3,0.7-0.5,1.1c-0.3,0.5-0.8,0.6-1.2,0.1c-0.3-0.4-0.7-0.8-1-1.2c0,0.5,0,1-0.1,1.5c-0.2,1.1-0.7,2.1-1.6,2.9
		c-0.6,0.5-1.1,0.4-1.4-0.3c-0.2-0.4-0.3-0.9-0.5-1.4c-0.1,0.2-0.1,0.3-0.2,0.5c-0.5,1.5-1.5,2.5-2.9,3.1c-0.7,0.3-1.2,0-1.2-0.8
		c0-0.4,0-0.9,0-1.3c0,0,0,0,0-0.1c-0.1,0.1-0.2,0.2-0.2,0.3c-1,1.2-2.3,1.9-3.9,2c-0.7,0-1-0.4-0.8-1c0.1-0.4,0.3-0.8,0.4-1.3
		c0,0,0,0,0-0.1c-0.1,0.1-0.2,0.1-0.3,0.2c-1.3,0.8-2.7,1-4.2,0.5c-0.8-0.2-1-0.8-0.4-1.4c0.3-0.3,0.5-0.7,0.8-1
		c-0.6,0-1.2,0.1-1.8,0.1c-1.1,0-2.1-0.4-2.9-1.1c-0.5-0.4-0.5-1,0.1-1.3c0.2-0.1,0.4-0.2,0.6-0.4c-0.1,0-0.2,0-0.4,0
		c-1.3,0-2.6,0-3.9,0c-0.7,0-1-0.2-1-1c0-1,0-2,0-3.1c0-0.6,0.3-0.9,0.9-0.9c0.6,0,1.1,0,1.7,0c-0.4-0.5-0.8-0.9-1.1-1.4
		c-0.2-0.3-0.3-0.6-0.5-1c-0.1-0.2-0.2-0.3-0.4-0.3c-1.4,0-2.9,0-4.3,0c-0.4,0-0.8-0.1-1-0.5C2,22.1,2,21.6,2,21.2z M35.9,25.7
		c-0.2-0.7-0.5-1.2-1-1.8c-0.5-0.6-1.1-1-1.9-0.9c-0.5,0.1-0.8-0.2-0.9-0.8c0-0.5,0-1-0.1-1.4c-0.6-3.7-3.5-6.7-7.2-7.5
		c-3.8-0.8-7.6,0.8-9.7,4c-0.9,1.5-1.4,3.1-1.5,4.8c0,0.7-0.3,0.9-0.9,0.9c-0.3,0-0.7,0-1,0c-0.8,0-1.6,0-2.5,0
		c0.2,0.7,0.8,1.4,1.6,1.8c0.5,0.3,1,0.5,1.5,0.7c0.2,0.1,0.4,0.1,0.5,0.1c1.4,0,2.7,0,4.1,0c0.1,0,0.2,0,0.4,0
		c-0.8-1.4-1.1-2.9-0.8-4.4c0.3-1.6,1-2.9,2.3-3.9c2.1-1.7,5.1-2,7.3-0.5c3.3,2.2,3.9,5.3,2.3,8.8C30.9,25.7,33.4,25.7,35.9,25.7z
		 M22.1,2.9c-5.4,0.3-9.9,2.4-13.6,6.3c-3.2,3.5-4.9,7.6-5.1,12.4c1.1,0,2.2,0,3.3,0C7,17.5,8.6,13.9,11.5,11
		c2.9-2.9,6.5-4.5,10.6-4.7C22.1,5.1,22.1,4.1,22.1,2.9z M8.2,29.2c9.8,0,19.5,0,29.3,0c0-0.7,0-1.3,0-2c-9.8,0-19.5,0-29.3,0
		C8.2,27.9,8.2,28.5,8.2,29.2z M22.9,25.7c1.1,0,2.3,0,3.4,0c0.2,0,0.3-0.1,0.4-0.2c0.7-0.8,1.1-1.8,1.1-2.9
		c0.1-3.3-2.7-5.7-5.9-5.1c-1.8,0.3-3.1,1.5-3.7,3.2c-0.6,1.7-0.3,3.4,0.8,4.8c0.1,0.1,0.3,0.2,0.4,0.2
		C20.6,25.7,21.7,25.7,22.9,25.7z M16.9,34.6c0.2,0,0.4,0,0.6,0c0.8-0.1,1.5-0.4,2.1-0.9c0.5-0.4,1.2-0.3,1.6,0
		c0.5,0.4,0.6,0.9,0.4,1.6c-0.1,0.2-0.1,0.4-0.2,0.6c0.6-0.2,1.1-0.5,1.5-0.9c0.3-0.3,0.5-0.6,0.7-0.9c0.4-0.5,1-0.6,1.5-0.4
		c0.5,0.2,0.9,0.7,0.9,1.3c0,0.2,0,0.4,0,0.7c0.2-0.1,0.3-0.2,0.4-0.3c0.6-0.6,0.9-1.3,1.1-2.1c0.2-0.6,0.7-1,1.2-1
		c0.6,0,1.1,0.3,1.4,0.9c0.1,0.2,0.1,0.4,0.2,0.6c0.5-0.8,0.6-1.7,0.6-2.6c0-0.3-0.1-0.4-0.4-0.4c-5.1,0-10.2,0-15.3,0
		c-0.1,0-0.2,0-0.3,0c-0.6,0.3-1.3,0.7-1.9,1.1c0,0,0,0.1,0,0.1c0.5,0.1,1,0.2,1.5,0.2c0.5,0,0.9-0.2,1.4-0.2
		c0.6-0.1,1.1,0.1,1.4,0.7c0.3,0.5,0.3,1-0.1,1.5C17.2,34.2,17.1,34.4,16.9,34.6z"/>
	<path class="st1" d="M33.6,10.6c0.4,0,0.7,0.3,0.7,0.7c0,0.4-0.3,0.7-0.7,0.7c-0.4,0-0.7-0.3-0.7-0.7
		C32.9,10.9,33.2,10.6,33.6,10.6z"/>
	<path class="st1" d="M25.5,22.4c0,1.4-1.2,2.6-2.6,2.6c-1.5,0-2.6-1.2-2.6-2.6c0-1.4,1.2-2.6,2.6-2.6
		C24.3,19.7,25.5,20.9,25.5,22.4z M24.1,22.4c0-0.7-0.5-1.2-1.2-1.2c-0.6,0-1.2,0.5-1.2,1.2c0,0.7,0.5,1.2,1.2,1.2
		C23.5,23.5,24.1,23,24.1,22.4z"/>
</g>
</svg>
