<?xml version="1.0" encoding="utf-8"?>
<!-- Generator: Adobe Illustrator 22.0.1, SVG Export Plug-In . SVG Version: 6.00 Build 0)  -->
<svg version="1.1" id="Layer_1" xmlns="http://www.w3.org/2000/svg" xmlns:xlink="http://www.w3.org/1999/xlink" x="0px" y="0px"
	 viewBox="0 0 480 462" style="enable-background:new 0 0 480 462;" xml:space="preserve">
<style type="text/css">
	.st0{fill:#7A7C87;}
</style>
<g>
	<path class="st0" d="M240,119.3c4.6,0,8.4-3.8,8.4-8.4V48.1c0-4.6-3.8-8.4-8.4-8.4s-8.4,3.8-8.4,8.4v62.8
		C231.6,115.6,235.4,119.3,240,119.3z"/>
	<path class="st0" d="M287,138.8c2.2,0,4.4-0.9,5.9-2.5l44.4-44.4c3.2-3.4,3-8.7-0.4-11.9c-3.2-3-8.2-3-11.5,0l-44.4,44.4
		c-3.3,3.3-3.3,8.6,0,11.9C282.6,137.9,284.8,138.8,287,138.8L287,138.8z"/>
	<path class="st0" d="M187.1,136.3c3.3,3.3,8.6,3.3,11.9,0c3.3-3.3,3.3-8.6,0-11.9l0,0l-44.4-44.4c-3.2-3.4-8.5-3.5-11.9-0.3
		c-3.4,3.2-3.5,8.5-0.3,11.9c0.1,0.1,0.2,0.2,0.3,0.3L187.1,136.3z"/>
	<path class="st0" d="M469.3,205.5c-8.8-8.8-21.4-12.6-33.6-10l0,0c-19.8,4.2-32.4,23.7-28.2,43.5c0.2,1,0.5,2.1,0.8,3.1
		c0.3,0.8,0,1.8-0.7,2.3l-33,23.9l-23.8-53.7c-1.9-4.2-6.8-6.2-11.1-4.3c-1,0.4-1.8,1-2.6,1.8l-42.4,43.2l-26.8-44
		c-0.4-0.9-0.2-2,0.5-2.7c15-15.7,14.4-40.6-1.3-55.6s-40.6-14.4-55.6,1.3c-14.6,15.3-14.5,39.3,0.2,54.5c0.7,0.6,0.8,1.7,0.3,2.5
		l-26.8,44L142.8,212c-3.3-3.3-8.6-3.4-11.9-0.1c-0.8,0.7-1.4,1.6-1.8,2.6l-23.7,53.8l-33-23.9c-0.7-0.5-1-1.5-0.7-2.3
		c5.9-19.3-4.9-39.8-24.3-45.8c-1-0.3-2-0.6-3.1-0.8c-19.8-4.3-39.3,8.4-43.6,28.2S9.2,263,29,267.3c4,0.9,8.2,1,12.2,0.5
		c0.6-0.1,1.4,0.5,1.7,1.3l53.2,141.4v33.4c0,4.6,3.8,8.4,8.4,8.4h271.1c4.6,0,8.4-3.8,8.4-8.4v-33.4l53.2-141.4
		c0.2-0.7,0.9-1.3,1.7-1.3c4.6,0.6,9.3,0.3,13.9-0.9c13.3-3.5,23.6-14.2,26.5-27.7C481.8,227,478.1,214.4,469.3,205.5z M340.5,232.6
		l20.2,45.7l-36,26.1L303.8,270L340.5,232.6z M139.5,232.6l36.7,37.4l-20.9,34.4l-36-26.1L139.5,232.6z M367.2,435.5H112.9v-18.1
		h254.3V435.5z M462.7,235.8c-1.6,7.2-7.1,12.9-14.2,14.8c-2.5,0.7-5.1,0.8-7.6,0.5c-8.5-1-16.6,4-19.5,12.1l-51.7,137.4H110.3
		L58.6,263.2c-2.9-8.1-11-13.1-19.5-12.1c-2.5,0.3-5.1,0.1-7.6-0.5c-10.6-2.8-16.9-13.7-14.1-24.4c2.8-10.6,13.7-16.9,24.4-14.1
		c6.8,1.8,12.2,7.1,14,13.9c1,3.6,0.9,7.4-0.2,11c-2.4,7.7,0.3,16.1,6.9,20.9l41.4,30l0.1,0l48.7,35.3c3.8,2.7,9,1.9,11.7-1.9
		c0.1-0.2,0.3-0.4,0.4-0.6l61.5-101c4.4-7.3,3.4-16.7-2.6-22.9c-8.7-9-8.4-23.2,0.5-31.9c9-8.7,23.2-8.4,31.9,0.5
		c8.4,8.7,8.5,22.5,0.1,31.2c-6,6.2-7.1,15.6-2.7,23l61.5,101c2.4,4,7.6,5.2,11.5,2.8c0.2-0.1,0.4-0.2,0.6-0.4L376,288h0l41.4-30
		c6.5-4.8,9.3-13.2,6.9-20.9c-1.1-3.6-1.2-7.4-0.2-11c2.9-10.6,13.8-16.8,24.4-13.9C458.9,215.1,465.1,225.4,462.7,235.8
		L462.7,235.8z"/>
	<path class="st0" d="M247.1,287.2c-2.5-3.9-7.7-5-11.6-2.5c-1,0.6-1.9,1.5-2.5,2.5l-26,40.4c-1.8,2.8-1.8,6.3,0,9.1l26,40.4
		c2.5,3.9,7.7,5,11.6,2.5c1-0.6,1.9-1.5,2.5-2.5l26-40.4c1.8-2.8,1.8-6.3,0-9.1L247.1,287.2z M240,357.1l-16-24.9l16-24.9l16,24.9
		L240,357.1z"/>
</g>
</svg>
