<?xml version="1.0" encoding="utf-8"?>
<!-- Generator: Adobe Illustrator 22.0.1, SVG Export Plug-In . SVG Version: 6.00 Build 0)  -->
<svg version="1.1" id="Слой_1" xmlns="http://www.w3.org/2000/svg" xmlns:xlink="http://www.w3.org/1999/xlink" x="0px" y="0px"
	 width="21px" height="30px" viewBox="0 0 21 30" style="enable-background:new 0 0 21 30;" xml:space="preserve">
<path d="M6,15C7.5,13.7,18.4,4.7,20,3.4c0.6-0.5,0.7-1.9,0.1-2.5c-1.2-1.2-2.3-1.2-3.6-0.1C14.7,2.3,1.5,13,1.3,13.2
	C0,14.3,0.2,15.8,1.6,17c0.2,0.1,12.1,9.9,13.6,11.1c0.6,0.5,1.2,1,1.8,1.5c0.7,0.6,1.8,0.6,2.6,0.1c0.9-0.6,1.3-1.3,1-2.3
	c-0.1-0.4-0.3-0.7-0.6-1C18.6,25.2,6.2,15.1,6,15z"/>
</svg>
