<svg version="1.1" id="Layer_1" xmlns="http://www.w3.org/2000/svg" x="0" y="0" viewBox="0 0 41 38.4" xml:space="preserve"><style>.st1{fill:#7a8187}</style><circle cx="20.5" cy="19" r="19" fill="#eeeff5"/><path class="st1" d="M36.6 33.5l-5.9-10.1c2.3-2.5 3.7-5.8 3.7-9.4 0-3.9-1.6-7.3-4.1-9.9S24.4 0 20.5 0s-7.3 1.6-9.9 4.1-4.1 6-4.1 9.9c0 3.6 1.4 6.9 3.7 9.4L4.4 33.5c-.1.2-.1.4-.1.6.1.4.5.5.9.4l4.7-1.9.7 5c0 .2.1.4.3.5.3.2.8.1.9-.3l5.9-10.2c.9.2 1.8.3 2.7.3.9 0 1.8-.1 2.7-.3L29 37.9c.2.3.6.4.9.3.2-.1.3-.3.3-.5l.7-5 4.7 1.9c.4.1.8 0 .9-.4.3-.3.2-.5.1-.7zm-24.9 2l-.6-3.9c-.1-.4-.4-.6-.8-.6-.1 0-.1 0-.2.1l-3.6 1.4 4.7-8.1c1.5 1.3 3.2 2.3 5.2 2.9l-4.7 8.2zm8.8-9c-3.5 0-6.6-1.4-8.9-3.7S8 17.4 8 14s1.4-6.6 3.7-8.9c2.3-2.3 5.4-3.7 8.9-3.7s6.6 1.4 8.9 3.7 3.7 5.4 3.7 8.9-1.4 6.6-3.7 8.9c-2.4 2.2-5.5 3.6-9 3.6zm10.4 4.6c-.1 0-.1-.1-.2-.1-.4-.1-.7.2-.8.6l-.6 3.9-4.7-8.2c2-.6 3.7-1.6 5.2-2.9l4.7 8.1-3.6-1.4z"/><path class="st1" d="M26.9 11.5c-.2-.2-.4-.4-.6-.5-.2-.1-.5-.2-.8-.1h-2.7L22 8.2c-.1-.4-.4-.7-.8-.9-.2-.1-.5-.2-.7-.2s-.5.1-.7.2c-.4.2-.6.5-.8.9l-.9 2.7h-2.7c-.3 0-.5 0-.8.1-.2.1-.4.3-.6.5-.3.4-.3.8-.3 1.1.1.4.3.8.6 1l2.3 1.6-.7 2.8v.1c-.1.2-.1.4 0 .7 0 .2.1.5.3.7.3.4.6.6 1 .6.4.1.8 0 1.1-.3l2.3-1.7 2.3 1.7c.4.2.8.2 1.1.2.4-.1.8-.3 1-.6.2-.2.2-.4.3-.7v-.8l-.9-2.7 2.3-1.6c.4-.3.6-.6.6-1 0-.3-.1-.7-.4-1.1zm-1.1 1.1l-2.7 2c-.2.2-.4.5-.3.8l1 3.1v.2l-.1.1h-.1l-2.7-2c-.1-.1-.3-.1-.4-.1-.1 0-.3 0-.4.1l-2.7 2h-.1s-.1 0-.1-.1v-.2l1-3.1c.1-.3 0-.6-.3-.8l-2.5-1.9-.1-.1v-.1h3.5c.3 0 .6-.2.7-.5l1-3.1s0-.1.1-.1h.2l.1.1 1 3.1c.1.3.4.5.7.5h3.5v.1c-.3-.1-.3-.1-.3 0z"/><path class="st1" d="M28.2 6.3c-2-2-4.7-3.2-7.7-3.2s-5.7 1.2-7.7 3.2S9.6 11 9.6 14s1.2 5.7 3.2 7.7 4.7 3.2 7.7 3.2 5.7-1.2 7.7-3.2 3.2-4.7 3.2-7.7c0-3.1-1.2-5.8-3.2-7.7zm-.9 14.3c-1.7 1.7-4.1 2.8-6.7 2.8s-5-1.1-6.7-2.8c-1.7-1.7-2.8-4.1-2.8-6.7s1.1-5 2.8-6.7c1.7-1.7 4.1-2.8 6.7-2.8s5 1.1 6.7 2.8C29 8.9 30 11.3 30 13.9s-1 5-2.7 6.7z"/></svg>