<?xml version="1.0" encoding="utf-8"?>
<!-- Generator: Adobe Illustrator 22.0.1, SVG Export Plug-In . SVG Version: 6.00 Build 0)  -->
<svg version="1.1" id="Layer_1" xmlns="http://www.w3.org/2000/svg" xmlns:xlink="http://www.w3.org/1999/xlink" x="0px" y="0px"
	 viewBox="0 0 41 38.4" style="enable-background:new 0 0 41 38.4;" xml:space="preserve">
<style type="text/css">
	.st0{fill:#EEEFF5;}
	.st1{fill:#7A8187;}
</style>
<circle class="st0" cx="20.5" cy="19" r="19"/>
<g>
	<g>
		<g>
			<path class="st1" d="M36.6,33.5l-5.9-10.1c2.3-2.5,3.7-5.8,3.7-9.4c0-3.9-1.6-7.3-4.1-9.9S24.4,0,20.5,0s-7.3,1.6-9.9,4.1
				s-4.1,6-4.1,9.9c0,3.6,1.4,6.9,3.7,9.4L4.4,33.5c-0.1,0.2-0.1,0.4-0.1,0.6c0.1,0.4,0.5,0.5,0.9,0.4l4.7-1.9l0.7,5
				c0,0.2,0.1,0.4,0.3,0.5c0.3,0.2,0.8,0.1,0.9-0.3l5.9-10.2c0.9,0.2,1.8,0.3,2.7,0.3c0.9,0,1.8-0.1,2.7-0.3L29,37.9
				c0.2,0.3,0.6,0.4,0.9,0.3c0.2-0.1,0.3-0.3,0.3-0.5l0.7-5l4.7,1.9c0.4,0.1,0.8,0,0.9-0.4C36.8,33.9,36.7,33.7,36.6,33.5z
				 M11.7,35.5l-0.6-3.9c-0.1-0.4-0.4-0.6-0.8-0.6c-0.1,0-0.1,0-0.2,0.1l-3.6,1.4l4.7-8.1c1.5,1.3,3.2,2.3,5.2,2.9L11.7,35.5z
				 M20.5,26.5c-3.5,0-6.6-1.4-8.9-3.7S8,17.4,8,14s1.4-6.6,3.7-8.9c2.3-2.3,5.4-3.7,8.9-3.7s6.6,1.4,8.9,3.7s3.7,5.4,3.7,8.9
				s-1.4,6.6-3.7,8.9C27.1,25.1,24,26.5,20.5,26.5z M30.9,31.1c-0.1,0-0.1-0.1-0.2-0.1c-0.4-0.1-0.7,0.2-0.8,0.6l-0.6,3.9l-4.7-8.2
				c2-0.6,3.7-1.6,5.2-2.9l4.7,8.1L30.9,31.1z"/>
		</g>
	</g>
	<g>
		<g>
			<path class="st1" d="M26.9,11.5c-0.2-0.2-0.4-0.4-0.6-0.5c-0.2-0.1-0.5-0.2-0.8-0.1h-2.7L22,8.2c-0.1-0.4-0.4-0.7-0.8-0.9
				c-0.2-0.1-0.5-0.2-0.7-0.2s-0.5,0.1-0.7,0.2c-0.4,0.2-0.6,0.5-0.8,0.9l-0.9,2.7h-2.7c-0.3,0-0.5,0-0.8,0.1
				c-0.2,0.1-0.4,0.3-0.6,0.5c-0.3,0.4-0.3,0.8-0.3,1.1c0.1,0.4,0.3,0.8,0.6,1l2.3,1.6L15.9,18c0,0,0,0.1,0,0.1
				c-0.1,0.2-0.1,0.4,0,0.7c0,0.2,0.1,0.5,0.3,0.7c0.3,0.4,0.6,0.6,1,0.6c0.4,0.1,0.8,0,1.1-0.3l2.3-1.7l2.3,1.7
				C23.3,20,23.7,20,24,20c0.4-0.1,0.8-0.3,1-0.6c0.2-0.2,0.2-0.4,0.3-0.7c0-0.2,0-0.4,0-0.7c0,0,0-0.1,0-0.1l-0.9-2.7l2.3-1.6
				c0.4-0.3,0.6-0.6,0.6-1C27.3,12.3,27.2,11.9,26.9,11.5z M25.8,12.6L25.8,12.6l-2.7,2c-0.2,0.2-0.4,0.5-0.3,0.8l1,3.1v0
				c0,0,0,0.1,0,0.1c0,0,0,0.1,0,0.1c0,0-0.1,0.1-0.1,0.1c0,0-0.1,0-0.1,0l-2.7-2c-0.1-0.1-0.3-0.1-0.4-0.1c-0.1,0-0.3,0-0.4,0.1
				l-2.7,2c0,0-0.1,0-0.1,0c0,0-0.1,0-0.1-0.1c0,0,0-0.1,0-0.1c0,0,0-0.1,0-0.1v0l1-3.1c0.1-0.3,0-0.6-0.3-0.8l-2.5-1.9l0,0
				c0,0-0.1-0.1-0.1-0.1c0,0,0-0.1,0-0.1c0,0,0,0,0,0c0,0,0,0,0.1,0s0.1,0,0.1,0c0,0,0.1,0,0.1,0h3.2c0.3,0,0.6-0.2,0.7-0.5l1-3.1
				c0,0,0-0.1,0.1-0.1c0,0,0.1,0,0.1,0c0,0,0.1,0,0.1,0c0,0,0.1,0.1,0.1,0.1l1,3.1c0.1,0.3,0.4,0.5,0.7,0.5h3.2c0,0,0.1,0,0.1,0
				c0,0,0.1,0,0.1,0c0,0,0,0,0.1,0c0,0,0,0,0,0c0,0,0,0.1,0,0.1C25.8,12.5,25.8,12.5,25.8,12.6z"/>
		</g>
	</g>
	<g>
		<g>
			<path class="st1" d="M28.2,6.3c-2-2-4.7-3.2-7.7-3.2s-5.7,1.2-7.7,3.2s-3.2,4.7-3.2,7.7s1.2,5.7,3.2,7.7s4.7,3.2,7.7,3.2
				s5.7-1.2,7.7-3.2s3.2-4.7,3.2-7.7C31.4,10.9,30.2,8.2,28.2,6.3z M27.3,20.6c-1.7,1.7-4.1,2.8-6.7,2.8s-5-1.1-6.7-2.8
				c-1.7-1.7-2.8-4.1-2.8-6.7s1.1-5,2.8-6.7c1.7-1.7,4.1-2.8,6.7-2.8s5,1.1,6.7,2.8C29,8.9,30,11.3,30,13.9S29,18.9,27.3,20.6z"/>
		</g>
	</g>
</g>
</svg>
