<?xml version="1.0" encoding="utf-8"?>
<!-- Generator: Adobe Illustrator 22.0.1, SVG Export Plug-In . SVG Version: 6.00 Build 0)  -->
<svg version="1.1" id="Слой_1" xmlns="http://www.w3.org/2000/svg" xmlns:xlink="http://www.w3.org/1999/xlink" x="0px" y="0px"
	 width="407.7px" height="409.5px" viewBox="0 0 407.7 409.5" style="enable-background:new 0 0 407.7 409.5;" xml:space="preserve"
	>
<style type="text/css">
	.st0{fill:#F5F5F5;}
	.st1{fill:#37474F;}
	.st2{fill:none;stroke:#FFFFFF;stroke-width:0.794;stroke-linecap:round;stroke-miterlimit:10;}
	.st3{fill:#455A64;}
	.st4{fill:none;stroke:#FFFFFF;stroke-width:0.7248;stroke-linecap:round;stroke-miterlimit:10;}
	.st5{fill:#C69710;}
	.st6{fill:#FCCF4F;}
	.st7{fill:#DADEEA;}
	.st8{fill:#FFFFFF;}
</style>
<g id="BACKGROUND">
</g>
<g id="OBJECTS">
	<g>
		<path class="st0" d="M196,3c107-2,206.5,71.7,162,168c-43,93-14.7,90.7,11,111c33,26,80,133-143.4,128.8
			C112.2,408.7-24.8,378.2,6,269c22-78,125,51,90-40C59.7,134.5,101,4.8,196,3z"/>
		<g>
			<path class="st1" d="M69.7,396.5c4.1-8.9,11.4-35.1,0.2-40.6c-7.1-3.4-9.2,2.4-9.2,2.4s5.1-28.6-7-28.7c-7.1,0-8.3,8.1-8.3,8.1
				s-3.8-9-8.5-11.6c-10.2-5.7-22.4,0.2-13,16.2c2.6,4.3,6.1,7.5,6.1,7.5s-10.7-4-11.7,3.6s19.2,19.7,19.2,19.7s-6,0.2-6.3,7.2
				c-0.3,9.4,19.2,16.1,19.2,16.1L69.7,396.5L69.7,396.5z"/>
			<path class="st2" d="M31.1,333.1c13.3,19.4,24.1,25.2,33,61.4"/>
		</g>
		<g>
			<path class="st3" d="M78.7,396.5c-0.4-13.3,19.2-40.8,7.3-47.5c-7.4-4.2-9.5,3.4-9.5,3.4s16.8-28.4,0.7-30.3
				c-5.6-0.7-8.8,7.5-8.8,7.5s-0.1-14.6-4.6-20.1c-7.3-8.9-22.6-3.9-19,15.3c2,10.6,9.2,14.7,9.2,14.7s-7.3-5.6-10.8,1.8
				c-4.7,9.9,11,22.6,11,22.6s-7-5.2-11.7,3.3c-6.3,11.5,17.6,29.3,17.6,29.3L78.7,396.5L78.7,396.5z"/>
			<path class="st2" d="M57.5,320.1c9,22.8,13.6,47.8,15.6,74.2"/>
		</g>
		<g>
			<path class="st1" d="M340.1,396.5c3.4-12.6-13.1-37.5-0.3-43.9c8-4,12.3,0.1,12.3,0.1s-9.5-25.1,6.2-26.9
				c5.5-0.6,7.1,4.2,7.1,4.2s2.2-7.4,8-12.1c11.1-8.8,25.6-5.6,17.8,12.8c-4.3,10.1-7.6,11.5-7.6,11.5s7.7-1.5,9.4,5.5
				c2.2,9.4-16.3,25.1-16.3,25.1s6.6,0.6,7.5,5.6c1.9,11-21.4,18-21.4,18L340.1,396.5L340.1,396.5z"/>
			<path class="st4" d="M386.4,319.8c-21.3,17.3-22.1,52.5-32.9,72.8"/>
		</g>
		<g>
			<path class="st3" d="M330.5,396.5c-7.7-12.7-24.5-49.9-12.2-57.6c7.7-4.9,12,3.5,12,3.5s-14.8-40.7,0.2-40.8
				c8.7-0.1,12.6,11.5,12.6,11.5s3-11.9,7.1-19.1c9.5-16.5,31.9-9.9,24,16.3c-2,6.6-8,15.1-8,15.1s13.9-0.8,13.5,11.2
				c-0.3,11.4-19.6,22.1-19.6,22.1s12.8-2.8,15.1,7.1c3.2,13.4-25,30.9-25,30.9h-19.7V396.5z"/>
			<path class="st4" d="M363.5,300.5c-10.7,36.4-26.5,41.8-26.7,93.2"/>
		</g>
		<g>
			<path class="st5" d="M201.3,396.5c-13,0-12.4,0-14.7,0c-10.2,0-26.2-28.7-26.2-39.8c0-11.1,15.9-40.4,26.2-40.4
				c5.1,0,1.6,0,14.7,0c13.1,0,23.4,4.1,30.7,12.1c7,7.7,10.6,17.2,10.6,28.3c0,11.2-3.6,20.6-10.7,28.2
				C224.6,392.6,214.3,396.5,201.3,396.5z M162.4,281.6l0.2-11.5c0.4-19.9,3.1-35.4,8.2-47.5c5.2-12.2,15.2-24.9,30.5-39.1l0.2-0.2
				l35.4-30.9c12.9-12.4,19.2-25,19.2-38.6c0-12.9-3.7-22.5-11.3-29.5c-7.8-7.1-19.8-10.7-35.9-10.7c-15.9,0-28.7,3.4-37.9,10.2
				c-8.4,6.2-12.3,13.9-12.3,24.3v11.3H85.8l0.2-11.5c0.4-28.5,12.5-51.7,36-69.2c22.5-16.7,51.8-25.2,87.1-25.2
				c36.8,0,66.1,8.7,87.2,25.9c21.8,17.8,32.8,42.3,32.8,72.8c0,30.1-16.1,59.6-47.8,87.8l-0.2,0.2l-29.4,24.6
				c-10.8,10.3-16.1,25.1-16.1,45.2v11.3h-73.2V281.6z"/>
			<path class="st6" d="M186.6,396.5c-13,0-23.3-3.9-30.5-11.7c-7-7.5-10.5-17-10.5-28.1s3.5-20.6,10.3-28.2
				c7.2-8.1,17.5-12.1,30.6-12.1s23.4,4.1,30.7,12.1c7,7.7,10.6,17.2,10.6,28.3c0,11.2-3.6,20.6-10.7,28.2
				C209.8,392.6,199.6,396.5,186.6,396.5z M147.6,281.6l0.2-11.5c0.4-19.9,3.1-35.4,8.2-47.5c5.2-12.2,15.2-24.9,30.5-39.1l0.2-0.2
				l35.4-30.9c12.9-12.4,19.2-25,19.2-38.6c0-12.9-3.7-22.5-11.3-29.5c-7.8-7.1-19.8-10.7-35.9-10.7c-15.9,0-28.7,3.4-37.9,10.2
				c-8.4,6.2-12.3,13.9-12.3,24.3v11.3H71l0.2-11.5c0.4-28.5,12.5-51.7,36-69.2C129.7,22,159,13.5,194.3,13.5
				c36.8,0,66.1,8.7,87.2,25.9c21.8,17.8,32.8,42.3,32.8,72.8c0,30.1-16.1,59.6-47.8,87.8l-0.2,0.2l-29.4,24.6
				c-10.8,10.3-16.1,25.1-16.1,45.2v11.3h-73.2V281.6z"/>
		</g>
		<g>
			<ellipse class="st7" cx="45.9" cy="90.5" rx="45.9" ry="45.9"/>
			<path class="st8" d="M30.3,90.5c0,3.2-2.6,5.9-5.9,5.9s-5.9-2.6-5.9-5.9c0-3.2,2.6-5.9,5.9-5.9S30.3,87.3,30.3,90.5z"/>
			<path class="st8" d="M51.8,90.5c0,3.2-2.6,5.9-5.9,5.9c-3.2,0-5.9-2.6-5.9-5.9c0-3.2,2.6-5.9,5.9-5.9
				C49.1,84.7,51.8,87.3,51.8,90.5z"/>
			<path class="st8" d="M73.2,90.5c0,3.2-2.6,5.9-5.9,5.9c-3.2,0-5.9-2.6-5.9-5.9c0-3.2,2.6-5.9,5.9-5.9
				C70.6,84.7,73.2,87.3,73.2,90.5z"/>
			<path class="st7" d="M43.9,133.1c0,0,4.7,11.6,23.5,12.2c0,0-8-5.7-8.1-15.3L43.9,133.1z"/>
		</g>
		<g>
			<ellipse class="st7" cx="342.3" cy="177.6" rx="65.4" ry="65.4"/>
			<path class="st8" d="M364.5,177.6c0,4.6,3.7,8.3,8.3,8.3c4.6,0,8.3-3.7,8.3-8.3s-3.7-8.3-8.3-8.3
				C368.3,169.3,364.5,173,364.5,177.6z"/>
			<path class="st8" d="M334,177.6c0,4.6,3.7,8.3,8.3,8.3s8.3-3.7,8.3-8.3s-3.7-8.3-8.3-8.3S334,173,334,177.6z"/>
			<path class="st8" d="M303.4,177.6c0,4.6,3.7,8.3,8.3,8.3s8.3-3.7,8.3-8.3s-3.7-8.3-8.3-8.3S303.4,173,303.4,177.6z"/>
			<path class="st7" d="M345.2,238.2c0,0-6.7,16.5-33.4,17.4c0,0,11.5-8.2,11.5-21.7L345.2,238.2z"/>
		</g>
	</g>
</g>
</svg>
