<?xml version="1.0" encoding="utf-8"?>
<!-- Generator: Adobe Illustrator 22.0.1, SVG Export Plug-In . SVG Version: 6.00 Build 0)  -->
<svg version="1.1" xmlns="http://www.w3.org/2000/svg" xmlns:xlink="http://www.w3.org/1999/xlink" x="0px" y="0px" width="500px"
	 height="500px" viewBox="0 0 500 500" style="enable-background:new 0 0 500 500;" xml:space="preserve">
<style type="text/css">
	.st0{fill:#D268CC;}
	.st1{fill:#37474F;}
	.st2{fill:#FFFFFF;}
	.st3{fill:#455A64;}
	.st4{fill:#F5F5F5;}
	.st5{fill:#ECECEC;}
	.st6{fill:#FFC840;}
	.st7{fill:#C69710;}
	.st8{fill:#375A64;}
	.st9{opacity:0.2;}
	.st10{fill:#FFD876;}
	.st11{fill:#FCCF4F;}
	.st12{fill:#E1E1E1;}
	.st13{opacity:0.1;}
	.st14{fill:#FAFAFA;}
	.st15{fill:#2B454E;}
	.st16{fill:#1A2E35;}
</style>
<g id="Plants">
	<g id="Plants_6_">
		<g id="XMLID_1180_">
			<g id="XMLID_1185_">
				<path id="XMLID_1186_" class="st0" d="M55,301.9l8.7-5.6c0,0,4.2-22.3,1.1-42c-4.4-27.7-23.3-37.3-30.1-34.6
					c-6.9,2.8-8.5,11,3.9,27C45.8,256.2,55.2,276.2,55,301.9z"/>
			</g>
			<g id="XMLID_1183_">
				<path id="XMLID_1184_" class="st1" d="M55,301.9l8.7-5.6c0,0,4.2-22.3,1.1-42c-4.4-27.7-23.3-37.3-30.1-34.6
					c-6.9,2.8-8.5,11,3.9,27C45.8,256.2,55.2,276.2,55,301.9z"/>
			</g>
			<g id="XMLID_1181_">
				<path id="XMLID_1182_" class="st2" d="M58.1,290.9C58.1,290.9,58.1,290.9,58.1,290.9c-0.4-0.1-0.7-0.4-0.6-0.7
					c3.6-26-6.9-54.4-18.6-65.9c-0.2-0.2-0.2-0.6,0-0.9c0.2-0.2,0.6-0.2,0.9,0c11.9,11.7,22.6,40.6,19,66.9
					C58.7,290.7,58.4,290.9,58.1,290.9z"/>
			</g>
		</g>
		<g id="XMLID_1169_">
			<g id="XMLID_1178_">
				<path id="XMLID_1179_" class="st0" d="M33.2,316c-1.3,0.7-5-2.1-6-2.8c-1.8-1.2-3.2-2.8-4.1-4.7c-1.1-2.2-1.4-4.5-1-7
					c0.2-1.3,0.5-2.5,0.9-3.7c0.3-1.2,0.7-2.4,1-3.6c0.3-1.2,0.7-2.4,0.5-3.6c-0.3-2.5-2.5-4.2-4.5-5.7c-2.2-1.6-4.5-3.8-4.5-6.8
					c0-2.3,1.2-4.4,2.6-6.2c1.4-1.8,3.1-3.4,4.4-5.3c0.9-1.4,1.6-3,1.5-4.6c-0.1-1-0.5-2-1-2.9c-1-1.9-2.4-3.7-3.1-5.8
					c-0.7-2.1-0.6-4.6,1-6.1c1.3-1.2,3.3-1.4,5.1-1.3c1.7,0.1,3.3,0.9,4.7,1.7c4.7,2.6,7.4,8.2,12.4,10.2c1.9,0.8,4,0.9,6,1.5
					c2,0.5,4.1,1.6,5,3.4c1.8,3.7-1.6,8.2-0.3,12.1c1.1,3.4,4.5,4.8,6.4,7.8c0.8,1.4,1,2.9,0.9,4.5c-0.2,2.7-0.6,4.6-1.9,7.6
					c-1.1,2.5-4.2,7.2-4.2,7.2S33.4,315.9,33.2,316z"/>
			</g>
			<g id="XMLID_1176_">
				<path id="XMLID_1177_" class="st3" d="M33.2,316c-1.3,0.7-5-2.1-6-2.8c-1.8-1.2-3.2-2.8-4.1-4.7c-1.1-2.2-1.4-4.5-1-7
					c0.2-1.3,0.5-2.5,0.9-3.7c0.3-1.2,0.7-2.4,1-3.6c0.3-1.2,0.7-2.4,0.5-3.6c-0.3-2.5-2.5-4.2-4.5-5.7c-2.2-1.6-4.5-3.8-4.5-6.8
					c0-2.3,1.2-4.4,2.6-6.2c1.4-1.8,3.1-3.4,4.4-5.3c0.9-1.4,1.6-3,1.5-4.6c-0.1-1-0.5-2-1-2.9c-1-1.9-2.4-3.7-3.1-5.8
					c-0.7-2.1-0.6-4.6,1-6.1c1.3-1.2,3.3-1.4,5.1-1.3c1.7,0.1,3.3,0.9,4.7,1.7c4.7,2.6,7.4,8.2,12.4,10.2c1.9,0.8,4,0.9,6,1.5
					c2,0.5,4.1,1.6,5,3.4c1.8,3.7-1.6,8.2-0.3,12.1c1.1,3.4,4.5,4.8,6.4,7.8c0.8,1.4,1,2.9,0.9,4.5c-0.2,2.7-0.6,4.6-1.9,7.6
					c-1.1,2.5-4.2,7.2-4.2,7.2S33.4,315.9,33.2,316z"/>
			</g>
			<g id="XMLID_1174_">
				<path id="XMLID_1175_" class="st2" d="M45.8,308.6C45.8,308.6,45.8,308.6,45.8,308.6c-0.3,0-0.6-0.3-0.6-0.6
					c1-23.2-10-48.9-17.9-56.4c-0.2-0.2-0.2-0.6,0-0.8c0.2-0.2,0.6-0.2,0.8,0c8.1,7.6,19.3,33.7,18.3,57.3
					C46.4,308.4,46.1,308.6,45.8,308.6z"/>
			</g>
			<g id="XMLID_1171_">
				<path id="XMLID_1173_" class="st2" d="M42,280.2c-0.1,0-0.1,0-0.2,0c-7.5-2.3-16.8-2.7-16.9-2.7c-0.3,0-0.6-0.3-0.6-0.6
					c0-0.3,0.3-0.6,0.6-0.6c0.1,0,9.6,0.4,17.2,2.8c0.3,0.1,0.5,0.4,0.4,0.7C42.5,280.1,42.3,280.2,42,280.2z"/>
			</g>
		</g>
	</g>
</g>
<g id="Floor">
	<ellipse id="Floor_5_" class="st4" cx="253.7" cy="351.7" rx="231" ry="133.4"/>
</g>
<g id="Shadows">
</g>
<g id="Clouds">
	<path id="Cloud_2_" class="st5" d="M219.9,98.1l-11.5,6.6c0.1-0.5,0.1-1,0.1-1.5v-3.3c0-5.9-4.1-8.3-9.3-5.3
		c-2.1,1.2-4,3.1-5.5,5.3c-0.8-7.4-6.7-10.2-13.7-6.1c-7.7,4.4-13.9,15.2-13.9,24v5c0,2.3,0.4,4.2,1.2,5.8l-9.5,5.5
		c-2.8,1.6-5.1,5.6-5.1,8.9c0,3.3,2.3,4.6,5.1,3l62.1-35.8c2.8-1.6,5.1-5.6,5.1-8.9C225,97.8,222.7,96.4,219.9,98.1z"/>
	<path id="Cloud_1_" class="st5" d="M68.9,127.8l6.5-5v-14.2c0-11.3,9-24.4,18.8-30l0,0c9.8-5.6,17.7-1.1,17.7,10.2v2.1
		c2.2-3.4,5.1-6.4,8.2-8.2l0,0c7-4.1,12.7-0.8,12.7,7.3V91l9-5.2c4.6-2.7,8.4-0.5,8.4,4.8s-3.8,11.8-8.4,14.5l-72.8,42
		c-4.6,2.7-8.4,0.5-8.4-4.8S64.3,130.5,68.9,127.8z"/>
</g>
<g id="Glass">
</g>
<g id="Paper_Planes">
	<g id="Paper_Plane_3_">
		<g>
			<g id="XMLID_373_">
				<polygon class="st0" points="150.2,439.8 90.2,409.8 66.3,420.3 				"/>
			</g>
			<g id="XMLID_372_">
				<polygon class="st6" points="150.2,439.8 90.2,409.8 66.3,420.3 				"/>
			</g>
			<g id="XMLID_359_">
				<polygon class="st0" points="150.2,439.8 97.4,404.4 106.8,390.8 				"/>
			</g>
			<g id="XMLID_358_">
				<polygon class="st6" points="150.2,439.8 97.4,404.4 106.8,390.8 				"/>
			</g>
			<g id="XMLID_357_">
				<polygon class="st0" points="97.4,404.4 98.4,413.8 150.2,439.8 				"/>
			</g>
			<g id="XMLID_356_">
				<polygon class="st7" points="97.4,404.4 98.4,413.8 150.2,439.8 				"/>
			</g>
		</g>
		<g>
			<g>
				<g>
					<path class="st8" d="M88.8,402.6c0.1,0,0.3-0.1,0.4-0.2c0.2-0.2,0.3-0.7,0.1-0.9c-0.4-0.5-0.8-1-1.2-1.5
						c-0.2-0.3-0.6-0.3-0.8-0.1c-0.3,0.2-0.3,0.6-0.1,0.9c0.4,0.5,0.8,1,1.2,1.5C88.5,402.6,88.6,402.6,88.8,402.6z"/>
				</g>
			</g>
			<g>
				<g>
					<path class="st8" d="M83.5,395.8c-0.7-1-1.4-2.1-2.1-3.2c-0.2-0.3-0.1-0.7,0.1-0.9c0.3-0.2,0.6-0.1,0.8,0.2
						c0.7,1,1.3,2.1,2,3.1c0.2,0.3,0.1,0.7-0.1,0.9c-0.1,0.1-0.2,0.1-0.4,0.1C83.8,396.1,83.6,396,83.5,395.8z M78.2,387.2
						c-0.6-1.1-1.2-2.2-1.8-3.4c-0.2-0.3-0.1-0.7,0.2-0.9c0.3-0.2,0.6-0.1,0.8,0.3c0.6,1.1,1.1,2.2,1.8,3.3c0.2,0.3,0.1,0.7-0.2,0.9
						c-0.1,0.1-0.2,0.1-0.3,0.1C78.5,387.5,78.4,387.4,78.2,387.2z M73.8,378.1c-0.5-1.2-1-2.4-1.4-3.6c-0.1-0.3,0-0.7,0.3-0.9
						c0.3-0.1,0.7,0,0.8,0.4c0.4,1.2,0.9,2.4,1.4,3.5c0.1,0.3,0,0.7-0.3,0.9c-0.1,0-0.2,0.1-0.3,0.1
						C74.1,378.4,73.9,378.3,73.8,378.1z M70.3,368.4c-0.4-1.3-0.7-2.5-1-3.7c-0.1-0.4,0.1-0.7,0.4-0.8c0.3-0.1,0.6,0.1,0.7,0.5
						c0.3,1.2,0.6,2.5,1,3.7c0.1,0.3-0.1,0.7-0.4,0.8c-0.1,0-0.1,0-0.2,0C70.6,368.8,70.4,368.7,70.3,368.4z M68,358.3
						c-0.2-1.3-0.4-2.6-0.5-3.9c0-0.4,0.2-0.7,0.5-0.7c0.3,0,0.6,0.2,0.7,0.6c0.1,1.3,0.3,2.5,0.5,3.8c0.1,0.4-0.2,0.7-0.5,0.8
						c0,0-0.1,0-0.1,0C68.3,358.8,68.1,358.6,68,358.3z M67,347.9c0-1-0.1-2-0.1-3.1l0-0.8c0-0.4,0.3-0.6,0.6-0.6c0,0,0,0,0,0
						c0.3,0,0.6,0.3,0.6,0.7l0,0.8c0,1,0,2,0.1,3c0,0.4-0.2,0.7-0.6,0.7c0,0,0,0,0,0C67.3,348.5,67,348.3,67,347.9z M67.8,338.2
						c-0.3,0-0.6-0.4-0.5-0.7c0.1-1.3,0.3-2.6,0.4-3.9c0-0.4,0.3-0.6,0.7-0.6c0.3,0.1,0.6,0.4,0.5,0.7c-0.2,1.3-0.3,2.6-0.4,3.8
						C68.4,338,68.2,338.2,67.8,338.2C67.8,338.2,67.8,338.2,67.8,338.2z M69.2,328c-0.3-0.1-0.5-0.4-0.4-0.8
						c0.3-1.3,0.6-2.5,0.9-3.8c0.1-0.3,0.4-0.5,0.7-0.4c0.3,0.1,0.5,0.5,0.4,0.8c-0.3,1.2-0.6,2.5-0.9,3.7c-0.1,0.3-0.3,0.5-0.6,0.5
						C69.3,328,69.2,328,69.2,328z M71.9,318.1c-0.3-0.1-0.5-0.5-0.3-0.9c0.4-1.2,0.9-2.4,1.4-3.6c0.1-0.3,0.5-0.5,0.8-0.3
						c0.3,0.2,0.4,0.5,0.3,0.9c-0.5,1.2-1,2.3-1.4,3.5c-0.1,0.3-0.3,0.4-0.6,0.4C72,318.2,72,318.1,71.9,318.1z M75.9,308.8
						c-0.3-0.2-0.4-0.6-0.2-0.9c0.6-1.1,1.2-2.2,1.9-3.3c0.2-0.3,0.6-0.4,0.8-0.2c0.3,0.2,0.3,0.6,0.2,0.9c-0.6,1.1-1.3,2.1-1.9,3.2
						c-0.1,0.2-0.3,0.3-0.5,0.3C76.1,308.9,76,308.9,75.9,308.8z M81.3,300.3c-0.3-0.2-0.3-0.6-0.1-0.9c0.8-1,1.5-2,2.3-2.9
						c0.2-0.3,0.6-0.3,0.8,0c0.2,0.2,0.3,0.7,0,0.9c-0.8,0.9-1.6,1.9-2.3,2.9c-0.1,0.2-0.3,0.2-0.5,0.2
						C81.5,300.5,81.4,300.4,81.3,300.3z M87.7,292.8c-0.2-0.3-0.2-0.7,0.1-0.9c0.9-0.9,1.8-1.7,2.7-2.5c0.3-0.2,0.6-0.2,0.8,0.1
						c0.2,0.3,0.2,0.7-0.1,0.9c-0.9,0.8-1.8,1.6-2.7,2.5c-0.1,0.1-0.3,0.2-0.4,0.2C88,293.1,87.8,293,87.7,292.8z M95.1,286.5
						c-0.2-0.3-0.1-0.7,0.2-0.9c1-0.7,2-1.4,3-2c0.3-0.2,0.6-0.1,0.8,0.3c0.2,0.3,0.1,0.7-0.2,0.9c-1,0.6-2,1.3-3,2
						c-0.1,0.1-0.2,0.1-0.3,0.1C95.4,286.8,95.2,286.7,95.1,286.5z"/>
				</g>
			</g>
			<g>
				<g>
					<path class="st8" d="M103.9,282.2c0.1,0,0.1,0,0.2,0c0.6-0.2,1.2-0.4,1.6-0.4c0.3-0.1,0.6-0.4,0.5-0.7c0-0.4-0.4-0.6-0.7-0.6
						c-0.5,0.1-1.1,0.2-1.8,0.5c-0.3,0.1-0.5,0.5-0.4,0.8C103.4,282,103.6,282.2,103.9,282.2z"/>
				</g>
			</g>
		</g>
	</g>
	<g id="Paper_Plane_2_">
		<g id="XMLID_16655_">
			<polygon id="XMLID_16653_" class="st0" points="403.7,179.8 342.2,161 389.6,193.5 			"/>
			<polygon id="XMLID_383_" class="st6" points="403.7,179.8 342.2,161 389.6,193.5 			"/>
			<polygon id="XMLID_16654_" class="st0" points="342.2,161 408.4,171.6 422.5,157.9 			"/>
			<polygon id="XMLID_386_" class="st6" points="342.2,161 408.4,171.6 422.5,157.9 			"/>
			<polygon id="XMLID_16619_" class="st0" points="408.4,171.6 408.4,188 403.7,179.8 342.2,161 			"/>
			<polygon id="XMLID_382_" class="st7" points="408.4,171.6 408.4,188 403.7,179.8 342.2,161 			"/>
			<polygon id="XMLID_16671_" class="st6" points="408.4,188 399,184.4 403.7,179.8 			"/>
			<polygon id="XMLID_377_" class="st9" points="403.7,179.8 399,184.4 400.5,185 			"/>
		</g>
		<g>
			<g>
				<g>
					<path class="st8" d="M420.9,176.9c-0.1,0.1-0.2,0.2-0.2,0.4c-0.1,0.3,0.2,0.7,0.5,0.8c0.6,0.2,1.2,0.3,1.8,0.5
						c0.3,0.1,0.7-0.1,0.7-0.4c0.1-0.3-0.2-0.7-0.5-0.8c-0.6-0.2-1.2-0.3-1.8-0.5C421.2,176.8,421,176.8,420.9,176.9z"/>
				</g>
			</g>
			<g>
				<g>
					<path class="st8" d="M429.2,179.2c1.2,0.4,2.4,0.8,3.6,1.3c0.3,0.1,0.5,0.5,0.4,0.8c-0.1,0.3-0.4,0.5-0.8,0.4
						c-1.2-0.4-2.3-0.8-3.5-1.2c-0.3-0.1-0.5-0.5-0.5-0.8c0-0.1,0.1-0.2,0.2-0.3C428.8,179.1,429,179.1,429.2,179.2z M438.6,182.8
						c1.2,0.5,2.3,1,3.5,1.6c0.3,0.2,0.5,0.5,0.4,0.9c-0.1,0.3-0.5,0.4-0.8,0.3c-1.1-0.5-2.3-1.1-3.4-1.6c-0.3-0.1-0.5-0.5-0.4-0.8
						c0-0.1,0.1-0.2,0.2-0.3C438.2,182.7,438.4,182.7,438.6,182.8z M447.7,187.4c1.1,0.6,2.2,1.3,3.3,2c0.3,0.2,0.4,0.6,0.3,0.9
						c-0.2,0.3-0.5,0.4-0.8,0.2c-1.1-0.7-2.1-1.3-3.2-2c-0.3-0.2-0.4-0.6-0.3-0.9c0-0.1,0.1-0.2,0.2-0.2
						C447.2,187.3,447.5,187.3,447.7,187.4z M456.3,193c1,0.8,2.1,1.6,3.1,2.4c0.3,0.2,0.4,0.6,0.2,0.9c-0.2,0.3-0.6,0.3-0.9,0.1
						c-1-0.8-2-1.6-3-2.3c-0.3-0.2-0.4-0.6-0.2-0.9c0-0.1,0.1-0.1,0.1-0.1C455.8,192.8,456.1,192.8,456.3,193z M464.3,199.6
						c0.9,0.9,1.9,1.8,2.8,2.7c0.3,0.3,0.3,0.7,0,0.9c-0.2,0.2-0.6,0.2-0.9-0.1c-0.9-0.9-1.8-1.8-2.7-2.7c-0.3-0.2-0.3-0.7-0.1-0.9
						c0,0,0.1-0.1,0.1-0.1C463.7,199.4,464,199.4,464.3,199.6z M471.4,207.3c0.6,0.8,1.3,1.6,1.9,2.4l0.5,0.7
						c0.2,0.3,0.2,0.7-0.1,0.9c0,0,0,0,0,0c-0.3,0.2-0.7,0.1-0.9-0.2l-0.5-0.7c-0.6-0.8-1.2-1.6-1.9-2.4c-0.2-0.3-0.2-0.7,0-0.9
						c0,0,0,0,0,0C470.8,206.9,471.1,207,471.4,207.3z M476.6,215.5c0.3-0.2,0.7-0.1,0.9,0.2c0.7,1.1,1.4,2.2,2,3.3
						c0.2,0.3,0.1,0.7-0.2,0.9c-0.3,0.2-0.7,0-0.9-0.3c-0.6-1.1-1.3-2.2-2-3.3C476.3,216,476.3,215.7,476.6,215.5
						C476.6,215.5,476.6,215.5,476.6,215.5z M481.7,224.4c0.3-0.1,0.7,0,0.8,0.4c0.6,1.2,1.1,2.4,1.6,3.6c0.1,0.3,0,0.7-0.3,0.8
						c-0.3,0.1-0.7-0.1-0.8-0.4c-0.5-1.2-1-2.3-1.6-3.5c-0.1-0.3-0.1-0.6,0.2-0.8C481.6,224.5,481.6,224.4,481.7,224.4z
						 M485.5,233.9c0.3-0.1,0.7,0.1,0.8,0.5c0.4,1.2,0.7,2.5,1.1,3.7c0.1,0.3-0.1,0.7-0.4,0.7c-0.3,0.1-0.7-0.2-0.8-0.5
						c-0.3-1.2-0.7-2.4-1-3.6c-0.1-0.3,0-0.5,0.2-0.7C485.4,234,485.4,233.9,485.5,233.9z M487.9,243.8c0.3,0,0.7,0.2,0.7,0.6
						c0.2,1.3,0.4,2.5,0.5,3.8c0,0.4-0.2,0.6-0.6,0.6c-0.3,0-0.6-0.3-0.7-0.6c-0.1-1.2-0.3-2.5-0.5-3.7c0-0.2,0.1-0.4,0.2-0.6
						C487.7,243.8,487.8,243.8,487.9,243.8z"/>
				</g>
			</g>
		</g>
	</g>
</g>
<g id="Stars_1_">
</g>
<g id="FAQ_1_">
	<g id="Speech_Bubble_3_">
		<g id="Speech_Bubble_12_">
			<g>
				<path class="st0" d="M282.9,279.5l-60.6,35.1l24.1,41c0.5,1.2,1.3,2,2.3,2.6c2.9,1.6,19.9,11.5,20.8,12c2.9,1.7,7,0.5,8.1-3.2
					l26.2-75.4L282.9,279.5z"/>
				<path class="st7" d="M282.9,279.5l-60.6,35.1l24.1,41c0.5,1.2,1.3,2,2.3,2.6c2.9,1.6,19.9,11.5,20.8,12c2.9,1.7,7,0.5,8.1-3.2
					l26.2-75.4L282.9,279.5z"/>
				<path class="st6" d="M243.1,326.6l24.1,41c2.1,4.7,8.9,4.3,10.4-0.7l26.2-75.4L243.1,326.6z"/>
			</g>
			<g>
				<path id="XMLID_355_" class="st10" d="M350.4,69.6l-228.7,132c-2.9,1.7-5.2,5.7-5.2,9.1v158.7c0,3.3,2.4,7.4,5.3,9l18.8,10.5
					c2.9,1.6,7.6,1.6,10.5-0.1l228.7-132c2.9-1.7,5.2-5.7,5.2-9.1V89.1c0-3.3-2.4-7.4-5.3-9L361,69.5
					C358,67.9,353.3,67.9,350.4,69.6z"/>
				<path id="XMLID_345_" class="st11" d="M385.1,88c-0.4-2.6-2.6-3.6-5.2-2.1L151.2,218c-1.5,0.8-2.8,2.3-3.7,3.9l-29.3-16.7
					c0.9-1.6,2.2-2.9,3.6-3.7l228.7-132c2.9-1.7,7.6-1.7,10.5,0l18.8,10.5C382.6,81.4,384.8,84.9,385.1,88z"/>
				<path id="XMLID_304_" class="st6" d="M146,386.4V227.7c0-3.3,2.4-7.4,5.2-9.1l228.7-132c2.9-1.7,5.2-0.3,5.2,3v158.7
					c0,3.3-2.4,7.4-5.2,9.1l-228.7,132C148.3,391.1,146,389.7,146,386.4z"/>
				<path id="XMLID_284_" class="st7" d="M151.2,388.8c-2.8,1.6-7.9,1.7-10.5,0.1l-18.8-10.6c-2.9-1.6-5.3-5.7-5.3-9V210.6
					c0-1.7,0.7-3.7,1.7-5.4l29.2,16.7c-1,1.6-1.6,3.5-1.6,5.2v158.7C146,388.8,148.1,390.6,151.2,388.8z"/>
			</g>
		</g>
		<g id="FAQ">
			<g>
				<path class="st12" d="M210.2,259.3l-2.3-1.3c-1.8-1-4-1-5.7,0l-13.9,8v-19l25.8-14.9c2.5-1.4,4-4.1,4-7v-10.7c0-2.9-1.5-5.5-4-7
					l0,0c-2.5-1.4-5.5-1.4-8,0l-35.8,20.7c-4.3,2.5-7,7.1-7,12.1v99.1c0,2.9,1.5,5.5,4,7l0,0c2.5,1.4,5.5,1.4,8,0l8.9-5.2
					c2.5-1.4,4-4.1,4-7v-38.9l22-12.7c1.8-1,2.9-2.9,2.9-5v-13.4C213,262.2,211.9,260.3,210.2,259.3z"/>
				<path class="st13" d="M176,345.9l-0.8,0.4c-1.2,0.7-2.6,1.1-4,1.1c-1.4,0-2.8-0.4-4-1.1c-2.5-1.4-4-4.1-4-6.9v-99.1
					c0-2.3,0.6-4.6,1.7-6.6l8,4.6c-1.1,2-1.7,4.2-1.7,6.6v98.2C171.3,345.5,173.9,347.1,176,345.9z"/>
				<path class="st14" d="M188.2,247v28.3l21.9-12.7c1.3-0.7,2.9,0.2,2.9,1.7v13.4c0,2-1.1,3.9-2.9,4.9l-22,12.7v38.9
					c0,2.9-1.5,5.5-4,6.9l-8.1,4.7c-2.1,1.2-4.8-0.3-4.8-2.8v-98.2c0-5,2.7-9.6,7-12.1l35.4-20.5c1.9-1.1,4.4,0.3,4.4,2.5v10.3
					c0,2.8-1.5,5.5-4,6.9L188.2,247z"/>
			</g>
			<g>
				<path class="st12" d="M264.7,187.1c-0.7-2.3-2.2-4.3-4.4-5.5c-1.5-0.8-3.1-1.3-4.7-1.3c-1.6,0-3.3,0.4-4.7,1.3l-8.9,5.1
					c-2.3,1.3-4,3.6-4.5,6.2l-26.4,120.4c-0.5,2.1,0.5,4.3,2.4,5.3l2.4,1.4c1.5,0.9,3.4,0.9,4.9,0l10.7-6.2c1.4-0.8,2.6-2.1,3.5-3.8
					c0.9-1.7,1.6-3.4,2-5l4.3-22l21.6-12.5l2.2,8.9c0.5,1.4,1.1,2.3,2,2.8c0.9,0.5,7.1,4.1,8,4.6c0.9,0.5,2.1,0.4,3.5-0.5l13.1-7.5
					L264.7,187.1z M247.2,252.8l4.6-23.9c0.1-0.4,0.2-0.8,0.3-1.3l4.9,19.5L247.2,252.8z"/>
				<path class="st13" d="M275.1,287c-1.2-0.7-7.1-4.1-7.9-4.6c-0.9-0.5-1.6-1.5-2-2.8l-2.2-8.9l6-3.5l4.3,17
					C273.6,285.5,274.2,286.5,275.1,287z"/>
				<path class="st13" d="M265,251.8l-8-4.6l-4.9-19.5c0,0,0,0,0,0c0,0,0-0.1,0-0.1c0.4-1.9,0.8-4.1,1.3-6.5c0.6-3,1.1-6.2,1.6-9.6
					c0.6,2.7,1.1,5.3,1.7,7.6c0.6,2.3,1.1,4.3,1.6,5.9L265,251.8z"/>
				<path class="st13" d="M219.2,317.3c-0.3,1.4,1,2.6,2.3,2.2l0,0.1l-0.8,0.4c-1.5,0.9-3.4,0.9-4.9,0l-2.4-1.4
					c-1.9-1.1-2.8-3.2-2.4-5.3l26.4-120.4c0.2-1.1,0.7-2.2,1.3-3.1l8,4.6c-0.6,0.9-1.1,2-1.3,3.1L219.2,317.3z"/>
				<path class="st14" d="M291.8,279.1l-13.1,7.5c-1.5,0.8-2.6,1-3.5,0.5c-0.9-0.5-1.6-1.5-2-2.8l-4.3-17l-27.6,15.9l-4.3,22
					c-0.4,1.6-1,3.3-2,5c-0.9,1.7-2.1,2.9-3.5,3.8l-9.5,5.5c-1.4,0.8-3.1-0.4-2.8-2l26.3-119.8c0.6-2.6,2.2-4.8,4.5-6.2l8.5-4.9
					c2.6-1.5,5.9-0.2,6.8,2.7L291.8,279.1z M265,251.8l-6.7-26.7c-0.5-1.7-1-3.6-1.6-5.9c-0.6-2.3-1.1-4.8-1.7-7.6
					c-0.5,3.4-1,6.6-1.6,9.6c-0.6,3-1.1,5.6-1.6,7.8l-6.7,34.3L265,251.8z"/>
			</g>
			<g>
				<path class="st12" d="M354.3,233c2.3-3.9,4.3-8,6.1-12.3c1.8-4.4,3.3-8.8,4.5-13.4c1.2-4.6,2.1-9.3,2.8-14.1
					c0.6-4.8,1-9.6,1-14.4c0-8-0.9-15-2.7-20.9c-1.8-5.9-4.4-10.5-7.6-13.7c-1.2-1.1-2.4-2.1-3.8-2.9c-1.3-0.8-6.6-3.8-7.9-4.6
					c-2.5-1.4-5.2-2.2-8.2-2.4c-4.6-0.3-9.8,1.2-15.4,4.5c-5.7,3.3-10.8,7.7-15.5,13.3c-4.7,5.6-8.6,11.9-11.9,18.9
					c-3.3,7-5.9,14.5-7.7,22.5c-1.8,8-2.7,16-2.7,24.1c0,8.1,0.9,15.1,2.7,21c1.8,5.9,4.4,10.5,7.7,13.7c1.2,1.2,2.5,2.1,3.8,2.9
					c1.3,0.7,6.5,3.8,7.8,4.5c2.5,1.5,5.2,2.3,8.3,2.4c4.6,0.2,9.8-1.3,15.5-4.5c2.4-1.4,4.7-3,6.8-4.7l3.3,3.8
					c0.5,0.5,1,0.9,1.5,1.2c0.9,0.5,7.5,4.3,8,4.6c0.9,0.6,1.9,0.8,2.9,0.7c1.6-0.1,3.4-0.8,5.4-1.9l13.9-8L354.3,233z M341.9,199.9
					c-0.9,5-2.3,9.5-4,13.6c-1.7,4.1-3.9,7.7-6.4,10.7c-2.5,3.1-5.4,5.5-8.6,7.4c-3,1.7-5.7,2.6-8.1,2.6c-1.3-1.9-2.3-4.5-3-7.6
					c-0.9-3.9-1.4-8.6-1.4-14.2c0-5.5,0.5-10.8,1.4-15.7c0.9-5,2.3-9.5,4-13.6c1.7-4.1,3.9-7.7,6.4-10.8c2.5-3.1,5.4-5.6,8.7-7.5
					c2.9-1.7,5.6-2.5,7.9-2.5c1.3,2,2.3,4.5,3.1,7.7c0.9,3.9,1.4,8.6,1.4,14.1C343.3,189.7,342.8,194.9,341.9,199.9z"/>
				<path class="st13" d="M306.8,259.6c-1.7-1-6.3-3.6-7.5-4.3c-1.4-0.8-2.7-1.7-3.8-2.9c-3.3-3.2-5.9-7.8-7.7-13.7
					c-1.8-5.9-2.7-12.9-2.7-21c0-8.1,0.9-16.1,2.7-24.1c1.7-7.4,4-14.4,7-21l8,4.6c-3,6.6-5.3,13.6-7,21c-1.8,8-2.7,16-2.7,24.1
					c0,8.1,0.9,15.1,2.7,21c1.8,5.9,4.4,10.5,7.7,13.7C304.5,258.1,305.7,258.9,306.8,259.6z"/>
				<path class="st13" d="M345.9,165.7c-1.7-2.1-3.9-3.2-6.4-3.4c-0.2,0-0.5,0-0.7,0c1.3,2,2.3,4.5,3.1,7.7
					c0.9,3.9,1.4,8.6,1.4,14.1c0,5.6-0.5,10.8-1.4,15.8c-0.9,5-2.3,9.5-4,13.6c-1.7,4.1-3.9,7.7-6.4,10.7c-2.5,3.1-5.4,5.5-8.6,7.4
					c-3,1.7-5.7,2.6-8.1,2.6c0.3,0.5,0.6,0.9,1,1.3c1.7,2.1,3.9,3.2,6.4,3.3c2.5,0.1,5.4-0.7,8.7-2.6c3.2-1.9,6.1-4.3,8.6-7.4
					c2.5-3.1,4.7-6.6,6.4-10.7c1.8-4.1,3.1-8.6,4-13.6c0.9-5,1.4-10.2,1.4-15.8c0-5.5-0.5-10.2-1.4-14.1
					C349,170.7,347.7,167.7,345.9,165.7z"/>
				<path class="st13" d="M340,251c-0.8,0.7-1.5,1.3-2.3,2l3.3,3.8c0.5,0.5,1,0.9,1.5,1.2c0.9,0.5,7.1,4.1,7.9,4.6
					c-0.5-0.3-0.9-0.7-1.4-1.1L340,251z"/>
				<path class="st14" d="M372.7,253.3l-13.9,8c-2,1.2-3.8,1.8-5.4,1.9c-1.6,0.1-3.1-0.5-4.4-1.9l-9-10.4c-2.8,2.6-5.9,4.8-9.1,6.7
					c-5.6,3.3-10.8,4.8-15.5,4.5c-4.7-0.2-8.6-2-11.9-5.2c-3.3-3.2-5.9-7.8-7.7-13.7c-1.8-5.9-2.7-12.9-2.7-21
					c0-8.1,0.9-16.1,2.7-24.1c1.8-8,4.4-15.5,7.7-22.5c3.3-7,7.3-13.3,11.9-18.9c4.7-5.6,9.8-10,15.5-13.3
					c5.6-3.3,10.8-4.8,15.4-4.5c4.6,0.3,8.6,2,11.9,5.2c3.3,3.2,5.8,7.8,7.7,13.7c1.8,5.9,2.7,12.9,2.7,20.9c0,4.8-0.3,9.6-1,14.4
					c-0.6,4.8-1.6,9.5-2.8,14.1c-1.2,4.6-2.7,9.1-4.5,13.4c-1.8,4.4-3.8,8.5-6.1,12.3L372.7,253.3z M310.4,212.4
					c0,5.6,0.5,10.3,1.4,14.2c0.9,3.9,2.3,6.9,4,8.9c1.7,2.1,3.9,3.2,6.4,3.3c2.5,0.1,5.4-0.7,8.7-2.6c3.2-1.9,6.1-4.3,8.6-7.4
					c2.5-3.1,4.7-6.6,6.4-10.7c1.7-4.1,3.1-8.6,4-13.6c0.9-5,1.4-10.2,1.4-15.8c0-5.5-0.5-10.2-1.4-14.1c-0.9-3.9-2.3-6.9-4-8.9
					c-1.7-2.1-3.9-3.2-6.4-3.4c-2.5-0.2-5.4,0.7-8.6,2.5c-3.3,1.9-6.2,4.4-8.7,7.5c-2.5,3.1-4.7,6.7-6.4,10.8
					c-1.7,4.1-3.1,8.6-4,13.6C310.8,201.6,310.4,206.8,310.4,212.4z"/>
			</g>
		</g>
	</g>
</g>
<g id="Speech_Bubbles_1_">
	<g id="Speech_Bubbles">
		<g>
			<g id="Speech_Bubble_15_">
				<g id="Speech_Bubble_1_">
					<path class="st15" d="M383.4,287.6c-8.3-4.8-19.7-4.2-32.3,3.1c-25.4,14.6-45.9,50.5-45.9,80.2c0,14.9,5.2,25.4,13.6,30.2
						c1.9,1.1,9.6,5.5,9.6,5.5c-0.8,5.7-3.2,11.7-10.7,16.2c-0.5,0.3-0.2,0.7,0.2,1c0.2,0.1,11.2,6.5,11.6,6.7
						c0.2,0.1,0.4,0.2,0.5,0.2c11.5,0,24.7-7.7,28.4-23.7c1.4-0.7,2.8-1.4,4.2-2.2c25.4-14.6,45.9-50.5,45.9-80.2
						c0-14.9-5.2-25.4-13.6-30.3C393.1,293.2,385.3,288.7,383.4,287.6z"/>
					<path class="st8" d="M362.7,297.4c-25.4,14.6-45.9,50.5-45.9,80.2c0,20.1,9.5,32.1,23.5,33.2c-0.5,6.4-2.4,13.6-11,18.7
						c-0.7,0.4,0.2,1.2,0.8,1.2c11.5,0,24.7-7.7,28.4-23.7c1.4-0.7,2.8-1.4,4.2-2.2c25.4-14.6,45.9-50.5,45.9-80.2
						C408.7,294.9,388.1,282.8,362.7,297.4z"/>
					<path class="st16" d="M329.3,429.5c-0.4,0.3-0.2,0.6,0.1,0.9c-1.4-0.8-11.3-6.5-11.5-6.6c-0.4-0.3-0.7-0.7-0.2-1
						c7.5-4.4,9.9-10.5,10.7-16.1l1.3,0.7l1.2,0.7c2.8,1.6,6,2.5,9.5,2.8C339.8,417.2,337.9,424.4,329.3,429.5z"/>
				</g>
				<g>
					<g>
						<path class="st14" d="M357.9,382.2c-1.2-0.9-1.8-2.4-1.8-4.7c0-2.3,0.6-4.5,1.8-6.7c1.2-2.2,2.7-3.9,4.6-4.9
							c1.9-1.1,3.4-1.2,4.6-0.4c1.2,0.8,1.8,2.4,1.8,4.6c0,2.3-0.6,4.5-1.8,6.8c-1.2,2.3-2.8,4-4.6,5
							C360.6,383,359.1,383.1,357.9,382.2z M356.2,322.3l12.5-7.2l-2.1,42l-8.3,4.8L356.2,322.3z"/>
					</g>
				</g>
			</g>
			<path class="st9" d="M368.6,401.1c13.5-9.9,25.2-25.6,32.3-42.5C387.4,368.5,375.7,384.2,368.6,401.1z"/>
		</g>
		<g id="Speech_Bubble_16_">
			<g id="Speech_Bubble_13_">
				<path class="st12" d="M459.9,454c-4.7,0-8.2-3.2-10.4-7.4c14.1-17.3,23.6-40.3,23.6-60.5c0-14.9-5.2-25.4-13.7-30.3
					c-1.9-1.1-9.7-5.6-11.6-6.7c-8.3-4.8-19.7-4.1-32.3,3.1c-25.4,14.6-45.9,50.5-45.9,80.2c0,14.9,5.2,25.4,13.6,30.2
					c2,1.1,9.7,5.6,11.6,6.7c8.3,4.8,19.7,4.2,32.4-3.1c3.3-1.9,6.5-4.2,9.6-6.7c8.5,6.8,18.9-0.6,23.1-4.1
					C460.3,455,460.4,454,459.9,454z"/>
				<path class="st14" d="M406.8,471.9c-15.4,0-24.9-12.5-24.9-32.6c0-29.4,20.4-65,45.6-79.5c7-4.1,13.7-6.1,20-6.1
					c15.4,0,24.9,12.5,24.9,32.6c0,19.3-9,42.2-23.4,60l-0.3,0.4l0.2,0.4c2.6,4.9,6.3,7.6,10.6,7.7c0,0.1-0.1,0.2-0.2,0.2
					c-2.9,2.5-8.8,6.7-14.8,6.7c0,0,0,0,0,0c-2.7,0-5.2-0.9-7.4-2.6l-0.5-0.4l-0.4,0.4c-3.1,2.6-6.3,4.8-9.5,6.7
					C419.8,469.8,413,471.9,406.8,471.9z"/>
				<path class="st6" d="M447.5,352.9l0,1.4c14.9,0,24.2,12.2,24.2,31.9c0,19.1-8.9,41.9-23.2,59.6l-0.6,0.7l0.4,0.8
					c2.4,4.5,5.7,7.3,9.6,8c-3.1,2.4-8.1,5.7-13.3,5.7c-2.5,0-4.9-0.8-6.9-2.4l-0.9-0.7l-0.9,0.7c-3.1,2.6-6.3,4.8-9.4,6.6
					c-6.9,4-13.5,6-19.6,6c-14.9,0-24.2-12.2-24.2-31.9c0-29.1,20.3-64.5,45.2-78.9c6.9-4,13.5-6,19.6-6V352.9 M447.5,352.9
					c-6.1,0-13,2-20.3,6.2c-25.4,14.6-45.9,50.5-45.9,80.2c0,21.1,10.4,33.3,25.6,33.3c6.1,0,13-2,20.3-6.2c3.3-1.9,6.5-4.2,9.6-6.7
					c2.5,2,5.2,2.8,7.8,2.8c6.3,0,12.3-4.4,15.2-6.9c0.6-0.5,0.6-1.5,0.1-1.5c0,0,0,0,0,0c0,0-0.1,0-0.1,0c-4.6,0-8.1-3.3-10.3-7.4
					c14.1-17.3,23.6-40.3,23.6-60.5C473.1,365.1,462.6,352.9,447.5,352.9L447.5,352.9z"/>
			</g>
			<g>
				<path class="st8" d="M424.8,417.8c1-2.6,2.6-5.7,4.6-9.3c1.5-2.6,2.6-4.8,3.2-6.4c0.7-1.6,1-3.2,1-4.8c0-2.2-0.7-3.6-2-4.1
					c-1.3-0.5-3.1-0.1-5.3,1.1c-2.1,1.2-4,2.9-5.6,5c-1.6,2.1-3,4.5-4.1,7.2l-8.1-1.7c1.9-4.9,4.4-9.3,7.6-13.2
					c3.2-3.9,7-7.2,11.3-9.7c5.1-3,9.3-3.9,12.4-2.8c3.1,1.1,4.7,4.3,4.7,9.5c0,2.4-0.3,4.8-0.9,6.9c-0.6,2.2-1.3,4.2-2.2,6
					c-0.9,1.8-2,3.9-3.4,6.4c-1.7,2.9-2.9,5.3-3.6,7c-0.8,1.8-1.1,3.6-1.1,5.5l-10.1,5.8C423.2,423.3,423.8,420.4,424.8,417.8z
					 M423.7,446.1c-1.2-0.9-1.8-2.4-1.8-4.7c0-2.3,0.6-4.5,1.8-6.7c1.2-2.2,2.7-3.9,4.6-4.9c1.9-1.1,3.4-1.2,4.6-0.4
					c1.2,0.8,1.8,2.4,1.8,4.6c0,2.3-0.6,4.5-1.8,6.8c-1.2,2.3-2.8,4-4.6,5C426.5,446.9,425,447,423.7,446.1z"/>
			</g>
		</g>
	</g>
</g>
</svg>
