<svg xmlns="http://www.w3.org/2000/svg" viewBox="0 0 512 512"><path d="M512 304c0-12.8-5.1-24.8-13.9-33.6 10-10.9 15-25.5 13.7-40.7-2.5-27.1-26.9-48.4-55.6-48.4H324.4c6.5-19.8 17-56.1 17-85.3 0-46.3-39.3-85.3-64-85.3-22.1 0-38 12.5-38.7 13-2.5 2-4 5.1-4 8.3v72.3l-61.5 133.1-2.5 1.3v-4.1c0-5.9-4.8-10.7-10.7-10.7H53.3C23.9 224 0 247.9 0 277.3V448c0 29.4 23.9 53.3 53.3 53.3h64c23.1 0 42.8-14.7 50.2-35.3 17.8 9.1 41.6 13.9 56.5 13.9h195.8c23.2 0 43.6-15.7 48.3-37.2 2.5-11.1 1-22.3-3.8-32.1 15.7-7.9 26.3-24.2 26.3-42.7 0-7.6-1.7-14.8-5-21.3 15.8-7.8 26.4-24.1 26.4-42.6zM117.3 480h-64c-17.6 0-32-14.4-32-32V277.3c0-17.6 14.4-32 32-32h96V448c0 17.6-14.3 32-32 32zM467 330.3c-4.1.5-7.6 3.3-8.9 7.2-1.3 3.9-.2 8.3 2.8 11.1 5.4 5.1 8.4 12 8.4 19.3 0 13.5-10.2 24.8-23.6 26.3-4.1.5-7.6 3.3-8.9 7.2-1.3 3.9-.2 8.3 2.8 11.1 7 6.6 9.8 15.9 7.7 25.5-2.6 11.9-14.2 20.5-27.5 20.5H224c-15.8 0-41.3-6.8-53.3-15.6V262.6l15.4-7.7c2.2-1.1 3.9-2.9 4.9-5.1l64-138.7c.6-1.4 1-2.9 1-4.5V37.8c4.4-2.5 12.1-5.8 21.3-5.8C289 32 320 61.1 320 96c0 37.5-20.4 91.7-20.6 92.2-1.2 3.3-.8 7 1.2 9.9 2 2.9 5.3 4.6 8.8 4.6h146.8c17.8 0 32.9 12.7 34.4 29 1.1 12.2-4.7 23.7-15.2 30.2-3.3 2-5.2 5.6-5.1 9.5s2.4 7.3 5.8 9.1c9 4.6 14.6 13.6 14.6 23.6 0 13.4-10.2 24.7-23.7 26.2z" fill="#ff3495"/></svg>