<?xml version="1.0" encoding="utf-8"?>
<!-- Generator: Adobe Illustrator 22.0.1, SVG Export Plug-In . SVG Version: 6.00 Build 0)  -->
<svg version="1.1" id="Layer_1" xmlns="http://www.w3.org/2000/svg" xmlns:xlink="http://www.w3.org/1999/xlink" x="0px" y="0px"
	 viewBox="0 0 480 462" style="enable-background:new 0 0 480 462;" xml:space="preserve">
<style type="text/css">
	.st0{fill:#7A7C87;}
</style>
<g>
	<g>
		<path class="st0" d="M446.4,286.9L434,237.2c3.4-0.7,5.9-3.7,5.9-7.3v-8c0-17.4-14.2-31.6-31.6-31.6h-56.6v-16.5
			c0-8.6-7-15.5-15.5-15.5H47.6c-8.6,0-15.5,7-15.5,15.5V310c0,4.2,3.4,7.5,7.5,7.5c4.2,0,7.5-3.4,7.5-7.5V173.7
			c0-0.3,0.2-0.5,0.5-0.5h288.6c0.3,0,0.5,0.2,0.5,0.5V310c0,4.2,3.4,7.5,7.5,7.5c4.2,0,7.5-3.4,7.5-7.5v-8.5h88.7c0,0,0,0,0,0
			c0,0,0,0,0,0c10.9,0,20.2,7.2,23.4,17h-23.4c-4.2,0-7.5,3.4-7.5,7.5v16c0,13,10.6,23.5,23.5,23.5h8.5v33.1h-19.7
			c-6.5-18.6-24.2-32.1-45-32.1s-38.5,13.4-45,32.1h-3.6v-56.6c0-4.2-3.4-7.5-7.5-7.5c-4.2,0-7.5,3.4-7.5,7.5v56.6H180.8
			c-6.5-18.6-24.2-32.1-45-32.1s-38.5,13.4-45,32.1H47.6c-0.3,0-0.5-0.2-0.5-0.5v-16.5h32.6c4.2,0,7.5-3.4,7.5-7.5
			c0-4.2-3.4-7.5-7.5-7.5H7.5c-4.2,0-7.5,3.4-7.5,7.5c0,4.2,3.4,7.5,7.5,7.5h24.6v16.5c0,8.6,7,15.5,15.5,15.5h40.6
			c0,0.2,0,0.3,0,0.5c0,26.2,21.4,47.6,47.6,47.6s47.6-21.4,47.6-47.6c0-0.2,0-0.3,0-0.5h169.4c0,0.2,0,0.3,0,0.5
			c0,26.2,21.4,47.6,47.6,47.6s47.6-21.4,47.6-47.6c0-0.2,0-0.3,0-0.5h24.6c4.2,0,7.5-3.4,7.5-7.5V326
			C480,306.2,465.4,289.8,446.4,286.9z M351.7,205.3h56.6c9.1,0,16.5,7.4,16.5,16.5v0.5h-73.2V205.3z M351.7,286.5v-49.1h66.8
			l12.3,49.1L351.7,286.5L351.7,286.5z M135.8,446.8c-18,0-32.6-14.6-32.6-32.6c0-18,14.6-32.6,32.6-32.6s32.6,14.6,32.6,32.6
			C168.4,432.2,153.7,446.8,135.8,446.8z M400.3,446.8c-18,0-32.6-14.6-32.6-32.6c0-18,14.6-32.6,32.6-32.6
			c18,0,32.6,14.6,32.6,32.6C432.9,432.2,418.3,446.8,400.3,446.8z M465,350.6h-8.5c-4.7,0-8.5-3.8-8.5-8.5v-8.5h17L465,350.6
			L465,350.6z"/>
	</g>
</g>
<g>
	<g>
		<path class="st0" d="M135.8,398.7c-8.6,0-15.5,7-15.5,15.5c0,8.6,7,15.5,15.5,15.5c8.6,0,15.5-7,15.5-15.5
			C151.3,405.7,144.3,398.7,135.8,398.7z"/>
	</g>
</g>
<g>
	<g>
		<path class="st0" d="M400.3,398.7c-8.6,0-15.5,7-15.5,15.5c0,8.6,7,15.5,15.5,15.5s15.5-7,15.5-15.5
			C415.9,405.7,408.9,398.7,400.3,398.7z"/>
	</g>
</g>
<g>
	<g>
		<path class="st0" d="M312.2,366.6H199.9c-4.2,0-7.5,3.4-7.5,7.5s3.4,7.5,7.5,7.5h112.2c4.2,0,7.5-3.4,7.5-7.5
			S316.3,366.6,312.2,366.6z"/>
	</g>
</g>
<g>
	<g>
		<path class="st0" d="M119.7,334.6H23.5c-4.2,0-7.5,3.4-7.5,7.5s3.4,7.5,7.5,7.5h96.2c4.2,0,7.5-3.4,7.5-7.5
			S123.9,334.6,119.7,334.6z"/>
	</g>
</g>
<g>
	<g>
		<path class="st0" d="M261.3,232.5c-2.9-2.9-7.7-2.9-10.6,0l-66.8,66.8l-34.8-34.8c-2.9-2.9-7.7-2.9-10.6,0
			c-2.9,2.9-2.9,7.7,0,10.6l40.1,40.1c1.5,1.5,3.4,2.2,5.3,2.2c1.9,0,3.8-0.7,5.3-2.2l72.2-72.2
			C264.3,240.2,264.3,235.5,261.3,232.5z"/>
	</g>
</g>
</svg>
