<svg version="1.1" id="Layer_1" xmlns="http://www.w3.org/2000/svg" x="0" y="0" viewBox="0 0 480 462" xml:space="preserve"><style>.st0{fill:#7a7c87}</style><path class="st0" d="M446.4 286.9L434 237.2c3.4-.7 5.9-3.7 5.9-7.3v-8c0-17.4-14.2-31.6-31.6-31.6h-56.6v-16.5c0-8.6-7-15.5-15.5-15.5H47.6c-8.6 0-15.5 7-15.5 15.5V310c0 4.2 3.4 7.5 7.5 7.5 4.2 0 7.5-3.4 7.5-7.5V173.7c0-.3.2-.5.5-.5h288.6c.3 0 .5.2.5.5V310c0 4.2 3.4 7.5 7.5 7.5 4.2 0 7.5-3.4 7.5-7.5v-8.5h88.7c10.9 0 20.2 7.2 23.4 17h-23.4c-4.2 0-7.5 3.4-7.5 7.5v16c0 13 10.6 23.5 23.5 23.5h8.5v33.1h-19.7c-6.5-18.6-24.2-32.1-45-32.1s-38.5 13.4-45 32.1h-3.6V342c0-4.2-3.4-7.5-7.5-7.5-4.2 0-7.5 3.4-7.5 7.5v56.6H180.8c-6.5-18.6-24.2-32.1-45-32.1s-38.5 13.4-45 32.1H47.6c-.3 0-.5-.2-.5-.5v-16.5h32.6c4.2 0 7.5-3.4 7.5-7.5 0-4.2-3.4-7.5-7.5-7.5H7.5c-4.2 0-7.5 3.4-7.5 7.5 0 4.2 3.4 7.5 7.5 7.5h24.6v16.5c0 8.6 7 15.5 15.5 15.5h40.6v.5c0 26.2 21.4 47.6 47.6 47.6s47.6-21.4 47.6-47.6v-.5h169.4v.5c0 26.2 21.4 47.6 47.6 47.6s47.6-21.4 47.6-47.6v-.5h24.6c4.2 0 7.5-3.4 7.5-7.5V326c-.1-19.8-14.7-36.2-33.7-39.1zm-94.7-81.6h56.6c9.1 0 16.5 7.4 16.5 16.5v.5h-73.2v-17zm0 81.2v-49.1h66.8l12.3 49.1h-79.1zM135.8 446.8c-18 0-32.6-14.6-32.6-32.6s14.6-32.6 32.6-32.6 32.6 14.6 32.6 32.6-14.7 32.6-32.6 32.6zm264.5 0c-18 0-32.6-14.6-32.6-32.6s14.6-32.6 32.6-32.6 32.6 14.6 32.6 32.6-14.6 32.6-32.6 32.6zm64.7-96.2h-8.5c-4.7 0-8.5-3.8-8.5-8.5v-8.5h17v17z"/><path class="st0" d="M135.8 398.7c-8.6 0-15.5 7-15.5 15.5 0 8.6 7 15.5 15.5 15.5 8.6 0 15.5-7 15.5-15.5s-7-15.5-15.5-15.5zm264.5 0c-8.6 0-15.5 7-15.5 15.5 0 8.6 7 15.5 15.5 15.5s15.5-7 15.5-15.5c.1-8.5-6.9-15.5-15.5-15.5zm-88.1-32.1H199.9c-4.2 0-7.5 3.4-7.5 7.5s3.4 7.5 7.5 7.5h112.2c4.2 0 7.5-3.4 7.5-7.5s-3.3-7.5-7.4-7.5zm-192.5-32H23.5c-4.2 0-7.5 3.4-7.5 7.5s3.4 7.5 7.5 7.5h96.2c4.2 0 7.5-3.4 7.5-7.5s-3.3-7.5-7.5-7.5zm141.6-102.1c-2.9-2.9-7.7-2.9-10.6 0l-66.8 66.8-34.8-34.8c-2.9-2.9-7.7-2.9-10.6 0-2.9 2.9-2.9 7.7 0 10.6l40.1 40.1c1.5 1.5 3.4 2.2 5.3 2.2s3.8-.7 5.3-2.2l72.2-72.2c2.9-2.8 2.9-7.5-.1-10.5z"/></svg>