<?xml version="1.0" encoding="utf-8"?>
<!-- Generator: Adobe Illustrator 22.0.1, SVG Export Plug-In . SVG Version: 6.00 Build 0)  -->
<svg version="1.1" id="Слой_1" xmlns="http://www.w3.org/2000/svg" xmlns:xlink="http://www.w3.org/1999/xlink" x="0px" y="0px"
	 width="124.3px" height="127px" viewBox="0 0 124.3 127" style="enable-background:new 0 0 124.3 127;" xml:space="preserve">
<style type="text/css">
	.st0{fill:#FEE44C;}
</style>
<g>
	<path class="st0" d="M97.7,105.8c0-0.6-0.2-1.2-0.6-1.6c-0.4-0.4-1-0.6-1.6-0.6c-1.2,0-2.1,0.9-2.2,2.3c0,0.2,0,0.4,0,0.6l0,0.2
		l0,12.3c0,2.6-0.9,3.6-3.5,3.6l-38.7,0l0-4.7c0-2.7,0-5.5,0-8.2c0-1.3-0.5-2.4-1.3-3.2c-0.8-0.7-2-1-3.3-0.8
		c-0.9,0.1-1.7,0.4-2.6,0.6c-0.6,0.2-1.2,0.3-1.8,0.4c-0.7,0.2-1.5,0.3-2.2,0.3c-1.6-0.1-3-0.9-4-2.1c-1-1.2-1.4-2.8-1.1-4.3
		c0.2-1.5,1-2.8,2.3-3.6c1.3-0.9,3-1.2,4.7-0.8c0.5,0.1,1,0.3,1.6,0.4c0.9,0.2,1.9,0.5,2.9,0.7c1.3,0.2,2.6,0,3.4-0.7
		c0.9-0.7,1.4-1.9,1.4-3.3c0-2.7,0-5.4,0-8.1l0-4.6h12.3c-0.1,0.5-0.2,1-0.3,1.4c-0.3,1.4-0.6,2.7-0.8,4.1c-0.4,3.8,1.2,7,4.6,9.1
		c3.4,2.1,7.1,2.1,10.5,0c3.4-2.2,5-5.3,4.6-9.2c-0.2-1.4-0.5-2.7-0.8-4.1c-0.1-0.5-0.2-1-0.3-1.4l2.8,0c2.8,0,5.7,0,8.6,0
		c0.4,0,0.7,0.1,0.8,0.2c0.1,0.1,0.2,0.4,0.2,0.8c0,4,0,8,0,11.9l0,3.3c0,1.8,0.8,2.8,2.2,2.8c0.6,0,1.1-0.2,1.5-0.6
		c0.5-0.5,0.7-1.2,0.7-2.2l0-0.4c0-5.1,0-10.2,0-15.3c0-3.1-1.9-5-5-5c-4.1,0-8.2,0-12.3,0c-1.4,0-2.6,0.5-3.3,1.4
		c-0.7,0.9-1,2.1-0.7,3.5c0.2,0.9,0.4,1.9,0.7,2.8c0.1,0.5,0.3,1,0.4,1.5c0.4,1.7,0.3,3-0.4,4.2c-1.4,2.4-4.3,3.5-6.9,2.5
		c-2.6-1-4-3.7-3.3-6.6c0.1-0.6,0.3-1.2,0.5-1.9c0.2-0.9,0.5-1.8,0.6-2.7c0.2-1.3,0-2.5-0.7-3.4c-0.7-0.9-1.9-1.4-3.3-1.4
		c-2.7,0-5.4,0-8.1,0l-4.7,0V63.5l3,0.7c1.7,0.4,3.7,0.8,5.9,0.2c5.2-1.4,8.3-6.7,7.1-11.9c-1.3-5.4-6.3-8.6-11.7-7.5
		c-1.1,0.2-2.1,0.5-3.2,0.8c-0.3,0.1-0.7,0.2-1.1,0.3c0-0.2,0-0.3,0-0.5l0-3.9c0-2.5,0-5.1,0-7.6c0-2.8-1.9-4.7-4.8-4.8
		c-1,0-1.9,0-2.9,0l-1.3,0l-3.3,0c-2.9,0-5.7,0-8.6,0c-0.9,0-1.5,0.3-2,0.7c-0.4,0.4-0.6,1-0.6,1.6c0,1.3,1,2.1,2.6,2.1l1.9,0
		c4.5,0,9.1,0,13.6,0c0.4,0,0.7,0.1,0.8,0.2c0.1,0.1,0.2,0.4,0.2,0.8c0,3.1,0,6.3,0,9.4l0,2.3c0,1.6,0.5,2.8,1.4,3.5
		c0.9,0.7,2.2,1,3.8,0.6c0.7-0.2,1.5-0.3,2.2-0.5c0.7-0.2,1.3-0.3,2-0.5c2.5-0.5,4.7,0.3,6,2.2c1.3,2,1.3,4,0.1,6.1
		c-1.2,2-3.4,2.9-5.9,2.4c-0.8-0.2-1.6-0.4-2.3-0.5c-0.7-0.2-1.5-0.4-2.2-0.5c-1.4-0.3-2.7-0.1-3.6,0.7c-0.9,0.8-1.4,1.9-1.4,3.5
		c0,2.7,0,5.4,0,8.1l0,4.5H34.3c0-0.1,0.1-0.3,0.1-0.4c0.2-0.6,0.3-1.2,0.4-1.8c0.1-0.4,0.2-0.8,0.2-1.2c0.2-1.1,0.5-2.3,0.4-3.5
		c-0.2-2.9-1.5-5.4-3.7-7.2c-2.1-1.7-4.9-2.5-7.6-2c-2.8,0.4-5.2,1.9-6.8,4.2c-1.6,2.3-2.1,5.2-1.4,8.1c0.2,0.9,0.5,1.9,0.7,2.8
		l0.2,0.9H4.4v-1.1c0-3.4,0-6.8,0-10.3c0-8.5,0-17.2,0-25.8c0-2.2,0.3-3.4,0.9-4.1c0.7-0.7,1.8-0.9,4-0.8c3,0.1,6.1,0.1,9.1,0
		c0.9,0,1.8,0,2.7,0c1.3,0,2.3-0.9,2.3-2.1c0-1.2-0.9-2.1-2.2-2.3c-0.2,0-0.5,0-0.7,0l-0.3,0l-2.4,0l-9.7,0c-5.1,0-8.1,2.9-8.1,8
		l0,30.1l0,22c0,10,0,20,0,30c0,3.1,1.3,5.4,3.9,6.8c0.4,0.2,0.9,0.4,1.4,0.6c0.2,0.1,0.4,0.1,0.6,0.2l85.9,0l0.4-0.2
		c0.3-0.1,0.6-0.2,0.9-0.3c2.8-1.2,4.5-3.3,4.6-6.1c0.1-3.8,0.1-7.7,0.1-11.5C97.7,107.9,97.7,106.9,97.7,105.8z M21.3,75.3
		c-0.2-0.9-0.4-1.7-0.6-2.5c-0.2-0.6-0.3-1.2-0.5-1.8c-0.4-1.6-0.1-3.2,0.8-4.6c0.8-1.3,2.1-2.1,3.6-2.3c1.6-0.3,3.2,0.2,4.4,1.1
		c1.2,1,1.9,2.3,2,3.9c0.1,0.8-0.1,1.6-0.3,2.4c-0.1,0.3-0.1,0.6-0.2,0.9c-0.1,0.4-0.2,0.9-0.3,1.3c-0.1,0.6-0.3,1.2-0.4,1.8
		c-0.2,1.3,0.1,2.4,0.8,3.3c0.7,0.9,1.8,1.3,3.1,1.3c3.1,0,6.1,0,9.2,0l3.7,0v12.4l-1-0.3c-1-0.3-2-0.5-3.1-0.8
		C40,91.2,37.3,91.6,35,93c-2.2,1.4-3.8,3.6-4.4,6.2c-0.7,3.4,0.3,6.8,2.7,9.2c2.4,2.4,5.9,3.4,9.3,2.6c1-0.2,2-0.5,3-0.8
		c0.3-0.1,0.7-0.2,1-0.3c0,0.1,0,0.3,0,0.4c0,3.4,0,6.8,0,10.3v1.8l-38.7,0c-2.6,0-3.5-1-3.5-3.6l0-38.7l6.3,0c2.1,0,4.3,0,6.4,0
		c1.5,0,2.7-0.5,3.4-1.4C21.3,78,21.6,76.8,21.3,75.3z"/>
	<path class="st0" d="M123.7,43.6c-1-3.6-2.1-7.1-3.1-10.7c-2.5-8.5-5-17.2-7.4-25.8c-1-3.6-3-5.7-6.1-6.5l-2.7,0l-0.1,0
		c0,0-0.1,0.1-0.1,0.1c-0.1,0-0.1,0.1-0.2,0.1C91.5,4.4,79,8,66.5,11.6c-3.1,0.9-4.4,3.2-3.5,6.3l0.2,0.7c1,3.7,2.1,7.3,3.2,11
		c0.4,1.4,1.2,2.4,2.2,2.8c1,0.5,2.3,0.4,3.5-0.3c0.8-0.4,1.6-0.9,2.4-1.3c0.6-0.3,1.2-0.7,1.8-1c2.2-1.2,4.5-1,6.3,0.6
		c1.7,1.4,2.3,3.8,1.6,6c-0.8,2.2-2.6,3.6-5,3.7c-0.6,0-1.2,0.1-1.7,0.1c-0.9,0-1.8,0.1-2.7,0.1c-1.5,0.1-2.7,0.7-3.4,1.6
		c-0.7,1-0.8,2.3-0.4,3.8c1.2,4,2.3,8,3.5,12c0.9,3,2.6,4,5.6,3.1l11-3.2c0.3-0.1,0.5-0.1,0.9-0.2l0.1,0l0,0.9c0,0.9,0,1.8,0,2.6
		c0.1,3.7,1.8,6.8,4.8,8.6c1.6,1,3.4,1.4,5.2,1.4c1.5,0,3-0.3,4.4-1c4.9-2.5,6.8-8.3,4.5-13.1c-0.5-1.1-1.1-2.1-1.7-3.2
		c-0.2-0.4-0.4-0.7-0.6-1.1l11.8-3.4C123.5,48.3,124.5,46.5,123.7,43.6z M96.9,62.7c-0.2-0.7-0.2-1.5-0.3-2.3c0-0.2,0-0.4,0-0.7
		c0-0.5-0.1-0.9-0.1-1.4c0-0.7-0.1-1.5-0.2-2.2c-0.2-1.3-0.8-2.3-1.7-2.9c-0.6-0.4-1.2-0.6-2-0.6c-0.4,0-0.9,0.1-1.4,0.2
		c-2.5,0.7-5.1,1.5-7.6,2.2l-4,1.2c-0.2,0.1-0.4,0.1-0.7,0.2l-0.1,0l-3.4-11.9c0.4,0,0.7,0,1.1,0c1.1,0,2.1-0.1,3.1-0.2
		c4.3-0.3,7.3-2.6,8.7-6.5c1.4-4,0.6-7.6-2.5-10.6c-2.9-2.9-7.2-3.6-11-1.8c-1.1,0.5-2.1,1.1-3.2,1.7c-0.4,0.2-0.7,0.4-1.1,0.6
		l-2.1-7.2c-0.1-0.4-0.2-0.7-0.3-1.1c-0.2-0.9-0.5-1.8-0.8-2.7c-0.1-0.4-0.2-0.6-0.1-0.8c0.1-0.2,0.3-0.3,0.8-0.4
		c6.3-1.8,12.5-3.6,18.8-5.4l10.5-3.1c2.3-0.7,4.6-1.4,7-2c2.4-0.7,3.6,0,4.3,2.3c2.7,9.3,5.4,18.6,8.1,27.8l2.5,8.7l0.2,0.7
		l-0.2,0.1c-0.4,0.1-0.7,0.2-1.1,0.3l-4.6,1.3c-2.1,0.6-4.2,1.2-6.3,1.8c-1.4,0.4-2.4,1.2-2.9,2.2c-0.5,1-0.3,2.3,0.3,3.6
		c0.4,0.7,0.8,1.4,1.2,2.1c0.5,0.8,1,1.7,1.4,2.6c0.6,1.3,0.6,2.8,0,4.2c-0.6,1.4-1.8,2.5-3.3,3.1c-1.5,0.5-3.1,0.4-4.5-0.3
		C98.2,65.2,97.3,64.1,96.9,62.7z"/>
</g>
</svg>
