<?xml version="1.0" encoding="utf-8"?>
<!-- Generator: Adobe Illustrator 22.0.1, SVG Export Plug-In . SVG Version: 6.00 Build 0)  -->
<svg version="1.1" id="Слой_1" xmlns="http://www.w3.org/2000/svg" xmlns:xlink="http://www.w3.org/1999/xlink" x="0px" y="0px"
	 viewBox="0 0 22.6 21.7" style="enable-background:new 0 0 22.6 21.7;" xml:space="preserve">
<style type="text/css">
	.st0{fill:#2F3038;}
</style>
<path class="st0" d="M22.6,20.2L16,14.4c1.2-1.5,1.9-3.4,1.9-5.5c0-4.9-4-8.9-8.9-8.9S0,4,0,8.9c0,4.9,4,8.9,8.9,8.9
	c2.1,0,4.1-0.8,5.7-2l6.7,5.8L22.6,20.2z M1.9,8.9C1.9,5,5,1.9,8.9,1.9S16,5,16,8.9c0,3.9-3.2,7.1-7.1,7.1S1.9,12.8,1.9,8.9z"/>
</svg>
