<?xml version="1.0" encoding="utf-8"?>
<!-- Generator: Adobe Illustrator 22.0.1, SVG Export Plug-In . SVG Version: 6.00 Build 0)  -->
<svg version="1.1" id="Слой_1" xmlns="http://www.w3.org/2000/svg" xmlns:xlink="http://www.w3.org/1999/xlink" x="0px" y="0px"
	 viewBox="0 0 480 462" style="enable-background:new 0 0 480 462;" xml:space="preserve">
<style type="text/css">
	.st0{fill:#7A7C87;}
</style>
<g id="Out_line">
	<path class="st0" d="M446.4,340.3c-17.9-25.1-38.9-47.8-62.4-67.8v-20l92.9-72.3c3.5-2.7,4.1-7.7,1.4-11.2
		c-1.5-1.9-3.8-3.1-6.3-3.1H301.7L247.6,5.5c-1.4-4.2-6-6.4-10.1-5c-2.4,0.8-4.2,2.7-5,5l-54.2,160.4H8c-4.4,0-8,3.6-8,8
		c0,2.5,1.1,4.8,3.1,6.3L96,252.5v20c-23.5,19.9-44.5,42.7-62.4,67.8l-32.1,45c-2.6,3.6-1.7,8.6,1.9,11.2c1.4,1,3,1.5,4.6,1.5h40v48
		c0,4.4,3.6,8,8,8c3,0,5.8-1.7,7.2-4.4c11.7-23.2,27.4-44.2,46.5-61.9l-21.2,63.7c-1.4,4.2,0.9,8.7,5.1,10.1
		c2.4,0.8,5.1,0.4,7.2-1.1L240,359.8l139.3,100.6c3.6,2.6,8.6,1.8,11.2-1.8c1.5-2.1,1.9-4.8,1.1-7.2l-21.2-63.7
		c19.1,17.7,34.8,38.6,46.5,61.9c2,4,6.8,5.6,10.7,3.6c2.7-1.4,4.4-4.1,4.4-7.2v-48h40c4.4,0,8-3.6,8-8c0-1.7-0.5-3.3-1.5-4.6
		L446.4,340.3z M123.7,345.7c-2-1.3-3.9-2.6-5.9-3.9c3-2.1,6.1-4.1,9.2-6L123.7,345.7z M112,326.3v-76.5l4.2-3
		c74.2-52.3,173.3-52.3,247.5,0l4.2,3v76.5C290.5,274.7,189.5,274.7,112,326.3z M353,335.7c3,1.9,6,3.8,9,5.9
		c-1.9,1.3-3.8,2.6-5.7,3.8L353,335.7z M184,181.9c3.4,0,6.5-2.2,7.6-5.4L240,33.1l48.4,143.4c1.1,3.3,4.1,5.4,7.6,5.4h152.7
		l-70.9,55.2l-4.8-3.4c-79.8-56.1-186.2-56.1-265.9,0l-4.8,3.4l-70.9-55.2H184z M64,416.4v-26.5c0-4.4-3.6-8-8-8H23.5l23.1-32.3
		c14.5-20.3,31-38.9,49.4-55.8v47.8c0,2.5,1.2,4.8,3.1,6.3l0,0c5.8,4.5,11.9,8.7,18.1,12.6C96.5,376.1,78.5,395,64,416.4z
		 M244.7,343.4c-2.8-2-6.6-2-9.4,0l-123.9,89.5l36.1-108.4c58.5-27.8,126.4-27.8,184.8,0l36.1,108.4L244.7,343.4z M424,381.9
		c-4.4,0-8,3.6-8,8v26.5c-14.5-21.5-32.6-40.5-53.4-56c5.6-3.6,11.2-7.4,16.5-11.4c0.2-0.1,0.4-0.2,0.6-0.3c2.7-1.4,4.3-4.1,4.3-7.1
		v-47.8c18.4,16.8,34.9,35.5,49.4,55.8l23.1,32.3H424z"/>
</g>
</svg>
