<svg xmlns="http://www.w3.org/2000/svg" viewBox="0 0 480 462"><path d="M446.4 340.3c-17.9-25.1-38.9-47.8-62.4-67.8v-20l92.9-72.3c3.5-2.7 4.1-7.7 1.4-11.2-1.5-1.9-3.8-3.1-6.3-3.1H301.7L247.6 5.5c-1.4-4.2-6-6.4-10.1-5-2.4.8-4.2 2.7-5 5l-54.2 160.4H8c-4.4 0-8 3.6-8 8 0 2.5 1.1 4.8 3.1 6.3L96 252.5v20c-23.5 19.9-44.5 42.7-62.4 67.8l-32.1 45c-2.6 3.6-1.7 8.6 1.9 11.2 1.4 1 3 1.5 4.6 1.5h40v48c0 4.4 3.6 8 8 8 3 0 5.8-1.7 7.2-4.4 11.7-23.2 27.4-44.2 46.5-61.9l-21.2 63.7c-1.4 4.2.9 8.7 5.1 10.1 2.4.8 5.1.4 7.2-1.1L240 359.8l139.3 100.6c3.6 2.6 8.6 1.8 11.2-1.8 1.5-2.1 1.9-4.8 1.1-7.2l-21.2-63.7c19.1 17.7 34.8 38.6 46.5 61.9 2 4 6.8 5.6 10.7 3.6 2.7-1.4 4.4-4.1 4.4-7.2v-48h40c4.4 0 8-3.6 8-8 0-1.7-.5-3.3-1.5-4.6l-32.1-45.1zm-322.7 5.4c-2-1.3-3.9-2.6-5.9-3.9 3-2.1 6.1-4.1 9.2-6l-3.3 9.9zM112 326.3v-76.5l4.2-3c74.2-52.3 173.3-52.3 247.5 0l4.2 3v76.5c-77.4-51.6-178.4-51.6-255.9 0zm241 9.4c3 1.9 6 3.8 9 5.9-1.9 1.3-3.8 2.6-5.7 3.8l-3.3-9.7zM184 181.9c3.4 0 6.5-2.2 7.6-5.4L240 33.1l48.4 143.4c1.1 3.3 4.1 5.4 7.6 5.4h152.7l-70.9 55.2-4.8-3.4c-79.8-56.1-186.2-56.1-265.9 0l-4.8 3.4-70.9-55.2H184zM64 416.4v-26.5c0-4.4-3.6-8-8-8H23.5l23.1-32.3c14.5-20.3 31-38.9 49.4-55.8v47.8c0 2.5 1.2 4.8 3.1 6.3 5.8 4.5 11.9 8.7 18.1 12.6C96.5 376.1 78.5 395 64 416.4zm180.7-73c-2.8-2-6.6-2-9.4 0l-123.9 89.5 36.1-108.4c58.5-27.8 126.4-27.8 184.8 0l36.1 108.4-123.7-89.5zM424 381.9c-4.4 0-8 3.6-8 8v26.5c-14.5-21.5-32.6-40.5-53.4-56 5.6-3.6 11.2-7.4 16.5-11.4l.6-.3c2.7-1.4 4.3-4.1 4.3-7.1v-47.8c18.4 16.8 34.9 35.5 49.4 55.8l23.1 32.3H424z" fill="#7a7c87"/></svg>