<svg xmlns="http://www.w3.org/2000/svg" width="60" height="60" viewBox="0 0 60 60"><linearGradient id="a" gradientUnits="userSpaceOnUse" x1="0" y1="30" x2="60" y2="30"><stop offset="0" stop-color="#fee44c"/><stop offset="1" stop-color="#ff3495"/></linearGradient><path d="M57 16c-1.7 0-3 1.3-3 3v17H38V19c0-1.7-1.3-3-3-3-1.2 0-2.3.7-2.8 1.8L14.7.3c-.2-.2-.4-.3-.7-.3H1C.4 0 0 .4 0 1v26c0 .3.1.5.3.7l32 32c.2.2.4.3.7.3h26c.6 0 1-.4 1-1V19c0-1.7-1.3-3-3-3zM2 6h7v18H2V6zm30 50.6l-30-30V26h7v3c0 .6.4 1 1 1h7v3c0 .6.4 1 1 1h7v3c0 .6.4 1 1 1h6v18.6zM11 28V6h.6l5.4 5.4V28h-6zm8 4V13.4l6 6V32h-6zm13 4h-5V21.4l5 5V36zm0-12.4L12.7 4.3c-.2-.2-.4-.3-.7-.3H2V2h11.6L32 20.4v3.2zM36 58h-2V22h2v36zm0-38h-2v-1c0-.6.4-1 1-1s1 .4 1 1v1zm18 38H38v-4h16v4zm0-6H38v-4h16v4zm0-6H38v-4h16v4zm0-6H38v-2h16v2zm4 18h-2V22h2v36zm0-38h-2v-1c0-.6.4-1 1-1s1 .4 1 1v1z" fill="url(#a)"/><linearGradient id="b" gradientUnits="userSpaceOnUse" x1="16" y1="41" x2="30" y2="41"><stop offset="0" stop-color="#fee44c"/><stop offset="1" stop-color="#ff3495"/></linearGradient><path d="M23 36h-7v2h5v4h7v4h2v-6h-7v-4z" fill="url(#b)"/><linearGradient id="c" gradientUnits="userSpaceOnUse" x1="28" y1="49" x2="30" y2="49"><stop offset="0" stop-color="#fee44c"/><stop offset="1" stop-color="#ff3495"/></linearGradient><path d="M28 48h2v2h-2v-2z" fill="url(#c)"/><linearGradient id="d" gradientUnits="userSpaceOnUse" x1="13" y1="33" x2="15" y2="33"><stop offset="0" stop-color="#fee44c"/><stop offset="1" stop-color="#ff3495"/></linearGradient><path d="M13 32h2v2h-2v-2z" fill="url(#d)"/></svg>