<?xml version="1.0" encoding="utf-8"?>
<!-- Generator: Adobe Illustrator 22.0.1, SVG Export Plug-In . SVG Version: 6.00 Build 0)  -->
<svg version="1.1" id="Слой_1" xmlns="http://www.w3.org/2000/svg" xmlns:xlink="http://www.w3.org/1999/xlink" x="0px" y="0px"
	 width="150px" height="150px" viewBox="0 0 150 150" style="enable-background:new 0 0 150 150;" xml:space="preserve">
<style type="text/css">
	.st0{fill:#FEE44C;}
	.st1{fill:#FFFFFF;}
</style>
<circle class="st0" cx="75" cy="75" r="75"/>
<path class="st1" d="M25.6,58.6c0.2-0.8,0.3-1.7,0.6-2.5c2.4-9.4,10.2-15.6,19.9-15.6c8.8,0,17.7,0,26.5,0c9.8,0,17.8,6.4,20,15.9
	c0.1,0.6,0.2,1.3,0.4,2c0.3,0,0.7,0,1.1,0c4.6,0,9.3,0,13.9,0c2.3,0,3.1,0.8,3.1,3.1c0,8.5,0,17,0,25.4c0,2.2-0.8,3-3,3
	c-4.6,0-9.3,0-13.9,0c-0.4,0-0.7,0-1.2,0c-0.7,5.4-3.1,9.8-7.3,13.4c13.1,0,26,0,38.9,0c0-0.4,0-0.8,0-1.1c0-4.7,0-9.4,0-14.1
	c0-1.6,0.8-2.5,2.1-2.6c1.4-0.1,2.4,0.9,2.4,2.5c0,2.5,0,5,0,7.5c0,3.2,0,6.4,0,9.6c0,2.1-0.8,2.9-2.9,2.9c-26.6,0-53.3,0-79.9,0
	c-9.8,0-17.7-6.3-20-15.8c-0.2-0.8-0.3-1.7-0.5-2.5C25.6,79.2,25.6,68.9,25.6,58.6z M59.4,58.4c-2.8,0-5.7,0-8.5,0
	c-4.5,0-7.3,2.8-7.3,7.3c0,5.6,0,11.2,0,16.9c0,4.5,2.8,7.3,7.3,7.3c5.6,0,11.2,0,16.8,0c4.5,0,7.4-2.8,7.4-7.4c0-5.6,0-11.2,0-16.8
	c0-4.5-2.8-7.3-7.4-7.3C64.9,58.4,62.2,58.4,59.4,58.4z M86.9,53.9c-0.2-0.3-0.2-0.6-0.4-0.8c-3.2-5.5-8-8.2-14.3-8.2
	c-8.6,0-17.3,0-25.9,0c-1,0-2,0.1-3,0.2c-7.8,1.3-13.2,7.8-13.2,16c0,8.6,0,17.3,0,25.9c0,0.9,0.1,1.8,0.2,2.7c3.7,0,7.3,0,11.1,0
	c-2.1-2.7-2.3-5.8-2.3-8.9c0.1-5,0-10.1,0-15.1c0-1.1,0.1-2.2,0.3-3.3c1.3-5.2,5.7-8.5,11.2-8.5c11.7,0,23.3,0,35,0
	C86.1,53.9,86.4,53.9,86.9,53.9z M31.9,94.3c0,0.2,0,0.2,0,0.3c0.1,0.2,0.1,0.3,0.2,0.4c3.2,5.5,8,8.2,14.3,8.3
	c8.7,0.1,17.4,0,26.1,0c1,0,2-0.1,2.9-0.2c7.7-1.3,13.1-7.7,13.2-15.8c0.1-8.7,0-17.5,0-26.2c0-0.9-0.1-1.8-0.2-2.7
	c-3.7,0-7.3,0-10.9,0c0,0.1-0.1,0.1-0.1,0.1c0.1,0.1,0.1,0.2,0.2,0.4c1.4,2.1,2,4.4,2,7c0,5.6,0,11.2,0,16.8c0,1-0.1,2.1-0.3,3.1
	c-1.3,5.2-5.7,8.6-11.3,8.6c-11.7,0-23.3,0-35,0C32.6,94.3,32.2,94.3,31.9,94.3z M93.1,62.9c0,7.5,0,14.9,0,22.4c4.5,0,8.9,0,13.3,0
	c0-7.5,0-14.9,0-22.4C102,62.9,97.6,62.9,93.1,62.9z"/>
</svg>
