<?xml version="1.0" encoding="utf-8"?>
<!-- Generator: Adobe Illustrator 22.0.1, SVG Export Plug-In . SVG Version: 6.00 Build 0)  -->
<svg version="1.1" id="Слой_1" xmlns="http://www.w3.org/2000/svg" xmlns:xlink="http://www.w3.org/1999/xlink" x="0px" y="0px"
	 width="150px" height="150px" viewBox="0 0 150 150" style="enable-background:new 0 0 150 150;" xml:space="preserve">
<style type="text/css">
	.st0{fill:#FEE44C;}
	.st1{fill:#FFFFFF;}
</style>
<circle class="st0" cx="75" cy="75" r="75"/>
<path class="st1" d="M75.9,54.6c0.9-1.7,2.2-2.7,3.9-2.8c2.8-0.3,5.1,1.9,5.1,4.8c0,8.3,0,16.6,0,24.9c0,0.4,0,0.8,0,1.2
	c8.3,0,16.5,0,24.8,0c0-0.4,0-0.8,0-1.2c0-8.3,0-16.7,0-25c0-3.3,3-5.5,6-4.6c1.8,0.5,3.2,2.2,3.3,4.1c0,0.3,0,0.6,0,1
	c0,20.2,0,40.4,0,60.6c0,1.9-0.4,2.3-2.3,2.3c-13,0-25.9,0-38.9,0c-0.9,0-1.6-0.3-2.3-1C59.4,102.9,43.2,86.7,27,70.6
	c-0.7-0.7-1.1-1.5-1.1-2.6c0-12.9,0-25.8,0-38.8c0-1.8,0.4-2.3,2.3-2.3c6.2,0,12.3,0,18.5,0c1.1,0,1.9,0.3,2.6,1.1
	c8.5,8.6,17.1,17.1,25.6,25.6C75.3,53.9,75.5,54.3,75.9,54.6z M52.3,73.5c-3.5,0-7,0-10.4,0c-1.5,0-2-0.5-2-2c0-1.4,0-2.7,0-4.1
	c-3.7,0-7.2,0-11.1,0c0.3,0.6,0.5,1.1,0.8,1.4C44.7,83.8,59.8,98.9,74.8,114c0.2,0.2,0.4,0.4,0.7,0.6c0-9.6,0-19.1,0-28.7
	c-3,0-5.9,0-8.8,0c-1.5,0-2-0.5-2-2c0-1.4,0-2.8,0-4.2c-0.4,0-0.7,0-1,0c-3,0-6,0-9,0c-1.9,0-2.3-0.4-2.3-2.3
	C52.3,76.1,52.3,74.9,52.3,73.5z M39.8,64.1c0-9.3,0-18.6,0-27.8c-3.6,0-7.2,0-10.7,0c0,9.3,0,18.5,0,27.8
	C32.7,64.1,36.2,64.1,39.8,64.1z M43,70.3c3.1,0,6.2,0,9.2,0c0-0.2,0-0.3,0-0.4c0-8.2,0-16.5,0-24.7c0-0.3-0.2-0.8-0.4-1
	c-2.5-2.5-5-5-7.5-7.5c-0.3-0.3-0.8-0.4-1.3-0.6C43,47.7,43,59,43,70.3z M55.5,47.8c0,9.7,0,19.2,0,28.7c3.1,0,6.2,0,9.2,0
	c0-6.4,0-12.7,0-19c0-0.3-0.1-0.6-0.3-0.8C61.5,53.8,58.6,50.9,55.5,47.8z M29.1,33.2c0.4,0,0.8,0,1.1,0c4.5,0,9,0,13.6,0
	c1,0,1.8,0.3,2.5,1c9.5,9.5,18.9,19,28.4,28.4c0.3,0.3,0.5,0.5,0.9,0.9c0-1.5,0.1-2.8,0-4c0-0.5-0.2-1.1-0.6-1.4
	c-9.1-9.2-18.2-18.3-27.4-27.4c-0.3-0.3-0.9-0.6-1.4-0.6c-5.4,0-10.7,0-16.1,0c-0.3,0-0.6,0-1,0C29.1,31.1,29.1,32.1,29.1,33.2z
	 M78.8,61.1c0,18.7,0,37.2,0,55.7c1,0,2,0,3,0c0-18.6,0-37.2,0-55.7C80.7,61.1,79.7,61.1,78.8,61.1z M115.8,116.9
	c0-18.6,0-37.2,0-55.7c-1,0-2,0-3,0c0,18.6,0,37.1,0,55.7C113.9,116.9,114.8,116.9,115.8,116.9z M85,92.1c0,2.1,0,4.1,0,6.1
	c8.3,0,16.5,0,24.7,0c0-2.1,0-4.1,0-6.1C101.4,92.1,93.2,92.1,85,92.1z M84.9,107.5c8.3,0,16.5,0,24.7,0c0-2.1,0-4.1,0-6.1
	c-8.3,0-16.5,0-24.7,0C84.9,103.5,84.9,105.5,84.9,107.5z M85,110.8c0,2.1,0,4.1,0,6.1c8.3,0,16.5,0,24.7,0c0-2.1,0-4.1,0-6.1
	C101.4,110.8,93.2,110.8,85,110.8z M75.6,82.8c0-4.9,0-9.6,0-14.4c0-0.3-0.2-0.7-0.5-0.9c-2.2-2.3-4.5-4.5-6.7-6.7
	c-0.1-0.1-0.3-0.2-0.5-0.4c0,7.5,0,14.9,0,22.4C70.4,82.8,72.9,82.8,75.6,82.8z M109.7,86c-8.3,0-16.5,0-24.7,0c0,1,0,2,0,3
	c8.3,0,16.5,0,24.7,0C109.7,87.9,109.7,87,109.7,86z M81.8,57.9c-0.1-1.1,0.4-2.3-0.9-2.8c-0.4-0.2-1.2-0.1-1.6,0.1
	c-1,0.7-0.6,1.7-0.6,2.7C79.8,57.9,80.7,57.9,81.8,57.9z M115.9,57.9c0-1,0.4-2.1-0.7-2.7c-0.4-0.2-1.2-0.3-1.7,0
	c-1.1,0.6-0.7,1.7-0.7,2.7C113.9,57.9,114.8,57.9,115.9,57.9z"/>
<path class="st1" d="M61.6,82.9c0,2.1,0,4,0,6.1c3.6,0,7.1,0,10.8,0c0,3.1,0,6.2,0,9.3c-1,0-1.9,0-3,0c0-2,0-4,0-6.1
	c-3.6,0-7.2,0-10.9,0c0-2.1,0-4.1,0-6.2c-2.6,0-5.2,0-7.7,0c0-1.1,0-2,0-3C54.4,82.9,57.9,82.9,61.6,82.9z"/>
<path class="st1" d="M49.2,79.7c-1,0-2,0-3,0c0-1,0-2,0-3c1,0,1.9,0,3,0C49.2,77.6,49.2,78.6,49.2,79.7z"/>
<path class="st1" d="M69.4,104.4c0-1,0-1.9,0-2.9c1,0,2,0,3,0c0,1,0,1.9,0,2.9C71.4,104.4,70.4,104.4,69.4,104.4z"/>
</svg>
