<?xml version="1.0" encoding="utf-8"?>
<!-- Generator: Adobe Illustrator 22.0.1, SVG Export Plug-In . SVG Version: 6.00 Build 0)  -->
<svg version="1.1" id="Слой_1" xmlns="http://www.w3.org/2000/svg" xmlns:xlink="http://www.w3.org/1999/xlink" x="0px" y="0px"
	 width="150px" height="150px" viewBox="0 0 150 150" style="enable-background:new 0 0 150 150;" xml:space="preserve">
<style type="text/css">
	.st0{fill:#FEE44C;}
	.st1{fill:#FFFFFF;}
</style>
<circle class="st0" cx="75" cy="75" r="75"/>
<path class="st1" d="M38.9,76.9c0-3.2,0-6.3,0-9.3c0-1.3-0.7-2.1-1.8-2.1c-1,0-1.6,0.8-1.6,2.1c0,2.7,0,5.4,0,8.2c0,0.4,0,0.7,0,1.2
	c-1.5,0-2.8,0-4.2,0c-1.3,0-2,0.6-2,1.7c0,1.1,0.7,1.7,2,1.7c9.8,0,19.6,0,29.4,0c1.3,0,2-0.6,2-1.7c0-1.1-0.7-1.7-2.1-1.7
	c-5.6,0-11.2,0-16.9,0C42.2,76.9,40.6,76.9,38.9,76.9z"/>
<g>
	<path class="st1" d="M13,67c0.8-0.2,1.5-0.7,2.3-0.7c3.8-0.1,7.7,0,11.5,0c1.5,0,2.2,0.7,2.2,1.8c0,1.1-0.8,1.8-2.2,1.8
		c-3.9,0-7.9,0-11.8,0c-0.7,0-1.3-0.5-2-0.8C13,68.4,13,67.7,13,67z"/>
	<path class="st1" d="M100.6,63c4.3,0,8.4,0.1,12.6,0c2.5,0,4.1,1,5.3,3.1c3,5.5,6.1,10.9,9.1,16.4c1.2,2.1,1.8,4.2,1.7,6.6
		c0,3.1,0,6.1,0,9.2c0,2.3-1.3,3.6-3.5,3.5c-1.9-0.1-3,0.2-3.7,2.3c-1.4,3.8-5.5,6.1-9.4,5.9c-4.3-0.3-7.8-3-9.1-7
		c-0.1-0.4-0.2-0.7-0.3-1.1c-11,0-21.9,0-32.9,0c-0.5,2-1.4,3.8-2.9,5.3c-5.4,5.1-14.2,2.9-16.4-4.2c-0.3-1-0.7-1.2-1.7-1.2
		c-4.6,0.1-9.2,0-13.8,0c-1.9,0-2.5-0.6-2.5-2.4c0-3.4,0-6.8,0-10.2c0-0.4,0-0.8,0-1.4c-0.5,0-0.9,0-1.3,0c-4.1,0-8.2,0-12.3,0
		c-1.5,0-2.3-0.7-2.3-1.8c0-1.1,0.8-1.8,2.3-1.8c7.4,0,14.8,0,22.2,0c0.2,0,0.5,0,0.7,0c1,0.2,1.6,0.9,1.6,1.9
		c-0.1,1-0.7,1.7-1.8,1.7c-1.7,0-3.5,0-5.3,0c0,3.5,0,6.9,0,10.4c1.5,0,3,0,4.4,0c2.8,0,5.6,0,8.4,0c0.7,0,1-0.1,1.3-0.9
		c1.2-4.4,5.1-7.3,9.6-7.3c4.4,0,8.2,2.9,9.6,7.2c0.2,0.6,0.3,1,1.1,1c8.4,0,16.8,0,25.2,0c0.1,0,0.3,0,0.6-0.1
		c0-15.8,0-31.6,0-47.5c-20,0-40,0-60.1,0c0,1.8,0,3.6,0,5.5c0.4,0,0.8,0.1,1.2,0.1c3.1,0,6.2,0,9.3,0c0.9,0,1.7,0.4,1.8,1.2
		c0.1,0.6-0.2,1.4-0.6,1.9c-0.2,0.3-0.9,0.5-1.3,0.5c-7.2,0-14.5,0-21.7,0c-1.3,0-2.1-0.7-2.1-1.8c0-1.1,0.8-1.8,2.1-1.8
		c2.5,0,4.9,0,7.6,0c0-1.8,0-3.5,0-5.2c0-3,1.1-4.2,4.1-4.2c19.8,0,39.5,0,59.3,0c3,0,4.2,1.2,4.2,4.2c0,3.5,0,7,0,10.5
		C100.6,62,100.6,62.4,100.6,63z M125.7,98.2c0-3.1,0-6.1,0-9.1c0-1.7-0.4-3.2-1.2-4.7c-3.1-5.6-6.2-11.1-9.3-16.7
		c-0.4-0.8-1-1.1-1.9-1.1c-3.9,0-7.7,0-11.6,0c-0.3,0-0.7,0-1,0.1c0,10.5,0,21,0,31.4c2.3,0.3,2.3,0.3,3-1.7
		c1.5-3.8,5.1-6.4,9.2-6.4c4.2,0,7.9,2.5,9.4,6.4c0.7,1.9,0.7,1.9,2.7,1.8C125.2,98.2,125.4,98.2,125.7,98.2z M54.2,100
		c0,3.6,2.8,6.4,6.3,6.4c3.5,0,6.3-2.9,6.3-6.4c0-3.5-2.8-6.3-6.3-6.3C56.9,93.7,54.1,96.5,54.2,100z M106.8,100
		c0,3.6,2.8,6.4,6.3,6.4c3.4,0,6.3-2.8,6.3-6.3c0-3.6-2.7-6.4-6.3-6.4C109.6,93.7,106.8,96.5,106.8,100z"/>
	<path class="st1" d="M36.6,75.9c1.9,0,3.6,0,5.3,0c6,0,12.1,0,18.1,0c1.4,0,2.2,0.7,2.2,1.9c0,1.1-0.8,1.8-2.2,1.8
		c-10.5,0-21,0-31.5,0c-1.4,0-2.1-0.7-2.1-1.8c0-1.1,0.8-1.8,2.1-1.8c1.4,0,2.9,0,4.5,0c0-0.5,0-0.9,0-1.3c0-2.9,0-5.8,0-8.8
		c0-1.4,0.7-2.2,1.8-2.2c1.1,0,1.9,0.8,1.9,2.2C36.6,69.2,36.6,72.5,36.6,75.9z"/>
</g>
</svg>
