<?xml version="1.0" encoding="utf-8"?>
<!-- Generator: Adobe Illustrator 22.0.1, SVG Export Plug-In . SVG Version: 6.00 Build 0)  -->
<svg version="1.1" id="Слой_1" xmlns="http://www.w3.org/2000/svg" xmlns:xlink="http://www.w3.org/1999/xlink" x="0px" y="0px"
	 width="150px" height="150px" viewBox="0 0 150 150" style="enable-background:new 0 0 150 150;" xml:space="preserve">
<style type="text/css">
	.st0{fill:#FEE44C;}
	.st1{fill:#FFFFFF;}
</style>
<circle class="st0" cx="75" cy="75" r="75"/>
<g>
	<path class="st1" d="M93,78.2c0,0.5,0,0.8,0,1.1c0,10.5,0,21,0,31.5c0,2.1-0.8,2.9-2.9,2.9c-15.9,0-31.8,0-47.8,0
		c-2.1,0-2.9-0.8-2.9-2.9c0-21,0-42.1,0-63.1c0-5.9,3.8-10.3,9.5-11.2c0.6-0.1,1.1-0.1,1.7-0.1c16.2,0,32.5,0,48.7,0
		c5.6,0,10,3.5,11.1,8.8c0.2,0.8,0.2,1.6,0.2,2.4c0,9.3,0,18.6,0,27.9c0,1.9-0.9,2.7-2.7,2.7c-4.6,0-9.3,0-13.9,0
		C93.7,78.2,93.4,78.2,93,78.2z M88.4,109.1c0-0.4,0-0.8,0-1.1c0-19.9,0-39.8,0-59.7c0-2.6,0.5-5,2-7.2c0-0.1,0-0.1,0-0.3
		c-0.3,0-0.6,0-0.8,0c-13,0-25.9,0-38.9,0c-4.2,0-6.8,2.6-6.8,6.8c0,20.2,0,40.4,0,60.6c0,0.3,0,0.6,0.1,0.9
		C58.8,109.1,73.5,109.1,88.4,109.1z M106.1,73.6c0-1.4,0-2.8,0-4.1c0-7.2,0-14.5,0-21.7c0-3.9-2.9-6.9-6.7-6.8
		c-3.6,0.1-6.4,3-6.4,6.8c0,8.4,0,16.8,0,25.2c0,0.2,0,0.5,0,0.7C97.4,73.6,101.7,73.6,106.1,73.6z"/>
	<path class="st1" d="M72.4,49.7c0.9-0.9,1.7-1.8,2.6-2.6c1.1-1.1,2.5-1.1,3.4-0.2c0.9,1,0.9,2.3-0.2,3.4c-0.8,0.9-1.7,1.7-2.6,2.6
		c-0.4,0.4-0.4,0.6-0.2,1.1C78.7,61.6,73,70.1,64.6,70c-5.9-0.1-10.8-4.7-11.3-10.5c-0.5-6,3.6-11.3,9.4-12.4c3.3-0.6,6.3,0.1,9,2.1
		C71.9,49.4,72.1,49.5,72.4,49.7z M71.6,56.9c-0.2,0.2-0.4,0.4-0.6,0.5c-1.4,1.4-2.8,2.8-4.2,4.2c-1.1,1.1-2.3,1.1-3.4,0
		c-0.9-0.9-1.8-1.8-2.7-2.7c-0.9-1-0.9-2.3,0-3.2c0.9-0.9,2.3-0.9,3.2,0c0.4,0.4,0.7,0.9,0.9,1.2c1.5-1.5,2.8-2.8,4.1-4.1
		c-2.7-2-6.5-1.8-9,0.6c-2.5,2.4-2.8,6.2-0.9,9c2,2.9,5.8,3.8,8.9,2.2C70.9,63.2,72.5,59.7,71.6,56.9z"/>
	<path class="st1" d="M70.6,83.4c-3.4,0-6.9,0-10.3,0c-0.4,0-0.9,0-1.3-0.1c-0.9-0.3-1.6-1.2-1.6-2.2c0-1,0.7-1.8,1.6-2.1
		c0.3-0.1,0.7-0.1,1-0.1c7.1,0,14.1,0,21.2,0c1.9,0,3.1,1.5,2.4,3.1c-0.4,1.1-1.3,1.4-2.4,1.4c-3,0-6,0-9,0
		C71.8,83.4,71.2,83.4,70.6,83.4z"/>
	<path class="st1" d="M70.7,88c3.5,0,6.9,0,10.4,0c0.4,0,0.9,0,1.3,0.1c0.9,0.3,1.5,1.2,1.5,2.1c0,1-0.7,1.9-1.6,2.1
		c-0.4,0.1-0.8,0.1-1.2,0.1c-6.9,0-13.9,0-20.8,0c-0.4,0-0.8,0-1.1-0.1c-1.1-0.2-1.8-1.2-1.7-2.3c0.1-1.1,0.9-1.9,1.9-2
		c0.7-0.1,1.3,0,2,0C64.5,88,67.6,88,70.7,88z"/>
	<path class="st1" d="M70.7,97.1c3.6,0,7.2,0,10.9,0c1.8,0,2.9,1.8,2,3.3c-0.5,0.9-1.3,1.2-2.3,1.2c-4.5,0-9.1,0-13.6,0
		c-2.6,0-5.2,0-7.8,0c-1.8,0-2.9-1.7-2.2-3.2c0.4-0.9,1.2-1.3,2.2-1.3C63.5,97.1,67.1,97.1,70.7,97.1z"/>
	<path class="st1" d="M48.4,99.3c0-1.3,1-2.2,2.2-2.3c1.3,0,2.3,1,2.3,2.3c0,1.2-1.1,2.2-2.3,2.2C49.5,101.6,48.5,100.6,48.4,99.3z"
		/>
	<path class="st1" d="M48.4,81.2c0-1.2,1-2.3,2.3-2.3c1.2,0,2.3,1.1,2.3,2.3c0,1.2-1,2.2-2.3,2.2C49.4,83.4,48.4,82.4,48.4,81.2z"/>
	<path class="st1" d="M48.4,90.3c0-1.3,1-2.3,2.2-2.3c1.2,0,2.3,1,2.3,2.2c0,1.2-1,2.3-2.2,2.3C49.5,92.5,48.5,91.5,48.4,90.3z"/>
</g>
</svg>
