<?xml version="1.0" encoding="utf-8"?>
<!-- Generator: Adobe Illustrator 22.0.1, SVG Export Plug-In . SVG Version: 6.00 Build 0)  -->
<svg version="1.1" id="Слой_1" xmlns="http://www.w3.org/2000/svg" xmlns:xlink="http://www.w3.org/1999/xlink" x="0px" y="0px"
	 width="150px" height="150px" viewBox="0 0 150 150" style="enable-background:new 0 0 150 150;" xml:space="preserve">
<style type="text/css">
	.st0{fill:#FEE44C;}
	.st1{fill:#FFFFFF;}
</style>
<circle class="st0" cx="75" cy="75" r="75"/>
<path class="st1" d="M33.8,104.7c0-15.7,0-31.4,0-47.1c0,0,0.1-0.1,0.1-0.1c0.5-3.9,3.8-6.8,8.2-6.6c1.7,0.1,3.3,0,5,0
	c0.6,0,1.2-0.2,1.7-0.4c8.4-4.8,16.7-9.8,25.1-14.6c4.7-2.7,9.1-5.9,14.1-7.8c0.7,0,1.3,0,2,0c3.3,0.5,5.2,2.7,6.7,5.5
	c3.1,5.6,6.3,11.1,9.5,16.7c0.3,0.5,0.6,0.7,1.2,0.8c1.3,0.2,2.4,0.8,3.4,1.6c2,1.6,2.8,3.8,2.8,6.3c0,3.5,0,7,0,10.5
	c0,0.5,0.1,0.8,0.6,1.1c2,1,3.1,2.7,3.2,5c0.1,3.9,0.1,7.7,0,11.6c0,2.3-1.2,3.9-3.2,4.9c-0.5,0.2-0.6,0.5-0.6,1c0,3.5,0,7,0,10.5
	c0,1.3-0.2,2.6-0.8,3.8c-1.5,2.9-3.9,4.3-7.2,4.3c-9.2,0-18.3,0-27.5,0c-12.1,0-24.1,0-36.2,0c-2.7,0-4.9-0.9-6.6-3.1
	C34.4,107.3,34,106,33.8,104.7z M109.6,92.5c-0.4,0-0.8,0-1.1,0c-3.8,0-7.6,0.1-11.3-0.1c-6.7-0.4-11.6-7.3-10-13.8
	c1.3-5.3,5.7-8.8,11.2-8.9c3.5,0,6.9,0,10.4,0c0.3,0,0.6,0,0.9,0c0-0.2,0.1-0.3,0.1-0.5c0-3.6,0-7.2,0-10.8c0-2.5-1.6-3.9-4.2-3.9
	c-21.2,0-42.5,0-63.7,0c-0.4,0-0.9,0-1.3,0.1c-1.9,0.5-2.9,2-2.9,4.2c0,13.2,0,26.4,0,39.6c0,1.7,0,3.4,0,5.1c0,1.4,0.4,2.7,1.7,3.4
	c0.8,0.4,1.8,0.7,2.8,0.7c21.1,0,42.1,0,63.2,0c0.3,0,0.7,0,1,0c1.9-0.2,3.4-1.5,3.4-3.4C109.7,100.5,109.6,96.6,109.6,92.5z
	 M104.5,88.7C104.5,88.7,104.5,88.7,104.5,88.7c2.2,0.1,4.3,0.1,6.5,0c1.8,0,2.5-0.7,2.5-2.5c0-3.4,0-6.8,0-10.2
	c0-1.8-0.7-2.5-2.5-2.5c-4.1,0-8.2,0-12.2,0c-0.9,0-1.9,0.2-2.8,0.4c-3.2,0.9-5.7,4.4-5.2,8.4c0.5,3.2,3.4,6.1,6.8,6.3
	C99.9,88.8,102.2,88.7,104.5,88.7z M92.3,33.7C91,31.7,89,31.3,87,32.4c-10.3,6-20.5,11.9-30.8,17.9c-0.1,0.1-0.3,0.2-0.6,0.4
	c2.3,0,4.4,0,6.5,0c0.5,0,1.1-0.2,1.6-0.4C73,45,82.2,39.6,91.5,34.1C91.8,34,92,33.9,92.3,33.7z M70.8,50.6c0,0.1,0,0.1,0.1,0.2
	c2.1,0,4.3,0,6.4,0c0.5,0,1-0.1,1.4-0.4c5.6-3.2,11.2-6.5,16.7-9.7c0.2-0.1,0.4-0.3,0.7-0.4c-0.6-1.1-1.2-2.1-1.9-3.2
	C86.4,41.5,78.6,46.1,70.8,50.6z M97.9,43.6c-4.1,2.4-8.1,4.7-12.3,7.2c5.6,0,10.9,0,16.4,0C100.7,48.3,99.3,46,97.9,43.6z"/>
<path class="st1" d="M99.8,77.9c2.1,0,3.8,1.7,3.8,3.8c0,2.1-1.7,3.8-3.8,3.8c-2.1,0-3.8-1.7-3.8-3.8C96,79.6,97.7,77.9,99.8,77.9z"
	/>
</svg>
