<svg xmlns="http://www.w3.org/2000/svg" viewBox="0 0 512.001 512.001"><path d="M243.865 364.349l-10.982 39.855c-29.157-9.289-55.791-25.501-77.688-47.398-21.897-21.897-38.109-48.53-47.398-77.688l39.855-10.982v-121.14H0v73.826c0 77.777 30.288 150.898 85.284 205.895C140.28 481.713 213.402 512 291.179 512h73.826V364.349h-121.14zm91.139 117.65h-43.825c-69.763 0-135.35-27.167-184.681-76.497-49.329-49.33-76.497-114.917-76.497-184.681v-43.825h87.649v68.285l-46.245 12.744 3.334 14.077c9.479 40.014 29.964 76.64 59.242 105.917 29.277 29.277 65.902 49.762 105.917 59.242l14.077 3.334 12.744-46.245h68.285v87.649z"/><path d="M437.019 74.982C388.667 26.629 324.38.001 256 .001S123.333 26.629 74.981 74.982l21.214 21.213C138.88 53.51 195.634 30.002 256 30.002c60.367 0 117.119 23.508 159.805 66.193S481.998 195.634 481.998 256c0 60.366-23.508 117.119-66.193 159.805l21.214 21.214C485.371 388.667 512.001 324.38 512.001 256s-26.629-132.667-74.982-181.018z"/><path d="M232.352 257.13v-30.05h60.051v-90.052h-90.064v30.001h60.062v30.05H202.35v90.052h90.065V257.13zm150.151-120.114v60.063h-30.049v-60.063h-30.002v90.064h60.051v60.063h30.001V137.016z"/></svg>