<svg xmlns="http://www.w3.org/2000/svg" viewBox="0 0 512 512"><path d="M498.8 377.6L435.2 314c-17.5-17.5-46.1-17.5-63.6 0l-28.9 28.9c-13.3 13.3-34.9 13.3-48.2 0L169 217.4c-13.3-13.3-13.3-34.9 0-48.2l28.9-28.9c17.5-17.5 17.7-45.9 0-63.7l-63.6-63.4c-17.5-17.5-46.1-17.5-63.6 0-13.1 13-17.3 17.2-23.2 23-63.3 63.3-63.3 166.2 0 229.5l198.7 198.8c63.4 63.4 166.1 63.4 229.5 0l23.1-23.1c17.6-17.7 17.6-46.2 0-63.8zM91.8 34.4c5.8-5.8 15.4-5.9 21.2 0l63.6 63.4c5.9 5.9 5.9 15.4 0 21.2L166 129.6 81.3 44.8l10.5-10.4zm175.6 408.8L68.7 244.4c-49-49-51.6-125.8-8.3-178L145 151c-22.2 25.2-21.3 63.6 2.8 87.7l125.4 125.5c24.1 24.1 62.4 25 87.7 2.8l84.6 84.6c-52.1 43.2-128.8 40.9-178.1-8.4zm210.2-23.1L467 430.7l-84.9-84.9 10.6-10.6c5.9-5.8 15.4-5.9 21.2 0l63.6 63.6c6 5.9 6 15.4.1 21.3z" fill="#ff3495"/></svg>