<?xml version="1.0" encoding="utf-8"?>
<!-- Generator: Adobe Illustrator 22.0.1, SVG Export Plug-In . SVG Version: 6.00 Build 0)  -->
<svg version="1.1" id="Слой_1" xmlns="http://www.w3.org/2000/svg" xmlns:xlink="http://www.w3.org/1999/xlink" x="0px" y="0px"
	 width="461.6px" height="363.2px" viewBox="0 0 461.6 363.2" style="enable-background:new 0 0 461.6 363.2;" xml:space="preserve"
	>
<style type="text/css">
	.st0{fill:#F5F5F5;}
	.st1{fill:#FFBF00;}
	.st2{opacity:0.2;enable-background:new    ;}
	.st3{fill:#FCCF4F;}
	.st4{fill:#37474F;}
	.st5{fill:#455A64;}
	.st6{enable-background:new    ;}
	.st7{fill:#B56529;}
	.st8{fill:#FCF3CF;}
	.st9{fill:#F18636;}
	.st10{fill:#E2B629;}
	.st11{fill:#DBDBDB;}
	.st12{fill:#F9F9F9;}
	.st13{fill:#9B7D53;}
	.st14{fill:#C1C1C1;}
	.st15{fill:#ECECEC;}
</style>
<g>
	<g id="freepik--Floor--inject-7">
		<path class="st0" d="M67.6,327.9c90.1,47.1,236.3,47.1,326.4,0s90.1-123.4,0-170.5s-236.3-47.1-326.4,0S-22.5,280.8,67.6,327.9z"
			/>
	</g>
	<g id="freepik--Plants--inject-7">
		<path class="st1" d="M113.8,275.4c-0.7-8.9-2.8-17.6-6.1-25.8c-5.4-13.3-14.7-24.1-26.7-26.6s-16.5,3.7-15.5,10.8
			s11,12.4,17.8,18.4s19.3,20.3,22.8,34.1l6.7,0.7L113.8,275.4z"/>
		<path class="st2" d="M113.8,275.4c-0.7-8.9-2.8-17.6-6.1-25.8c-5.4-13.3-14.7-24.1-26.7-26.6s-16.5,3.7-15.5,10.8
			s11,12.4,17.8,18.4s19.3,20.3,22.8,34.1l6.7,0.7L113.8,275.4z"/>
		<path class="st0" d="M110.4,287L110.4,287c-0.3,0-0.5-0.3-0.5-0.5c1.5-23.7-13.9-50-35.2-59.8c-0.2-0.1-0.4-0.4-0.3-0.6
			c0,0,0,0,0,0c0.1-0.2,0.4-0.4,0.7-0.3c21.6,9.9,37.3,36.6,35.8,60.7C110.9,286.8,110.7,287,110.4,287
			C110.4,287,110.4,287,110.4,287z"/>
		<path class="st3" d="M113.4,328.8c0,0-7,4.4-17.8,2.5s-13.2-9.3-14.1-16.6s-6.3-4-13.6-7s-8.5-10.5-6.9-16.1
			c0.7-2.4,2-4.7,3.7-6.6c0,0-5.2-2.3-9.8-10.1c-2-3.5-3.6-7.2-5-11c0,0,5.9-4.5,17.6-2.1c3.9,0.9,7.6,2.5,10.8,4.9
			c0,0,6.3-7.1,15-4.5c3,0.9,5.3,3.2,6.3,6.1c0.4,1.2,0.9,2.4,1.4,3.5c1,1.4,2.7,2.4,4.4,2.5c4.1,0.6,8-0.1,11.8,2
			c1.8,1.2,3.3,2.8,4.3,4.8C127.3,291.2,113.4,328.8,113.4,328.8z"/>
		<path class="st0" d="M118.2,314.6c-0.2,0-0.3-0.1-0.4-0.2c-17-27.6-43.9-43.5-61.8-48.8c-0.3-0.1-0.4-0.4-0.4-0.6
			c0.1-0.3,0.4-0.4,0.6-0.4c18,5.3,45.2,21.4,62.3,49.2c0.1,0.2,0.1,0.6-0.2,0.7C118.3,314.6,118.2,314.6,118.2,314.6L118.2,314.6z"
			/>
		<path class="st0" d="M73.2,292.9c-0.1,0-0.3-0.1-0.4-0.2c-0.2-0.2-0.2-0.5,0-0.7c0,0,0,0,0,0c0.3-0.3,8.5-7.4,19.5-7.5
			c0.3,0,0.5,0.2,0.5,0.5c0,0,0,0,0,0c0,0.3-0.2,0.5-0.5,0.5c0,0,0,0,0,0c-10.7,0.2-18.8,7.2-18.9,7.3
			C73.4,292.9,73.3,292.9,73.2,292.9z"/>
		<path class="st0" d="M86.1,280.7c-0.3,0-0.5-0.2-0.5-0.5c-0.4-4.4,0.4-8.9,2.2-12.9c0.1-0.2,0.4-0.4,0.7-0.2
			c0.2,0.1,0.4,0.4,0.2,0.7c-1.7,3.9-2.5,8.1-2.1,12.4C86.6,280.4,86.4,280.7,86.1,280.7L86.1,280.7z"/>
		<g>
			<path class="st4" d="M378.3,220.3c0,0-6.2-20.2-3.1-39.4s12.1-34.2,24-40.5c11.9-6.3,26.7,0.7,16.9,14.1s-29.7,31.5-27.8,65.2
				L378.3,220.3z"/>
			<path class="st0" d="M383.2,220.7c-0.3,0-0.5-0.2-0.6-0.5c-6.6-24.4,3-63.6,25.3-77.5c0.3-0.2,0.7-0.1,0.8,0.2
				c0.2,0.3,0.1,0.6-0.2,0.8c-21.9,13.6-31.3,52.1-24.8,76.2c0.1,0.3-0.1,0.7-0.4,0.8L383.2,220.7z"/>
			<path class="st5" d="M394.8,242.3c1.9,1,3.9,1.6,6.1,1.6c2.5,0.2,5-0.2,7.3-1.1c4.1-1.5,7.6-3.9,8.7-8.4
				c0.8-3.5-0.5-7.6,1.1-10.9c1.5-3.3,6.2-5.4,9.3-6.4c2.2-0.7,4.5-1,6.7-1.9c2.3-0.7,4.1-2.3,5.2-4.4c2.1-5.1-3.6-11-1.7-16.2
				c0.9-2.6,3.5-4.2,5.8-5.7c2.3-1.5,4.8-3.2,5.4-5.9c0.4-2.5-0.5-5.1-2.3-6.8c-4.2-4.3-11.1-4.7-16.7-2.6c-1.7,0.8-3.5,1.5-5.3,2
				c-7,1.8-14.5-2.8-21.6-1.1c-4.6,1.2-8.2,4.8-9.3,9.4c-0.3,1.5-0.4,3.1-0.7,4.7c-0.9,3.9-5,4.7-5.9,8.6c-0.9,3.6,0.2,7.3,0.8,10.9
				c0.9,5.4,2,10.8,3.1,16.2c0.6,2.9,1.2,5.8,1.9,8.8c0.6,2.7-0.2,5.6,1,8.1C393.9,241.7,394.3,242,394.8,242.3z"/>
			<path class="st0" d="M392.8,223.2h-0.1c-0.3-0.1-0.6-0.4-0.5-0.7c3-19.7,30.7-43,48.5-45.4c0.3,0,0.6,0.2,0.7,0.5
				c0,0.3-0.2,0.6-0.5,0.7c-17.4,2.4-44.4,25.1-47.4,44.4C393.3,223,393.1,223.2,392.8,223.2z"/>
			<path class="st0" d="M408.6,196.9c-0.3,0-0.6-0.2-0.6-0.6c-1.1-12-5.5-16.7-5.5-16.7c-0.2-0.2-0.2-0.6,0-0.9
				c0.2-0.2,0.6-0.2,0.9,0c0.2,0.2,4.7,5,5.8,17.5C409.2,196.6,409,196.9,408.6,196.9C408.7,197,408.7,197,408.6,196.9L408.6,196.9z
				"/>
			<path class="st0" d="M427.8,206.9c-0.1,0-0.2,0-0.2,0c-0.1,0-13.7-5.7-25.1-2.7c-0.3,0.1-0.6-0.1-0.7-0.5
				c-0.1-0.3,0.1-0.6,0.4-0.7c11.8-3.2,25.3,2.5,25.9,2.7c0.3,0.1,0.5,0.5,0.3,0.8c0,0,0,0,0,0C428.3,206.8,428.1,206.9,427.8,206.9
				z"/>
		</g>
	</g>
	<g>
		<g class="st6">
			<g>
				<polygon class="st7" points="340.8,184.9 314.9,169.9 314.5,25.8 340.4,40.9 				"/>
			</g>
			<g>
				<path class="st8" d="M319.1,157.8l-25.9-15c0.1-0.7,0.2-1.5,0.3-2.4l25.9,15C319.3,156.3,319.2,157.1,319.1,157.8z"/>
			</g>
			<g>
				<polygon class="st8" points="274.5,183.6 248.6,168.6 293.2,142.8 319.1,157.8 				"/>
			</g>
			<g>
				<polygon class="st9" points="288.2,166.3 262.3,151.3 293.2,133.4 319,148.5 				"/>
			</g>
			<g>
				<path class="st8" d="M293.6,138.6c0-0.2,0-0.4,0-0.7c8.6,5,17.2,10,25.9,15c0,0.8,0,1.6-0.1,2.5c-0.3-0.2-0.7-0.4-1-0.6
					c0-0.2,0.1-1,0.1-1.9c0,1-0.1,1.7-0.1,1.9l-24.8-14.4C293.5,139.8,293.5,139.2,293.6,138.6z M318.3,154.8l-1.4-0.8l-1.4-0.8
					l-1.5-0.8l-1.5-0.9l-1.5-0.9l-1.5-0.9l-1.6-0.9l-1.6-0.9l-1.6-0.9l-1.6-0.9l-1.5-0.9l-1.5-0.9l-1.5-0.9l-1.5-0.9l-1.4-0.8
					l-1.4-0.8l1.4,0.8l1.4,0.8l1.5,0.9l1.5,0.9l1.5,0.9l1.5,0.9l1.6,0.9l1.6,0.9l1.6,0.9l1.6,0.9l1.5,0.9l1.5,0.9l1.5,0.9l1.5,0.8
					l1.4,0.8L318.3,154.8L318.3,154.8z"/>
			</g>
			<g>
				<path class="st8" d="M293.6,138c0-0.8,0-1.6-0.1-2.4l25.9,15c0.1,0.8,0.1,1.6,0.1,2.4C310.8,148,302.2,143,293.6,138z"/>
			</g>
			<g>
				<path class="st8" d="M293.2,133.6c0-0.1,0-0.1,0-0.2l25.9,15c0,0.1,0.1,0.3,0.1,0.4c-0.9-0.6-1.8-1.2-2.7-1.8
					c0.9,0.6,1.8,1.2,2.7,1.8c0.1,0.5,0.1,1.1,0.2,1.7l-25.9-15C293.4,134.8,293.3,134.1,293.2,133.6c0.9,0.5,1.8,1,2.7,1.6
					C295,134.7,294.1,134.1,293.2,133.6z M316.3,147l-1.2-0.7l-1.2-0.7l-1.2-0.7l-1.3-0.7l-1.3-0.8l-1.3-0.8l-1.3-0.8l-1.3-0.8
					l-1.3-0.8l-1.3-0.8l-1.3-0.8l-1.3-0.8l-1.3-0.7l-1.2-0.7l-1.2-0.7l-1.2-0.7l1.2,0.7l1.2,0.7l1.2,0.7l1.3,0.7l1.3,0.8l1.3,0.8
					l1.3,0.8l1.3,0.8l1.3,0.8l1.3,0.8l1.3,0.8l1.3,0.8l1.3,0.7l1.2,0.7l1.2,0.7L316.3,147L316.3,147z"/>
			</g>
			<g>
				<path class="st7" d="M255.6,234.1l-25.9-15c10.2-9.6,25.4-20.8,42.6-30.6c17.1-9.9,32.4-16.3,42.6-18.5l25.9,15
					c-10.2,2.2-25.5,8.7-42.6,18.5C281.1,213.3,265.8,224.5,255.6,234.1z"/>
			</g>
			<g>
				<polygon class="st9" points="274.5,183.6 248.6,168.6 248,167.9 273.9,183 				"/>
			</g>
			<g>
				<polygon class="st8" points="288.2,166.3 262.3,151.3 295.4,66.7 321.3,81.7 				"/>
			</g>
			<g>
				<polygon class="st9" points="273.9,183 248,167.9 281,83.4 306.9,98.5 				"/>
			</g>
			<g>
				<polygon class="st8" points="277.8,115.2 252,100.2 281,83.4 306.9,98.5 				"/>
			</g>
			<g>
				<polygon class="st9" points="277.8,105.9 252,90.8 294.7,66.1 320.6,81.2 				"/>
			</g>
			<g>
				<polygon class="st8" points="321.3,81.7 295.4,66.7 294.7,66.1 320.6,81.2 				"/>
			</g>
			<g>
				<polygon class="st10" points="340.4,40.9 314.5,25.8 318.9,23.3 344.8,38.3 				"/>
			</g>
			<g>
				<path class="st9" d="M277.8,115.2l-25.9-15c-0.1-0.6-0.2-1.3-0.3-2.1l25.9,15C277.6,114,277.7,114.6,277.8,115.2z"/>
			</g>
			<g>
				<path class="st9" d="M277.6,113.2l-25.9-15c-0.1-0.8-0.1-1.6-0.1-2.4c0-0.8,0-1.6,0.1-2.5l25.9,15c-0.1,0.9-0.1,1.7-0.1,2.5
					C277.5,111.5,277.5,112.3,277.6,113.2z"/>
			</g>
			<g>
				<path class="st9" d="M277.6,108.3l-25.9-15c0-0.9,0.1-1.7,0.3-2.5l25.9,15C277.7,106.6,277.6,107.4,277.6,108.3z"/>
			</g>
			<g>
				<polygon class="st8" points="255.6,234.1 229.8,219 229.4,75 255.2,90 				"/>
			</g>
			<g>
				<path class="st8" d="M236.7,205.7l-25.9-15c0.9-0.6,1.7-1.2,2.5-1.8l25.9,15C238.4,204.5,237.6,205.1,236.7,205.7z"/>
			</g>
			<g>
				<path class="st8" d="M231.6,208.7l-25.9-15c0.8-0.4,1.6-0.8,2.4-1.3c0.8-0.5,1.7-1.1,2.6-1.6l25.9,15c-0.9,0.6-1.8,1.1-2.6,1.6
					C233.2,207.8,232.4,208.2,231.6,208.7z"/>
			</g>
			<g>
				<path class="st8" d="M229.2,209.7l-25.9-15c0.7-0.3,1.5-0.6,2.3-1l25.9,15C230.8,209.1,230,209.4,229.2,209.7z"/>
			</g>
			<g>
				<polygon class="st8" points="239.1,204 213.3,188.9 191.7,125.6 217.6,140.6 				"/>
			</g>
			<g>
				<polygon class="st9" points="229.2,209.7 203.4,194.7 198.8,179.8 224.6,194.9 				"/>
			</g>
			<g>
				<path class="st7" d="M187.2,237.6c17.1-9.9,32.4-16.3,42.6-18.5l25.9,15c-10.2,2.2-25.5,8.7-42.6,18.5
					c-17.1,9.9-32.4,21.1-42.6,30.6c-4.3-2.5-8.6-5-12.9-7.5c-0.4-0.2-0.9-0.5-1.3-0.7c-1.3-0.7-2.5-1.5-3.8-2.2
					c-0.7-0.4-1.7-1-2.5-1.4c-0.4-0.2-0.8-0.5-1.2-0.7c-0.4-0.2-0.8-0.7-1.2-0.7l-3-1.8C154.8,258.6,170.1,247.4,187.2,237.6z"/>
			</g>
			<g>
				<path class="st11" d="M297.8,59.4l-25.9-15c17.1-9.9,32.4-16.4,42.6-18.5l25.8,15C330.2,43,314.9,49.5,297.8,59.4z"/>
			</g>
			<g>
				<path class="st8" d="M192.8,231.1l-25.9-15c0.8-0.5,1.6-1.1,2.4-1.7l25.9,15C194.4,230,193.6,230.5,192.8,231.1z"/>
			</g>
			<g>
				<path class="st8" d="M187.9,233.9l-25.9-15c0.8-0.4,1.7-0.9,2.5-1.3c0.8-0.5,1.6-1,2.4-1.5l25.9,15c-0.8,0.5-1.6,1-2.4,1.5
					C189.5,233,188.7,233.5,187.9,233.9z"/>
			</g>
			<g>
				<polygon class="st8" points="199.6,209.3 173.8,194.3 198.8,179.8 224.6,194.9 				"/>
			</g>
			<g>
				<polygon class="st8" points="195.2,229.4 169.3,214.3 173.8,194.3 199.6,209.3 				"/>
			</g>
			<g>
				<polygon class="st9" points="202,198.5 176.2,183.5 196.3,171.9 222.1,186.9 				"/>
			</g>
			<g>
				<polygon class="st9" points="222.1,186.9 196.3,171.9 186.1,139.1 211.9,154.1 				"/>
			</g>
			<g>
				<polygon class="st8" points="202,198.5 176.2,183.5 186.1,139.1 211.9,154.1 				"/>
			</g>
			<g>
				<polygon class="st9" points="185.6,234.9 159.8,219.8 181,131.8 206.8,146.8 				"/>
			</g>
			<g>
				<path class="st8" d="M185.6,234.9l-25.8-15c0.7-0.3,1.4-0.6,2.2-1l25.9,15C187.1,234.3,186.3,234.6,185.6,234.9z"/>
			</g>
			<g>
				<path class="st11" d="M255.2,90l-25.9-15c10.2-9.6,25.4-20.8,42.6-30.6l25.9,15C280.7,69.3,265.4,80.4,255.2,90z"/>
			</g>
			<g>
				<path class="st12" d="M297.8,59.4c17.1-9.9,32.4-16.4,42.6-18.5l0.4,144c-10.2,2.2-25.5,8.7-42.6,18.5
					c-17.1,9.9-32.4,21.1-42.6,30.6l-0.4-144C265.4,80.4,280.7,69.3,297.8,59.4z"/>
			</g>
			<g>
				<polygon class="st12" points="202,198.5 211.9,154.1 222.1,186.9 				"/>
			</g>
			<g>
				<path class="st5" d="M217.6,140.6l21.6,63.3c-0.8,0.6-1.6,1.1-2.5,1.8c-0.9,0.6-1.8,1.1-2.6,1.6c-0.8,0.5-1.6,0.9-2.4,1.3
					c-0.8,0.4-1.6,0.7-2.3,1l-4.6-14.8l-25,14.4l-4.4,20.1c-0.8,0.6-1.6,1.2-2.4,1.7c-0.8,0.5-1.6,1-2.4,1.5
					c-0.8,0.5-1.7,0.9-2.5,1.3c-0.8,0.4-1.6,0.7-2.3,1l21.2-88c0.8-0.6,1.7-1.2,2.6-1.8c0.9-0.6,1.9-1.2,2.8-1.7
					c0.9-0.5,1.8-1,2.7-1.4C215.8,141.4,216.7,141,217.6,140.6z M202,198.5l20.1-11.6l-10.2-32.8L202,198.5L202,198.5z"/>
			</g>
			<g>
				<path class="st9" d="M206.8,146.8l-25.9-15c0.8-0.6,1.7-1.2,2.6-1.8c0.9-0.6,1.9-1.2,2.8-1.7c0.9-0.5,1.8-1,2.7-1.4
					c0.9-0.4,1.8-0.9,2.6-1.2l25.9,15c-0.8,0.3-1.7,0.8-2.6,1.2c-0.9,0.4-1.8,0.9-2.7,1.4c-1,0.6-1.9,1.1-2.8,1.7
					C208.5,145.6,207.6,146.2,206.8,146.8z"/>
			</g>
			<g>
				<path class="st11" d="M212.6,108.6l-25.9-15c17.1-9.9,32.4-16.4,42.6-18.5l25.9,15C245,92.2,229.7,98.7,212.6,108.6z"/>
			</g>
			<g>
				<path class="st11" d="M170,139.2l-25.9-15c10.2-9.6,25.5-20.8,42.6-30.6l25.9,15C195.5,118.4,180.2,129.6,170,139.2z"/>
			</g>
			<g>
				<path class="st12" d="M212.6,108.6c17.1-9.9,32.4-16.4,42.6-18.5l0.4,144c-10.2,2.2-25.5,8.7-42.6,18.5
					c-17.1,9.9-32.4,21.1-42.6,30.6l-0.4-144C180.2,129.6,195.5,118.4,212.6,108.6z M236.7,205.7c0.9-0.6,1.7-1.2,2.5-1.8
					l-21.6-63.3c-0.8,0.3-1.7,0.8-2.6,1.2c-0.9,0.4-1.8,0.9-2.7,1.4c-1,0.6-1.9,1.1-2.8,1.7c-0.9,0.6-1.8,1.2-2.6,1.8l-21.2,88
					c0.7-0.3,1.4-0.6,2.3-1c0.8-0.4,1.7-0.9,2.5-1.3c0.8-0.5,1.6-1,2.4-1.5c0.8-0.5,1.6-1.1,2.4-1.7l4.4-20.1l25-14.4l4.6,14.8
					c0.7-0.3,1.5-0.6,2.3-1c0.8-0.4,1.6-0.8,2.4-1.3C234.9,206.9,235.8,206.3,236.7,205.7L236.7,205.7z"/>
			</g>
			<g>
				<path class="st3" d="M344.8,38.3l0.4,152.3L166.1,294l-0.4-152.3l4.4-2.5l0.4,144c10.2-9.6,25.5-20.8,42.6-30.6
					c17.1-9.9,32.4-16.3,42.6-18.5c10.2-9.6,25.4-20.8,42.6-30.6c17.1-9.9,32.4-16.3,42.6-18.5l-0.4-144L344.8,38.3z"/>
			</g>
			<g>
				<polygon class="st13" points="165.6,141.7 139.8,126.7 144.2,124.2 170,139.2 				"/>
			</g>
			<g>
				<polygon class="st14" points="170.5,283.2 144.6,268.2 144.2,124.2 170,139.2 				"/>
			</g>
			<g>
				<polygon class="st10" points="166.1,294 140.2,279 139.8,126.7 165.6,141.7 				"/>
			</g>
		</g>
	</g>
</g>
<path class="st4" d="M274.1,182.6c1-2.5,2-5.3,2.8-8.2c3-10,4.9-21.1,10.6-30.2c1.7-2.6,3.7-5,5.8-6.8l0-0.3
	c-8.6,3.1-15.7,0.3-15.7-9.8c0-6.5,2.5-13.1,6.6-18.5c4.4-5.9,11.3-11.3,20-15.4c5.7-2.7,11.6-5,15.8-6.1l-0.7,68.8l-8.2,4.8
	l0.2-30.1l-6.3,3.4c-4.2,2.3-7.3,4.9-9.7,8.8c-4.7,7.6-6.6,19.2-9.1,27.3c-0.7,2.2-1.2,4-2.3,6.5L274.1,182.6z M311.5,97.9
	c-1.5,0.4-4.3,1.2-8.2,3.2c-8.8,4.3-16.4,11.7-16.4,21.9c0,8.8,7.5,10,17.1,4.9c2.9-1.5,5.6-3,7.3-4L311.5,97.9z"/>
<path id="Cloud_2_" class="st15" d="M203.9,39.4L192.4,46c0.1-0.5,0.1-1,0.1-1.5v-3.3c0-5.9-4.1-8.3-9.3-5.3c-2.1,1.2-4,3.1-5.5,5.3
	c-0.8-7.4-6.7-10.2-13.7-6.1c-7.7,4.4-13.9,15.2-13.9,24v5c0,2.3,0.4,4.2,1.2,5.8l-9.5,5.5c-2.8,1.6-5.1,5.6-5.1,8.9
	c0,3.3,2.3,4.6,5.1,3l62.1-35.8c2.8-1.6,5.1-5.6,5.1-8.9C209,39.1,206.7,37.8,203.9,39.4z"/>
<path id="Cloud_1_" class="st15" d="M52.9,69.2l6.5-5V50c0-11.3,9-24.4,18.8-30l0,0c9.8-5.6,17.7-1.1,17.7,10.2v2.1
	c2.2-3.4,5.1-6.4,8.2-8.2l0,0c7-4.1,12.7-0.8,12.7,7.3v0.9l9-5.2c4.6-2.7,8.4-0.5,8.4,4.8s-3.8,11.8-8.4,14.5l-72.8,42
	c-4.6,2.7-8.4,0.5-8.4-4.8C44.6,78.3,48.3,71.8,52.9,69.2z"/>
</svg>
