<svg xmlns="http://www.w3.org/2000/svg" viewBox="0 0 512 512"><path d="M256.8 16.8c-128.1 0-232 103.9-231.9 232 0 44.4 12.7 87.8 36.7 125.1l-36.1 93.6c-1.9 5 .6 10.6 5.5 12.5 1.1.4 2.3.6 3.5.6 1.1 0 2.2-.2 3.2-.6l96.7-34.5C243.2 513.2 386.2 480 454 371.2s34.5-251.8-74.3-319.6c-36.9-22.7-79.5-34.8-122.9-34.8z" fill="#4caf50"/><path d="M367.5 288.5s-23.7-11.6-38.5-19.3c-16.8-8.6-36.5 7.5-45.8 16.7-14.4-5.5-27.6-13.9-38.8-24.6-10.7-11.2-19.1-24.4-24.6-38.8 9.2-9.3 25.3-29 16.7-45.8-7.6-14.8-19.3-38.5-19.3-38.5-1.6-3.3-5-5.3-8.6-5.3h-19.3c-28.2 4.9-48.6 29.4-48.3 58 0 30.4 36.3 88.7 60.8 113.2s82.8 60.8 113.2 60.8c28.6.3 53.1-20.2 58-48.3v-19.3c-.1-3.8-2.2-7.2-5.5-8.8z" fill="#fafafa"/></svg>