<svg version="1.1" id="Layer_1" xmlns="http://www.w3.org/2000/svg" x="0" y="0" viewBox="0 0 418.1 418.1" xml:space="preserve"><style>.st0{fill:#7ad06d}</style><path class="st0" d="M198.9.2C88.5 5.5 1.4 97.5 1.7 208c.1 33.7 8.2 65.5 22.6 93.5l-22 106.9c-1.2 5.8 4 10.8 9.8 9.5l104.7-24.8c26.9 13.4 57.1 21.1 89.1 21.6 112.9 1.7 207-87.9 210.5-200.7C420.1 93.1 320.3-5.5 198.9.2zm125 322c-30.7 30.7-71.4 47.6-114.8 47.6-25.4 0-49.7-5.7-72.3-16.9l-14.6-7.3L58 360.8l13.5-65.6-7.2-14.1c-11.7-22.9-17.6-47.7-17.6-73.7 0-43.4 16.9-84.1 47.6-114.8C124.6 62.2 166.1 45 209.1 45c43.4 0 84.1 16.9 114.8 47.6 30.7 30.7 47.6 71.4 47.6 114.8-.1 43-17.2 84.4-47.6 114.8z"/><path class="st0" d="M309.7 252.4l-40.2-11.5c-5.3-1.5-11 0-14.8 3.9l-9.8 10c-4.1 4.2-10.4 5.6-15.9 3.4-19-7.7-59-43.2-69.2-61-2.9-5.1-2.5-11.5 1.2-16.2l8.6-11.1c3.4-4.3 4.1-10.2 1.8-15.2l-16.9-38.2c-4-9.2-15.7-11.8-23.4-5.4-11.2 9.5-24.5 23.9-26.1 39.9-2.9 28.1 9.2 63.6 54.9 106.2 52.7 49.2 95 55.7 122.4 49.1 15.6-3.8 28.1-18.9 35.9-31.3 5.4-8.7 1.1-19.9-8.5-22.6z"/></svg>