<svg version="1.1" id="Capa_1" xmlns="http://www.w3.org/2000/svg" x="0" y="0" viewBox="0 0 26.4 27.3" xml:space="preserve"><style>.st1{fill:#fff}</style><path d="M14.3 0h-2.1C5.5 0 0 5.5 0 12.2s5.5 12.2 12.2 12.2h2.1c1.1 0 2.1-.1 3.1-.4l3.1 3.1c.2.2.4.2.6.2.1 0 .2 0 .3-.1.3-.1.5-.4.5-.8v-4.9c1.3-1.1 2.4-2.4 3.2-4 .9-1.7 1.3-3.6 1.3-5.5.1-6.5-5.4-12-12.1-12z" fill="#ff3495"/><path class="st1" d="M13.2 15c-.5 0-1.1-.4-1.1-1v-2c0-1 .7-1.6 1.5-1.8.9-.3 1.4-1 1.4-1.8s-.8-1.4-1.5-1.5c-.5 0-.9.1-1.2.4-.3.3-.5.8-.5 1.2 0 .5-.5 1.1-1 1.1s-1.1-.4-1.1-1.1c0-1 .4-2 1.2-2.8.9-.7 1.7-1 2.6-1h.3c1.9.1 3.4 1.6 3.5 3.5.1 1.9-1.1 3.4-3 3.8v1.8c0 .6-.4 1.2-1.1 1.2z"/><path class="st1" d="M13.4 5h.3c1.8.1 3.2 1.5 3.3 3.3.1 1.7-1 3.3-3 3.6v2c0 .4-.3.8-.8.8-.4 0-.8-.3-.8-.8v-2c0-.8.6-1.4 1.3-1.6 1-.2 1.6-1.1 1.5-2 0-.9-.8-1.6-1.7-1.7-.5 0-1 .1-1.4.5-.4.4-.6.9-.6 1.4 0 .4-.4.8-.8.8s-.8-.3-.8-.8c0-1 .4-1.9 1.1-2.6.7-.5 1.5-.9 2.4-.9m0-.5c-.9 0-1.8.3-2.7 1-.8.8-1.2 1.8-1.2 3 0 .8.7 1.3 1.3 1.3.7 0 1.3-.6 1.3-1.3 0-.4.2-.8.5-1 .2-.2.6-.3 1-.4.6.1 1.2.5 1.2 1.2.1.7-.4 1.3-1.1 1.5-1 .3-1.7 1.1-1.7 2.1v2c0 .8.7 1.3 1.3 1.3.8 0 1.3-.7 1.3-1.3v-1.6c1.9-.5 3.1-2.1 3-4-.1-2.1-1.7-3.7-3.8-3.8h-.4z"/><circle class="st1" cx="13.3" cy="18.6" r="1.5"/></svg>