<svg version="1.1" id="Capa_1" xmlns="http://www.w3.org/2000/svg" x="0" y="0" viewBox="0 0 26.4 27.3" xml:space="preserve"><style>.st0{fill:#686e86}</style><path class="st0" d="M14.3 0h-2.1C5.5 0 0 5.5 0 12.2s5.5 12.2 12.2 12.2h2.1c1.1 0 2.1-.1 3.1-.4l3.1 3.1c.2.2.4.2.6.2.1 0 .2 0 .3-.1.3-.1.5-.4.5-.8v-4.9c1.3-1.1 2.4-2.4 3.2-4 .9-1.7 1.3-3.6 1.3-5.5.1-6.5-5.4-12-12.1-12zm6.3 20.6c-.2.2-.3.4-.3.7v3.2l-2.1-2.1c-.2-.2-.4-.2-.6-.2h-.2c-1 .3-2 .5-3.1.5h-2.1C6.4 22.7 1.7 18 1.7 12.2S6.4 1.7 12.2 1.7h2.1c5.8 0 10.5 4.7 10.5 10.5 0 3.3-1.5 6.4-4.2 8.4z"/><path class="st0" d="M17 9.2c-.1-1.8-1.5-3.2-3.3-3.3-1-.1-1.9.3-2.7.9-.7.7-1.1 1.6-1.1 2.6 0 .5.4.8.8.8s.8-.4.8-.8c0-.5.2-1 .6-1.4s.9-.5 1.4-.5c.9.1 1.7.8 1.7 1.7.1.9-.5 1.8-1.5 2-.7.2-1.3.8-1.3 1.6v2c0 .5.4.8.8.8.5 0 .8-.4.8-.8v-2c2-.3 3.1-1.9 3-3.6zM12.5 17h2v2h-2z"/></svg>